%TF.GenerationSoftware,KiCad,Pcbnew,8.0.2-1*%
%TF.CreationDate,2024-08-02T00:18:05+02:00*%
%TF.ProjectId,touch-id-ribbon,746f7563-682d-4696-942d-726962626f6e,rev?*%
%TF.SameCoordinates,Original*%
%TF.FileFunction,Copper,L2,Bot*%
%TF.FilePolarity,Positive*%
%FSLAX46Y46*%
G04 Gerber Fmt 4.6, Leading zero omitted, Abs format (unit mm)*
G04 Created by KiCad (PCBNEW 8.0.2-1) date 2024-08-02 00:18:05*
%MOMM*%
%LPD*%
G01*
G04 APERTURE LIST*
%TA.AperFunction,SMDPad,CuDef*%
%ADD10R,0.485000X0.180000*%
%TD*%
%TA.AperFunction,SMDPad,CuDef*%
%ADD11R,0.535000X0.230000*%
%TD*%
%TA.AperFunction,ViaPad*%
%ADD12C,0.406400*%
%TD*%
%TA.AperFunction,ViaPad*%
%ADD13C,0.457200*%
%TD*%
%TA.AperFunction,ViaPad*%
%ADD14C,0.610000*%
%TD*%
%TA.AperFunction,Conductor*%
%ADD15C,0.127000*%
%TD*%
%TA.AperFunction,Conductor*%
%ADD16C,0.203200*%
%TD*%
G04 APERTURE END LIST*
D10*
%TO.P,J2,1,1*%
%TO.N,Net-(J1-Pad1)*%
X161182000Y-106224153D03*
%TO.P,J2,2,2*%
%TO.N,GND*%
X159367000Y-106224153D03*
%TO.P,J2,3,3*%
%TO.N,Net-(J1-Pad3)*%
X161182000Y-106574153D03*
%TO.P,J2,4,4*%
%TO.N,Net-(J1-Pad4)*%
X159367000Y-106574153D03*
%TO.P,J2,5,5*%
%TO.N,Net-(J1-Pad5)*%
X161182000Y-106924153D03*
%TO.P,J2,6,6*%
%TO.N,Net-(J1-Pad6)*%
X159367000Y-106924153D03*
%TO.P,J2,7,7*%
%TO.N,Net-(J1-Pad7)*%
X161182000Y-107274153D03*
%TO.P,J2,8,8*%
%TO.N,Net-(J1-Pad8)*%
X159367000Y-107274153D03*
%TO.P,J2,9,9*%
%TO.N,Net-(J1-Pad9)*%
X161182000Y-107624153D03*
%TO.P,J2,10,10*%
%TO.N,Net-(J1-Pad10)*%
X159367000Y-107624153D03*
%TO.P,J2,11,11*%
%TO.N,Net-(J1-Pad11)*%
X161182000Y-107974153D03*
%TO.P,J2,12,12*%
%TO.N,Net-(J1-Pad12)*%
X159367000Y-107974153D03*
D11*
%TO.P,J2,MP1,MP1*%
%TO.N,GND*%
X161042000Y-105849153D03*
%TO.P,J2,MP2,MP2*%
X159506000Y-105849153D03*
%TO.P,J2,MP3,MP3*%
%TO.N,VCC*%
X161042000Y-108349153D03*
%TO.P,J2,MP4,MP4*%
X159506000Y-108349153D03*
%TD*%
D12*
%TO.N,Net-(J1-Pad5)*%
X162560000Y-106804350D03*
X140716000Y-106275556D03*
X133604000Y-106804350D03*
%TO.N,Net-(J1-Pad7)*%
X133604000Y-107393153D03*
X162560000Y-107393153D03*
X140716000Y-107113756D03*
%TO.N,Net-(J1-Pad3)*%
X133604000Y-106245547D03*
X140716000Y-105437356D03*
X162560000Y-106245547D03*
%TO.N,Net-(J1-Pad1)*%
X133604000Y-105686744D03*
X162560000Y-105686744D03*
D13*
X140712696Y-104448451D03*
D12*
%TO.N,Net-(J1-Pad4)*%
X141453750Y-105856456D03*
%TO.N,Net-(J1-Pad8)*%
X141453750Y-107532856D03*
%TO.N,Net-(J1-Pad11)*%
X162560000Y-108510759D03*
X140716000Y-108840881D03*
X133604000Y-108510759D03*
%TO.N,Net-(J1-Pad9)*%
X162560000Y-107951956D03*
X140716000Y-107951956D03*
X133604000Y-107951956D03*
%TO.N,Net-(J1-Pad6)*%
X141453750Y-106694656D03*
%TO.N,Net-(J1-Pad10)*%
X141453750Y-108421781D03*
%TO.N,Net-(J1-Pad12)*%
X141453750Y-109259981D03*
D14*
%TO.N,VCC*%
X145542000Y-109512153D03*
%TO.N,GND*%
X137922000Y-105321153D03*
%TD*%
D15*
%TO.N,Net-(J1-Pad5)*%
X162101203Y-106804350D02*
X161981400Y-106924153D01*
X140716000Y-106275556D02*
X139507597Y-106275556D01*
X139507597Y-106275556D02*
X138978803Y-106804350D01*
X162560000Y-106804350D02*
X162101203Y-106804350D01*
X161981400Y-106924153D02*
X161182000Y-106924153D01*
X138978803Y-106804350D02*
X133604000Y-106804350D01*
%TO.N,Net-(J1-Pad7)*%
X140716000Y-107113756D02*
X139924794Y-107113756D01*
X161182000Y-107274153D02*
X161933000Y-107274153D01*
X139924794Y-107113756D02*
X139685397Y-107353153D01*
X139685397Y-107353153D02*
X133644000Y-107353153D01*
X133604164Y-107393317D02*
X133604000Y-107393153D01*
X161933000Y-107274153D02*
X162052000Y-107393153D01*
X133644000Y-107353153D02*
X133604000Y-107393153D01*
X140708295Y-107106051D02*
X140716000Y-107113756D01*
X162052000Y-107393153D02*
X162560000Y-107393153D01*
%TO.N,Net-(J1-Pad3)*%
X162068416Y-106245547D02*
X162560000Y-106245547D01*
X138267606Y-106245547D02*
X133604000Y-106245547D01*
X139075797Y-105437356D02*
X140716000Y-105437356D01*
X161182000Y-106574153D02*
X161739810Y-106574153D01*
X138267606Y-106245547D02*
X139075797Y-105437356D01*
X161739810Y-106574153D02*
X162068416Y-106245547D01*
%TO.N,Net-(J1-Pad1)*%
X161530000Y-106224153D02*
X161182000Y-106224153D01*
X162560000Y-105686744D02*
X162067409Y-105686744D01*
X162067409Y-105686744D02*
X161530000Y-106224153D01*
X134842293Y-104448451D02*
X133604000Y-105686744D01*
X140712696Y-104448451D02*
X134842293Y-104448451D01*
%TO.N,Net-(J1-Pad4)*%
X159004000Y-106574153D02*
X159367000Y-106574153D01*
X147736000Y-104756309D02*
X147736000Y-105092309D01*
X151096000Y-104756309D02*
X151096000Y-105092309D01*
X150144000Y-104644309D02*
X150088000Y-104644309D01*
X151936000Y-105092309D02*
X151936000Y-104756309D01*
X146896000Y-105092309D02*
X146896000Y-104756309D01*
X154064000Y-104644309D02*
X154008000Y-104644309D01*
X143536000Y-105092309D02*
X143536000Y-104756309D01*
X152496000Y-105092309D02*
X152496000Y-104756309D01*
X143144000Y-105204309D02*
X142105897Y-105204309D01*
X151264000Y-104644309D02*
X151208000Y-104644309D01*
X152104000Y-105204309D02*
X152048000Y-105204309D01*
X154176000Y-105092309D02*
X154176000Y-104756309D01*
X146504000Y-105204309D02*
X146448000Y-105204309D01*
X148296000Y-104756309D02*
X148296000Y-105092309D01*
X152384000Y-104644309D02*
X152328000Y-104644309D01*
X145776000Y-105092309D02*
X145776000Y-104756309D01*
X143816000Y-104756309D02*
X143816000Y-105092309D01*
X153224000Y-105204309D02*
X153168000Y-105204309D01*
X144544000Y-104644309D02*
X144488000Y-104644309D01*
X148856000Y-104756309D02*
X148856000Y-105092309D01*
X145944000Y-105204309D02*
X145888000Y-105204309D01*
X143256000Y-104756309D02*
X143256000Y-105092309D01*
X142105897Y-105204309D02*
X141453750Y-105856456D01*
X146616000Y-104756309D02*
X146616000Y-105092309D01*
X149416000Y-104756309D02*
X149416000Y-105092309D01*
X152216000Y-104756309D02*
X152216000Y-105092309D01*
X155538000Y-104924309D02*
X155258000Y-105204309D01*
X153504000Y-104644309D02*
X153448000Y-104644309D01*
X145664000Y-104644309D02*
X145608000Y-104644309D01*
X147904000Y-104644309D02*
X147848000Y-104644309D01*
X149024000Y-104644309D02*
X148968000Y-104644309D01*
X145384000Y-105204309D02*
X145328000Y-105204309D01*
X154456000Y-104756309D02*
X154456000Y-105092309D01*
X146056000Y-104756309D02*
X146056000Y-105092309D01*
X144264000Y-105204309D02*
X144208000Y-105204309D01*
X150256000Y-105092309D02*
X150256000Y-104756309D01*
X155258000Y-105204309D02*
X154848000Y-105204309D01*
X148576000Y-105092309D02*
X148576000Y-104756309D01*
X154736819Y-104757152D02*
X154736819Y-104813152D01*
X146336000Y-105092309D02*
X146336000Y-104756309D01*
X154344000Y-105204309D02*
X154288000Y-105204309D01*
X147064000Y-105204309D02*
X147008000Y-105204309D01*
X148016000Y-105092309D02*
X148016000Y-104756309D01*
X141453750Y-105856456D02*
X141456526Y-105856456D01*
X149136000Y-105092309D02*
X149136000Y-104756309D01*
X151656000Y-104756309D02*
X151656000Y-105092309D01*
X147624000Y-105204309D02*
X147568000Y-105204309D01*
X145216000Y-105092309D02*
X145216000Y-104756309D01*
X153616000Y-105092309D02*
X153616000Y-104756309D01*
X151544000Y-105204309D02*
X151488000Y-105204309D01*
X149584000Y-104644309D02*
X149528000Y-104644309D01*
X143424000Y-104644309D02*
X143368000Y-104644309D01*
X145104000Y-104644309D02*
X145048000Y-104644309D01*
X144824000Y-105204309D02*
X144768000Y-105204309D01*
X154736000Y-105092309D02*
X154736000Y-104756309D01*
X153784000Y-105204309D02*
X153728000Y-105204309D01*
X144656000Y-105092309D02*
X144656000Y-104756309D01*
X153056000Y-105092309D02*
X153056000Y-104756309D01*
X143984000Y-104644309D02*
X143928000Y-104644309D01*
X143704000Y-105204309D02*
X143648000Y-105204309D01*
X147344000Y-104644309D02*
X147288000Y-104644309D01*
X149696000Y-105092309D02*
X149696000Y-104756309D01*
X148464000Y-104644309D02*
X148408000Y-104644309D01*
X144096000Y-105092309D02*
X144096000Y-104756309D01*
X150816000Y-105092309D02*
X150816000Y-104756309D01*
X149864000Y-105204309D02*
X149808000Y-105204309D01*
X158733000Y-106574153D02*
X157083156Y-104924309D01*
X153336000Y-104756309D02*
X153336000Y-105092309D01*
X146224000Y-104644309D02*
X146168000Y-104644309D01*
X157083156Y-104924309D02*
X155538000Y-104924309D01*
X144936000Y-104756309D02*
X144936000Y-105092309D01*
X151376000Y-105092309D02*
X151376000Y-104756309D01*
X150536000Y-104756309D02*
X150536000Y-105092309D01*
X149304000Y-105204309D02*
X149248000Y-105204309D01*
X147176000Y-104756309D02*
X147176000Y-105092309D01*
X149976000Y-104756309D02*
X149976000Y-105092309D01*
X154624000Y-104644309D02*
X154568000Y-104644309D01*
X146784000Y-104644309D02*
X146728000Y-104644309D01*
X158015303Y-105856456D02*
X158733000Y-106574153D01*
X145496000Y-104756309D02*
X145496000Y-105092309D01*
X148184000Y-105204309D02*
X148128000Y-105204309D01*
X152664000Y-105204309D02*
X152608000Y-105204309D01*
X151824000Y-104644309D02*
X151768000Y-104644309D01*
X152776000Y-104756309D02*
X152776000Y-105092309D01*
X147456000Y-105092309D02*
X147456000Y-104756309D01*
X150704000Y-104644309D02*
X150648000Y-104644309D01*
X152944000Y-104644309D02*
X152888000Y-104644309D01*
X158733000Y-106574153D02*
X159004000Y-106574153D01*
X150984000Y-105204309D02*
X150928000Y-105204309D01*
X153896000Y-104756309D02*
X153896000Y-105092309D01*
X150424000Y-105204309D02*
X150368000Y-105204309D01*
X148744000Y-105204309D02*
X148688000Y-105204309D01*
X144376000Y-104756309D02*
X144376000Y-105092309D01*
X151768000Y-104644309D02*
G75*
G03*
X151656009Y-104756309I0J-111991D01*
G01*
X145048000Y-104644309D02*
G75*
G03*
X144936009Y-104756309I0J-111991D01*
G01*
X149528000Y-104644309D02*
G75*
G03*
X149416009Y-104756309I0J-111991D01*
G01*
X149696000Y-104756309D02*
G75*
G03*
X149584000Y-104644300I-112000J9D01*
G01*
X145216000Y-104756309D02*
G75*
G03*
X145104000Y-104644300I-112000J9D01*
G01*
X154008000Y-104644309D02*
G75*
G03*
X153896009Y-104756309I0J-111991D01*
G01*
X143928000Y-104644309D02*
G75*
G03*
X143816009Y-104756309I0J-111991D01*
G01*
X145888000Y-105204309D02*
G75*
G02*
X145775991Y-105092309I0J112009D01*
G01*
X150928000Y-105204309D02*
G75*
G02*
X150815991Y-105092309I0J112009D01*
G01*
X144768000Y-105204309D02*
G75*
G02*
X144655991Y-105092309I0J112009D01*
G01*
X145608000Y-104644309D02*
G75*
G03*
X145496009Y-104756309I0J-111991D01*
G01*
X149976000Y-105092309D02*
G75*
G02*
X149864000Y-105204300I-112000J9D01*
G01*
X150536000Y-105092309D02*
G75*
G02*
X150424000Y-105204300I-112000J9D01*
G01*
X148296000Y-105092309D02*
G75*
G02*
X148184000Y-105204300I-112000J9D01*
G01*
X149248000Y-105204309D02*
G75*
G02*
X149135991Y-105092309I0J112009D01*
G01*
X147176000Y-105092309D02*
G75*
G02*
X147064000Y-105204300I-112000J9D01*
G01*
X147288000Y-104644309D02*
G75*
G03*
X147176009Y-104756309I0J-111991D01*
G01*
X154176000Y-104756309D02*
G75*
G03*
X154064000Y-104644300I-112000J9D01*
G01*
X149416000Y-105092309D02*
G75*
G02*
X149304000Y-105204300I-112000J9D01*
G01*
X153448000Y-104644309D02*
G75*
G03*
X153336009Y-104756309I0J-111991D01*
G01*
X153896000Y-105092309D02*
G75*
G02*
X153784000Y-105204300I-112000J9D01*
G01*
X153728000Y-105204309D02*
G75*
G02*
X153615991Y-105092309I0J112009D01*
G01*
X152608000Y-105204309D02*
G75*
G02*
X152495991Y-105092309I0J112009D01*
G01*
X152776000Y-105092309D02*
G75*
G02*
X152664000Y-105204300I-112000J9D01*
G01*
X148856000Y-105092309D02*
G75*
G02*
X148744000Y-105204300I-112000J9D01*
G01*
X148688000Y-105204309D02*
G75*
G02*
X148575991Y-105092309I0J112009D01*
G01*
X146448000Y-105204309D02*
G75*
G02*
X146335991Y-105092309I0J112009D01*
G01*
X144656000Y-104756309D02*
G75*
G03*
X144544000Y-104644300I-112000J9D01*
G01*
X154456000Y-105092309D02*
G75*
G02*
X154344000Y-105204300I-112000J9D01*
G01*
X146616000Y-105092309D02*
G75*
G02*
X146504000Y-105204300I-112000J9D01*
G01*
X144376000Y-105092309D02*
G75*
G02*
X144264000Y-105204300I-112000J9D01*
G01*
X144488000Y-104644309D02*
G75*
G03*
X144376009Y-104756309I0J-111991D01*
G01*
X152216000Y-105092309D02*
G75*
G02*
X152104000Y-105204300I-112000J9D01*
G01*
X153616000Y-104756309D02*
G75*
G03*
X153504000Y-104644300I-112000J9D01*
G01*
X151656000Y-105092309D02*
G75*
G02*
X151544000Y-105204300I-112000J9D01*
G01*
X143536000Y-104756309D02*
G75*
G03*
X143424000Y-104644300I-112000J9D01*
G01*
X152496000Y-104756309D02*
G75*
G03*
X152384000Y-104644300I-112000J9D01*
G01*
X153336000Y-105092309D02*
G75*
G02*
X153224000Y-105204300I-112000J9D01*
G01*
X150648000Y-104644309D02*
G75*
G03*
X150536009Y-104756309I0J-111991D01*
G01*
X148408000Y-104644309D02*
G75*
G03*
X148296009Y-104756309I0J-111991D01*
G01*
X143648000Y-105204309D02*
G75*
G02*
X143535991Y-105092309I0J112009D01*
G01*
X148128000Y-105204309D02*
G75*
G02*
X148015991Y-105092309I0J112009D01*
G01*
X152328000Y-104644309D02*
G75*
G03*
X152216009Y-104756309I0J-111991D01*
G01*
X143816000Y-105092309D02*
G75*
G02*
X143704000Y-105204300I-112000J9D01*
G01*
X150368000Y-105204309D02*
G75*
G02*
X150255991Y-105092309I0J112009D01*
G01*
X152888000Y-104644309D02*
G75*
G03*
X152776009Y-104756309I0J-111991D01*
G01*
X144936000Y-105092309D02*
G75*
G02*
X144824000Y-105204300I-112000J9D01*
G01*
X143368000Y-104644309D02*
G75*
G03*
X143256009Y-104756309I0J-111991D01*
G01*
X147568000Y-105204309D02*
G75*
G02*
X147455991Y-105092309I0J112009D01*
G01*
X153168000Y-105204309D02*
G75*
G02*
X153055991Y-105092309I0J112009D01*
G01*
X151376000Y-104756309D02*
G75*
G03*
X151264000Y-104644300I-112000J9D01*
G01*
X144208000Y-105204309D02*
G75*
G02*
X144095991Y-105092309I0J112009D01*
G01*
X154288000Y-105204309D02*
G75*
G02*
X154175991Y-105092309I0J112009D01*
G01*
X154848000Y-105204309D02*
G75*
G02*
X154735991Y-105092309I0J112009D01*
G01*
X144096000Y-104756309D02*
G75*
G03*
X143984000Y-104644300I-112000J9D01*
G01*
X151936000Y-104756309D02*
G75*
G03*
X151824000Y-104644300I-112000J9D01*
G01*
X145776000Y-104756309D02*
G75*
G03*
X145664000Y-104644300I-112000J9D01*
G01*
X146896000Y-104756309D02*
G75*
G03*
X146784000Y-104644300I-112000J9D01*
G01*
X149136000Y-104756309D02*
G75*
G03*
X149024000Y-104644300I-112000J9D01*
G01*
X148968000Y-104644309D02*
G75*
G03*
X148856009Y-104756309I0J-111991D01*
G01*
X147456000Y-104756309D02*
G75*
G03*
X147344000Y-104644300I-112000J9D01*
G01*
X146056000Y-105092309D02*
G75*
G02*
X145944000Y-105204300I-112000J9D01*
G01*
X150088000Y-104644309D02*
G75*
G03*
X149976009Y-104756309I0J-111991D01*
G01*
X148576000Y-104756309D02*
G75*
G03*
X148464000Y-104644300I-112000J9D01*
G01*
X152048000Y-105204309D02*
G75*
G02*
X151935991Y-105092309I0J112009D01*
G01*
X143256000Y-105092309D02*
G75*
G02*
X143144000Y-105204300I-112000J9D01*
G01*
X147736000Y-105092309D02*
G75*
G02*
X147624000Y-105204300I-112000J9D01*
G01*
X150816000Y-104756309D02*
G75*
G03*
X150704000Y-104644300I-112000J9D01*
G01*
X147008000Y-105204309D02*
G75*
G02*
X146895991Y-105092309I0J112009D01*
G01*
X145328000Y-105204309D02*
G75*
G02*
X145215991Y-105092309I0J112009D01*
G01*
X145496000Y-105092309D02*
G75*
G02*
X145384000Y-105204300I-112000J9D01*
G01*
X148016000Y-104756309D02*
G75*
G03*
X147904000Y-104644300I-112000J9D01*
G01*
X154568000Y-104644309D02*
G75*
G03*
X154456009Y-104756309I0J-111991D01*
G01*
X146168000Y-104644309D02*
G75*
G03*
X146056009Y-104756309I0J-111991D01*
G01*
X153056000Y-104756309D02*
G75*
G03*
X152944000Y-104644300I-112000J9D01*
G01*
X146728000Y-104644309D02*
G75*
G03*
X146616009Y-104756309I0J-111991D01*
G01*
X151096000Y-105092309D02*
G75*
G02*
X150984000Y-105204300I-112000J9D01*
G01*
X151488000Y-105204309D02*
G75*
G02*
X151375991Y-105092309I0J112009D01*
G01*
X146336000Y-104756309D02*
G75*
G03*
X146224000Y-104644300I-112000J9D01*
G01*
X149808000Y-105204309D02*
G75*
G02*
X149695991Y-105092309I0J112009D01*
G01*
X150256000Y-104756309D02*
G75*
G03*
X150144000Y-104644300I-112000J9D01*
G01*
X147848000Y-104644309D02*
G75*
G03*
X147736009Y-104756309I0J-111991D01*
G01*
X154624819Y-104645152D02*
G75*
G02*
X154736848Y-104757152I-19J-112048D01*
G01*
X154736000Y-104756309D02*
G75*
G03*
X154624000Y-104644300I-112000J9D01*
G01*
X151208000Y-104644309D02*
G75*
G03*
X151096009Y-104756309I0J-111991D01*
G01*
%TO.N,Net-(J1-Pad8)*%
X143192000Y-107099153D02*
X143192000Y-107267153D01*
X150024000Y-107379153D02*
X150080000Y-107379153D01*
X142912000Y-107099153D02*
X142912000Y-106931153D01*
X148344000Y-107379153D02*
X148400000Y-107379153D01*
X148064000Y-106819153D02*
X148120000Y-106819153D01*
X147224000Y-107379153D02*
X147280000Y-107379153D01*
X145992000Y-107099153D02*
X145992000Y-107267153D01*
X146552000Y-107099153D02*
X146552000Y-107267153D01*
X145152000Y-107267153D02*
X145152000Y-107099153D01*
X149912000Y-106931153D02*
X149912000Y-107099153D01*
X150876000Y-107099153D02*
X157734000Y-107099153D01*
X147112000Y-106931153D02*
X147112000Y-107099153D01*
X157909000Y-107274153D02*
X159367000Y-107274153D01*
X149744000Y-106819153D02*
X149800000Y-106819153D01*
X148512000Y-107099153D02*
X148512000Y-106931153D01*
X149632000Y-107267153D02*
X149632000Y-107099153D01*
X145152000Y-107099153D02*
X145152000Y-106931153D01*
X157734000Y-107099153D02*
X157909000Y-107274153D01*
X148512000Y-107267153D02*
X148512000Y-107099153D01*
X150192000Y-107267153D02*
X150192000Y-107099153D01*
X148624000Y-106819153D02*
X148680000Y-106819153D01*
X147784000Y-107379153D02*
X147840000Y-107379153D01*
X148232000Y-107099153D02*
X148232000Y-107267153D01*
X149464000Y-107379153D02*
X149520000Y-107379153D01*
X146832000Y-107267153D02*
X146832000Y-107099153D01*
X143304000Y-107379153D02*
X143360000Y-107379153D01*
X146832000Y-107099153D02*
X146832000Y-106931153D01*
X144592000Y-107267153D02*
X144592000Y-107099153D01*
X148792000Y-107099153D02*
X148792000Y-107267153D01*
X142632000Y-107099153D02*
X142632000Y-107267153D01*
X145544000Y-107379153D02*
X145600000Y-107379153D01*
X142352000Y-106987153D02*
X142352000Y-106931153D01*
X144144000Y-106819153D02*
X144200000Y-106819153D01*
X144312000Y-107099153D02*
X144312000Y-107267153D01*
X150584000Y-107099153D02*
X150640000Y-107099153D01*
X149632000Y-107099153D02*
X149632000Y-106931153D01*
X144592000Y-107099153D02*
X144592000Y-106931153D01*
X149072000Y-107099153D02*
X149072000Y-106931153D01*
X142912000Y-107267153D02*
X142912000Y-107099153D01*
X150192000Y-106987153D02*
X150192000Y-106931153D01*
X143472000Y-107099153D02*
X143472000Y-106931153D01*
X150192000Y-107099153D02*
X150192000Y-106987153D01*
X146104000Y-107379153D02*
X146160000Y-107379153D01*
X144872000Y-106931153D02*
X144872000Y-107099153D01*
X145264000Y-106819153D02*
X145320000Y-106819153D01*
X145712000Y-107267153D02*
X145712000Y-107099153D01*
X146552000Y-106931153D02*
X146552000Y-107099153D01*
X150640000Y-107099153D02*
X150876000Y-107099153D01*
X147112000Y-107099153D02*
X147112000Y-107267153D01*
X143192000Y-106931153D02*
X143192000Y-107099153D01*
X146272000Y-107099153D02*
X146272000Y-106931153D01*
X143472000Y-107267153D02*
X143472000Y-107099153D01*
X144872000Y-107099153D02*
X144872000Y-107267153D01*
X143752000Y-106931153D02*
X143752000Y-107099153D01*
X143752000Y-107099153D02*
X143752000Y-107267153D01*
X147672000Y-107099153D02*
X147672000Y-107267153D01*
X150472000Y-106931153D02*
X150472000Y-106987153D01*
X145992000Y-106931153D02*
X145992000Y-107099153D01*
X144032000Y-107267153D02*
X144032000Y-107099153D01*
X144984000Y-107379153D02*
X145040000Y-107379153D01*
X141887453Y-107099153D02*
X142240000Y-107099153D01*
X146664000Y-107379153D02*
X146720000Y-107379153D01*
X145712000Y-107099153D02*
X145712000Y-106931153D01*
X143584000Y-106819153D02*
X143640000Y-106819153D01*
X147392000Y-107099153D02*
X147392000Y-106931153D01*
X142744000Y-107379153D02*
X142800000Y-107379153D01*
X149912000Y-107099153D02*
X149912000Y-107267153D01*
X141453750Y-107532856D02*
X141887453Y-107099153D01*
X148792000Y-106931153D02*
X148792000Y-107099153D01*
X142632000Y-106987153D02*
X142632000Y-107099153D01*
X144032000Y-107099153D02*
X144032000Y-106931153D01*
X147392000Y-107267153D02*
X147392000Y-107099153D01*
X149184000Y-106819153D02*
X149240000Y-106819153D01*
X144424000Y-107379153D02*
X144480000Y-107379153D01*
X150304000Y-106819153D02*
X150360000Y-106819153D01*
X145432000Y-106931153D02*
X145432000Y-107099153D01*
X149352000Y-106931153D02*
X149352000Y-107099153D01*
X145432000Y-107099153D02*
X145432000Y-107267153D01*
X145824000Y-106819153D02*
X145880000Y-106819153D01*
X147952000Y-107099153D02*
X147952000Y-106931153D01*
X148904000Y-107379153D02*
X148960000Y-107379153D01*
X146384000Y-106819153D02*
X146440000Y-106819153D01*
X146272000Y-107267153D02*
X146272000Y-107099153D01*
X143024000Y-106819153D02*
X143080000Y-106819153D01*
X144704000Y-106819153D02*
X144760000Y-106819153D01*
X147672000Y-106931153D02*
X147672000Y-107099153D01*
X149072000Y-107267153D02*
X149072000Y-107099153D01*
X147952000Y-107267153D02*
X147952000Y-107099153D01*
X146944000Y-106819153D02*
X147000000Y-106819153D01*
X142632000Y-106931153D02*
X142632000Y-106987153D01*
X149352000Y-107099153D02*
X149352000Y-107267153D01*
X143864000Y-107379153D02*
X143920000Y-107379153D01*
X142464000Y-106819153D02*
X142520000Y-106819153D01*
X147504000Y-106819153D02*
X147560000Y-106819153D01*
X148232000Y-106931153D02*
X148232000Y-107099153D01*
X144312000Y-106931153D02*
X144312000Y-107099153D01*
X147672000Y-107267153D02*
G75*
G03*
X147784000Y-107379200I112000J-47D01*
G01*
X149240000Y-106819153D02*
G75*
G02*
X149352047Y-106931153I0J-112047D01*
G01*
X149912000Y-107267153D02*
G75*
G03*
X150024000Y-107379200I112000J-47D01*
G01*
X144760000Y-106819153D02*
G75*
G02*
X144872047Y-106931153I0J-112047D01*
G01*
X148120000Y-106819153D02*
G75*
G02*
X148232047Y-106931153I0J-112047D01*
G01*
X149352000Y-107267153D02*
G75*
G03*
X149464000Y-107379200I112000J-47D01*
G01*
X146552000Y-107267153D02*
G75*
G03*
X146664000Y-107379200I112000J-47D01*
G01*
X142912000Y-106931153D02*
G75*
G02*
X143024000Y-106819200I112000J-47D01*
G01*
X145432000Y-107267153D02*
G75*
G03*
X145544000Y-107379200I112000J-47D01*
G01*
X148960000Y-107379153D02*
G75*
G03*
X149071953Y-107267153I0J111953D01*
G01*
X145040000Y-107379153D02*
G75*
G03*
X145151953Y-107267153I0J111953D01*
G01*
X144312000Y-107267153D02*
G75*
G03*
X144424000Y-107379200I112000J-47D01*
G01*
X149632000Y-106931153D02*
G75*
G02*
X149744000Y-106819200I112000J-47D01*
G01*
X148680000Y-106819153D02*
G75*
G02*
X148792047Y-106931153I0J-112047D01*
G01*
X142240000Y-107099153D02*
G75*
G03*
X142351953Y-106987153I0J111953D01*
G01*
X143472000Y-106931153D02*
G75*
G02*
X143584000Y-106819200I112000J-47D01*
G01*
X144872000Y-107267153D02*
G75*
G03*
X144984000Y-107379200I112000J-47D01*
G01*
X147560000Y-106819153D02*
G75*
G02*
X147672047Y-106931153I0J-112047D01*
G01*
X142520000Y-106819153D02*
G75*
G02*
X142632047Y-106931153I0J-112047D01*
G01*
X142632000Y-107267153D02*
G75*
G03*
X142744000Y-107379200I112000J-47D01*
G01*
X149800000Y-106819153D02*
G75*
G02*
X149912047Y-106931153I0J-112047D01*
G01*
X150192000Y-106931153D02*
G75*
G02*
X150304000Y-106819200I112000J-47D01*
G01*
X143192000Y-107267153D02*
G75*
G03*
X143304000Y-107379200I112000J-47D01*
G01*
X147952000Y-106931153D02*
G75*
G02*
X148064000Y-106819200I112000J-47D01*
G01*
X147000000Y-106819153D02*
G75*
G02*
X147112047Y-106931153I0J-112047D01*
G01*
X145320000Y-106819153D02*
G75*
G02*
X145432047Y-106931153I0J-112047D01*
G01*
X145992000Y-107267153D02*
G75*
G03*
X146104000Y-107379200I112000J-47D01*
G01*
X145880000Y-106819153D02*
G75*
G02*
X145992047Y-106931153I0J-112047D01*
G01*
X143640000Y-106819153D02*
G75*
G02*
X143752047Y-106931153I0J-112047D01*
G01*
X142800000Y-107379153D02*
G75*
G03*
X142911953Y-107267153I0J111953D01*
G01*
X145600000Y-107379153D02*
G75*
G03*
X145711953Y-107267153I0J111953D01*
G01*
X143752000Y-107267153D02*
G75*
G03*
X143864000Y-107379200I112000J-47D01*
G01*
X147112000Y-107267153D02*
G75*
G03*
X147224000Y-107379200I112000J-47D01*
G01*
X149072000Y-106931153D02*
G75*
G02*
X149184000Y-106819200I112000J-47D01*
G01*
X143920000Y-107379153D02*
G75*
G03*
X144031953Y-107267153I0J111953D01*
G01*
X148232000Y-107267153D02*
G75*
G03*
X148344000Y-107379200I112000J-47D01*
G01*
X150080000Y-107379153D02*
G75*
G03*
X150191953Y-107267153I0J111953D01*
G01*
X147280000Y-107379153D02*
G75*
G03*
X147391953Y-107267153I0J111953D01*
G01*
X146832000Y-106931153D02*
G75*
G02*
X146944000Y-106819200I112000J-47D01*
G01*
X146440000Y-106819153D02*
G75*
G02*
X146552047Y-106931153I0J-112047D01*
G01*
X146720000Y-107379153D02*
G75*
G03*
X146831953Y-107267153I0J111953D01*
G01*
X148400000Y-107379153D02*
G75*
G03*
X148511953Y-107267153I0J111953D01*
G01*
X143080000Y-106819153D02*
G75*
G02*
X143192047Y-106931153I0J-112047D01*
G01*
X145712000Y-106931153D02*
G75*
G02*
X145824000Y-106819200I112000J-47D01*
G01*
X150360000Y-106819153D02*
G75*
G02*
X150472047Y-106931153I0J-112047D01*
G01*
X148792000Y-107267153D02*
G75*
G03*
X148904000Y-107379200I112000J-47D01*
G01*
X150472000Y-106987153D02*
G75*
G03*
X150584000Y-107099200I112000J-47D01*
G01*
X149520000Y-107379153D02*
G75*
G03*
X149631953Y-107267153I0J111953D01*
G01*
X144032000Y-106931153D02*
G75*
G02*
X144144000Y-106819200I112000J-47D01*
G01*
X144592000Y-106931153D02*
G75*
G02*
X144704000Y-106819200I112000J-47D01*
G01*
X144480000Y-107379153D02*
G75*
G03*
X144591953Y-107267153I0J111953D01*
G01*
X145152000Y-106931153D02*
G75*
G02*
X145264000Y-106819200I112000J-47D01*
G01*
X142352000Y-106931153D02*
G75*
G02*
X142464000Y-106819200I112000J-47D01*
G01*
X143360000Y-107379153D02*
G75*
G03*
X143471953Y-107267153I0J111953D01*
G01*
X144200000Y-106819153D02*
G75*
G02*
X144312047Y-106931153I0J-112047D01*
G01*
X146160000Y-107379153D02*
G75*
G03*
X146271953Y-107267153I0J111953D01*
G01*
X147392000Y-106931153D02*
G75*
G02*
X147504000Y-106819200I112000J-47D01*
G01*
X148512000Y-106931153D02*
G75*
G02*
X148624000Y-106819200I112000J-47D01*
G01*
X147840000Y-107379153D02*
G75*
G03*
X147951953Y-107267153I0J111953D01*
G01*
X146272000Y-106931153D02*
G75*
G02*
X146384000Y-106819200I112000J-47D01*
G01*
%TO.N,Net-(J1-Pad11)*%
X161530000Y-107974153D02*
X162066606Y-108510759D01*
X133934122Y-108840881D02*
X133604000Y-108510759D01*
X161182000Y-107974153D02*
X161530000Y-107974153D01*
X162066606Y-108510759D02*
X162560000Y-108510759D01*
X140716000Y-108840881D02*
X133934122Y-108840881D01*
%TO.N,Net-(J1-Pad9)*%
X161739810Y-107624153D02*
X161182000Y-107624153D01*
X133604175Y-107952131D02*
X133604000Y-107951956D01*
X162067613Y-107951956D02*
X162560000Y-107951956D01*
X161739810Y-107624153D02*
X162067613Y-107951956D01*
X133604000Y-107951956D02*
X140716000Y-107951956D01*
%TO.N,Net-(J1-Pad6)*%
X147086000Y-105964086D02*
X147086000Y-106132086D01*
X147366000Y-105964086D02*
X147366000Y-105796086D01*
X149158000Y-105684086D02*
X149214000Y-105684086D01*
X143446000Y-106132086D02*
X143446000Y-105964086D01*
X148038000Y-105684086D02*
X148094000Y-105684086D01*
X150166000Y-105964086D02*
X150166000Y-105852086D01*
X144286000Y-105796086D02*
X144286000Y-105964086D01*
X149326000Y-105964086D02*
X149326000Y-106132086D01*
X146918000Y-105684086D02*
X146974000Y-105684086D01*
X145406000Y-105964086D02*
X145406000Y-106132086D01*
X144118000Y-105684086D02*
X144174000Y-105684086D01*
X149718000Y-105684086D02*
X149774000Y-105684086D01*
X142886000Y-106132086D02*
X142886000Y-106076086D01*
X146806000Y-105964086D02*
X146806000Y-105796086D01*
X149606000Y-106132086D02*
X149606000Y-105964086D01*
X147758000Y-106244086D02*
X147814000Y-106244086D01*
X148486000Y-106132086D02*
X148486000Y-105964086D01*
X143726000Y-105796086D02*
X143726000Y-105964086D01*
X145126000Y-105964086D02*
X145126000Y-105796086D01*
X142718000Y-106244086D02*
X142774000Y-106244086D01*
X142606000Y-106076086D02*
X142606000Y-106132086D01*
X143166000Y-105796086D02*
X143166000Y-105964086D01*
X147646000Y-105796086D02*
X147646000Y-105964086D01*
X158321000Y-106924153D02*
X159367000Y-106924153D01*
X145966000Y-105964086D02*
X145966000Y-106132086D01*
X148878000Y-106244086D02*
X148934000Y-106244086D01*
X145686000Y-106132086D02*
X145686000Y-105964086D01*
X147646000Y-105964086D02*
X147646000Y-106132086D01*
X142188002Y-105964086D02*
X142494000Y-105964086D01*
X148598000Y-105684086D02*
X148654000Y-105684086D01*
X145518000Y-106244086D02*
X145574000Y-106244086D01*
X148206000Y-105964086D02*
X148206000Y-106132086D01*
X143278000Y-106244086D02*
X143334000Y-106244086D01*
X150446000Y-105796086D02*
X150446000Y-105852086D01*
X142998000Y-105684086D02*
X143054000Y-105684086D01*
X150166000Y-106132086D02*
X150166000Y-105964086D01*
X144006000Y-105964086D02*
X144006000Y-105796086D01*
X144846000Y-105964086D02*
X144846000Y-106132086D01*
X149886000Y-105796086D02*
X149886000Y-105964086D01*
X157360933Y-105964086D02*
X158321000Y-106924153D01*
X141457432Y-106694656D02*
X142188002Y-105964086D01*
X145126000Y-106132086D02*
X145126000Y-105964086D01*
X146246000Y-106132086D02*
X146246000Y-105964086D01*
X148766000Y-105796086D02*
X148766000Y-105964086D01*
X145406000Y-105796086D02*
X145406000Y-105964086D01*
X142886000Y-105964086D02*
X142886000Y-105796086D01*
X144846000Y-105796086D02*
X144846000Y-105964086D01*
X142886000Y-106076086D02*
X142886000Y-105964086D01*
X144958000Y-106244086D02*
X145014000Y-106244086D01*
X145966000Y-105796086D02*
X145966000Y-105964086D01*
X149046000Y-106132086D02*
X149046000Y-105964086D01*
X146806000Y-106132086D02*
X146806000Y-105964086D01*
X150278000Y-105684086D02*
X150334000Y-105684086D01*
X149046000Y-105964086D02*
X149046000Y-105796086D01*
X145238000Y-105684086D02*
X145294000Y-105684086D01*
X147926000Y-106132086D02*
X147926000Y-105964086D01*
X147366000Y-106132086D02*
X147366000Y-105964086D01*
X143446000Y-105964086D02*
X143446000Y-105796086D01*
X147926000Y-105964086D02*
X147926000Y-105796086D01*
X149606000Y-105964086D02*
X149606000Y-105796086D01*
X146526000Y-105964086D02*
X146526000Y-106132086D01*
X144566000Y-106132086D02*
X144566000Y-105964086D01*
X146246000Y-105964086D02*
X146246000Y-105796086D01*
X150970807Y-105964086D02*
X157360933Y-105964086D01*
X144398000Y-106244086D02*
X144454000Y-106244086D01*
X143166000Y-105964086D02*
X143166000Y-106132086D01*
X144566000Y-105964086D02*
X144566000Y-105796086D01*
X144286000Y-105964086D02*
X144286000Y-106132086D01*
X150558000Y-105964086D02*
X150614000Y-105964086D01*
X147086000Y-105796086D02*
X147086000Y-105964086D01*
X143558000Y-105684086D02*
X143614000Y-105684086D01*
X141453750Y-106694656D02*
X141457432Y-106694656D01*
X148206000Y-105796086D02*
X148206000Y-105964086D01*
X145798000Y-105684086D02*
X145854000Y-105684086D01*
X143838000Y-106244086D02*
X143894000Y-106244086D01*
X149998000Y-106244086D02*
X150054000Y-106244086D01*
X149886000Y-105964086D02*
X149886000Y-106132086D01*
X146078000Y-106244086D02*
X146134000Y-106244086D01*
X147478000Y-105684086D02*
X147534000Y-105684086D01*
X147198000Y-106244086D02*
X147254000Y-106244086D01*
X148486000Y-105964086D02*
X148486000Y-105796086D01*
X146526000Y-105796086D02*
X146526000Y-105964086D01*
X144678000Y-105684086D02*
X144734000Y-105684086D01*
X148318000Y-106244086D02*
X148374000Y-106244086D01*
X150166000Y-105852086D02*
X150166000Y-105796086D01*
X143726000Y-105964086D02*
X143726000Y-106132086D01*
X145686000Y-105964086D02*
X145686000Y-105796086D01*
X149438000Y-106244086D02*
X149494000Y-106244086D01*
X150614000Y-105964086D02*
X150970807Y-105964086D01*
X148766000Y-105964086D02*
X148766000Y-106132086D01*
X149326000Y-105796086D02*
X149326000Y-105964086D01*
X144006000Y-106132086D02*
X144006000Y-105964086D01*
X146638000Y-106244086D02*
X146694000Y-106244086D01*
X146358000Y-105684086D02*
X146414000Y-105684086D01*
X143166000Y-106132086D02*
G75*
G03*
X143278000Y-106244100I112000J-14D01*
G01*
X144286000Y-106132086D02*
G75*
G03*
X144398000Y-106244100I112000J-14D01*
G01*
X142886000Y-105796086D02*
G75*
G02*
X142998000Y-105684100I112000J-14D01*
G01*
X148934000Y-106244086D02*
G75*
G03*
X149045986Y-106132086I0J111986D01*
G01*
X150446000Y-105852086D02*
G75*
G03*
X150558000Y-105964100I112000J-14D01*
G01*
X145126000Y-105796086D02*
G75*
G02*
X145238000Y-105684100I112000J-14D01*
G01*
X146694000Y-106244086D02*
G75*
G03*
X146805986Y-106132086I0J111986D01*
G01*
X146134000Y-106244086D02*
G75*
G03*
X146245986Y-106132086I0J111986D01*
G01*
X148486000Y-105796086D02*
G75*
G02*
X148598000Y-105684100I112000J-14D01*
G01*
X144846000Y-106132086D02*
G75*
G03*
X144958000Y-106244100I112000J-14D01*
G01*
X146806000Y-105796086D02*
G75*
G02*
X146918000Y-105684100I112000J-14D01*
G01*
X148766000Y-106132086D02*
G75*
G03*
X148878000Y-106244100I112000J-14D01*
G01*
X147366000Y-105796086D02*
G75*
G02*
X147478000Y-105684100I112000J-14D01*
G01*
X147534000Y-105684086D02*
G75*
G02*
X147646014Y-105796086I0J-112014D01*
G01*
X147926000Y-105796086D02*
G75*
G02*
X148038000Y-105684100I112000J-14D01*
G01*
X143054000Y-105684086D02*
G75*
G02*
X143166014Y-105796086I0J-112014D01*
G01*
X142606000Y-106132086D02*
G75*
G03*
X142718000Y-106244100I112000J-14D01*
G01*
X145966000Y-106132086D02*
G75*
G03*
X146078000Y-106244100I112000J-14D01*
G01*
X148206000Y-106132086D02*
G75*
G03*
X148318000Y-106244100I112000J-14D01*
G01*
X145686000Y-105796086D02*
G75*
G02*
X145798000Y-105684100I112000J-14D01*
G01*
X149214000Y-105684086D02*
G75*
G02*
X149326014Y-105796086I0J-112014D01*
G01*
X145574000Y-106244086D02*
G75*
G03*
X145685986Y-106132086I0J111986D01*
G01*
X143726000Y-106132086D02*
G75*
G03*
X143838000Y-106244100I112000J-14D01*
G01*
X142774000Y-106244086D02*
G75*
G03*
X142885986Y-106132086I0J111986D01*
G01*
X144454000Y-106244086D02*
G75*
G03*
X144565986Y-106132086I0J111986D01*
G01*
X144734000Y-105684086D02*
G75*
G02*
X144846014Y-105796086I0J-112014D01*
G01*
X147646000Y-106132086D02*
G75*
G03*
X147758000Y-106244100I112000J-14D01*
G01*
X143334000Y-106244086D02*
G75*
G03*
X143445986Y-106132086I0J111986D01*
G01*
X144006000Y-105796086D02*
G75*
G02*
X144118000Y-105684100I112000J-14D01*
G01*
X142494000Y-105964086D02*
G75*
G02*
X142606014Y-106076086I0J-112014D01*
G01*
X148654000Y-105684086D02*
G75*
G02*
X148766014Y-105796086I0J-112014D01*
G01*
X143894000Y-106244086D02*
G75*
G03*
X144005986Y-106132086I0J111986D01*
G01*
X146974000Y-105684086D02*
G75*
G02*
X147086014Y-105796086I0J-112014D01*
G01*
X146246000Y-105796086D02*
G75*
G02*
X146358000Y-105684100I112000J-14D01*
G01*
X147814000Y-106244086D02*
G75*
G03*
X147925986Y-106132086I0J111986D01*
G01*
X146414000Y-105684086D02*
G75*
G02*
X146526014Y-105796086I0J-112014D01*
G01*
X145014000Y-106244086D02*
G75*
G03*
X145125986Y-106132086I0J111986D01*
G01*
X149046000Y-105796086D02*
G75*
G02*
X149158000Y-105684100I112000J-14D01*
G01*
X150166000Y-105796086D02*
G75*
G02*
X150278000Y-105684100I112000J-14D01*
G01*
X150054000Y-106244086D02*
G75*
G03*
X150165986Y-106132086I0J111986D01*
G01*
X144566000Y-105796086D02*
G75*
G02*
X144678000Y-105684100I112000J-14D01*
G01*
X149886000Y-106132086D02*
G75*
G03*
X149998000Y-106244100I112000J-14D01*
G01*
X149326000Y-106132086D02*
G75*
G03*
X149438000Y-106244100I112000J-14D01*
G01*
X149606000Y-105796086D02*
G75*
G02*
X149718000Y-105684100I112000J-14D01*
G01*
X148094000Y-105684086D02*
G75*
G02*
X148206014Y-105796086I0J-112014D01*
G01*
X145406000Y-106132086D02*
G75*
G03*
X145518000Y-106244100I112000J-14D01*
G01*
X145854000Y-105684086D02*
G75*
G02*
X145966014Y-105796086I0J-112014D01*
G01*
X150334000Y-105684086D02*
G75*
G02*
X150446014Y-105796086I0J-112014D01*
G01*
X143614000Y-105684086D02*
G75*
G02*
X143726014Y-105796086I0J-112014D01*
G01*
X144174000Y-105684086D02*
G75*
G02*
X144286014Y-105796086I0J-112014D01*
G01*
X148374000Y-106244086D02*
G75*
G03*
X148485986Y-106132086I0J111986D01*
G01*
X147086000Y-106132086D02*
G75*
G03*
X147198000Y-106244100I112000J-14D01*
G01*
X143446000Y-105796086D02*
G75*
G02*
X143558000Y-105684100I112000J-14D01*
G01*
X146526000Y-106132086D02*
G75*
G03*
X146638000Y-106244100I112000J-14D01*
G01*
X149494000Y-106244086D02*
G75*
G03*
X149605986Y-106132086I0J111986D01*
G01*
X145294000Y-105684086D02*
G75*
G02*
X145406014Y-105796086I0J-112014D01*
G01*
X149774000Y-105684086D02*
G75*
G02*
X149886014Y-105796086I0J-112014D01*
G01*
X147254000Y-106244086D02*
G75*
G03*
X147365986Y-106132086I0J111986D01*
G01*
%TO.N,Net-(J1-Pad10)*%
X152798000Y-107793029D02*
X152854000Y-107793029D01*
X151118000Y-107793029D02*
X151174000Y-107793029D01*
X153526000Y-107905029D02*
X153526000Y-108241029D01*
X154198000Y-108353029D02*
X154254000Y-108353029D01*
X149046000Y-107905029D02*
X149046000Y-108241029D01*
X156046000Y-107870090D02*
X156291937Y-107624153D01*
X150278000Y-108353029D02*
X150334000Y-108353029D01*
X150726000Y-107905029D02*
X150726000Y-108241029D01*
X148318000Y-107793029D02*
X148374000Y-107793029D01*
X151958000Y-108353029D02*
X152014000Y-108353029D01*
X148766000Y-108241029D02*
X148766000Y-107905029D01*
X155598000Y-107793029D02*
X155654000Y-107793029D01*
X148486000Y-107905029D02*
X148486000Y-108073029D01*
X151006000Y-108241029D02*
X151006000Y-107905029D01*
X154758000Y-108353029D02*
X154814000Y-108353029D01*
X150558000Y-107793029D02*
X150614000Y-107793029D01*
X149718000Y-108353029D02*
X149774000Y-108353029D01*
X152686000Y-108241029D02*
X152686000Y-107905029D01*
X152238000Y-107793029D02*
X152294000Y-107793029D01*
X156291937Y-107624153D02*
X159367000Y-107624153D01*
X152966000Y-107905029D02*
X152966000Y-108241029D01*
X150166000Y-107905029D02*
X150166000Y-108241029D01*
X152126000Y-108241029D02*
X152126000Y-107905029D01*
X155038000Y-107793029D02*
X155094000Y-107793029D01*
X154926000Y-108241029D02*
X154926000Y-107905029D01*
X155878000Y-108353029D02*
X155934000Y-108353029D01*
X153918000Y-107793029D02*
X153974000Y-107793029D01*
X153638000Y-108353029D02*
X153694000Y-108353029D01*
X155318000Y-108353029D02*
X155374000Y-108353029D01*
X152406000Y-107905029D02*
X152406000Y-108241029D01*
X149606000Y-107905029D02*
X149606000Y-108241029D01*
X155766000Y-107905029D02*
X155766000Y-108241029D01*
X148038000Y-108073029D02*
X148094000Y-108073029D01*
X153358000Y-107793029D02*
X153414000Y-107793029D01*
X154086000Y-107905029D02*
X154086000Y-108241029D01*
X152518000Y-108353029D02*
X152574000Y-108353029D01*
X149886000Y-108241029D02*
X149886000Y-107905029D01*
X151398000Y-108353029D02*
X151454000Y-108353029D01*
X148878000Y-107793029D02*
X148934000Y-107793029D01*
X149998000Y-107793029D02*
X150054000Y-107793029D01*
X155486000Y-108241029D02*
X155486000Y-107905029D01*
X154366000Y-108241029D02*
X154366000Y-107905029D01*
X156046000Y-108241029D02*
X156046000Y-107905029D01*
X150838000Y-108353029D02*
X150894000Y-108353029D01*
X141453750Y-108421781D02*
X141802502Y-108073029D01*
X148598000Y-108353029D02*
X148654000Y-108353029D01*
X151286000Y-107905029D02*
X151286000Y-108241029D01*
X148486000Y-108073029D02*
X148486000Y-108241029D01*
X155206000Y-107905029D02*
X155206000Y-108241029D01*
X153078000Y-108353029D02*
X153134000Y-108353029D01*
X149326000Y-108241029D02*
X149326000Y-107905029D01*
X154478000Y-107793029D02*
X154534000Y-107793029D01*
X149438000Y-107793029D02*
X149494000Y-107793029D01*
X148206000Y-107961029D02*
X148206000Y-107905029D01*
X153246000Y-108241029D02*
X153246000Y-107905029D01*
X149158000Y-108353029D02*
X149214000Y-108353029D01*
X151566000Y-108241029D02*
X151566000Y-107905029D01*
X141802502Y-108073029D02*
X148038000Y-108073029D01*
X153806000Y-108241029D02*
X153806000Y-107905029D01*
X156046000Y-107905029D02*
X156046000Y-107870090D01*
X150446000Y-108241029D02*
X150446000Y-107905029D01*
X154646000Y-107905029D02*
X154646000Y-108241029D01*
X151678000Y-107793029D02*
X151734000Y-107793029D01*
X151846000Y-107905029D02*
X151846000Y-108241029D01*
X150166000Y-108241029D02*
G75*
G03*
X150278000Y-108353000I112000J29D01*
G01*
X152574000Y-108353029D02*
G75*
G03*
X152686029Y-108241029I0J112029D01*
G01*
X152966000Y-108241029D02*
G75*
G03*
X153078000Y-108353000I112000J29D01*
G01*
X149774000Y-108353029D02*
G75*
G03*
X149886029Y-108241029I0J112029D01*
G01*
X149214000Y-108353029D02*
G75*
G03*
X149326029Y-108241029I0J112029D01*
G01*
X148766000Y-107905029D02*
G75*
G02*
X148878000Y-107793000I112000J29D01*
G01*
X150054000Y-107793029D02*
G75*
G02*
X150165971Y-107905029I0J-111971D01*
G01*
X153414000Y-107793029D02*
G75*
G02*
X153525971Y-107905029I0J-111971D01*
G01*
X154254000Y-108353029D02*
G75*
G03*
X154366029Y-108241029I0J112029D01*
G01*
X155374000Y-108353029D02*
G75*
G03*
X155486029Y-108241029I0J112029D01*
G01*
X153134000Y-108353029D02*
G75*
G03*
X153246029Y-108241029I0J112029D01*
G01*
X150614000Y-107793029D02*
G75*
G02*
X150725971Y-107905029I0J-111971D01*
G01*
X150334000Y-108353029D02*
G75*
G03*
X150446029Y-108241029I0J112029D01*
G01*
X150446000Y-107905029D02*
G75*
G02*
X150558000Y-107793000I112000J29D01*
G01*
X152014000Y-108353029D02*
G75*
G03*
X152126029Y-108241029I0J112029D01*
G01*
X153246000Y-107905029D02*
G75*
G02*
X153358000Y-107793000I112000J29D01*
G01*
X150894000Y-108353029D02*
G75*
G03*
X151006029Y-108241029I0J112029D01*
G01*
X153694000Y-108353029D02*
G75*
G03*
X153806029Y-108241029I0J112029D01*
G01*
X151454000Y-108353029D02*
G75*
G03*
X151566029Y-108241029I0J112029D01*
G01*
X154814000Y-108353029D02*
G75*
G03*
X154926029Y-108241029I0J112029D01*
G01*
X155486000Y-107905029D02*
G75*
G02*
X155598000Y-107793000I112000J29D01*
G01*
X149606000Y-108241029D02*
G75*
G03*
X149718000Y-108353000I112000J29D01*
G01*
X153806000Y-107905029D02*
G75*
G02*
X153918000Y-107793000I112000J29D01*
G01*
X152854000Y-107793029D02*
G75*
G02*
X152965971Y-107905029I0J-111971D01*
G01*
X152686000Y-107905029D02*
G75*
G02*
X152798000Y-107793000I112000J29D01*
G01*
X151734000Y-107793029D02*
G75*
G02*
X151845971Y-107905029I0J-111971D01*
G01*
X150726000Y-108241029D02*
G75*
G03*
X150838000Y-108353000I112000J29D01*
G01*
X152294000Y-107793029D02*
G75*
G02*
X152405971Y-107905029I0J-111971D01*
G01*
X151174000Y-107793029D02*
G75*
G02*
X151285971Y-107905029I0J-111971D01*
G01*
X151846000Y-108241029D02*
G75*
G03*
X151958000Y-108353000I112000J29D01*
G01*
X154366000Y-107905029D02*
G75*
G02*
X154478000Y-107793000I112000J29D01*
G01*
X153974000Y-107793029D02*
G75*
G02*
X154085971Y-107905029I0J-111971D01*
G01*
X149046000Y-108241029D02*
G75*
G03*
X149158000Y-108353000I112000J29D01*
G01*
X153526000Y-108241029D02*
G75*
G03*
X153638000Y-108353000I112000J29D01*
G01*
X155934000Y-108353029D02*
G75*
G03*
X156046029Y-108241029I0J112029D01*
G01*
X151286000Y-108241029D02*
G75*
G03*
X151398000Y-108353000I112000J29D01*
G01*
X152126000Y-107905029D02*
G75*
G02*
X152238000Y-107793000I112000J29D01*
G01*
X148374000Y-107793029D02*
G75*
G02*
X148485971Y-107905029I0J-111971D01*
G01*
X149494000Y-107793029D02*
G75*
G02*
X149605971Y-107905029I0J-111971D01*
G01*
X155766000Y-108241029D02*
G75*
G03*
X155878000Y-108353000I112000J29D01*
G01*
X154534000Y-107793029D02*
G75*
G02*
X154645971Y-107905029I0J-111971D01*
G01*
X154926000Y-107905029D02*
G75*
G02*
X155038000Y-107793000I112000J29D01*
G01*
X155206000Y-108241029D02*
G75*
G03*
X155318000Y-108353000I112000J29D01*
G01*
X148486000Y-108241029D02*
G75*
G03*
X148598000Y-108353000I112000J29D01*
G01*
X152406000Y-108241029D02*
G75*
G03*
X152518000Y-108353000I112000J29D01*
G01*
X155654000Y-107793029D02*
G75*
G02*
X155765971Y-107905029I0J-111971D01*
G01*
X148934000Y-107793029D02*
G75*
G02*
X149045971Y-107905029I0J-111971D01*
G01*
X151566000Y-107905029D02*
G75*
G02*
X151678000Y-107793000I112000J29D01*
G01*
X154086000Y-108241029D02*
G75*
G03*
X154198000Y-108353000I112000J29D01*
G01*
X155094000Y-107793029D02*
G75*
G02*
X155205971Y-107905029I0J-111971D01*
G01*
X151006000Y-107905029D02*
G75*
G02*
X151118000Y-107793000I112000J29D01*
G01*
X154646000Y-108241029D02*
G75*
G03*
X154758000Y-108353000I112000J29D01*
G01*
X148654000Y-108353029D02*
G75*
G03*
X148766029Y-108241029I0J112029D01*
G01*
X148206000Y-107905029D02*
G75*
G02*
X148318000Y-107793000I112000J29D01*
G01*
X149886000Y-107905029D02*
G75*
G02*
X149998000Y-107793000I112000J29D01*
G01*
X148094000Y-108073029D02*
G75*
G03*
X148206029Y-107961029I0J112029D01*
G01*
X149326000Y-107905029D02*
G75*
G02*
X149438000Y-107793000I112000J29D01*
G01*
%TO.N,Net-(J1-Pad12)*%
X156374000Y-109131153D02*
X156430000Y-109131153D01*
X151054000Y-108851153D02*
X151110000Y-108851153D01*
X155142000Y-108963153D02*
X155142000Y-109131153D01*
X148814000Y-108851153D02*
X148870000Y-108851153D01*
X154582000Y-108963153D02*
X154582000Y-109131153D01*
X153574000Y-109411153D02*
X153630000Y-109411153D01*
X150494000Y-108851153D02*
X150550000Y-108851153D01*
X155982000Y-109019153D02*
X155982000Y-108963153D01*
X151894000Y-109411153D02*
X151950000Y-109411153D01*
X153182000Y-109131153D02*
X153182000Y-108963153D01*
X156262000Y-108963153D02*
X156262000Y-109019153D01*
X141453750Y-109259981D02*
X141603172Y-109259981D01*
X154582000Y-109131153D02*
X154582000Y-109299153D01*
X158016132Y-107974153D02*
X159367000Y-107974153D01*
X149822000Y-109299153D02*
X149822000Y-109131153D01*
X151614000Y-108851153D02*
X151670000Y-108851153D01*
X153742000Y-109299153D02*
X153742000Y-109131153D01*
X153462000Y-109131153D02*
X153462000Y-109299153D01*
X155534000Y-108851153D02*
X155590000Y-108851153D01*
X150774000Y-109411153D02*
X150830000Y-109411153D01*
X154862000Y-109131153D02*
X154862000Y-108963153D01*
X153294000Y-108851153D02*
X153350000Y-108851153D01*
X153462000Y-108963153D02*
X153462000Y-109131153D01*
X150102000Y-109131153D02*
X150102000Y-109299153D01*
X149094000Y-109411153D02*
X149150000Y-109411153D01*
X151782000Y-109131153D02*
X151782000Y-109299153D01*
X152622000Y-109299153D02*
X152622000Y-109131153D01*
X156430000Y-109131153D02*
X156718000Y-109131153D01*
X149822000Y-109131153D02*
X149822000Y-108963153D01*
X155702000Y-109131153D02*
X155702000Y-109299153D01*
X152174000Y-108851153D02*
X152230000Y-108851153D01*
X154414000Y-108851153D02*
X154470000Y-108851153D01*
X152902000Y-108963153D02*
X152902000Y-109131153D01*
X149542000Y-109131153D02*
X149542000Y-109299153D01*
X155142000Y-109131153D02*
X155142000Y-109299153D01*
X152342000Y-109131153D02*
X152342000Y-109299153D01*
X141986000Y-108877153D02*
X146050000Y-108877153D01*
X154022000Y-109131153D02*
X154022000Y-109299153D01*
X152734000Y-108851153D02*
X152790000Y-108851153D01*
X149934000Y-108851153D02*
X149990000Y-108851153D01*
X152062000Y-109299153D02*
X152062000Y-109131153D01*
X154302000Y-109131153D02*
X154302000Y-108963153D01*
X153742000Y-109131153D02*
X153742000Y-108963153D01*
X156718000Y-109131153D02*
X156859132Y-109131153D01*
X148982000Y-108963153D02*
X148982000Y-109019153D01*
X155422000Y-109131153D02*
X155422000Y-108963153D01*
X150942000Y-109131153D02*
X150942000Y-108963153D01*
X150942000Y-109299153D02*
X150942000Y-109131153D01*
X148982000Y-109131153D02*
X148982000Y-109299153D01*
X153854000Y-108851153D02*
X153910000Y-108851153D01*
X154694000Y-109411153D02*
X154750000Y-109411153D01*
X151782000Y-108963153D02*
X151782000Y-109131153D01*
X154302000Y-109299153D02*
X154302000Y-109131153D01*
X155422000Y-109299153D02*
X155422000Y-109131153D01*
X148982000Y-109019153D02*
X148982000Y-109131153D01*
X155702000Y-108963153D02*
X155702000Y-109131153D01*
X155982000Y-109299153D02*
X155982000Y-109131153D01*
X149374000Y-108851153D02*
X149430000Y-108851153D01*
X154974000Y-108851153D02*
X155030000Y-108851153D01*
X150382000Y-109299153D02*
X150382000Y-109131153D01*
X149654000Y-109411153D02*
X149710000Y-109411153D01*
X155982000Y-109131153D02*
X155982000Y-109019153D01*
X150662000Y-109131153D02*
X150662000Y-109299153D01*
X152622000Y-109131153D02*
X152622000Y-108963153D01*
X152062000Y-109131153D02*
X152062000Y-108963153D01*
X148702000Y-109019153D02*
X148702000Y-108963153D01*
X151502000Y-109299153D02*
X151502000Y-109131153D01*
X150382000Y-109131153D02*
X150382000Y-108963153D01*
X149262000Y-109131153D02*
X149262000Y-108963153D01*
X156094000Y-108851153D02*
X156150000Y-108851153D01*
X154862000Y-109299153D02*
X154862000Y-109131153D01*
X151222000Y-109131153D02*
X151222000Y-109299153D01*
X155254000Y-109411153D02*
X155310000Y-109411153D01*
X156859132Y-109131153D02*
X158016132Y-107974153D01*
X141603172Y-109259981D02*
X141986000Y-108877153D01*
X153182000Y-109299153D02*
X153182000Y-109131153D01*
X150102000Y-108963153D02*
X150102000Y-109131153D01*
X152454000Y-109411153D02*
X152510000Y-109411153D01*
X154134000Y-109411153D02*
X154190000Y-109411153D01*
X146304000Y-109131153D02*
X148590000Y-109131153D01*
X150214000Y-109411153D02*
X150270000Y-109411153D01*
X152342000Y-108963153D02*
X152342000Y-109131153D01*
X153014000Y-109411153D02*
X153070000Y-109411153D01*
X152902000Y-109131153D02*
X152902000Y-109299153D01*
X151502000Y-109131153D02*
X151502000Y-108963153D01*
X151334000Y-109411153D02*
X151390000Y-109411153D01*
X149542000Y-108963153D02*
X149542000Y-109131153D01*
X155814000Y-109411153D02*
X155870000Y-109411153D01*
X154022000Y-108963153D02*
X154022000Y-109131153D01*
X149262000Y-109299153D02*
X149262000Y-109131153D01*
X146050000Y-108877153D02*
X146304000Y-109131153D01*
X150662000Y-108963153D02*
X150662000Y-109131153D01*
X151222000Y-108963153D02*
X151222000Y-109131153D01*
X153350000Y-108851153D02*
G75*
G02*
X153462047Y-108963153I0J-112047D01*
G01*
X155982000Y-108963153D02*
G75*
G02*
X156094000Y-108851200I112000J-47D01*
G01*
X152622000Y-108963153D02*
G75*
G02*
X152734000Y-108851200I112000J-47D01*
G01*
X151502000Y-108963153D02*
G75*
G02*
X151614000Y-108851200I112000J-47D01*
G01*
X151222000Y-109299153D02*
G75*
G03*
X151334000Y-109411200I112000J-47D01*
G01*
X154582000Y-109299153D02*
G75*
G03*
X154694000Y-109411200I112000J-47D01*
G01*
X155590000Y-108851153D02*
G75*
G02*
X155702047Y-108963153I0J-112047D01*
G01*
X155422000Y-108963153D02*
G75*
G02*
X155534000Y-108851200I112000J-47D01*
G01*
X153070000Y-109411153D02*
G75*
G03*
X153181953Y-109299153I0J111953D01*
G01*
X152790000Y-108851153D02*
G75*
G02*
X152902047Y-108963153I0J-112047D01*
G01*
X155870000Y-109411153D02*
G75*
G03*
X155981953Y-109299153I0J111953D01*
G01*
X154022000Y-109299153D02*
G75*
G03*
X154134000Y-109411200I112000J-47D01*
G01*
X152510000Y-109411153D02*
G75*
G03*
X152621953Y-109299153I0J111953D01*
G01*
X155030000Y-108851153D02*
G75*
G02*
X155142047Y-108963153I0J-112047D01*
G01*
X149262000Y-108963153D02*
G75*
G02*
X149374000Y-108851200I112000J-47D01*
G01*
X149822000Y-108963153D02*
G75*
G02*
X149934000Y-108851200I112000J-47D01*
G01*
X154470000Y-108851153D02*
G75*
G02*
X154582047Y-108963153I0J-112047D01*
G01*
X148702000Y-108963153D02*
G75*
G02*
X148814000Y-108851200I112000J-47D01*
G01*
X148590000Y-109131153D02*
G75*
G03*
X148701953Y-109019153I0J111953D01*
G01*
X150270000Y-109411153D02*
G75*
G03*
X150381953Y-109299153I0J111953D01*
G01*
X156262000Y-109019153D02*
G75*
G03*
X156374000Y-109131200I112000J-47D01*
G01*
X153630000Y-109411153D02*
G75*
G03*
X153741953Y-109299153I0J111953D01*
G01*
X148870000Y-108851153D02*
G75*
G02*
X148982047Y-108963153I0J-112047D01*
G01*
X153182000Y-108963153D02*
G75*
G02*
X153294000Y-108851200I112000J-47D01*
G01*
X150942000Y-108963153D02*
G75*
G02*
X151054000Y-108851200I112000J-47D01*
G01*
X154862000Y-108963153D02*
G75*
G02*
X154974000Y-108851200I112000J-47D01*
G01*
X154750000Y-109411153D02*
G75*
G03*
X154861953Y-109299153I0J111953D01*
G01*
X150662000Y-109299153D02*
G75*
G03*
X150774000Y-109411200I112000J-47D01*
G01*
X151782000Y-109299153D02*
G75*
G03*
X151894000Y-109411200I112000J-47D01*
G01*
X156150000Y-108851153D02*
G75*
G02*
X156262047Y-108963153I0J-112047D01*
G01*
X149150000Y-109411153D02*
G75*
G03*
X149261953Y-109299153I0J111953D01*
G01*
X155142000Y-109299153D02*
G75*
G03*
X155254000Y-109411200I112000J-47D01*
G01*
X149542000Y-109299153D02*
G75*
G03*
X149654000Y-109411200I112000J-47D01*
G01*
X153462000Y-109299153D02*
G75*
G03*
X153574000Y-109411200I112000J-47D01*
G01*
X151950000Y-109411153D02*
G75*
G03*
X152061953Y-109299153I0J111953D01*
G01*
X152902000Y-109299153D02*
G75*
G03*
X153014000Y-109411200I112000J-47D01*
G01*
X150830000Y-109411153D02*
G75*
G03*
X150941953Y-109299153I0J111953D01*
G01*
X150550000Y-108851153D02*
G75*
G02*
X150662047Y-108963153I0J-112047D01*
G01*
X150102000Y-109299153D02*
G75*
G03*
X150214000Y-109411200I112000J-47D01*
G01*
X152342000Y-109299153D02*
G75*
G03*
X152454000Y-109411200I112000J-47D01*
G01*
X154302000Y-108963153D02*
G75*
G02*
X154414000Y-108851200I112000J-47D01*
G01*
X151670000Y-108851153D02*
G75*
G02*
X151782047Y-108963153I0J-112047D01*
G01*
X153742000Y-108963153D02*
G75*
G02*
X153854000Y-108851200I112000J-47D01*
G01*
X154190000Y-109411153D02*
G75*
G03*
X154301953Y-109299153I0J111953D01*
G01*
X155310000Y-109411153D02*
G75*
G03*
X155421953Y-109299153I0J111953D01*
G01*
X153910000Y-108851153D02*
G75*
G02*
X154022047Y-108963153I0J-112047D01*
G01*
X150382000Y-108963153D02*
G75*
G02*
X150494000Y-108851200I112000J-47D01*
G01*
X155702000Y-109299153D02*
G75*
G03*
X155814000Y-109411200I112000J-47D01*
G01*
X152230000Y-108851153D02*
G75*
G02*
X152342047Y-108963153I0J-112047D01*
G01*
X149430000Y-108851153D02*
G75*
G02*
X149542047Y-108963153I0J-112047D01*
G01*
X149710000Y-109411153D02*
G75*
G03*
X149821953Y-109299153I0J111953D01*
G01*
X148982000Y-109299153D02*
G75*
G03*
X149094000Y-109411200I112000J-47D01*
G01*
X152062000Y-108963153D02*
G75*
G02*
X152174000Y-108851200I112000J-47D01*
G01*
X151390000Y-109411153D02*
G75*
G03*
X151501953Y-109299153I0J111953D01*
G01*
X149990000Y-108851153D02*
G75*
G02*
X150102047Y-108963153I0J-112047D01*
G01*
X151110000Y-108851153D02*
G75*
G02*
X151222047Y-108963153I0J-112047D01*
G01*
D16*
%TO.N,VCC*%
X159498000Y-109893153D02*
X160260000Y-109131153D01*
X161042000Y-108349153D02*
X160260000Y-109131153D01*
X145923000Y-109893153D02*
X157962000Y-109893153D01*
X145542000Y-109512153D02*
X145923000Y-109893153D01*
X157962000Y-109893153D02*
X159498000Y-109893153D01*
X158978000Y-108877153D02*
X159506000Y-108349153D01*
X158724000Y-109131153D02*
X158978000Y-108877153D01*
X157962000Y-109893153D02*
X159506000Y-108349153D01*
%TO.N,GND*%
X137922000Y-105321153D02*
X138280173Y-104962980D01*
X141276086Y-104962980D02*
X141933913Y-104305153D01*
X159512000Y-104305153D02*
X161042000Y-105835153D01*
X161042000Y-105835153D02*
X161042000Y-105849153D01*
X158242000Y-104305153D02*
X159512000Y-104305153D01*
X138280173Y-104962980D02*
X141276086Y-104962980D01*
X159506000Y-105849153D02*
X157962000Y-104305153D01*
X157962000Y-104305153D02*
X157734000Y-104305153D01*
X141933913Y-104305153D02*
X158242000Y-104305153D01*
%TD*%
M02*
