%TF.GenerationSoftware,KiCad,Pcbnew,8.0.2-1*%
%TF.CreationDate,2024-08-02T01:43:28+02:00*%
%TF.ProjectId,keyboard,6b657962-6f61-4726-942e-6b696361645f,1.0*%
%TF.SameCoordinates,Original*%
%TF.FileFunction,Component,L1,Top*%
%TF.FilePolarity,Positive*%
%FSLAX46Y46*%
G04 Gerber Fmt 4.6, Leading zero omitted, Abs format (unit mm)*
G04 Created by KiCad (PCBNEW 8.0.2-1) date 2024-08-02 01:43:28*
%MOMM*%
%LPD*%
G01*
G04 APERTURE LIST*
%TA.AperFunction,ComponentMain*%
%ADD10C,0.300000*%
%TD*%
%TA.AperFunction,ComponentOutline,Footprint*%
%ADD11C,0.100000*%
%TD*%
%TA.AperFunction,ComponentPin*%
%ADD12P,0.360000X4X0.000000*%
%TD*%
%TA.AperFunction,ComponentPin*%
%ADD13C,0.100000*%
%TD*%
%TA.AperFunction,ComponentOutline,Courtyard*%
%ADD14C,0.100000*%
%TD*%
G04 APERTURE END LIST*
D10*
%TO.C,K_SPACE36*%
%TO.CFtp,MX-1U-NoLED*%
%TO.CVal,KEYSW*%
%TO.CLbN,MX_ALPS_Hybrid*%
%TO.CMnt,TH*%
%TO.CRot,180*%
X229327767Y-134200000D03*
D11*
X235282767Y-140405000D02*
X235282767Y-132206100D01*
X223372767Y-132206100D01*
X223372767Y-140405000D01*
X235282767Y-140405000D01*
D12*
%TO.P,K_SPACE36,1*%
X233137767Y-136740000D03*
X231827767Y-138200000D03*
D13*
%TO.P,K_SPACE36,*%
X234407767Y-134200000D03*
X229327767Y-134200000D03*
X224247767Y-134200000D03*
%TO.P,K_SPACE36,2*%
X226827767Y-138700000D03*
X226787767Y-139280000D03*
%TD*%
D10*
%TO.C,K_SPACE45*%
%TO.CFtp,MX-1U-NoLED*%
%TO.CVal,KEYSW*%
%TO.CLbN,MX_ALPS_Hybrid*%
%TO.CMnt,TH*%
%TO.CRot,180*%
X157890267Y-153250000D03*
D11*
X163845267Y-159455000D02*
X163845267Y-151256100D01*
X151935267Y-151256100D01*
X151935267Y-159455000D01*
X163845267Y-159455000D01*
D12*
%TO.P,K_SPACE45,1*%
X161700267Y-155790000D03*
X160390267Y-157250000D03*
D13*
%TO.P,K_SPACE45,*%
X162970267Y-153250000D03*
X157890267Y-153250000D03*
X152810267Y-153250000D03*
%TO.P,K_SPACE45,2*%
X155390267Y-157750000D03*
X155350267Y-158330000D03*
%TD*%
D10*
%TO.C,K_SPACE70*%
%TO.CFtp,MX-1U-NoLED*%
%TO.CVal,KEYSW*%
%TO.CLbN,MX_ALPS_Hybrid*%
%TO.CMnt,TH*%
%TO.CRot,180*%
X86452767Y-191350000D03*
D11*
X92407767Y-197555000D02*
X92407767Y-189356100D01*
X80497767Y-189356100D01*
X80497767Y-197555000D01*
X92407767Y-197555000D01*
D12*
%TO.P,K_SPACE70,1*%
X90262767Y-193890000D03*
X88952767Y-195350000D03*
D13*
%TO.P,K_SPACE70,*%
X91532767Y-191350000D03*
X86452767Y-191350000D03*
X81372767Y-191350000D03*
%TO.P,K_SPACE70,2*%
X83952767Y-195850000D03*
X83912767Y-196430000D03*
%TD*%
D10*
%TO.C,K_SPACE52*%
%TO.CFtp,MX-1U-NoLED*%
%TO.CVal,KEYSW*%
%TO.CLbN,MX_ALPS_Hybrid*%
%TO.CMnt,TH*%
%TO.CRot,180*%
X291240267Y-153250000D03*
D11*
X297195267Y-159455000D02*
X297195267Y-151256100D01*
X285285267Y-151256100D01*
X285285267Y-159455000D01*
X297195267Y-159455000D01*
D12*
%TO.P,K_SPACE52,1*%
X295050267Y-155790000D03*
X293740267Y-157250000D03*
D13*
%TO.P,K_SPACE52,*%
X296320267Y-153250000D03*
X291240267Y-153250000D03*
X286160267Y-153250000D03*
%TO.P,K_SPACE52,2*%
X288740267Y-157750000D03*
X288700267Y-158330000D03*
%TD*%
D10*
%TO.C,K_SPACE50*%
%TO.CFtp,MX-1U-NoLED*%
%TO.CVal,KEYSW*%
%TO.CLbN,MX_ALPS_Hybrid*%
%TO.CMnt,TH*%
%TO.CRot,180*%
X253140267Y-153250000D03*
D11*
X259095267Y-159455000D02*
X259095267Y-151256100D01*
X247185267Y-151256100D01*
X247185267Y-159455000D01*
X259095267Y-159455000D01*
D12*
%TO.P,K_SPACE50,1*%
X256950267Y-155790000D03*
X255640267Y-157250000D03*
D13*
%TO.P,K_SPACE50,*%
X258220267Y-153250000D03*
X253140267Y-153250000D03*
X248060267Y-153250000D03*
%TO.P,K_SPACE50,2*%
X250640267Y-157750000D03*
X250600267Y-158330000D03*
%TD*%
D10*
%TO.C,K_SPACE24*%
%TO.CFtp,MX-1U-NoLED*%
%TO.CVal,KEYSW*%
%TO.CLbN,MX_ALPS_Hybrid*%
%TO.CMnt,TH*%
%TO.CRot,180*%
X257902767Y-115150000D03*
D11*
X263857767Y-121355000D02*
X263857767Y-113156100D01*
X251947767Y-113156100D01*
X251947767Y-121355000D01*
X263857767Y-121355000D01*
D12*
%TO.P,K_SPACE24,1*%
X261712767Y-117690000D03*
X260402767Y-119150000D03*
D13*
%TO.P,K_SPACE24,*%
X262982767Y-115150000D03*
X257902767Y-115150000D03*
X252822767Y-115150000D03*
%TO.P,K_SPACE24,2*%
X255402767Y-119650000D03*
X255362767Y-120230000D03*
%TD*%
D10*
%TO.C,K_SPACE54*%
%TO.CFtp,MX-ISO-NoLED*%
%TO.CVal,KEYSW*%
%TO.CLbN,MX_ALPS_Hybrid*%
%TO.CMnt,TH*%
%TO.CRot,0*%
X331721517Y-143725000D03*
D11*
X323212517Y-129793100D02*
X323212517Y-157656900D01*
X341970417Y-157656900D01*
X341970417Y-129793100D01*
X323212517Y-129793100D01*
D12*
%TO.P,K_SPACE54,1*%
X334221517Y-147725000D03*
X336221517Y-146225000D03*
X336801517Y-146265000D03*
D13*
%TO.P,K_SPACE54,*%
X324736517Y-131787000D03*
X324736517Y-155663000D03*
X331721517Y-138645000D03*
X331721517Y-143725000D03*
X331721517Y-148805000D03*
X339976517Y-131787000D03*
X339976517Y-155663000D03*
%TO.P,K_SPACE54,2*%
X329221517Y-148225000D03*
X334261517Y-139915000D03*
X335721517Y-141225000D03*
%TD*%
D10*
%TO.C,K_SPACE2*%
%TO.CFtp,MX-1U-NoLED*%
%TO.CVal,KEYSW*%
%TO.CLbN,MX_ALPS_Hybrid*%
%TO.CMnt,TH*%
%TO.CRot,180*%
X115027767Y-96100000D03*
D11*
X120982767Y-102305000D02*
X120982767Y-94106100D01*
X109072767Y-94106100D01*
X109072767Y-102305000D01*
X120982767Y-102305000D01*
D12*
%TO.P,K_SPACE2,1*%
X118837767Y-98640000D03*
X117527767Y-100100000D03*
D13*
%TO.P,K_SPACE2,*%
X120107767Y-96100000D03*
X115027767Y-96100000D03*
X109947767Y-96100000D03*
%TO.P,K_SPACE2,2*%
X112527767Y-100600000D03*
X112487767Y-101180000D03*
%TD*%
D10*
%TO.C,K_SPACE39*%
%TO.CFtp,MX-1U-NoLED*%
%TO.CVal,KEYSW*%
%TO.CLbN,MX_ALPS_Hybrid*%
%TO.CMnt,TH*%
%TO.CRot,180*%
X286477767Y-134200000D03*
D11*
X292432767Y-140405000D02*
X292432767Y-132206100D01*
X280522767Y-132206100D01*
X280522767Y-140405000D01*
X292432767Y-140405000D01*
D12*
%TO.P,K_SPACE39,1*%
X290287767Y-136740000D03*
X288977767Y-138200000D03*
D13*
%TO.P,K_SPACE39,*%
X291557767Y-134200000D03*
X286477767Y-134200000D03*
X281397767Y-134200000D03*
%TO.P,K_SPACE39,2*%
X283977767Y-138700000D03*
X283937767Y-139280000D03*
%TD*%
D10*
%TO.C,K_SPACE28*%
%TO.CFtp,MX-1.5U-NoLED*%
%TO.CVal,KEYSW*%
%TO.CLbN,MX_ALPS_Hybrid*%
%TO.CMnt,TH*%
%TO.CRot,180*%
X72165267Y-134200000D03*
D11*
X78120267Y-140405000D02*
X78120267Y-132206100D01*
X66210267Y-132206100D01*
X66210267Y-140405000D01*
X78120267Y-140405000D01*
D12*
%TO.P,K_SPACE28,1*%
X75975267Y-136740000D03*
X74665267Y-138200000D03*
D13*
%TO.P,K_SPACE28,*%
X77245267Y-134200000D03*
X72165267Y-134200000D03*
X67085267Y-134200000D03*
%TO.P,K_SPACE28,2*%
X69665267Y-138700000D03*
X69625267Y-139280000D03*
%TD*%
D10*
%TO.C,K_SPACE72*%
%TO.CFtp,MX-1.25U-NoLED*%
%TO.CVal,KEYSW*%
%TO.CLbN,MX_ALPS_Hybrid*%
%TO.CMnt,TH*%
%TO.CRot,180*%
X126934017Y-191350000D03*
D11*
X132889017Y-197555000D02*
X132889017Y-189356100D01*
X120979017Y-189356100D01*
X120979017Y-197555000D01*
X132889017Y-197555000D01*
D12*
%TO.P,K_SPACE72,1*%
X130744017Y-193890000D03*
X129434017Y-195350000D03*
D13*
%TO.P,K_SPACE72,*%
X132014017Y-191350000D03*
X126934017Y-191350000D03*
X121854017Y-191350000D03*
%TO.P,K_SPACE72,2*%
X124434017Y-195850000D03*
X124394017Y-196430000D03*
%TD*%
D10*
%TO.C,K_SPACE4*%
%TO.CFtp,MX-1U-NoLED*%
%TO.CVal,KEYSW*%
%TO.CLbN,MX_ALPS_Hybrid*%
%TO.CMnt,TH*%
%TO.CRot,180*%
X153127767Y-96100000D03*
D11*
X159082767Y-102305000D02*
X159082767Y-94106100D01*
X147172767Y-94106100D01*
X147172767Y-102305000D01*
X159082767Y-102305000D01*
D12*
%TO.P,K_SPACE4,1*%
X156937767Y-98640000D03*
X155627767Y-100100000D03*
D13*
%TO.P,K_SPACE4,*%
X158207767Y-96100000D03*
X153127767Y-96100000D03*
X148047767Y-96100000D03*
%TO.P,K_SPACE4,2*%
X150627767Y-100600000D03*
X150587767Y-101180000D03*
%TD*%
D10*
%TO.C,K_SPACE43*%
%TO.CFtp,MX-1U-NoLED*%
%TO.CVal,KEYSW*%
%TO.CLbN,MX_ALPS_Hybrid*%
%TO.CMnt,TH*%
%TO.CRot,180*%
X119790267Y-153250000D03*
D11*
X125745267Y-159455000D02*
X125745267Y-151256100D01*
X113835267Y-151256100D01*
X113835267Y-159455000D01*
X125745267Y-159455000D01*
D12*
%TO.P,K_SPACE43,1*%
X123600267Y-155790000D03*
X122290267Y-157250000D03*
D13*
%TO.P,K_SPACE43,*%
X124870267Y-153250000D03*
X119790267Y-153250000D03*
X114710267Y-153250000D03*
%TO.P,K_SPACE43,2*%
X117290267Y-157750000D03*
X117250267Y-158330000D03*
%TD*%
D10*
%TO.C,K_SPACE10*%
%TO.CFtp,MX-1U-NoLED*%
%TO.CVal,KEYSW*%
%TO.CLbN,MX_ALPS_Hybrid*%
%TO.CMnt,TH*%
%TO.CRot,180*%
X286477767Y-96100000D03*
D11*
X292432767Y-102305000D02*
X292432767Y-94106100D01*
X280522767Y-94106100D01*
X280522767Y-102305000D01*
X292432767Y-102305000D01*
D12*
%TO.P,K_SPACE10,1*%
X290287767Y-98640000D03*
X288977767Y-100100000D03*
D13*
%TO.P,K_SPACE10,*%
X291557767Y-96100000D03*
X286477767Y-96100000D03*
X281397767Y-96100000D03*
%TO.P,K_SPACE10,2*%
X283977767Y-100600000D03*
X283937767Y-101180000D03*
%TD*%
D10*
%TO.C,K_SPACE78*%
%TO.CFtp,MX-1U-NoLED*%
%TO.CVal,KEYSW*%
%TO.CLbN,MX_ALPS_Hybrid*%
%TO.CMnt,TH*%
%TO.CRot,180*%
X353152767Y-191350000D03*
D11*
X359107767Y-197555000D02*
X359107767Y-189356100D01*
X347197767Y-189356100D01*
X347197767Y-197555000D01*
X359107767Y-197555000D01*
D12*
%TO.P,K_SPACE78,1*%
X356962767Y-193890000D03*
X355652767Y-195350000D03*
D13*
%TO.P,K_SPACE78,*%
X358232767Y-191350000D03*
X353152767Y-191350000D03*
X348072767Y-191350000D03*
%TO.P,K_SPACE78,2*%
X350652767Y-195850000D03*
X350612767Y-196430000D03*
%TD*%
D10*
%TO.C,K_SPACE20*%
%TO.CFtp,MX-1U-NoLED*%
%TO.CVal,KEYSW*%
%TO.CLbN,MX_ALPS_Hybrid*%
%TO.CMnt,TH*%
%TO.CRot,180*%
X181702767Y-115150000D03*
D11*
X187657767Y-121355000D02*
X187657767Y-113156100D01*
X175747767Y-113156100D01*
X175747767Y-121355000D01*
X187657767Y-121355000D01*
D12*
%TO.P,K_SPACE20,1*%
X185512767Y-117690000D03*
X184202767Y-119150000D03*
D13*
%TO.P,K_SPACE20,*%
X186782767Y-115150000D03*
X181702767Y-115150000D03*
X176622767Y-115150000D03*
%TO.P,K_SPACE20,2*%
X179202767Y-119650000D03*
X179162767Y-120230000D03*
%TD*%
D10*
%TO.C,K_SPACE51*%
%TO.CFtp,MX-1U-NoLED*%
%TO.CVal,KEYSW*%
%TO.CLbN,MX_ALPS_Hybrid*%
%TO.CMnt,TH*%
%TO.CRot,180*%
X272190267Y-153250000D03*
D11*
X278145267Y-159455000D02*
X278145267Y-151256100D01*
X266235267Y-151256100D01*
X266235267Y-159455000D01*
X278145267Y-159455000D01*
D12*
%TO.P,K_SPACE51,1*%
X276000267Y-155790000D03*
X274690267Y-157250000D03*
D13*
%TO.P,K_SPACE51,*%
X277270267Y-153250000D03*
X272190267Y-153250000D03*
X267110267Y-153250000D03*
%TO.P,K_SPACE51,2*%
X269690267Y-157750000D03*
X269650267Y-158330000D03*
%TD*%
D10*
%TO.C,SW2*%
%TO.CFtp,SW_SPST_PTS645*%
%TO.CVal,SW_Push*%
%TO.CLbN,Button_Switch_SMD*%
%TO.CMnt,SMD*%
%TO.CRot,0*%
X353150000Y-96100000D03*
D14*
X358199999Y-92700001D02*
X358199999Y-99499999D01*
X348100001Y-99499999D01*
X348100001Y-92700001D01*
X358199999Y-92700001D01*
D12*
%TO.P,SW2,1,1*%
X349170000Y-93850000D03*
X357130000Y-93850000D03*
D13*
%TO.P,SW2,2,2*%
X349170000Y-98350000D03*
X357130000Y-98350000D03*
%TD*%
D10*
%TO.C,K_SPACE63*%
%TO.CFtp,MX-1U-NoLED*%
%TO.CVal,KEYSW*%
%TO.CLbN,MX_ALPS_Hybrid*%
%TO.CMnt,TH*%
%TO.CRot,180*%
X224565267Y-172300000D03*
D11*
X230520267Y-178505000D02*
X230520267Y-170306100D01*
X218610267Y-170306100D01*
X218610267Y-178505000D01*
X230520267Y-178505000D01*
D12*
%TO.P,K_SPACE63,1*%
X228375267Y-174840000D03*
X227065267Y-176300000D03*
D13*
%TO.P,K_SPACE63,*%
X229645267Y-172300000D03*
X224565267Y-172300000D03*
X219485267Y-172300000D03*
%TO.P,K_SPACE63,2*%
X222065267Y-176800000D03*
X222025267Y-177380000D03*
%TD*%
D10*
%TO.C,K_SPACE75*%
%TO.CFtp,MX-1U-NoLED*%
%TO.CVal,KEYSW*%
%TO.CLbN,MX_ALPS_Hybrid*%
%TO.CMnt,TH*%
%TO.CRot,180*%
X291240267Y-191350000D03*
D11*
X297195267Y-197555000D02*
X297195267Y-189356100D01*
X285285267Y-189356100D01*
X285285267Y-197555000D01*
X297195267Y-197555000D01*
D12*
%TO.P,K_SPACE75,1*%
X295050267Y-193890000D03*
X293740267Y-195350000D03*
D13*
%TO.P,K_SPACE75,*%
X296320267Y-191350000D03*
X291240267Y-191350000D03*
X286160267Y-191350000D03*
%TO.P,K_SPACE75,2*%
X288740267Y-195850000D03*
X288700267Y-196430000D03*
%TD*%
D10*
%TO.C,K_SPACE60*%
%TO.CFtp,MX-1U-NoLED*%
%TO.CVal,KEYSW*%
%TO.CLbN,MX_ALPS_Hybrid*%
%TO.CMnt,TH*%
%TO.CRot,180*%
X167415267Y-172300000D03*
D11*
X173370267Y-178505000D02*
X173370267Y-170306100D01*
X161460267Y-170306100D01*
X161460267Y-178505000D01*
X173370267Y-178505000D01*
D12*
%TO.P,K_SPACE60,1*%
X171225267Y-174840000D03*
X169915267Y-176300000D03*
D13*
%TO.P,K_SPACE60,*%
X172495267Y-172300000D03*
X167415267Y-172300000D03*
X162335267Y-172300000D03*
%TO.P,K_SPACE60,2*%
X164915267Y-176800000D03*
X164875267Y-177380000D03*
%TD*%
D10*
%TO.C,K_SPACE37*%
%TO.CFtp,MX-1U-NoLED*%
%TO.CVal,KEYSW*%
%TO.CLbN,MX_ALPS_Hybrid*%
%TO.CMnt,TH*%
%TO.CRot,180*%
X248377767Y-134200000D03*
D11*
X254332767Y-140405000D02*
X254332767Y-132206100D01*
X242422767Y-132206100D01*
X242422767Y-140405000D01*
X254332767Y-140405000D01*
D12*
%TO.P,K_SPACE37,1*%
X252187767Y-136740000D03*
X250877767Y-138200000D03*
D13*
%TO.P,K_SPACE37,*%
X253457767Y-134200000D03*
X248377767Y-134200000D03*
X243297767Y-134200000D03*
%TO.P,K_SPACE37,2*%
X245877767Y-138700000D03*
X245837767Y-139280000D03*
%TD*%
D10*
%TO.C,K_SPACE31*%
%TO.CFtp,MX-1U-NoLED*%
%TO.CVal,KEYSW*%
%TO.CLbN,MX_ALPS_Hybrid*%
%TO.CMnt,TH*%
%TO.CRot,180*%
X134077767Y-134200000D03*
D11*
X140032767Y-140405000D02*
X140032767Y-132206100D01*
X128122767Y-132206100D01*
X128122767Y-140405000D01*
X140032767Y-140405000D01*
D12*
%TO.P,K_SPACE31,1*%
X137887767Y-136740000D03*
X136577767Y-138200000D03*
D13*
%TO.P,K_SPACE31,*%
X139157767Y-134200000D03*
X134077767Y-134200000D03*
X128997767Y-134200000D03*
%TO.P,K_SPACE31,2*%
X131577767Y-138700000D03*
X131537767Y-139280000D03*
%TD*%
D10*
%TO.C,K_SPACE19*%
%TO.CFtp,MX-1U-NoLED*%
%TO.CVal,KEYSW*%
%TO.CLbN,MX_ALPS_Hybrid*%
%TO.CMnt,TH*%
%TO.CRot,180*%
X162652767Y-115150000D03*
D11*
X168607767Y-121355000D02*
X168607767Y-113156100D01*
X156697767Y-113156100D01*
X156697767Y-121355000D01*
X168607767Y-121355000D01*
D12*
%TO.P,K_SPACE19,1*%
X166462767Y-117690000D03*
X165152767Y-119150000D03*
D13*
%TO.P,K_SPACE19,*%
X167732767Y-115150000D03*
X162652767Y-115150000D03*
X157572767Y-115150000D03*
%TO.P,K_SPACE19,2*%
X160152767Y-119650000D03*
X160112767Y-120230000D03*
%TD*%
D10*
%TO.C,K_SPACE25*%
%TO.CFtp,MX-1U-NoLED*%
%TO.CVal,KEYSW*%
%TO.CLbN,MX_ALPS_Hybrid*%
%TO.CMnt,TH*%
%TO.CRot,180*%
X276952767Y-115150000D03*
D11*
X282907767Y-121355000D02*
X282907767Y-113156100D01*
X270997767Y-113156100D01*
X270997767Y-121355000D01*
X282907767Y-121355000D01*
D12*
%TO.P,K_SPACE25,1*%
X280762767Y-117690000D03*
X279452767Y-119150000D03*
D13*
%TO.P,K_SPACE25,*%
X282032767Y-115150000D03*
X276952767Y-115150000D03*
X271872767Y-115150000D03*
%TO.P,K_SPACE25,2*%
X274452767Y-119650000D03*
X274412767Y-120230000D03*
%TD*%
D10*
%TO.C,K_SPACE32*%
%TO.CFtp,MX-1U-NoLED*%
%TO.CVal,KEYSW*%
%TO.CLbN,MX_ALPS_Hybrid*%
%TO.CMnt,TH*%
%TO.CRot,180*%
X153127767Y-134200000D03*
D11*
X159082767Y-140405000D02*
X159082767Y-132206100D01*
X147172767Y-132206100D01*
X147172767Y-140405000D01*
X159082767Y-140405000D01*
D12*
%TO.P,K_SPACE32,1*%
X156937767Y-136740000D03*
X155627767Y-138200000D03*
D13*
%TO.P,K_SPACE32,*%
X158207767Y-134200000D03*
X153127767Y-134200000D03*
X148047767Y-134200000D03*
%TO.P,K_SPACE32,2*%
X150627767Y-138700000D03*
X150587767Y-139280000D03*
%TD*%
D10*
%TO.C,K_SPACE6*%
%TO.CFtp,MX-1U-NoLED*%
%TO.CVal,KEYSW*%
%TO.CLbN,MX_ALPS_Hybrid*%
%TO.CMnt,TH*%
%TO.CRot,180*%
X200752767Y-96100000D03*
D11*
X206707767Y-102305000D02*
X206707767Y-94106100D01*
X194797767Y-94106100D01*
X194797767Y-102305000D01*
X206707767Y-102305000D01*
D12*
%TO.P,K_SPACE6,1*%
X204562767Y-98640000D03*
X203252767Y-100100000D03*
D13*
%TO.P,K_SPACE6,*%
X205832767Y-96100000D03*
X200752767Y-96100000D03*
X195672767Y-96100000D03*
%TO.P,K_SPACE6,2*%
X198252767Y-100600000D03*
X198212767Y-101180000D03*
%TD*%
D10*
%TO.C,K_SPACE30*%
%TO.CFtp,MX-1U-NoLED*%
%TO.CVal,KEYSW*%
%TO.CLbN,MX_ALPS_Hybrid*%
%TO.CMnt,TH*%
%TO.CRot,180*%
X115027767Y-134200000D03*
D11*
X120982767Y-140405000D02*
X120982767Y-132206100D01*
X109072767Y-132206100D01*
X109072767Y-140405000D01*
X120982767Y-140405000D01*
D12*
%TO.P,K_SPACE30,1*%
X118837767Y-136740000D03*
X117527767Y-138200000D03*
D13*
%TO.P,K_SPACE30,*%
X120107767Y-134200000D03*
X115027767Y-134200000D03*
X109947767Y-134200000D03*
%TO.P,K_SPACE30,2*%
X112527767Y-138700000D03*
X112487767Y-139280000D03*
%TD*%
D10*
%TO.C,K_SPACE41*%
%TO.CFtp,MX-1.75U-NoLED*%
%TO.CVal,KEYSW*%
%TO.CLbN,MX_ALPS_Hybrid*%
%TO.CMnt,TH*%
%TO.CRot,180*%
X74546517Y-153250000D03*
D11*
X80501517Y-159455000D02*
X80501517Y-151256100D01*
X68591517Y-151256100D01*
X68591517Y-159455000D01*
X80501517Y-159455000D01*
D12*
%TO.P,K_SPACE41,1*%
X78356517Y-155790000D03*
X77046517Y-157250000D03*
D13*
%TO.P,K_SPACE41,*%
X79626517Y-153250000D03*
X74546517Y-153250000D03*
X69466517Y-153250000D03*
%TO.P,K_SPACE41,2*%
X72046517Y-157750000D03*
X72006517Y-158330000D03*
%TD*%
D10*
%TO.C,K_SPACE27*%
%TO.CFtp,MX-2U-NoLED*%
%TO.CVal,KEYSW*%
%TO.CLbN,MX_ALPS_Hybrid*%
%TO.CMnt,TH*%
%TO.CRot,180*%
X324577767Y-115150000D03*
D11*
X338509667Y-123659000D02*
X338509667Y-104901100D01*
X310645867Y-104901100D01*
X310645867Y-123659000D01*
X338509667Y-123659000D01*
D12*
%TO.P,K_SPACE27,1*%
X328387767Y-117690000D03*
X327077767Y-119150000D03*
D13*
%TO.P,K_SPACE27,*%
X336515767Y-122135000D03*
X336515767Y-106895000D03*
X329657767Y-115150000D03*
X324577767Y-115150000D03*
X319497767Y-115150000D03*
X312639767Y-122135000D03*
X312639767Y-106895000D03*
%TO.P,K_SPACE27,2*%
X322077767Y-119650000D03*
X322037767Y-120230000D03*
%TD*%
D10*
%TO.C,K_SPACE73*%
%TO.CFtp,MX-6.25U-NoLED*%
%TO.CVal,KEYSW*%
%TO.CLbN,MX_ALPS_Hybrid*%
%TO.CMnt,TH*%
%TO.CRot,180*%
X198371517Y-191350000D03*
D11*
X250365317Y-199859000D02*
X250365317Y-181101100D01*
X146377717Y-181101100D01*
X146377717Y-199859000D01*
X250365317Y-199859000D01*
D12*
%TO.P,K_SPACE73,1*%
X202181517Y-193890000D03*
X200871517Y-195350000D03*
D13*
%TO.P,K_SPACE73,*%
X248371417Y-198335000D03*
X248371417Y-183095000D03*
X203451517Y-191350000D03*
X198371517Y-191350000D03*
X193291517Y-191350000D03*
X148371617Y-198335000D03*
X148371617Y-183095000D03*
%TO.P,K_SPACE73,2*%
X195871517Y-195850000D03*
X195831517Y-196430000D03*
%TD*%
D10*
%TO.C,K_SPACE67*%
%TO.CFtp,MX-1.5U-NoLED*%
%TO.CVal,KEYSW*%
%TO.CLbN,MX_ALPS_Hybrid*%
%TO.CMnt,TH*%
%TO.CRot,180*%
X305527767Y-172300000D03*
D11*
X311482767Y-178505000D02*
X311482767Y-170306100D01*
X299572767Y-170306100D01*
X299572767Y-178505000D01*
X311482767Y-178505000D01*
D12*
%TO.P,K_SPACE67,1*%
X309337767Y-174840000D03*
X308027767Y-176300000D03*
D13*
%TO.P,K_SPACE67,*%
X310607767Y-172300000D03*
X305527767Y-172300000D03*
X300447767Y-172300000D03*
%TO.P,K_SPACE67,2*%
X303027767Y-176800000D03*
X302987767Y-177380000D03*
%TD*%
D10*
%TO.C,K_SPACE53*%
%TO.CFtp,MX-1U-NoLED*%
%TO.CVal,KEYSW*%
%TO.CLbN,MX_ALPS_Hybrid*%
%TO.CMnt,TH*%
%TO.CRot,180*%
X310290267Y-153250000D03*
D11*
X316245267Y-159455000D02*
X316245267Y-151256100D01*
X304335267Y-151256100D01*
X304335267Y-159455000D01*
X316245267Y-159455000D01*
D12*
%TO.P,K_SPACE53,1*%
X314100267Y-155790000D03*
X312790267Y-157250000D03*
D13*
%TO.P,K_SPACE53,*%
X315370267Y-153250000D03*
X310290267Y-153250000D03*
X305210267Y-153250000D03*
%TO.P,K_SPACE53,2*%
X307790267Y-157750000D03*
X307750267Y-158330000D03*
%TD*%
D10*
%TO.C,K_SPACE1*%
%TO.CFtp,MX-1U-NoLED*%
%TO.CVal,KEYSW*%
%TO.CLbN,MX_ALPS_Hybrid*%
%TO.CMnt,TH*%
%TO.CRot,180*%
X95977767Y-96100000D03*
D11*
X101932767Y-102305000D02*
X101932767Y-94106100D01*
X90022767Y-94106100D01*
X90022767Y-102305000D01*
X101932767Y-102305000D01*
D12*
%TO.P,K_SPACE1,1*%
X99787767Y-98640000D03*
X98477767Y-100100000D03*
D13*
%TO.P,K_SPACE1,*%
X101057767Y-96100000D03*
X95977767Y-96100000D03*
X90897767Y-96100000D03*
%TO.P,K_SPACE1,2*%
X93477767Y-100600000D03*
X93437767Y-101180000D03*
%TD*%
D10*
%TO.C,K_SPACE76*%
%TO.CFtp,MX-1U-NoLED*%
%TO.CVal,KEYSW*%
%TO.CLbN,MX_ALPS_Hybrid*%
%TO.CMnt,TH*%
%TO.CRot,180*%
X315052767Y-191350000D03*
D11*
X321007767Y-197555000D02*
X321007767Y-189356100D01*
X309097767Y-189356100D01*
X309097767Y-197555000D01*
X321007767Y-197555000D01*
D12*
%TO.P,K_SPACE76,1*%
X318862767Y-193890000D03*
X317552767Y-195350000D03*
D13*
%TO.P,K_SPACE76,*%
X320132767Y-191350000D03*
X315052767Y-191350000D03*
X309972767Y-191350000D03*
%TO.P,K_SPACE76,2*%
X312552767Y-195850000D03*
X312512767Y-196430000D03*
%TD*%
D10*
%TO.C,K_SPACE55*%
%TO.CFtp,MX-1.25U-NoLED*%
%TO.CVal,KEYSW*%
%TO.CLbN,MX_ALPS_Hybrid*%
%TO.CMnt,TH*%
%TO.CRot,180*%
X69784017Y-172300000D03*
D11*
X75739017Y-178505000D02*
X75739017Y-170306100D01*
X63829017Y-170306100D01*
X63829017Y-178505000D01*
X75739017Y-178505000D01*
D12*
%TO.P,K_SPACE55,1*%
X73594017Y-174840000D03*
X72284017Y-176300000D03*
D13*
%TO.P,K_SPACE55,*%
X74864017Y-172300000D03*
X69784017Y-172300000D03*
X64704017Y-172300000D03*
%TO.P,K_SPACE55,2*%
X67284017Y-176800000D03*
X67244017Y-177380000D03*
%TD*%
D10*
%TO.C,K_SPACE35*%
%TO.CFtp,MX-1U-NoLED*%
%TO.CVal,KEYSW*%
%TO.CLbN,MX_ALPS_Hybrid*%
%TO.CMnt,TH*%
%TO.CRot,180*%
X210277767Y-134200000D03*
D11*
X216232767Y-140405000D02*
X216232767Y-132206100D01*
X204322767Y-132206100D01*
X204322767Y-140405000D01*
X216232767Y-140405000D01*
D12*
%TO.P,K_SPACE35,1*%
X214087767Y-136740000D03*
X212777767Y-138200000D03*
D13*
%TO.P,K_SPACE35,*%
X215357767Y-134200000D03*
X210277767Y-134200000D03*
X205197767Y-134200000D03*
%TO.P,K_SPACE35,2*%
X207777767Y-138700000D03*
X207737767Y-139280000D03*
%TD*%
D10*
%TO.C,K_SPACE26*%
%TO.CFtp,MX-1U-NoLED*%
%TO.CVal,KEYSW*%
%TO.CLbN,MX_ALPS_Hybrid*%
%TO.CMnt,TH*%
%TO.CRot,180*%
X296002767Y-115150000D03*
D11*
X301957767Y-121355000D02*
X301957767Y-113156100D01*
X290047767Y-113156100D01*
X290047767Y-121355000D01*
X301957767Y-121355000D01*
D12*
%TO.P,K_SPACE26,1*%
X299812767Y-117690000D03*
X298502767Y-119150000D03*
D13*
%TO.P,K_SPACE26,*%
X301082767Y-115150000D03*
X296002767Y-115150000D03*
X290922767Y-115150000D03*
%TO.P,K_SPACE26,2*%
X293502767Y-119650000D03*
X293462767Y-120230000D03*
%TD*%
D10*
%TO.C,K_SPACE14*%
%TO.CFtp,MX-1U-NoLED*%
%TO.CVal,KEYSW*%
%TO.CLbN,MX_ALPS_Hybrid*%
%TO.CMnt,TH*%
%TO.CRot,180*%
X67402767Y-115150000D03*
D11*
X73357767Y-121355000D02*
X73357767Y-113156100D01*
X61447767Y-113156100D01*
X61447767Y-121355000D01*
X73357767Y-121355000D01*
D12*
%TO.P,K_SPACE14,1*%
X71212767Y-117690000D03*
X69902767Y-119150000D03*
D13*
%TO.P,K_SPACE14,*%
X72482767Y-115150000D03*
X67402767Y-115150000D03*
X62322767Y-115150000D03*
%TO.P,K_SPACE14,2*%
X64902767Y-119650000D03*
X64862767Y-120230000D03*
%TD*%
D10*
%TO.C,K_SPACE57*%
%TO.CFtp,MX-1U-NoLED*%
%TO.CVal,KEYSW*%
%TO.CLbN,MX_ALPS_Hybrid*%
%TO.CMnt,TH*%
%TO.CRot,180*%
X110265267Y-172300000D03*
D11*
X116220267Y-178505000D02*
X116220267Y-170306100D01*
X104310267Y-170306100D01*
X104310267Y-178505000D01*
X116220267Y-178505000D01*
D12*
%TO.P,K_SPACE57,1*%
X114075267Y-174840000D03*
X112765267Y-176300000D03*
D13*
%TO.P,K_SPACE57,*%
X115345267Y-172300000D03*
X110265267Y-172300000D03*
X105185267Y-172300000D03*
%TO.P,K_SPACE57,2*%
X107765267Y-176800000D03*
X107725267Y-177380000D03*
%TD*%
D10*
%TO.C,K_SPACE40*%
%TO.CFtp,MX-1U-NoLED*%
%TO.CVal,KEYSW*%
%TO.CLbN,MX_ALPS_Hybrid*%
%TO.CMnt,TH*%
%TO.CRot,180*%
X305527767Y-134200000D03*
D11*
X311482767Y-140405000D02*
X311482767Y-132206100D01*
X299572767Y-132206100D01*
X299572767Y-140405000D01*
X311482767Y-140405000D01*
D12*
%TO.P,K_SPACE40,1*%
X309337767Y-136740000D03*
X308027767Y-138200000D03*
D13*
%TO.P,K_SPACE40,*%
X310607767Y-134200000D03*
X305527767Y-134200000D03*
X300447767Y-134200000D03*
%TO.P,K_SPACE40,2*%
X303027767Y-138700000D03*
X302987767Y-139280000D03*
%TD*%
D10*
%TO.C,K_SPACE34*%
%TO.CFtp,MX-1U-NoLED*%
%TO.CVal,KEYSW*%
%TO.CLbN,MX_ALPS_Hybrid*%
%TO.CMnt,TH*%
%TO.CRot,180*%
X191227767Y-134200000D03*
D11*
X197182767Y-140405000D02*
X197182767Y-132206100D01*
X185272767Y-132206100D01*
X185272767Y-140405000D01*
X197182767Y-140405000D01*
D12*
%TO.P,K_SPACE34,1*%
X195037767Y-136740000D03*
X193727767Y-138200000D03*
D13*
%TO.P,K_SPACE34,*%
X196307767Y-134200000D03*
X191227767Y-134200000D03*
X186147767Y-134200000D03*
%TO.P,K_SPACE34,2*%
X188727767Y-138700000D03*
X188687767Y-139280000D03*
%TD*%
D10*
%TO.C,K_SPACE42*%
%TO.CFtp,MX-1U-NoLED*%
%TO.CVal,KEYSW*%
%TO.CLbN,MX_ALPS_Hybrid*%
%TO.CMnt,TH*%
%TO.CRot,180*%
X100740267Y-153250000D03*
D11*
X106695267Y-159455000D02*
X106695267Y-151256100D01*
X94785267Y-151256100D01*
X94785267Y-159455000D01*
X106695267Y-159455000D01*
D12*
%TO.P,K_SPACE42,1*%
X104550267Y-155790000D03*
X103240267Y-157250000D03*
D13*
%TO.P,K_SPACE42,*%
X105820267Y-153250000D03*
X100740267Y-153250000D03*
X95660267Y-153250000D03*
%TO.P,K_SPACE42,2*%
X98240267Y-157750000D03*
X98200267Y-158330000D03*
%TD*%
D10*
%TO.C,K_SPACE74*%
%TO.CFtp,MX-1.25U-NoLED*%
%TO.CVal,KEYSW*%
%TO.CLbN,MX_ALPS_Hybrid*%
%TO.CMnt,TH*%
%TO.CRot,180*%
X269809017Y-191350000D03*
D11*
X275764017Y-197555000D02*
X275764017Y-189356100D01*
X263854017Y-189356100D01*
X263854017Y-197555000D01*
X275764017Y-197555000D01*
D12*
%TO.P,K_SPACE74,1*%
X273619017Y-193890000D03*
X272309017Y-195350000D03*
D13*
%TO.P,K_SPACE74,*%
X274889017Y-191350000D03*
X269809017Y-191350000D03*
X264729017Y-191350000D03*
%TO.P,K_SPACE74,2*%
X267309017Y-195850000D03*
X267269017Y-196430000D03*
%TD*%
D10*
%TO.C,K_SPACE15*%
%TO.CFtp,MX-1U-NoLED*%
%TO.CVal,KEYSW*%
%TO.CLbN,MX_ALPS_Hybrid*%
%TO.CMnt,TH*%
%TO.CRot,180*%
X86452767Y-115150000D03*
D11*
X92407767Y-121355000D02*
X92407767Y-113156100D01*
X80497767Y-113156100D01*
X80497767Y-121355000D01*
X92407767Y-121355000D01*
D12*
%TO.P,K_SPACE15,1*%
X90262767Y-117690000D03*
X88952767Y-119150000D03*
D13*
%TO.P,K_SPACE15,*%
X91532767Y-115150000D03*
X86452767Y-115150000D03*
X81372767Y-115150000D03*
%TO.P,K_SPACE15,2*%
X83952767Y-119650000D03*
X83912767Y-120230000D03*
%TD*%
D10*
%TO.C,K_SPACE64*%
%TO.CFtp,MX-1U-NoLED*%
%TO.CVal,KEYSW*%
%TO.CLbN,MX_ALPS_Hybrid*%
%TO.CMnt,TH*%
%TO.CRot,180*%
X243615267Y-172300000D03*
D11*
X249570267Y-178505000D02*
X249570267Y-170306100D01*
X237660267Y-170306100D01*
X237660267Y-178505000D01*
X249570267Y-178505000D01*
D12*
%TO.P,K_SPACE64,1*%
X247425267Y-174840000D03*
X246115267Y-176300000D03*
D13*
%TO.P,K_SPACE64,*%
X248695267Y-172300000D03*
X243615267Y-172300000D03*
X238535267Y-172300000D03*
%TO.P,K_SPACE64,2*%
X241115267Y-176800000D03*
X241075267Y-177380000D03*
%TD*%
D10*
%TO.C,K_SPACE9*%
%TO.CFtp,MX-1U-NoLED*%
%TO.CVal,KEYSW*%
%TO.CLbN,MX_ALPS_Hybrid*%
%TO.CMnt,TH*%
%TO.CRot,180*%
X267427767Y-96100000D03*
D11*
X273382767Y-102305000D02*
X273382767Y-94106100D01*
X261472767Y-94106100D01*
X261472767Y-102305000D01*
X273382767Y-102305000D01*
D12*
%TO.P,K_SPACE9,1*%
X271237767Y-98640000D03*
X269927767Y-100100000D03*
D13*
%TO.P,K_SPACE9,*%
X272507767Y-96100000D03*
X267427767Y-96100000D03*
X262347767Y-96100000D03*
%TO.P,K_SPACE9,2*%
X264927767Y-100600000D03*
X264887767Y-101180000D03*
%TD*%
D10*
%TO.C,K_SPACE48*%
%TO.CFtp,MX-1U-NoLED*%
%TO.CVal,KEYSW*%
%TO.CLbN,MX_ALPS_Hybrid*%
%TO.CMnt,TH*%
%TO.CRot,180*%
X215040267Y-153250000D03*
D11*
X220995267Y-159455000D02*
X220995267Y-151256100D01*
X209085267Y-151256100D01*
X209085267Y-159455000D01*
X220995267Y-159455000D01*
D12*
%TO.P,K_SPACE48,1*%
X218850267Y-155790000D03*
X217540267Y-157250000D03*
D13*
%TO.P,K_SPACE48,*%
X220120267Y-153250000D03*
X215040267Y-153250000D03*
X209960267Y-153250000D03*
%TO.P,K_SPACE48,2*%
X212540267Y-157750000D03*
X212500267Y-158330000D03*
%TD*%
D10*
%TO.C,K_SPACE16*%
%TO.CFtp,MX-1U-NoLED*%
%TO.CVal,KEYSW*%
%TO.CLbN,MX_ALPS_Hybrid*%
%TO.CMnt,TH*%
%TO.CRot,180*%
X105502767Y-115150000D03*
D11*
X111457767Y-121355000D02*
X111457767Y-113156100D01*
X99547767Y-113156100D01*
X99547767Y-121355000D01*
X111457767Y-121355000D01*
D12*
%TO.P,K_SPACE16,1*%
X109312767Y-117690000D03*
X108002767Y-119150000D03*
D13*
%TO.P,K_SPACE16,*%
X110582767Y-115150000D03*
X105502767Y-115150000D03*
X100422767Y-115150000D03*
%TO.P,K_SPACE16,2*%
X103002767Y-119650000D03*
X102962767Y-120230000D03*
%TD*%
D10*
%TO.C,K_SPACE18*%
%TO.CFtp,MX-1U-NoLED*%
%TO.CVal,KEYSW*%
%TO.CLbN,MX_ALPS_Hybrid*%
%TO.CMnt,TH*%
%TO.CRot,180*%
X143602767Y-115150000D03*
D11*
X149557767Y-121355000D02*
X149557767Y-113156100D01*
X137647767Y-113156100D01*
X137647767Y-121355000D01*
X149557767Y-121355000D01*
D12*
%TO.P,K_SPACE18,1*%
X147412767Y-117690000D03*
X146102767Y-119150000D03*
D13*
%TO.P,K_SPACE18,*%
X148682767Y-115150000D03*
X143602767Y-115150000D03*
X138522767Y-115150000D03*
%TO.P,K_SPACE18,2*%
X141102767Y-119650000D03*
X141062767Y-120230000D03*
%TD*%
D10*
%TO.C,K_SPACE12*%
%TO.CFtp,MX-1U-NoLED*%
%TO.CVal,KEYSW*%
%TO.CLbN,MX_ALPS_Hybrid*%
%TO.CMnt,TH*%
%TO.CRot,180*%
X324577767Y-96100000D03*
D11*
X330532767Y-102305000D02*
X330532767Y-94106100D01*
X318622767Y-94106100D01*
X318622767Y-102305000D01*
X330532767Y-102305000D01*
D12*
%TO.P,K_SPACE12,1*%
X328387767Y-98640000D03*
X327077767Y-100100000D03*
D13*
%TO.P,K_SPACE12,*%
X329657767Y-96100000D03*
X324577767Y-96100000D03*
X319497767Y-96100000D03*
%TO.P,K_SPACE12,2*%
X322077767Y-100600000D03*
X322037767Y-101180000D03*
%TD*%
D10*
%TO.C,K_SPACE71*%
%TO.CFtp,MX-1U-NoLED*%
%TO.CVal,KEYSW*%
%TO.CLbN,MX_ALPS_Hybrid*%
%TO.CMnt,TH*%
%TO.CRot,180*%
X105502767Y-191350000D03*
D11*
X111457767Y-197555000D02*
X111457767Y-189356100D01*
X99547767Y-189356100D01*
X99547767Y-197555000D01*
X111457767Y-197555000D01*
D12*
%TO.P,K_SPACE71,1*%
X109312767Y-193890000D03*
X108002767Y-195350000D03*
D13*
%TO.P,K_SPACE71,*%
X110582767Y-191350000D03*
X105502767Y-191350000D03*
X100422767Y-191350000D03*
%TO.P,K_SPACE71,2*%
X103002767Y-195850000D03*
X102962767Y-196430000D03*
%TD*%
D10*
%TO.C,K_SPACE22*%
%TO.CFtp,MX-1U-NoLED*%
%TO.CVal,KEYSW*%
%TO.CLbN,MX_ALPS_Hybrid*%
%TO.CMnt,TH*%
%TO.CRot,180*%
X219802767Y-115150000D03*
D11*
X225757767Y-121355000D02*
X225757767Y-113156100D01*
X213847767Y-113156100D01*
X213847767Y-121355000D01*
X225757767Y-121355000D01*
D12*
%TO.P,K_SPACE22,1*%
X223612767Y-117690000D03*
X222302767Y-119150000D03*
D13*
%TO.P,K_SPACE22,*%
X224882767Y-115150000D03*
X219802767Y-115150000D03*
X214722767Y-115150000D03*
%TO.P,K_SPACE22,2*%
X217302767Y-119650000D03*
X217262767Y-120230000D03*
%TD*%
D10*
%TO.C,D1*%
%TO.CFtp,LED_0805_2012Metric*%
%TO.CVal,LED*%
%TO.CLbN,LED_SMD*%
%TO.CMnt,SMD*%
%TO.CRot,0*%
X63324500Y-148844000D03*
D14*
X65004499Y-147894001D02*
X65004499Y-149793999D01*
X61644501Y-149793999D01*
X61644501Y-147894001D01*
X65004499Y-147894001D01*
D12*
%TO.P,D1,1,K*%
X62387000Y-148844000D03*
D13*
%TO.P,D1,2,A*%
X64262000Y-148844000D03*
%TD*%
D10*
%TO.C,K_SPACE68*%
%TO.CFtp,MX-1U-NoLED*%
%TO.CVal,KEYSW*%
%TO.CLbN,MX_ALPS_Hybrid*%
%TO.CMnt,TH*%
%TO.CRot,180*%
X334102767Y-172300000D03*
D11*
X340057767Y-178505000D02*
X340057767Y-170306100D01*
X328147767Y-170306100D01*
X328147767Y-178505000D01*
X340057767Y-178505000D01*
D12*
%TO.P,K_SPACE68,1*%
X337912767Y-174840000D03*
X336602767Y-176300000D03*
D13*
%TO.P,K_SPACE68,*%
X339182767Y-172300000D03*
X334102767Y-172300000D03*
X329022767Y-172300000D03*
%TO.P,K_SPACE68,2*%
X331602767Y-176800000D03*
X331562767Y-177380000D03*
%TD*%
D10*
%TO.C,K_SPACE62*%
%TO.CFtp,MX-1U-NoLED*%
%TO.CVal,KEYSW*%
%TO.CLbN,MX_ALPS_Hybrid*%
%TO.CMnt,TH*%
%TO.CRot,180*%
X205515267Y-172300000D03*
D11*
X211470267Y-178505000D02*
X211470267Y-170306100D01*
X199560267Y-170306100D01*
X199560267Y-178505000D01*
X211470267Y-178505000D01*
D12*
%TO.P,K_SPACE62,1*%
X209325267Y-174840000D03*
X208015267Y-176300000D03*
D13*
%TO.P,K_SPACE62,*%
X210595267Y-172300000D03*
X205515267Y-172300000D03*
X200435267Y-172300000D03*
%TO.P,K_SPACE62,2*%
X203015267Y-176800000D03*
X202975267Y-177380000D03*
%TD*%
D10*
%TO.C,K_SPACE65*%
%TO.CFtp,MX-1U-NoLED*%
%TO.CVal,KEYSW*%
%TO.CLbN,MX_ALPS_Hybrid*%
%TO.CMnt,TH*%
%TO.CRot,180*%
X262665267Y-172300000D03*
D11*
X268620267Y-178505000D02*
X268620267Y-170306100D01*
X256710267Y-170306100D01*
X256710267Y-178505000D01*
X268620267Y-178505000D01*
D12*
%TO.P,K_SPACE65,1*%
X266475267Y-174840000D03*
X265165267Y-176300000D03*
D13*
%TO.P,K_SPACE65,*%
X267745267Y-172300000D03*
X262665267Y-172300000D03*
X257585267Y-172300000D03*
%TO.P,K_SPACE65,2*%
X260165267Y-176800000D03*
X260125267Y-177380000D03*
%TD*%
D10*
%TO.C,K_SPACE8*%
%TO.CFtp,MX-1U-NoLED*%
%TO.CVal,KEYSW*%
%TO.CLbN,MX_ALPS_Hybrid*%
%TO.CMnt,TH*%
%TO.CRot,180*%
X238852767Y-96100000D03*
D11*
X244807767Y-102305000D02*
X244807767Y-94106100D01*
X232897767Y-94106100D01*
X232897767Y-102305000D01*
X244807767Y-102305000D01*
D12*
%TO.P,K_SPACE8,1*%
X242662767Y-98640000D03*
X241352767Y-100100000D03*
D13*
%TO.P,K_SPACE8,*%
X243932767Y-96100000D03*
X238852767Y-96100000D03*
X233772767Y-96100000D03*
%TO.P,K_SPACE8,2*%
X236352767Y-100600000D03*
X236312767Y-101180000D03*
%TD*%
D10*
%TO.C,K_SPACE23*%
%TO.CFtp,MX-1U-NoLED*%
%TO.CVal,KEYSW*%
%TO.CLbN,MX_ALPS_Hybrid*%
%TO.CMnt,TH*%
%TO.CRot,180*%
X238852767Y-115150000D03*
D11*
X244807767Y-121355000D02*
X244807767Y-113156100D01*
X232897767Y-113156100D01*
X232897767Y-121355000D01*
X244807767Y-121355000D01*
D12*
%TO.P,K_SPACE23,1*%
X242662767Y-117690000D03*
X241352767Y-119150000D03*
D13*
%TO.P,K_SPACE23,*%
X243932767Y-115150000D03*
X238852767Y-115150000D03*
X233772767Y-115150000D03*
%TO.P,K_SPACE23,2*%
X236352767Y-119650000D03*
X236312767Y-120230000D03*
%TD*%
D10*
%TO.C,K_SPACE69*%
%TO.CFtp,MX-1U-NoLED*%
%TO.CVal,KEYSW*%
%TO.CLbN,MX_ALPS_Hybrid*%
%TO.CMnt,TH*%
%TO.CRot,180*%
X67402767Y-191350000D03*
D11*
X73357767Y-197555000D02*
X73357767Y-189356100D01*
X61447767Y-189356100D01*
X61447767Y-197555000D01*
X73357767Y-197555000D01*
D12*
%TO.P,K_SPACE69,1*%
X71212767Y-193890000D03*
X69902767Y-195350000D03*
D13*
%TO.P,K_SPACE69,*%
X72482767Y-191350000D03*
X67402767Y-191350000D03*
X62322767Y-191350000D03*
%TO.P,K_SPACE69,2*%
X64902767Y-195850000D03*
X64862767Y-196430000D03*
%TD*%
D10*
%TO.C,K_SPACE33*%
%TO.CFtp,MX-1U-NoLED*%
%TO.CVal,KEYSW*%
%TO.CLbN,MX_ALPS_Hybrid*%
%TO.CMnt,TH*%
%TO.CRot,180*%
X172177767Y-134200000D03*
D11*
X178132767Y-140405000D02*
X178132767Y-132206100D01*
X166222767Y-132206100D01*
X166222767Y-140405000D01*
X178132767Y-140405000D01*
D12*
%TO.P,K_SPACE33,1*%
X175987767Y-136740000D03*
X174677767Y-138200000D03*
D13*
%TO.P,K_SPACE33,*%
X177257767Y-134200000D03*
X172177767Y-134200000D03*
X167097767Y-134200000D03*
%TO.P,K_SPACE33,2*%
X169677767Y-138700000D03*
X169637767Y-139280000D03*
%TD*%
D10*
%TO.C,K_SPACE49*%
%TO.CFtp,MX-1U-NoLED*%
%TO.CVal,KEYSW*%
%TO.CLbN,MX_ALPS_Hybrid*%
%TO.CMnt,TH*%
%TO.CRot,180*%
X234090267Y-153250000D03*
D11*
X240045267Y-159455000D02*
X240045267Y-151256100D01*
X228135267Y-151256100D01*
X228135267Y-159455000D01*
X240045267Y-159455000D01*
D12*
%TO.P,K_SPACE49,1*%
X237900267Y-155790000D03*
X236590267Y-157250000D03*
D13*
%TO.P,K_SPACE49,*%
X239170267Y-153250000D03*
X234090267Y-153250000D03*
X229010267Y-153250000D03*
%TO.P,K_SPACE49,2*%
X231590267Y-157750000D03*
X231550267Y-158330000D03*
%TD*%
D10*
%TO.C,K_SPACE0*%
%TO.CFtp,MX-1U-NoLED*%
%TO.CVal,KEYSW*%
%TO.CLbN,MX_ALPS_Hybrid*%
%TO.CMnt,TH*%
%TO.CRot,180*%
X67402767Y-96100000D03*
D11*
X73357767Y-102305000D02*
X73357767Y-94106100D01*
X61447767Y-94106100D01*
X61447767Y-102305000D01*
X73357767Y-102305000D01*
D12*
%TO.P,K_SPACE0,1*%
X71212767Y-98640000D03*
X69902767Y-100100000D03*
D13*
%TO.P,K_SPACE0,*%
X72482767Y-96100000D03*
X67402767Y-96100000D03*
X62322767Y-96100000D03*
%TO.P,K_SPACE0,2*%
X64902767Y-100600000D03*
X64862767Y-101180000D03*
%TD*%
D10*
%TO.C,K_SPACE59*%
%TO.CFtp,MX-1U-NoLED*%
%TO.CVal,KEYSW*%
%TO.CLbN,MX_ALPS_Hybrid*%
%TO.CMnt,TH*%
%TO.CRot,180*%
X148365267Y-172300000D03*
D11*
X154320267Y-178505000D02*
X154320267Y-170306100D01*
X142410267Y-170306100D01*
X142410267Y-178505000D01*
X154320267Y-178505000D01*
D12*
%TO.P,K_SPACE59,1*%
X152175267Y-174840000D03*
X150865267Y-176300000D03*
D13*
%TO.P,K_SPACE59,*%
X153445267Y-172300000D03*
X148365267Y-172300000D03*
X143285267Y-172300000D03*
%TO.P,K_SPACE59,2*%
X145865267Y-176800000D03*
X145825267Y-177380000D03*
%TD*%
D10*
%TO.C,K_SPACE38*%
%TO.CFtp,MX-1U-NoLED*%
%TO.CVal,KEYSW*%
%TO.CLbN,MX_ALPS_Hybrid*%
%TO.CMnt,TH*%
%TO.CRot,180*%
X267427767Y-134200000D03*
D11*
X273382767Y-140405000D02*
X273382767Y-132206100D01*
X261472767Y-132206100D01*
X261472767Y-140405000D01*
X273382767Y-140405000D01*
D12*
%TO.P,K_SPACE38,1*%
X271237767Y-136740000D03*
X269927767Y-138200000D03*
D13*
%TO.P,K_SPACE38,*%
X272507767Y-134200000D03*
X267427767Y-134200000D03*
X262347767Y-134200000D03*
%TO.P,K_SPACE38,2*%
X264927767Y-138700000D03*
X264887767Y-139280000D03*
%TD*%
D10*
%TO.C,K_SPACE21*%
%TO.CFtp,MX-1U-NoLED*%
%TO.CVal,KEYSW*%
%TO.CLbN,MX_ALPS_Hybrid*%
%TO.CMnt,TH*%
%TO.CRot,180*%
X200752767Y-115150000D03*
D11*
X206707767Y-121355000D02*
X206707767Y-113156100D01*
X194797767Y-113156100D01*
X194797767Y-121355000D01*
X206707767Y-121355000D01*
D12*
%TO.P,K_SPACE21,1*%
X204562767Y-117690000D03*
X203252767Y-119150000D03*
D13*
%TO.P,K_SPACE21,*%
X205832767Y-115150000D03*
X200752767Y-115150000D03*
X195672767Y-115150000D03*
%TO.P,K_SPACE21,2*%
X198252767Y-119650000D03*
X198212767Y-120230000D03*
%TD*%
D10*
%TO.C,K_SPACE17*%
%TO.CFtp,MX-1U-NoLED*%
%TO.CVal,KEYSW*%
%TO.CLbN,MX_ALPS_Hybrid*%
%TO.CMnt,TH*%
%TO.CRot,180*%
X124552767Y-115150000D03*
D11*
X130507767Y-121355000D02*
X130507767Y-113156100D01*
X118597767Y-113156100D01*
X118597767Y-121355000D01*
X130507767Y-121355000D01*
D12*
%TO.P,K_SPACE17,1*%
X128362767Y-117690000D03*
X127052767Y-119150000D03*
D13*
%TO.P,K_SPACE17,*%
X129632767Y-115150000D03*
X124552767Y-115150000D03*
X119472767Y-115150000D03*
%TO.P,K_SPACE17,2*%
X122052767Y-119650000D03*
X122012767Y-120230000D03*
%TD*%
D10*
%TO.C,K_SPACE56*%
%TO.CFtp,MX-1U-NoLED*%
%TO.CVal,KEYSW*%
%TO.CLbN,MX_ALPS_Hybrid*%
%TO.CMnt,TH*%
%TO.CRot,180*%
X91215267Y-172300000D03*
D11*
X97170267Y-178505000D02*
X97170267Y-170306100D01*
X85260267Y-170306100D01*
X85260267Y-178505000D01*
X97170267Y-178505000D01*
D12*
%TO.P,K_SPACE56,1*%
X95025267Y-174840000D03*
X93715267Y-176300000D03*
D13*
%TO.P,K_SPACE56,*%
X96295267Y-172300000D03*
X91215267Y-172300000D03*
X86135267Y-172300000D03*
%TO.P,K_SPACE56,2*%
X88715267Y-176800000D03*
X88675267Y-177380000D03*
%TD*%
D10*
%TO.C,K_SPACE29*%
%TO.CFtp,MX-1U-NoLED*%
%TO.CVal,KEYSW*%
%TO.CLbN,MX_ALPS_Hybrid*%
%TO.CMnt,TH*%
%TO.CRot,180*%
X95977767Y-134200000D03*
D11*
X101932767Y-140405000D02*
X101932767Y-132206100D01*
X90022767Y-132206100D01*
X90022767Y-140405000D01*
X101932767Y-140405000D01*
D12*
%TO.P,K_SPACE29,1*%
X99787767Y-136740000D03*
X98477767Y-138200000D03*
D13*
%TO.P,K_SPACE29,*%
X101057767Y-134200000D03*
X95977767Y-134200000D03*
X90897767Y-134200000D03*
%TO.P,K_SPACE29,2*%
X93477767Y-138700000D03*
X93437767Y-139280000D03*
%TD*%
D10*
%TO.C,K_SPACE3*%
%TO.CFtp,MX-1U-NoLED*%
%TO.CVal,KEYSW*%
%TO.CLbN,MX_ALPS_Hybrid*%
%TO.CMnt,TH*%
%TO.CRot,180*%
X134077767Y-96100000D03*
D11*
X140032767Y-102305000D02*
X140032767Y-94106100D01*
X128122767Y-94106100D01*
X128122767Y-102305000D01*
X140032767Y-102305000D01*
D12*
%TO.P,K_SPACE3,1*%
X137887767Y-98640000D03*
X136577767Y-100100000D03*
D13*
%TO.P,K_SPACE3,*%
X139157767Y-96100000D03*
X134077767Y-96100000D03*
X128997767Y-96100000D03*
%TO.P,K_SPACE3,2*%
X131577767Y-100600000D03*
X131537767Y-101180000D03*
%TD*%
D10*
%TO.C,K_SPACE46*%
%TO.CFtp,MX-1U-NoLED*%
%TO.CVal,KEYSW*%
%TO.CLbN,MX_ALPS_Hybrid*%
%TO.CMnt,TH*%
%TO.CRot,180*%
X176940267Y-153250000D03*
D11*
X182895267Y-159455000D02*
X182895267Y-151256100D01*
X170985267Y-151256100D01*
X170985267Y-159455000D01*
X182895267Y-159455000D01*
D12*
%TO.P,K_SPACE46,1*%
X180750267Y-155790000D03*
X179440267Y-157250000D03*
D13*
%TO.P,K_SPACE46,*%
X182020267Y-153250000D03*
X176940267Y-153250000D03*
X171860267Y-153250000D03*
%TO.P,K_SPACE46,2*%
X174440267Y-157750000D03*
X174400267Y-158330000D03*
%TD*%
D10*
%TO.C,K_SPACE11*%
%TO.CFtp,MX-1U-NoLED*%
%TO.CVal,KEYSW*%
%TO.CLbN,MX_ALPS_Hybrid*%
%TO.CMnt,TH*%
%TO.CRot,180*%
X305527767Y-96100000D03*
D11*
X311482767Y-102305000D02*
X311482767Y-94106100D01*
X299572767Y-94106100D01*
X299572767Y-102305000D01*
X311482767Y-102305000D01*
D12*
%TO.P,K_SPACE11,1*%
X309337767Y-98640000D03*
X308027767Y-100100000D03*
D13*
%TO.P,K_SPACE11,*%
X310607767Y-96100000D03*
X305527767Y-96100000D03*
X300447767Y-96100000D03*
%TO.P,K_SPACE11,2*%
X303027767Y-100600000D03*
X302987767Y-101180000D03*
%TD*%
D10*
%TO.C,K_SPACE58*%
%TO.CFtp,MX-1U-NoLED*%
%TO.CVal,KEYSW*%
%TO.CLbN,MX_ALPS_Hybrid*%
%TO.CMnt,TH*%
%TO.CRot,180*%
X129315267Y-172300000D03*
D11*
X135270267Y-178505000D02*
X135270267Y-170306100D01*
X123360267Y-170306100D01*
X123360267Y-178505000D01*
X135270267Y-178505000D01*
D12*
%TO.P,K_SPACE58,1*%
X133125267Y-174840000D03*
X131815267Y-176300000D03*
D13*
%TO.P,K_SPACE58,*%
X134395267Y-172300000D03*
X129315267Y-172300000D03*
X124235267Y-172300000D03*
%TO.P,K_SPACE58,2*%
X126815267Y-176800000D03*
X126775267Y-177380000D03*
%TD*%
D10*
%TO.C,K_SPACE7*%
%TO.CFtp,MX-1U-NoLED*%
%TO.CVal,KEYSW*%
%TO.CLbN,MX_ALPS_Hybrid*%
%TO.CMnt,TH*%
%TO.CRot,180*%
X219790000Y-96100000D03*
D11*
X225745000Y-102305000D02*
X225745000Y-94106100D01*
X213835000Y-94106100D01*
X213835000Y-102305000D01*
X225745000Y-102305000D01*
D12*
%TO.P,K_SPACE7,1*%
X223600000Y-98640000D03*
X222290000Y-100100000D03*
D13*
%TO.P,K_SPACE7,*%
X224870000Y-96100000D03*
X219790000Y-96100000D03*
X214710000Y-96100000D03*
%TO.P,K_SPACE7,2*%
X217290000Y-100600000D03*
X217250000Y-101180000D03*
%TD*%
D10*
%TO.C,K_SPACE47*%
%TO.CFtp,MX-1U-NoLED*%
%TO.CVal,KEYSW*%
%TO.CLbN,MX_ALPS_Hybrid*%
%TO.CMnt,TH*%
%TO.CRot,180*%
X195990267Y-153250000D03*
D11*
X201945267Y-159455000D02*
X201945267Y-151256100D01*
X190035267Y-151256100D01*
X190035267Y-159455000D01*
X201945267Y-159455000D01*
D12*
%TO.P,K_SPACE47,1*%
X199800267Y-155790000D03*
X198490267Y-157250000D03*
D13*
%TO.P,K_SPACE47,*%
X201070267Y-153250000D03*
X195990267Y-153250000D03*
X190910267Y-153250000D03*
%TO.P,K_SPACE47,2*%
X193490267Y-157750000D03*
X193450267Y-158330000D03*
%TD*%
D10*
%TO.C,K_SPACE44*%
%TO.CFtp,MX-1U-NoLED*%
%TO.CVal,KEYSW*%
%TO.CLbN,MX_ALPS_Hybrid*%
%TO.CMnt,TH*%
%TO.CRot,180*%
X138840267Y-153250000D03*
D11*
X144795267Y-159455000D02*
X144795267Y-151256100D01*
X132885267Y-151256100D01*
X132885267Y-159455000D01*
X144795267Y-159455000D01*
D12*
%TO.P,K_SPACE44,1*%
X142650267Y-155790000D03*
X141340267Y-157250000D03*
D13*
%TO.P,K_SPACE44,*%
X143920267Y-153250000D03*
X138840267Y-153250000D03*
X133760267Y-153250000D03*
%TO.P,K_SPACE44,2*%
X136340267Y-157750000D03*
X136300267Y-158330000D03*
%TD*%
D10*
%TO.C,K_SPACE5*%
%TO.CFtp,MX-1U-NoLED*%
%TO.CVal,KEYSW*%
%TO.CLbN,MX_ALPS_Hybrid*%
%TO.CMnt,TH*%
%TO.CRot,180*%
X181702767Y-96100000D03*
D11*
X187657767Y-102305000D02*
X187657767Y-94106100D01*
X175747767Y-94106100D01*
X175747767Y-102305000D01*
X187657767Y-102305000D01*
D12*
%TO.P,K_SPACE5,1*%
X185512767Y-98640000D03*
X184202767Y-100100000D03*
D13*
%TO.P,K_SPACE5,*%
X186782767Y-96100000D03*
X181702767Y-96100000D03*
X176622767Y-96100000D03*
%TO.P,K_SPACE5,2*%
X179202767Y-100600000D03*
X179162767Y-101180000D03*
%TD*%
D10*
%TO.C,K_SPACE61*%
%TO.CFtp,MX-1U-NoLED*%
%TO.CVal,KEYSW*%
%TO.CLbN,MX_ALPS_Hybrid*%
%TO.CMnt,TH*%
%TO.CRot,180*%
X186465267Y-172300000D03*
D11*
X192420267Y-178505000D02*
X192420267Y-170306100D01*
X180510267Y-170306100D01*
X180510267Y-178505000D01*
X192420267Y-178505000D01*
D12*
%TO.P,K_SPACE61,1*%
X190275267Y-174840000D03*
X188965267Y-176300000D03*
D13*
%TO.P,K_SPACE61,*%
X191545267Y-172300000D03*
X186465267Y-172300000D03*
X181385267Y-172300000D03*
%TO.P,K_SPACE61,2*%
X183965267Y-176800000D03*
X183925267Y-177380000D03*
%TD*%
D10*
%TO.C,K_SPACE77*%
%TO.CFtp,MX-1U-NoLED*%
%TO.CVal,KEYSW*%
%TO.CLbN,MX_ALPS_Hybrid*%
%TO.CMnt,TH*%
%TO.CRot,180*%
X334102767Y-191350000D03*
D11*
X340057767Y-197555000D02*
X340057767Y-189356100D01*
X328147767Y-189356100D01*
X328147767Y-197555000D01*
X340057767Y-197555000D01*
D12*
%TO.P,K_SPACE77,1*%
X337912767Y-193890000D03*
X336602767Y-195350000D03*
D13*
%TO.P,K_SPACE77,*%
X339182767Y-191350000D03*
X334102767Y-191350000D03*
X329022767Y-191350000D03*
%TO.P,K_SPACE77,2*%
X331602767Y-195850000D03*
X331562767Y-196430000D03*
%TD*%
D10*
%TO.C,K_SPACE66*%
%TO.CFtp,MX-1U-NoLED*%
%TO.CVal,KEYSW*%
%TO.CLbN,MX_ALPS_Hybrid*%
%TO.CMnt,TH*%
%TO.CRot,180*%
X281715267Y-172300000D03*
D11*
X287670267Y-178505000D02*
X287670267Y-170306100D01*
X275760267Y-170306100D01*
X275760267Y-178505000D01*
X287670267Y-178505000D01*
D12*
%TO.P,K_SPACE66,1*%
X285525267Y-174840000D03*
X284215267Y-176300000D03*
D13*
%TO.P,K_SPACE66,*%
X286795267Y-172300000D03*
X281715267Y-172300000D03*
X276635267Y-172300000D03*
%TO.P,K_SPACE66,2*%
X279215267Y-176800000D03*
X279175267Y-177380000D03*
%TD*%
M02*
