%TF.GenerationSoftware,KiCad,Pcbnew,8.0.2-1*%
%TF.CreationDate,2024-08-02T01:43:11+02:00*%
%TF.ProjectId,keyboard,6b657962-6f61-4726-942e-6b696361645f,1.0*%
%TF.SameCoordinates,Original*%
%TF.FileFunction,Drillmap*%
%TF.FilePolarity,Positive*%
%FSLAX45Y45*%
G04 Gerber Fmt 4.5, Leading zero omitted, Abs format (unit mm)*
G04 Created by KiCad (PCBNEW 8.0.2-1) date 2024-08-02 01:43:11*
%MOMM*%
%LPD*%
G01*
G04 APERTURE LIST*
%ADD10C,0.200000*%
%ADD11C,0.100000*%
%ADD12C,0.147000*%
%ADD13C,0.220000*%
G04 APERTURE END LIST*
D10*
X5537777Y-20487500D02*
G75*
G02*
X5287780Y-20237500I3J250000D01*
G01*
X36517777Y-8257500D02*
X5537777Y-8257500D01*
X36767777Y-20237500D02*
G75*
G02*
X36517777Y-20487507I-250007J0D01*
G01*
X5287777Y-8507500D02*
G75*
G02*
X5537777Y-8257507I249993J0D01*
G01*
X21027777Y-20487500D02*
X36517777Y-20487500D01*
X5537777Y-20487500D02*
X21027777Y-20487500D01*
X34700000Y-9980000D02*
X35940000Y-9980000D01*
X35940000Y-10240000D01*
X34700000Y-10240000D01*
X34700000Y-9980000D01*
X5287777Y-8507500D02*
X5287777Y-20237500D01*
X36517777Y-8257500D02*
G75*
G02*
X36767780Y-8507500I3J-250000D01*
G01*
X36767777Y-20237500D02*
X36767777Y-8507500D01*
D11*
X19395440Y-9117364D02*
X19415760Y-9137684D01*
X19415760Y-9117364D02*
X19395440Y-9137684D01*
X35011115Y-11890014D02*
X35031435Y-11910334D01*
X35031435Y-11890014D02*
X35011115Y-11910334D01*
X8013700Y-11887200D02*
G75*
G02*
X7988300Y-11887200I-12700J0D01*
G01*
X7988300Y-11887200D02*
G75*
G02*
X8013700Y-11887200I12700J0D01*
G01*
X10121900Y-8940800D02*
G75*
G02*
X10096500Y-8940800I-12700J0D01*
G01*
X10096500Y-8940800D02*
G75*
G02*
X10121900Y-8940800I12700J0D01*
G01*
X11468100Y-18542000D02*
G75*
G02*
X11442700Y-18542000I-12700J0D01*
G01*
X11442700Y-18542000D02*
G75*
G02*
X11468100Y-18542000I12700J0D01*
G01*
X14046200Y-19519900D02*
G75*
G02*
X14020800Y-19519900I-12700J0D01*
G01*
X14020800Y-19519900D02*
G75*
G02*
X14046200Y-19519900I12700J0D01*
G01*
X14262100Y-18897600D02*
G75*
G02*
X14236700Y-18897600I-12700J0D01*
G01*
X14236700Y-18897600D02*
G75*
G02*
X14262100Y-18897600I12700J0D01*
G01*
X15684500Y-19126200D02*
G75*
G02*
X15659100Y-19126200I-12700J0D01*
G01*
X15659100Y-19126200D02*
G75*
G02*
X15684500Y-19126200I12700J0D01*
G01*
X15786100Y-18973800D02*
G75*
G02*
X15760700Y-18973800I-12700J0D01*
G01*
X15760700Y-18973800D02*
G75*
G02*
X15786100Y-18973800I12700J0D01*
G01*
X15892077Y-18948400D02*
G75*
G02*
X15866677Y-18948400I-12700J0D01*
G01*
X15866677Y-18948400D02*
G75*
G02*
X15892077Y-18948400I12700J0D01*
G01*
X16083035Y-19013512D02*
G75*
G02*
X16057635Y-19013512I-12700J0D01*
G01*
X16057635Y-19013512D02*
G75*
G02*
X16083035Y-19013512I12700J0D01*
G01*
X16091277Y-18815238D02*
G75*
G02*
X16065877Y-18815238I-12700J0D01*
G01*
X16065877Y-18815238D02*
G75*
G02*
X16091277Y-18815238I12700J0D01*
G01*
X16294100Y-19278600D02*
G75*
G02*
X16268700Y-19278600I-12700J0D01*
G01*
X16268700Y-19278600D02*
G75*
G02*
X16294100Y-19278600I12700J0D01*
G01*
X16442077Y-18846800D02*
G75*
G02*
X16416677Y-18846800I-12700J0D01*
G01*
X16416677Y-18846800D02*
G75*
G02*
X16442077Y-18846800I12700J0D01*
G01*
X16548100Y-19507200D02*
G75*
G02*
X16522700Y-19507200I-12700J0D01*
G01*
X16522700Y-19507200D02*
G75*
G02*
X16548100Y-19507200I12700J0D01*
G01*
X16669326Y-19271674D02*
G75*
G02*
X16643926Y-19271674I-12700J0D01*
G01*
X16643926Y-19271674D02*
G75*
G02*
X16669326Y-19271674I12700J0D01*
G01*
X16741277Y-18872200D02*
G75*
G02*
X16715877Y-18872200I-12700J0D01*
G01*
X16715877Y-18872200D02*
G75*
G02*
X16741277Y-18872200I12700J0D01*
G01*
X16741277Y-18971658D02*
G75*
G02*
X16715877Y-18971658I-12700J0D01*
G01*
X16715877Y-18971658D02*
G75*
G02*
X16741277Y-18971658I12700J0D01*
G01*
X16741277Y-19177000D02*
G75*
G02*
X16715877Y-19177000I-12700J0D01*
G01*
X16715877Y-19177000D02*
G75*
G02*
X16741277Y-19177000I12700J0D01*
G01*
X16842877Y-19319377D02*
G75*
G02*
X16817477Y-19319377I-12700J0D01*
G01*
X16817477Y-19319377D02*
G75*
G02*
X16842877Y-19319377I12700J0D01*
G01*
X16954500Y-18415000D02*
G75*
G02*
X16929100Y-18415000I-12700J0D01*
G01*
X16929100Y-18415000D02*
G75*
G02*
X16954500Y-18415000I12700J0D01*
G01*
X16979900Y-18872200D02*
G75*
G02*
X16954500Y-18872200I-12700J0D01*
G01*
X16954500Y-18872200D02*
G75*
G02*
X16979900Y-18872200I12700J0D01*
G01*
X17005300Y-17957800D02*
G75*
G02*
X16979900Y-17957800I-12700J0D01*
G01*
X16979900Y-17957800D02*
G75*
G02*
X17005300Y-17957800I12700J0D01*
G01*
X17106900Y-19481800D02*
G75*
G02*
X17081500Y-19481800I-12700J0D01*
G01*
X17081500Y-19481800D02*
G75*
G02*
X17106900Y-19481800I12700J0D01*
G01*
X17106900Y-19583400D02*
G75*
G02*
X17081500Y-19583400I-12700J0D01*
G01*
X17081500Y-19583400D02*
G75*
G02*
X17106900Y-19583400I12700J0D01*
G01*
X17322088Y-19481800D02*
G75*
G02*
X17296688Y-19481800I-12700J0D01*
G01*
X17296688Y-19481800D02*
G75*
G02*
X17322088Y-19481800I12700J0D01*
G01*
X17322088Y-19583400D02*
G75*
G02*
X17296688Y-19583400I-12700J0D01*
G01*
X17296688Y-19583400D02*
G75*
G02*
X17322088Y-19583400I12700J0D01*
G01*
X17843500Y-18923000D02*
G75*
G02*
X17818100Y-18923000I-12700J0D01*
G01*
X17818100Y-18923000D02*
G75*
G02*
X17843500Y-18923000I12700J0D01*
G01*
X18961100Y-8737600D02*
G75*
G02*
X18935700Y-8737600I-12700J0D01*
G01*
X18935700Y-8737600D02*
G75*
G02*
X18961100Y-8737600I12700J0D01*
G01*
X19850100Y-18034000D02*
G75*
G02*
X19824700Y-18034000I-12700J0D01*
G01*
X19824700Y-18034000D02*
G75*
G02*
X19850100Y-18034000I12700J0D01*
G01*
X20789900Y-18034000D02*
G75*
G02*
X20764500Y-18034000I-12700J0D01*
G01*
X20764500Y-18034000D02*
G75*
G02*
X20789900Y-18034000I12700J0D01*
G01*
X24904700Y-18643600D02*
G75*
G02*
X24879300Y-18643600I-12700J0D01*
G01*
X24879300Y-18643600D02*
G75*
G02*
X24904700Y-18643600I12700J0D01*
G01*
X25438100Y-19507200D02*
G75*
G02*
X25412700Y-19507200I-12700J0D01*
G01*
X25412700Y-19507200D02*
G75*
G02*
X25438100Y-19507200I12700J0D01*
G01*
X25590500Y-18161000D02*
G75*
G02*
X25565100Y-18161000I-12700J0D01*
G01*
X25565100Y-18161000D02*
G75*
G02*
X25590500Y-18161000I12700J0D01*
G01*
X25692100Y-10337800D02*
G75*
G02*
X25666700Y-10337800I-12700J0D01*
G01*
X25666700Y-10337800D02*
G75*
G02*
X25692100Y-10337800I12700J0D01*
G01*
X25920700Y-18161000D02*
G75*
G02*
X25895300Y-18161000I-12700J0D01*
G01*
X25895300Y-18161000D02*
G75*
G02*
X25920700Y-18161000I12700J0D01*
G01*
X26504900Y-20091400D02*
G75*
G02*
X26479500Y-20091400I-12700J0D01*
G01*
X26479500Y-20091400D02*
G75*
G02*
X26504900Y-20091400I12700J0D01*
G01*
X9017000Y-18400000D02*
X9017000Y-18430000D01*
X9002000Y-18415000D02*
X9032000Y-18415000D01*
X9144000Y-20228800D02*
X9144000Y-20258800D01*
X9129000Y-20243800D02*
X9159000Y-20243800D01*
X9575800Y-11973800D02*
X9575800Y-12003800D01*
X9560800Y-11988800D02*
X9590800Y-11988800D01*
X9728200Y-19543000D02*
X9728200Y-19573000D01*
X9713200Y-19558000D02*
X9743200Y-19558000D01*
X11506200Y-11999200D02*
X11506200Y-12029200D01*
X11491200Y-12014200D02*
X11521200Y-12014200D01*
X11734800Y-19466800D02*
X11734800Y-19496800D01*
X11719800Y-19481800D02*
X11749800Y-19481800D01*
X13157200Y-15961600D02*
X13157200Y-15991600D01*
X13142200Y-15976600D02*
X13172200Y-15976600D01*
X13766800Y-19416000D02*
X13766800Y-19446000D01*
X13751800Y-19431000D02*
X13781800Y-19431000D01*
X13995400Y-17765000D02*
X13995400Y-17795000D01*
X13980400Y-17780000D02*
X14010400Y-17780000D01*
X16129000Y-14107400D02*
X16129000Y-14137400D01*
X16114000Y-14122400D02*
X16144000Y-14122400D01*
X16154400Y-18476200D02*
X16154400Y-18506200D01*
X16139400Y-18491200D02*
X16169400Y-18491200D01*
X16408400Y-18095200D02*
X16408400Y-18125200D01*
X16393400Y-18110200D02*
X16423400Y-18110200D01*
X16941800Y-19797000D02*
X16941800Y-19827000D01*
X16926800Y-19812000D02*
X16956800Y-19812000D01*
X17475200Y-18425400D02*
X17475200Y-18455400D01*
X17460200Y-18440400D02*
X17490200Y-18440400D01*
X18948400Y-9281400D02*
X18948400Y-9311400D01*
X18933400Y-9296400D02*
X18963400Y-9296400D01*
X21031200Y-9611600D02*
X21031200Y-9641600D01*
X21016200Y-9626600D02*
X21046200Y-9626600D01*
X22961600Y-9611600D02*
X22961600Y-9641600D01*
X22946600Y-9626600D02*
X22976600Y-9626600D01*
X26695400Y-11923000D02*
X26695400Y-11953000D01*
X26680400Y-11938000D02*
X26710400Y-11938000D01*
X34366200Y-9357600D02*
X34366200Y-9387600D01*
X34351200Y-9372600D02*
X34381200Y-9372600D01*
X34645600Y-11161000D02*
X34645600Y-11191000D01*
X34630600Y-11176000D02*
X34660600Y-11176000D01*
X34658413Y-11648576D02*
X34658413Y-11678576D01*
X34643413Y-11663576D02*
X34673413Y-11663576D01*
X34671000Y-12050000D02*
X34671000Y-12080000D01*
X34656000Y-12065000D02*
X34686000Y-12065000D01*
X35153600Y-11288000D02*
X35153600Y-11318000D01*
X35138600Y-11303000D02*
X35168600Y-11303000D01*
D12*
X6538249Y-10169973D02*
X6538249Y-10066027D01*
X6434304Y-10066027D01*
X6434304Y-10169973D01*
X6538249Y-10169973D01*
X6538249Y-12074973D02*
X6538249Y-11971027D01*
X6434304Y-11971027D01*
X6434304Y-12074973D01*
X6538249Y-12074973D01*
X6538249Y-19694973D02*
X6538249Y-19591027D01*
X6434304Y-19591027D01*
X6434304Y-19694973D01*
X6538249Y-19694973D01*
X6542249Y-10111973D02*
X6542249Y-10008027D01*
X6438304Y-10008027D01*
X6438304Y-10111973D01*
X6542249Y-10111973D01*
X6542249Y-12016973D02*
X6542249Y-11913027D01*
X6438304Y-11913027D01*
X6438304Y-12016973D01*
X6542249Y-12016973D01*
X6542249Y-19636973D02*
X6542249Y-19533027D01*
X6438304Y-19533027D01*
X6438304Y-19636973D01*
X6542249Y-19636973D01*
X6776374Y-17789973D02*
X6776374Y-17686027D01*
X6672429Y-17686027D01*
X6672429Y-17789973D01*
X6776374Y-17789973D01*
X6780374Y-17731973D02*
X6780374Y-17628027D01*
X6676429Y-17628027D01*
X6676429Y-17731973D01*
X6780374Y-17731973D01*
X7014499Y-13979973D02*
X7014499Y-13876027D01*
X6910554Y-13876027D01*
X6910554Y-13979973D01*
X7014499Y-13979973D01*
X7018499Y-13921973D02*
X7018499Y-13818027D01*
X6914554Y-13818027D01*
X6914554Y-13921973D01*
X7018499Y-13921973D01*
X7042249Y-10061973D02*
X7042249Y-9958027D01*
X6938304Y-9958027D01*
X6938304Y-10061973D01*
X7042249Y-10061973D01*
X7042249Y-11966973D02*
X7042249Y-11863027D01*
X6938304Y-11863027D01*
X6938304Y-11966973D01*
X7042249Y-11966973D01*
X7042249Y-19586973D02*
X7042249Y-19483027D01*
X6938304Y-19483027D01*
X6938304Y-19586973D01*
X7042249Y-19586973D01*
X7173249Y-9915973D02*
X7173249Y-9812027D01*
X7069304Y-9812027D01*
X7069304Y-9915973D01*
X7173249Y-9915973D01*
X7173249Y-11820973D02*
X7173249Y-11717027D01*
X7069304Y-11717027D01*
X7069304Y-11820973D01*
X7173249Y-11820973D01*
X7173249Y-19440973D02*
X7173249Y-19337027D01*
X7069304Y-19337027D01*
X7069304Y-19440973D01*
X7173249Y-19440973D01*
X7252624Y-15884973D02*
X7252624Y-15781027D01*
X7148679Y-15781027D01*
X7148679Y-15884973D01*
X7252624Y-15884973D01*
X7256624Y-15826973D02*
X7256624Y-15723027D01*
X7152679Y-15723027D01*
X7152679Y-15826973D01*
X7256624Y-15826973D01*
X7280374Y-17681973D02*
X7280374Y-17578027D01*
X7176429Y-17578027D01*
X7176429Y-17681973D01*
X7280374Y-17681973D01*
X7411374Y-17535973D02*
X7411374Y-17432027D01*
X7307429Y-17432027D01*
X7307429Y-17535973D01*
X7411374Y-17535973D01*
X7518499Y-13871973D02*
X7518499Y-13768027D01*
X7414554Y-13768027D01*
X7414554Y-13871973D01*
X7518499Y-13871973D01*
X7649499Y-13725973D02*
X7649499Y-13622027D01*
X7545554Y-13622027D01*
X7545554Y-13725973D01*
X7649499Y-13725973D01*
X7756624Y-15776973D02*
X7756624Y-15673027D01*
X7652679Y-15673027D01*
X7652679Y-15776973D01*
X7756624Y-15776973D01*
X7887624Y-15630973D02*
X7887624Y-15527027D01*
X7783679Y-15527027D01*
X7783679Y-15630973D01*
X7887624Y-15630973D01*
X8443250Y-12074973D02*
X8443250Y-11971027D01*
X8339304Y-11971027D01*
X8339304Y-12074973D01*
X8443250Y-12074973D01*
X8443250Y-19694973D02*
X8443250Y-19591027D01*
X8339304Y-19591027D01*
X8339304Y-19694973D01*
X8443250Y-19694973D01*
X8447250Y-12016973D02*
X8447250Y-11913027D01*
X8343304Y-11913027D01*
X8343304Y-12016973D01*
X8447250Y-12016973D01*
X8447250Y-19636973D02*
X8447250Y-19533027D01*
X8343304Y-19533027D01*
X8343304Y-19636973D01*
X8447250Y-19636973D01*
X8919500Y-17789973D02*
X8919500Y-17686027D01*
X8815554Y-17686027D01*
X8815554Y-17789973D01*
X8919500Y-17789973D01*
X8923500Y-17731973D02*
X8923500Y-17628027D01*
X8819554Y-17628027D01*
X8819554Y-17731973D01*
X8923500Y-17731973D01*
X8947250Y-11966973D02*
X8947250Y-11863027D01*
X8843304Y-11863027D01*
X8843304Y-11966973D01*
X8947250Y-11966973D01*
X8947250Y-19586973D02*
X8947250Y-19483027D01*
X8843304Y-19483027D01*
X8843304Y-19586973D01*
X8947250Y-19586973D01*
X9078250Y-11820973D02*
X9078250Y-11717027D01*
X8974304Y-11717027D01*
X8974304Y-11820973D01*
X9078250Y-11820973D01*
X9078250Y-19440973D02*
X9078250Y-19337027D01*
X8974304Y-19337027D01*
X8974304Y-19440973D01*
X9078250Y-19440973D01*
X9395750Y-10169973D02*
X9395750Y-10066027D01*
X9291804Y-10066027D01*
X9291804Y-10169973D01*
X9395750Y-10169973D01*
X9395750Y-13979973D02*
X9395750Y-13876027D01*
X9291804Y-13876027D01*
X9291804Y-13979973D01*
X9395750Y-13979973D01*
X9399750Y-10111973D02*
X9399750Y-10008027D01*
X9295804Y-10008027D01*
X9295804Y-10111973D01*
X9399750Y-10111973D01*
X9399750Y-13921973D02*
X9399750Y-13818027D01*
X9295804Y-13818027D01*
X9295804Y-13921973D01*
X9399750Y-13921973D01*
X9423500Y-17681973D02*
X9423500Y-17578027D01*
X9319554Y-17578027D01*
X9319554Y-17681973D01*
X9423500Y-17681973D01*
X9554500Y-17535973D02*
X9554500Y-17432027D01*
X9450554Y-17432027D01*
X9450554Y-17535973D01*
X9554500Y-17535973D01*
X9872000Y-15884973D02*
X9872000Y-15781027D01*
X9768054Y-15781027D01*
X9768054Y-15884973D01*
X9872000Y-15884973D01*
X9876000Y-15826973D02*
X9876000Y-15723027D01*
X9772054Y-15723027D01*
X9772054Y-15826973D01*
X9876000Y-15826973D01*
X9899750Y-10061973D02*
X9899750Y-9958027D01*
X9795804Y-9958027D01*
X9795804Y-10061973D01*
X9899750Y-10061973D01*
X9899750Y-13871973D02*
X9899750Y-13768027D01*
X9795804Y-13768027D01*
X9795804Y-13871973D01*
X9899750Y-13871973D01*
X10030750Y-9915973D02*
X10030750Y-9812027D01*
X9926804Y-9812027D01*
X9926804Y-9915973D01*
X10030750Y-9915973D01*
X10030750Y-13725973D02*
X10030750Y-13622027D01*
X9926804Y-13622027D01*
X9926804Y-13725973D01*
X10030750Y-13725973D01*
X10348250Y-12074973D02*
X10348250Y-11971027D01*
X10244304Y-11971027D01*
X10244304Y-12074973D01*
X10348250Y-12074973D01*
X10348250Y-19694973D02*
X10348250Y-19591027D01*
X10244304Y-19591027D01*
X10244304Y-19694973D01*
X10348250Y-19694973D01*
X10352250Y-12016973D02*
X10352250Y-11913027D01*
X10248304Y-11913027D01*
X10248304Y-12016973D01*
X10352250Y-12016973D01*
X10352250Y-19636973D02*
X10352250Y-19533027D01*
X10248304Y-19533027D01*
X10248304Y-19636973D01*
X10352250Y-19636973D01*
X10376000Y-15776973D02*
X10376000Y-15673027D01*
X10272054Y-15673027D01*
X10272054Y-15776973D01*
X10376000Y-15776973D01*
X10507000Y-15630973D02*
X10507000Y-15527027D01*
X10403054Y-15527027D01*
X10403054Y-15630973D01*
X10507000Y-15630973D01*
X10824500Y-17789973D02*
X10824500Y-17686027D01*
X10720554Y-17686027D01*
X10720554Y-17789973D01*
X10824500Y-17789973D01*
X10828500Y-17731973D02*
X10828500Y-17628027D01*
X10724554Y-17628027D01*
X10724554Y-17731973D01*
X10828500Y-17731973D01*
X10852250Y-11966973D02*
X10852250Y-11863027D01*
X10748304Y-11863027D01*
X10748304Y-11966973D01*
X10852250Y-11966973D01*
X10852250Y-19586973D02*
X10852250Y-19483027D01*
X10748304Y-19483027D01*
X10748304Y-19586973D01*
X10852250Y-19586973D01*
X10983250Y-11820973D02*
X10983250Y-11717027D01*
X10879304Y-11717027D01*
X10879304Y-11820973D01*
X10983250Y-11820973D01*
X10983250Y-19440973D02*
X10983250Y-19337027D01*
X10879304Y-19337027D01*
X10879304Y-19440973D01*
X10983250Y-19440973D01*
X11300749Y-10169973D02*
X11300749Y-10066027D01*
X11196804Y-10066027D01*
X11196804Y-10169973D01*
X11300749Y-10169973D01*
X11300749Y-13979973D02*
X11300749Y-13876027D01*
X11196804Y-13876027D01*
X11196804Y-13979973D01*
X11300749Y-13979973D01*
X11304749Y-10111973D02*
X11304749Y-10008027D01*
X11200804Y-10008027D01*
X11200804Y-10111973D01*
X11304749Y-10111973D01*
X11304749Y-13921973D02*
X11304749Y-13818027D01*
X11200804Y-13818027D01*
X11200804Y-13921973D01*
X11304749Y-13921973D01*
X11328499Y-17681973D02*
X11328499Y-17578027D01*
X11224554Y-17578027D01*
X11224554Y-17681973D01*
X11328499Y-17681973D01*
X11459499Y-17535973D02*
X11459499Y-17432027D01*
X11355554Y-17432027D01*
X11355554Y-17535973D01*
X11459499Y-17535973D01*
X11776999Y-15884973D02*
X11776999Y-15781027D01*
X11673054Y-15781027D01*
X11673054Y-15884973D01*
X11776999Y-15884973D01*
X11780999Y-15826973D02*
X11780999Y-15723027D01*
X11677054Y-15723027D01*
X11677054Y-15826973D01*
X11780999Y-15826973D01*
X11804749Y-10061973D02*
X11804749Y-9958027D01*
X11700804Y-9958027D01*
X11700804Y-10061973D01*
X11804749Y-10061973D01*
X11804749Y-13871973D02*
X11804749Y-13768027D01*
X11700804Y-13768027D01*
X11700804Y-13871973D01*
X11804749Y-13871973D01*
X11935749Y-9915973D02*
X11935749Y-9812027D01*
X11831804Y-9812027D01*
X11831804Y-9915973D01*
X11935749Y-9915973D01*
X11935749Y-13725973D02*
X11935749Y-13622027D01*
X11831804Y-13622027D01*
X11831804Y-13725973D01*
X11935749Y-13725973D01*
X12253249Y-12074973D02*
X12253249Y-11971027D01*
X12149304Y-11971027D01*
X12149304Y-12074973D01*
X12253249Y-12074973D01*
X12257249Y-12016973D02*
X12257249Y-11913027D01*
X12153304Y-11913027D01*
X12153304Y-12016973D01*
X12257249Y-12016973D01*
X12280999Y-15776973D02*
X12280999Y-15673027D01*
X12177054Y-15673027D01*
X12177054Y-15776973D01*
X12280999Y-15776973D01*
X12411999Y-15630973D02*
X12411999Y-15527027D01*
X12308054Y-15527027D01*
X12308054Y-15630973D01*
X12411999Y-15630973D01*
X12491374Y-19694973D02*
X12491374Y-19591027D01*
X12387429Y-19591027D01*
X12387429Y-19694973D01*
X12491374Y-19694973D01*
X12495374Y-19636973D02*
X12495374Y-19533027D01*
X12391429Y-19533027D01*
X12391429Y-19636973D01*
X12495374Y-19636973D01*
X12729499Y-17789973D02*
X12729499Y-17686027D01*
X12625554Y-17686027D01*
X12625554Y-17789973D01*
X12729499Y-17789973D01*
X12733499Y-17731973D02*
X12733499Y-17628027D01*
X12629554Y-17628027D01*
X12629554Y-17731973D01*
X12733499Y-17731973D01*
X12757249Y-11966973D02*
X12757249Y-11863027D01*
X12653304Y-11863027D01*
X12653304Y-11966973D01*
X12757249Y-11966973D01*
X12888249Y-11820973D02*
X12888249Y-11717027D01*
X12784304Y-11717027D01*
X12784304Y-11820973D01*
X12888249Y-11820973D01*
X12995374Y-19586973D02*
X12995374Y-19483027D01*
X12891429Y-19483027D01*
X12891429Y-19586973D01*
X12995374Y-19586973D01*
X13126374Y-19440973D02*
X13126374Y-19337027D01*
X13022429Y-19337027D01*
X13022429Y-19440973D01*
X13126374Y-19440973D01*
X13205749Y-10169973D02*
X13205749Y-10066027D01*
X13101804Y-10066027D01*
X13101804Y-10169973D01*
X13205749Y-10169973D01*
X13205749Y-13979973D02*
X13205749Y-13876027D01*
X13101804Y-13876027D01*
X13101804Y-13979973D01*
X13205749Y-13979973D01*
X13209749Y-10111973D02*
X13209749Y-10008027D01*
X13105804Y-10008027D01*
X13105804Y-10111973D01*
X13209749Y-10111973D01*
X13209749Y-13921973D02*
X13209749Y-13818027D01*
X13105804Y-13818027D01*
X13105804Y-13921973D01*
X13209749Y-13921973D01*
X13233499Y-17681973D02*
X13233499Y-17578027D01*
X13129554Y-17578027D01*
X13129554Y-17681973D01*
X13233499Y-17681973D01*
X13364499Y-17535973D02*
X13364499Y-17432027D01*
X13260554Y-17432027D01*
X13260554Y-17535973D01*
X13364499Y-17535973D01*
X13681999Y-15884973D02*
X13681999Y-15781027D01*
X13578054Y-15781027D01*
X13578054Y-15884973D01*
X13681999Y-15884973D01*
X13685999Y-15826973D02*
X13685999Y-15723027D01*
X13582054Y-15723027D01*
X13582054Y-15826973D01*
X13685999Y-15826973D01*
X13709749Y-10061973D02*
X13709749Y-9958027D01*
X13605804Y-9958027D01*
X13605804Y-10061973D01*
X13709749Y-10061973D01*
X13709749Y-13871973D02*
X13709749Y-13768027D01*
X13605804Y-13768027D01*
X13605804Y-13871973D01*
X13709749Y-13871973D01*
X13840749Y-9915973D02*
X13840749Y-9812027D01*
X13736804Y-9812027D01*
X13736804Y-9915973D01*
X13840749Y-9915973D01*
X13840749Y-13725973D02*
X13840749Y-13622027D01*
X13736804Y-13622027D01*
X13736804Y-13725973D01*
X13840749Y-13725973D01*
X14158249Y-12074973D02*
X14158249Y-11971027D01*
X14054304Y-11971027D01*
X14054304Y-12074973D01*
X14158249Y-12074973D01*
X14162249Y-12016973D02*
X14162249Y-11913027D01*
X14058304Y-11913027D01*
X14058304Y-12016973D01*
X14162249Y-12016973D01*
X14185999Y-15776973D02*
X14185999Y-15673027D01*
X14082054Y-15673027D01*
X14082054Y-15776973D01*
X14185999Y-15776973D01*
X14316999Y-15630973D02*
X14316999Y-15527027D01*
X14213054Y-15527027D01*
X14213054Y-15630973D01*
X14316999Y-15630973D01*
X14634499Y-17789973D02*
X14634499Y-17686027D01*
X14530554Y-17686027D01*
X14530554Y-17789973D01*
X14634499Y-17789973D01*
X14638499Y-17731973D02*
X14638499Y-17628027D01*
X14534554Y-17628027D01*
X14534554Y-17731973D01*
X14638499Y-17731973D01*
X14662249Y-11966973D02*
X14662249Y-11863027D01*
X14558304Y-11863027D01*
X14558304Y-11966973D01*
X14662249Y-11966973D01*
X14793249Y-11820973D02*
X14793249Y-11717027D01*
X14689304Y-11717027D01*
X14689304Y-11820973D01*
X14793249Y-11820973D01*
X15110749Y-10169973D02*
X15110749Y-10066027D01*
X15006804Y-10066027D01*
X15006804Y-10169973D01*
X15110749Y-10169973D01*
X15110749Y-13979973D02*
X15110749Y-13876027D01*
X15006804Y-13876027D01*
X15006804Y-13979973D01*
X15110749Y-13979973D01*
X15114749Y-10111973D02*
X15114749Y-10008027D01*
X15010804Y-10008027D01*
X15010804Y-10111973D01*
X15114749Y-10111973D01*
X15114749Y-13921973D02*
X15114749Y-13818027D01*
X15010804Y-13818027D01*
X15010804Y-13921973D01*
X15114749Y-13921973D01*
X15138499Y-17681973D02*
X15138499Y-17578027D01*
X15034554Y-17578027D01*
X15034554Y-17681973D01*
X15138499Y-17681973D01*
X15269499Y-17535973D02*
X15269499Y-17432027D01*
X15165554Y-17432027D01*
X15165554Y-17535973D01*
X15269499Y-17535973D01*
X15586999Y-15884973D02*
X15586999Y-15781027D01*
X15483054Y-15781027D01*
X15483054Y-15884973D01*
X15586999Y-15884973D01*
X15590999Y-15826973D02*
X15590999Y-15723027D01*
X15487054Y-15723027D01*
X15487054Y-15826973D01*
X15590999Y-15826973D01*
X15614749Y-10061973D02*
X15614749Y-9958027D01*
X15510804Y-9958027D01*
X15510804Y-10061973D01*
X15614749Y-10061973D01*
X15614749Y-13871973D02*
X15614749Y-13768027D01*
X15510804Y-13768027D01*
X15510804Y-13871973D01*
X15614749Y-13871973D01*
X15745749Y-9915973D02*
X15745749Y-9812027D01*
X15641804Y-9812027D01*
X15641804Y-9915973D01*
X15745749Y-9915973D01*
X15745749Y-13725973D02*
X15745749Y-13622027D01*
X15641804Y-13622027D01*
X15641804Y-13725973D01*
X15745749Y-13725973D01*
X16063249Y-12074973D02*
X16063249Y-11971027D01*
X15959304Y-11971027D01*
X15959304Y-12074973D01*
X16063249Y-12074973D01*
X16067249Y-12016973D02*
X16067249Y-11913027D01*
X15963304Y-11913027D01*
X15963304Y-12016973D01*
X16067249Y-12016973D01*
X16090999Y-15776973D02*
X16090999Y-15673027D01*
X15987054Y-15673027D01*
X15987054Y-15776973D01*
X16090999Y-15776973D01*
X16221999Y-15630973D02*
X16221999Y-15527027D01*
X16118054Y-15527027D01*
X16118054Y-15630973D01*
X16221999Y-15630973D01*
X16539499Y-17789973D02*
X16539499Y-17686027D01*
X16435554Y-17686027D01*
X16435554Y-17789973D01*
X16539499Y-17789973D01*
X16543499Y-17731973D02*
X16543499Y-17628027D01*
X16439554Y-17628027D01*
X16439554Y-17731973D01*
X16543499Y-17731973D01*
X16567249Y-11966973D02*
X16567249Y-11863027D01*
X16463304Y-11863027D01*
X16463304Y-11966973D01*
X16567249Y-11966973D01*
X16698249Y-11820973D02*
X16698249Y-11717027D01*
X16594304Y-11717027D01*
X16594304Y-11820973D01*
X16698249Y-11820973D01*
X17015750Y-13979973D02*
X17015750Y-13876027D01*
X16911804Y-13876027D01*
X16911804Y-13979973D01*
X17015750Y-13979973D01*
X17019750Y-13921973D02*
X17019750Y-13818027D01*
X16915804Y-13818027D01*
X16915804Y-13921973D01*
X17019750Y-13921973D01*
X17043500Y-17681973D02*
X17043500Y-17578027D01*
X16939554Y-17578027D01*
X16939554Y-17681973D01*
X17043500Y-17681973D01*
X17174500Y-17535973D02*
X17174500Y-17432027D01*
X17070554Y-17432027D01*
X17070554Y-17535973D01*
X17174500Y-17535973D01*
X17492000Y-15884973D02*
X17492000Y-15781027D01*
X17388054Y-15781027D01*
X17388054Y-15884973D01*
X17492000Y-15884973D01*
X17496000Y-15826973D02*
X17496000Y-15723027D01*
X17392054Y-15723027D01*
X17392054Y-15826973D01*
X17496000Y-15826973D01*
X17519750Y-13871973D02*
X17519750Y-13768027D01*
X17415804Y-13768027D01*
X17415804Y-13871973D01*
X17519750Y-13871973D01*
X17650750Y-13725973D02*
X17650750Y-13622027D01*
X17546804Y-13622027D01*
X17546804Y-13725973D01*
X17650750Y-13725973D01*
X17968250Y-10169973D02*
X17968250Y-10066027D01*
X17864304Y-10066027D01*
X17864304Y-10169973D01*
X17968250Y-10169973D01*
X17968250Y-12074973D02*
X17968250Y-11971027D01*
X17864304Y-11971027D01*
X17864304Y-12074973D01*
X17968250Y-12074973D01*
X17972250Y-10111973D02*
X17972250Y-10008027D01*
X17868304Y-10008027D01*
X17868304Y-10111973D01*
X17972250Y-10111973D01*
X17972250Y-12016973D02*
X17972250Y-11913027D01*
X17868304Y-11913027D01*
X17868304Y-12016973D01*
X17972250Y-12016973D01*
X17996000Y-15776973D02*
X17996000Y-15673027D01*
X17892054Y-15673027D01*
X17892054Y-15776973D01*
X17996000Y-15776973D01*
X18127000Y-15630973D02*
X18127000Y-15527027D01*
X18023054Y-15527027D01*
X18023054Y-15630973D01*
X18127000Y-15630973D01*
X18444500Y-17789973D02*
X18444500Y-17686027D01*
X18340554Y-17686027D01*
X18340554Y-17789973D01*
X18444500Y-17789973D01*
X18448500Y-17731973D02*
X18448500Y-17628027D01*
X18344554Y-17628027D01*
X18344554Y-17731973D01*
X18448500Y-17731973D01*
X18472250Y-10061973D02*
X18472250Y-9958027D01*
X18368304Y-9958027D01*
X18368304Y-10061973D01*
X18472250Y-10061973D01*
X18472250Y-11966973D02*
X18472250Y-11863027D01*
X18368304Y-11863027D01*
X18368304Y-11966973D01*
X18472250Y-11966973D01*
X18603250Y-9915973D02*
X18603250Y-9812027D01*
X18499304Y-9812027D01*
X18499304Y-9915973D01*
X18603250Y-9915973D01*
X18603250Y-11820973D02*
X18603250Y-11717027D01*
X18499304Y-11717027D01*
X18499304Y-11820973D01*
X18603250Y-11820973D01*
X18920750Y-13979973D02*
X18920750Y-13876027D01*
X18816804Y-13876027D01*
X18816804Y-13979973D01*
X18920750Y-13979973D01*
X18924750Y-13921973D02*
X18924750Y-13818027D01*
X18820804Y-13818027D01*
X18820804Y-13921973D01*
X18924750Y-13921973D01*
X18948500Y-17681973D02*
X18948500Y-17578027D01*
X18844554Y-17578027D01*
X18844554Y-17681973D01*
X18948500Y-17681973D01*
X19079500Y-17535973D02*
X19079500Y-17432027D01*
X18975554Y-17432027D01*
X18975554Y-17535973D01*
X19079500Y-17535973D01*
X19397000Y-15884973D02*
X19397000Y-15781027D01*
X19293054Y-15781027D01*
X19293054Y-15884973D01*
X19397000Y-15884973D01*
X19401000Y-15826973D02*
X19401000Y-15723027D01*
X19297054Y-15723027D01*
X19297054Y-15826973D01*
X19401000Y-15826973D01*
X19424750Y-13871973D02*
X19424750Y-13768027D01*
X19320804Y-13768027D01*
X19320804Y-13871973D01*
X19424750Y-13871973D01*
X19555750Y-13725973D02*
X19555750Y-13622027D01*
X19451804Y-13622027D01*
X19451804Y-13725973D01*
X19555750Y-13725973D01*
X19635125Y-19694973D02*
X19635125Y-19591027D01*
X19531179Y-19591027D01*
X19531179Y-19694973D01*
X19635125Y-19694973D01*
X19639125Y-19636973D02*
X19639125Y-19533027D01*
X19535179Y-19533027D01*
X19535179Y-19636973D01*
X19639125Y-19636973D01*
X19873250Y-10169973D02*
X19873250Y-10066027D01*
X19769304Y-10066027D01*
X19769304Y-10169973D01*
X19873250Y-10169973D01*
X19873250Y-12074973D02*
X19873250Y-11971027D01*
X19769304Y-11971027D01*
X19769304Y-12074973D01*
X19873250Y-12074973D01*
X19877250Y-10111973D02*
X19877250Y-10008027D01*
X19773304Y-10008027D01*
X19773304Y-10111973D01*
X19877250Y-10111973D01*
X19877250Y-12016973D02*
X19877250Y-11913027D01*
X19773304Y-11913027D01*
X19773304Y-12016973D01*
X19877250Y-12016973D01*
X19901000Y-15776973D02*
X19901000Y-15673027D01*
X19797054Y-15673027D01*
X19797054Y-15776973D01*
X19901000Y-15776973D01*
X20032000Y-15630973D02*
X20032000Y-15527027D01*
X19928054Y-15527027D01*
X19928054Y-15630973D01*
X20032000Y-15630973D01*
X20139125Y-19586973D02*
X20139125Y-19483027D01*
X20035179Y-19483027D01*
X20035179Y-19586973D01*
X20139125Y-19586973D01*
X20270125Y-19440973D02*
X20270125Y-19337027D01*
X20166179Y-19337027D01*
X20166179Y-19440973D01*
X20270125Y-19440973D01*
X20349500Y-17789973D02*
X20349500Y-17686027D01*
X20245554Y-17686027D01*
X20245554Y-17789973D01*
X20349500Y-17789973D01*
X20353500Y-17731973D02*
X20353500Y-17628027D01*
X20249554Y-17628027D01*
X20249554Y-17731973D01*
X20353500Y-17731973D01*
X20377250Y-10061973D02*
X20377250Y-9958027D01*
X20273304Y-9958027D01*
X20273304Y-10061973D01*
X20377250Y-10061973D01*
X20377250Y-11966973D02*
X20377250Y-11863027D01*
X20273304Y-11863027D01*
X20273304Y-11966973D01*
X20377250Y-11966973D01*
X20508250Y-9915973D02*
X20508250Y-9812027D01*
X20404304Y-9812027D01*
X20404304Y-9915973D01*
X20508250Y-9915973D01*
X20508250Y-11820973D02*
X20508250Y-11717027D01*
X20404304Y-11717027D01*
X20404304Y-11820973D01*
X20508250Y-11820973D01*
X20825750Y-13979973D02*
X20825750Y-13876027D01*
X20721804Y-13876027D01*
X20721804Y-13979973D01*
X20825750Y-13979973D01*
X20829750Y-13921973D02*
X20829750Y-13818027D01*
X20725804Y-13818027D01*
X20725804Y-13921973D01*
X20829750Y-13921973D01*
X20853500Y-17681973D02*
X20853500Y-17578027D01*
X20749554Y-17578027D01*
X20749554Y-17681973D01*
X20853500Y-17681973D01*
X20984500Y-17535973D02*
X20984500Y-17432027D01*
X20880554Y-17432027D01*
X20880554Y-17535973D01*
X20984500Y-17535973D01*
X21302000Y-15884973D02*
X21302000Y-15781027D01*
X21198054Y-15781027D01*
X21198054Y-15884973D01*
X21302000Y-15884973D01*
X21306000Y-15826973D02*
X21306000Y-15723027D01*
X21202054Y-15723027D01*
X21202054Y-15826973D01*
X21306000Y-15826973D01*
X21329750Y-13871973D02*
X21329750Y-13768027D01*
X21225804Y-13768027D01*
X21225804Y-13871973D01*
X21329750Y-13871973D01*
X21460750Y-13725973D02*
X21460750Y-13622027D01*
X21356804Y-13622027D01*
X21356804Y-13725973D01*
X21460750Y-13725973D01*
X21776973Y-10169973D02*
X21776973Y-10066027D01*
X21673027Y-10066027D01*
X21673027Y-10169973D01*
X21776973Y-10169973D01*
X21778250Y-12074973D02*
X21778250Y-11971027D01*
X21674304Y-11971027D01*
X21674304Y-12074973D01*
X21778250Y-12074973D01*
X21780973Y-10111973D02*
X21780973Y-10008027D01*
X21677027Y-10008027D01*
X21677027Y-10111973D01*
X21780973Y-10111973D01*
X21782250Y-12016973D02*
X21782250Y-11913027D01*
X21678304Y-11913027D01*
X21678304Y-12016973D01*
X21782250Y-12016973D01*
X21806000Y-15776973D02*
X21806000Y-15673027D01*
X21702054Y-15673027D01*
X21702054Y-15776973D01*
X21806000Y-15776973D01*
X21937000Y-15630973D02*
X21937000Y-15527027D01*
X21833054Y-15527027D01*
X21833054Y-15630973D01*
X21937000Y-15630973D01*
X22254500Y-17789973D02*
X22254500Y-17686027D01*
X22150554Y-17686027D01*
X22150554Y-17789973D01*
X22254500Y-17789973D01*
X22258500Y-17731973D02*
X22258500Y-17628027D01*
X22154554Y-17628027D01*
X22154554Y-17731973D01*
X22258500Y-17731973D01*
X22280973Y-10061973D02*
X22280973Y-9958027D01*
X22177027Y-9958027D01*
X22177027Y-10061973D01*
X22280973Y-10061973D01*
X22282250Y-11966973D02*
X22282250Y-11863027D01*
X22178304Y-11863027D01*
X22178304Y-11966973D01*
X22282250Y-11966973D01*
X22411973Y-9915973D02*
X22411973Y-9812027D01*
X22308027Y-9812027D01*
X22308027Y-9915973D01*
X22411973Y-9915973D01*
X22413249Y-11820973D02*
X22413249Y-11717027D01*
X22309304Y-11717027D01*
X22309304Y-11820973D01*
X22413249Y-11820973D01*
X22730749Y-13979973D02*
X22730749Y-13876027D01*
X22626804Y-13876027D01*
X22626804Y-13979973D01*
X22730749Y-13979973D01*
X22734749Y-13921973D02*
X22734749Y-13818027D01*
X22630804Y-13818027D01*
X22630804Y-13921973D01*
X22734749Y-13921973D01*
X22758499Y-17681973D02*
X22758499Y-17578027D01*
X22654554Y-17578027D01*
X22654554Y-17681973D01*
X22758499Y-17681973D01*
X22889499Y-17535973D02*
X22889499Y-17432027D01*
X22785554Y-17432027D01*
X22785554Y-17535973D01*
X22889499Y-17535973D01*
X23206999Y-15884973D02*
X23206999Y-15781027D01*
X23103054Y-15781027D01*
X23103054Y-15884973D01*
X23206999Y-15884973D01*
X23210999Y-15826973D02*
X23210999Y-15723027D01*
X23107054Y-15723027D01*
X23107054Y-15826973D01*
X23210999Y-15826973D01*
X23234749Y-13871973D02*
X23234749Y-13768027D01*
X23130804Y-13768027D01*
X23130804Y-13871973D01*
X23234749Y-13871973D01*
X23365749Y-13725973D02*
X23365749Y-13622027D01*
X23261804Y-13622027D01*
X23261804Y-13725973D01*
X23365749Y-13725973D01*
X23683249Y-10169973D02*
X23683249Y-10066027D01*
X23579304Y-10066027D01*
X23579304Y-10169973D01*
X23683249Y-10169973D01*
X23683249Y-12074973D02*
X23683249Y-11971027D01*
X23579304Y-11971027D01*
X23579304Y-12074973D01*
X23683249Y-12074973D01*
X23687249Y-10111973D02*
X23687249Y-10008027D01*
X23583304Y-10008027D01*
X23583304Y-10111973D01*
X23687249Y-10111973D01*
X23687249Y-12016973D02*
X23687249Y-11913027D01*
X23583304Y-11913027D01*
X23583304Y-12016973D01*
X23687249Y-12016973D01*
X23710999Y-15776973D02*
X23710999Y-15673027D01*
X23607054Y-15673027D01*
X23607054Y-15776973D01*
X23710999Y-15776973D01*
X23841999Y-15630973D02*
X23841999Y-15527027D01*
X23738054Y-15527027D01*
X23738054Y-15630973D01*
X23841999Y-15630973D01*
X24159499Y-17789973D02*
X24159499Y-17686027D01*
X24055554Y-17686027D01*
X24055554Y-17789973D01*
X24159499Y-17789973D01*
X24163499Y-17731973D02*
X24163499Y-17628027D01*
X24059554Y-17628027D01*
X24059554Y-17731973D01*
X24163499Y-17731973D01*
X24187249Y-10061973D02*
X24187249Y-9958027D01*
X24083304Y-9958027D01*
X24083304Y-10061973D01*
X24187249Y-10061973D01*
X24187249Y-11966973D02*
X24187249Y-11863027D01*
X24083304Y-11863027D01*
X24083304Y-11966973D01*
X24187249Y-11966973D01*
X24318249Y-9915973D02*
X24318249Y-9812027D01*
X24214304Y-9812027D01*
X24214304Y-9915973D01*
X24318249Y-9915973D01*
X24318249Y-11820973D02*
X24318249Y-11717027D01*
X24214304Y-11717027D01*
X24214304Y-11820973D01*
X24318249Y-11820973D01*
X24635749Y-13979973D02*
X24635749Y-13876027D01*
X24531804Y-13876027D01*
X24531804Y-13979973D01*
X24635749Y-13979973D01*
X24639749Y-13921973D02*
X24639749Y-13818027D01*
X24535804Y-13818027D01*
X24535804Y-13921973D01*
X24639749Y-13921973D01*
X24663499Y-17681973D02*
X24663499Y-17578027D01*
X24559554Y-17578027D01*
X24559554Y-17681973D01*
X24663499Y-17681973D01*
X24794499Y-17535973D02*
X24794499Y-17432027D01*
X24690554Y-17432027D01*
X24690554Y-17535973D01*
X24794499Y-17535973D01*
X25111999Y-15884973D02*
X25111999Y-15781027D01*
X25008054Y-15781027D01*
X25008054Y-15884973D01*
X25111999Y-15884973D01*
X25115999Y-15826973D02*
X25115999Y-15723027D01*
X25012054Y-15723027D01*
X25012054Y-15826973D01*
X25115999Y-15826973D01*
X25139749Y-13871973D02*
X25139749Y-13768027D01*
X25035804Y-13768027D01*
X25035804Y-13871973D01*
X25139749Y-13871973D01*
X25270749Y-13725973D02*
X25270749Y-13622027D01*
X25166804Y-13622027D01*
X25166804Y-13725973D01*
X25270749Y-13725973D01*
X25588249Y-12074973D02*
X25588249Y-11971027D01*
X25484304Y-11971027D01*
X25484304Y-12074973D01*
X25588249Y-12074973D01*
X25592249Y-12016973D02*
X25592249Y-11913027D01*
X25488304Y-11913027D01*
X25488304Y-12016973D01*
X25592249Y-12016973D01*
X25615999Y-15776973D02*
X25615999Y-15673027D01*
X25512054Y-15673027D01*
X25512054Y-15776973D01*
X25615999Y-15776973D01*
X25746999Y-15630973D02*
X25746999Y-15527027D01*
X25643054Y-15527027D01*
X25643054Y-15630973D01*
X25746999Y-15630973D01*
X26064499Y-17789973D02*
X26064499Y-17686027D01*
X25960554Y-17686027D01*
X25960554Y-17789973D01*
X26064499Y-17789973D01*
X26068499Y-17731973D02*
X26068499Y-17628027D01*
X25964554Y-17628027D01*
X25964554Y-17731973D01*
X26068499Y-17731973D01*
X26092249Y-11966973D02*
X26092249Y-11863027D01*
X25988304Y-11863027D01*
X25988304Y-11966973D01*
X26092249Y-11966973D01*
X26223249Y-11820973D02*
X26223249Y-11717027D01*
X26119304Y-11717027D01*
X26119304Y-11820973D01*
X26223249Y-11820973D01*
X26540749Y-10169973D02*
X26540749Y-10066027D01*
X26436804Y-10066027D01*
X26436804Y-10169973D01*
X26540749Y-10169973D01*
X26540749Y-13979973D02*
X26540749Y-13876027D01*
X26436804Y-13876027D01*
X26436804Y-13979973D01*
X26540749Y-13979973D01*
X26544749Y-10111973D02*
X26544749Y-10008027D01*
X26440804Y-10008027D01*
X26440804Y-10111973D01*
X26544749Y-10111973D01*
X26544749Y-13921973D02*
X26544749Y-13818027D01*
X26440804Y-13818027D01*
X26440804Y-13921973D01*
X26544749Y-13921973D01*
X26568499Y-17681973D02*
X26568499Y-17578027D01*
X26464554Y-17578027D01*
X26464554Y-17681973D01*
X26568499Y-17681973D01*
X26699499Y-17535973D02*
X26699499Y-17432027D01*
X26595554Y-17432027D01*
X26595554Y-17535973D01*
X26699499Y-17535973D01*
X26778874Y-19694973D02*
X26778874Y-19591027D01*
X26674929Y-19591027D01*
X26674929Y-19694973D01*
X26778874Y-19694973D01*
X26782874Y-19636973D02*
X26782874Y-19533027D01*
X26678929Y-19533027D01*
X26678929Y-19636973D01*
X26782874Y-19636973D01*
X27016999Y-15884973D02*
X27016999Y-15781027D01*
X26913054Y-15781027D01*
X26913054Y-15884973D01*
X27016999Y-15884973D01*
X27020999Y-15826973D02*
X27020999Y-15723027D01*
X26917054Y-15723027D01*
X26917054Y-15826973D01*
X27020999Y-15826973D01*
X27044749Y-10061973D02*
X27044749Y-9958027D01*
X26940804Y-9958027D01*
X26940804Y-10061973D01*
X27044749Y-10061973D01*
X27044749Y-13871973D02*
X27044749Y-13768027D01*
X26940804Y-13768027D01*
X26940804Y-13871973D01*
X27044749Y-13871973D01*
X27175749Y-9915973D02*
X27175749Y-9812027D01*
X27071804Y-9812027D01*
X27071804Y-9915973D01*
X27175749Y-9915973D01*
X27175749Y-13725973D02*
X27175749Y-13622027D01*
X27071804Y-13622027D01*
X27071804Y-13725973D01*
X27175749Y-13725973D01*
X27282874Y-19586973D02*
X27282874Y-19483027D01*
X27178929Y-19483027D01*
X27178929Y-19586973D01*
X27282874Y-19586973D01*
X27413874Y-19440973D02*
X27413874Y-19337027D01*
X27309929Y-19337027D01*
X27309929Y-19440973D01*
X27413874Y-19440973D01*
X27493249Y-12074973D02*
X27493249Y-11971027D01*
X27389304Y-11971027D01*
X27389304Y-12074973D01*
X27493249Y-12074973D01*
X27497249Y-12016973D02*
X27497249Y-11913027D01*
X27393304Y-11913027D01*
X27393304Y-12016973D01*
X27497249Y-12016973D01*
X27520999Y-15776973D02*
X27520999Y-15673027D01*
X27417054Y-15673027D01*
X27417054Y-15776973D01*
X27520999Y-15776973D01*
X27651999Y-15630973D02*
X27651999Y-15527027D01*
X27548054Y-15527027D01*
X27548054Y-15630973D01*
X27651999Y-15630973D01*
X27969499Y-17789973D02*
X27969499Y-17686027D01*
X27865554Y-17686027D01*
X27865554Y-17789973D01*
X27969499Y-17789973D01*
X27973499Y-17731973D02*
X27973499Y-17628027D01*
X27869554Y-17628027D01*
X27869554Y-17731973D01*
X27973499Y-17731973D01*
X27997249Y-11966973D02*
X27997249Y-11863027D01*
X27893304Y-11863027D01*
X27893304Y-11966973D01*
X27997249Y-11966973D01*
X28128249Y-11820973D02*
X28128249Y-11717027D01*
X28024304Y-11717027D01*
X28024304Y-11820973D01*
X28128249Y-11820973D01*
X28445749Y-10169973D02*
X28445749Y-10066027D01*
X28341804Y-10066027D01*
X28341804Y-10169973D01*
X28445749Y-10169973D01*
X28445749Y-13979973D02*
X28445749Y-13876027D01*
X28341804Y-13876027D01*
X28341804Y-13979973D01*
X28445749Y-13979973D01*
X28449749Y-10111973D02*
X28449749Y-10008027D01*
X28345804Y-10008027D01*
X28345804Y-10111973D01*
X28449749Y-10111973D01*
X28449749Y-13921973D02*
X28449749Y-13818027D01*
X28345804Y-13818027D01*
X28345804Y-13921973D01*
X28449749Y-13921973D01*
X28473499Y-17681973D02*
X28473499Y-17578027D01*
X28369554Y-17578027D01*
X28369554Y-17681973D01*
X28473499Y-17681973D01*
X28604499Y-17535973D02*
X28604499Y-17432027D01*
X28500554Y-17432027D01*
X28500554Y-17535973D01*
X28604499Y-17535973D01*
X28921999Y-15884973D02*
X28921999Y-15781027D01*
X28818054Y-15781027D01*
X28818054Y-15884973D01*
X28921999Y-15884973D01*
X28921999Y-19694973D02*
X28921999Y-19591027D01*
X28818054Y-19591027D01*
X28818054Y-19694973D01*
X28921999Y-19694973D01*
X28925999Y-15826973D02*
X28925999Y-15723027D01*
X28822054Y-15723027D01*
X28822054Y-15826973D01*
X28925999Y-15826973D01*
X28925999Y-19636973D02*
X28925999Y-19533027D01*
X28822054Y-19533027D01*
X28822054Y-19636973D01*
X28925999Y-19636973D01*
X28949749Y-10061973D02*
X28949749Y-9958027D01*
X28845804Y-9958027D01*
X28845804Y-10061973D01*
X28949749Y-10061973D01*
X28949749Y-13871973D02*
X28949749Y-13768027D01*
X28845804Y-13768027D01*
X28845804Y-13871973D01*
X28949749Y-13871973D01*
X29080749Y-9915973D02*
X29080749Y-9812027D01*
X28976804Y-9812027D01*
X28976804Y-9915973D01*
X29080749Y-9915973D01*
X29080749Y-13725973D02*
X29080749Y-13622027D01*
X28976804Y-13622027D01*
X28976804Y-13725973D01*
X29080749Y-13725973D01*
X29398249Y-12074973D02*
X29398249Y-11971027D01*
X29294304Y-11971027D01*
X29294304Y-12074973D01*
X29398249Y-12074973D01*
X29402249Y-12016973D02*
X29402249Y-11913027D01*
X29298304Y-11913027D01*
X29298304Y-12016973D01*
X29402249Y-12016973D01*
X29425999Y-15776973D02*
X29425999Y-15673027D01*
X29322054Y-15673027D01*
X29322054Y-15776973D01*
X29425999Y-15776973D01*
X29425999Y-19586973D02*
X29425999Y-19483027D01*
X29322054Y-19483027D01*
X29322054Y-19586973D01*
X29425999Y-19586973D01*
X29556999Y-15630973D02*
X29556999Y-15527027D01*
X29453054Y-15527027D01*
X29453054Y-15630973D01*
X29556999Y-15630973D01*
X29556999Y-19440973D02*
X29556999Y-19337027D01*
X29453054Y-19337027D01*
X29453054Y-19440973D01*
X29556999Y-19440973D01*
X29902249Y-11966973D02*
X29902249Y-11863027D01*
X29798304Y-11863027D01*
X29798304Y-11966973D01*
X29902249Y-11966973D01*
X30033249Y-11820973D02*
X30033249Y-11717027D01*
X29929304Y-11717027D01*
X29929304Y-11820973D01*
X30033249Y-11820973D01*
X30350749Y-10169973D02*
X30350749Y-10066027D01*
X30246804Y-10066027D01*
X30246804Y-10169973D01*
X30350749Y-10169973D01*
X30350749Y-13979973D02*
X30350749Y-13876027D01*
X30246804Y-13876027D01*
X30246804Y-13979973D01*
X30350749Y-13979973D01*
X30350749Y-17789973D02*
X30350749Y-17686027D01*
X30246804Y-17686027D01*
X30246804Y-17789973D01*
X30350749Y-17789973D01*
X30354749Y-10111973D02*
X30354749Y-10008027D01*
X30250804Y-10008027D01*
X30250804Y-10111973D01*
X30354749Y-10111973D01*
X30354749Y-13921973D02*
X30354749Y-13818027D01*
X30250804Y-13818027D01*
X30250804Y-13921973D01*
X30354749Y-13921973D01*
X30354749Y-17731973D02*
X30354749Y-17628027D01*
X30250804Y-17628027D01*
X30250804Y-17731973D01*
X30354749Y-17731973D01*
X30826999Y-15884973D02*
X30826999Y-15781027D01*
X30723054Y-15781027D01*
X30723054Y-15884973D01*
X30826999Y-15884973D01*
X30830999Y-15826973D02*
X30830999Y-15723027D01*
X30727054Y-15723027D01*
X30727054Y-15826973D01*
X30830999Y-15826973D01*
X30854749Y-10061973D02*
X30854749Y-9958027D01*
X30750804Y-9958027D01*
X30750804Y-10061973D01*
X30854749Y-10061973D01*
X30854749Y-13871973D02*
X30854749Y-13768027D01*
X30750804Y-13768027D01*
X30750804Y-13871973D01*
X30854749Y-13871973D01*
X30854749Y-17681973D02*
X30854749Y-17578027D01*
X30750804Y-17578027D01*
X30750804Y-17681973D01*
X30854749Y-17681973D01*
X30985749Y-9915973D02*
X30985749Y-9812027D01*
X30881804Y-9812027D01*
X30881804Y-9915973D01*
X30985749Y-9915973D01*
X30985749Y-13725973D02*
X30985749Y-13622027D01*
X30881804Y-13622027D01*
X30881804Y-13725973D01*
X30985749Y-13725973D01*
X30985749Y-17535973D02*
X30985749Y-17432027D01*
X30881804Y-17432027D01*
X30881804Y-17535973D01*
X30985749Y-17535973D01*
X31303249Y-19694973D02*
X31303249Y-19591027D01*
X31199304Y-19591027D01*
X31199304Y-19694973D01*
X31303249Y-19694973D01*
X31307249Y-19636973D02*
X31307249Y-19533027D01*
X31203304Y-19533027D01*
X31203304Y-19636973D01*
X31307249Y-19636973D01*
X31330999Y-15776973D02*
X31330999Y-15673027D01*
X31227054Y-15673027D01*
X31227054Y-15776973D01*
X31330999Y-15776973D01*
X31461999Y-15630973D02*
X31461999Y-15527027D01*
X31358054Y-15527027D01*
X31358054Y-15630973D01*
X31461999Y-15630973D01*
X31807249Y-19586973D02*
X31807249Y-19483027D01*
X31703304Y-19483027D01*
X31703304Y-19586973D01*
X31807249Y-19586973D01*
X31938249Y-19440973D02*
X31938249Y-19337027D01*
X31834304Y-19337027D01*
X31834304Y-19440973D01*
X31938249Y-19440973D01*
X32255749Y-10169973D02*
X32255749Y-10066027D01*
X32151804Y-10066027D01*
X32151804Y-10169973D01*
X32255749Y-10169973D01*
X32255749Y-12074973D02*
X32255749Y-11971027D01*
X32151804Y-11971027D01*
X32151804Y-12074973D01*
X32255749Y-12074973D01*
X32259749Y-10111973D02*
X32259749Y-10008027D01*
X32155804Y-10008027D01*
X32155804Y-10111973D01*
X32259749Y-10111973D01*
X32259749Y-12016973D02*
X32259749Y-11913027D01*
X32155804Y-11913027D01*
X32155804Y-12016973D01*
X32259749Y-12016973D01*
X32759749Y-10061973D02*
X32759749Y-9958027D01*
X32655804Y-9958027D01*
X32655804Y-10061973D01*
X32759749Y-10061973D01*
X32759749Y-11966973D02*
X32759749Y-11863027D01*
X32655804Y-11863027D01*
X32655804Y-11966973D01*
X32759749Y-11966973D01*
X32890749Y-9915973D02*
X32890749Y-9812027D01*
X32786804Y-9812027D01*
X32786804Y-9915973D01*
X32890749Y-9915973D01*
X32890749Y-11820973D02*
X32890749Y-11717027D01*
X32786804Y-11717027D01*
X32786804Y-11820973D01*
X32890749Y-11820973D01*
X32974124Y-14874473D02*
X32974124Y-14770527D01*
X32870179Y-14770527D01*
X32870179Y-14874473D01*
X32974124Y-14874473D01*
X33208249Y-17789973D02*
X33208249Y-17686027D01*
X33104304Y-17686027D01*
X33104304Y-17789973D01*
X33208249Y-17789973D01*
X33208249Y-19694973D02*
X33208249Y-19591027D01*
X33104304Y-19591027D01*
X33104304Y-19694973D01*
X33208249Y-19694973D01*
X33212249Y-17731973D02*
X33212249Y-17628027D01*
X33108304Y-17628027D01*
X33108304Y-17731973D01*
X33212249Y-17731973D01*
X33212249Y-19636973D02*
X33212249Y-19533027D01*
X33108304Y-19533027D01*
X33108304Y-19636973D01*
X33212249Y-19636973D01*
X33474124Y-14824473D02*
X33474124Y-14720527D01*
X33370179Y-14720527D01*
X33370179Y-14824473D01*
X33474124Y-14824473D01*
X33478124Y-14043473D02*
X33478124Y-13939527D01*
X33374179Y-13939527D01*
X33374179Y-14043473D01*
X33478124Y-14043473D01*
X33624125Y-14174473D02*
X33624125Y-14070527D01*
X33520179Y-14070527D01*
X33520179Y-14174473D01*
X33624125Y-14174473D01*
X33674125Y-14674473D02*
X33674125Y-14570527D01*
X33570179Y-14570527D01*
X33570179Y-14674473D01*
X33674125Y-14674473D01*
X33712250Y-17681973D02*
X33712250Y-17578027D01*
X33608304Y-17578027D01*
X33608304Y-17681973D01*
X33712250Y-17681973D01*
X33712250Y-19586973D02*
X33712250Y-19483027D01*
X33608304Y-19483027D01*
X33608304Y-19586973D01*
X33712250Y-19586973D01*
X33732125Y-14678473D02*
X33732125Y-14574527D01*
X33628179Y-14574527D01*
X33628179Y-14678473D01*
X33732125Y-14678473D01*
X33843250Y-17535973D02*
X33843250Y-17432027D01*
X33739304Y-17432027D01*
X33739304Y-17535973D01*
X33843250Y-17535973D01*
X33843250Y-19440973D02*
X33843250Y-19337027D01*
X33739304Y-19337027D01*
X33739304Y-19440973D01*
X33843250Y-19440973D01*
X35113250Y-19694973D02*
X35113250Y-19591027D01*
X35009304Y-19591027D01*
X35009304Y-19694973D01*
X35113250Y-19694973D01*
X35117250Y-19636973D02*
X35117250Y-19533027D01*
X35013304Y-19533027D01*
X35013304Y-19636973D01*
X35117250Y-19636973D01*
X35617250Y-19586973D02*
X35617250Y-19483027D01*
X35513304Y-19483027D01*
X35513304Y-19586973D01*
X35617250Y-19586973D01*
X35748250Y-19440973D02*
X35748250Y-19337027D01*
X35644304Y-19337027D01*
X35644304Y-19440973D01*
X35748250Y-19440973D01*
D13*
X6046377Y-12583600D02*
X6156377Y-12473600D01*
X6046377Y-12363600D01*
X5936377Y-12473600D01*
X6046377Y-12583600D01*
X6046377Y-16385600D02*
X6156377Y-16275600D01*
X6046377Y-16165600D01*
X5936377Y-16275600D01*
X6046377Y-16385600D01*
X7743377Y-20193600D02*
X7853377Y-20083600D01*
X7743377Y-19973600D01*
X7633377Y-20083600D01*
X7743377Y-20193600D01*
X8177377Y-8759600D02*
X8287377Y-8649600D01*
X8177377Y-8539600D01*
X8067377Y-8649600D01*
X8177377Y-8759600D01*
X12454377Y-12600600D02*
X12564377Y-12490600D01*
X12454377Y-12380600D01*
X12344377Y-12490600D01*
X12454377Y-12600600D01*
X13886377Y-16385600D02*
X13996377Y-16275600D01*
X13886377Y-16165600D01*
X13776377Y-16275600D01*
X13886377Y-16385600D01*
X16654377Y-20193600D02*
X16764377Y-20083600D01*
X16654377Y-19973600D01*
X16544377Y-20083600D01*
X16654377Y-20193600D01*
X19126377Y-12600600D02*
X19236377Y-12490600D01*
X19126377Y-12380600D01*
X19016377Y-12490600D01*
X19126377Y-12600600D01*
X21501377Y-16385600D02*
X21611377Y-16275600D01*
X21501377Y-16165600D01*
X21391377Y-16275600D01*
X21501377Y-16385600D01*
X25344377Y-8759600D02*
X25454377Y-8649600D01*
X25344377Y-8539600D01*
X25234377Y-8649600D01*
X25344377Y-8759600D01*
X25771377Y-20193600D02*
X25881377Y-20083600D01*
X25771377Y-19973600D01*
X25661377Y-20083600D01*
X25771377Y-20193600D01*
X26737377Y-12600600D02*
X26847377Y-12490600D01*
X26737377Y-12380600D01*
X26627377Y-12490600D01*
X26737377Y-12600600D01*
X29131377Y-16385600D02*
X29241377Y-16275600D01*
X29131377Y-16165600D01*
X29021377Y-16275600D01*
X29131377Y-16385600D01*
X32000377Y-14488600D02*
X32110377Y-14378600D01*
X32000377Y-14268600D01*
X31890377Y-14378600D01*
X32000377Y-14488600D01*
X33750000Y-8761600D02*
X33860000Y-8651600D01*
X33750000Y-8541600D01*
X33640000Y-8651600D01*
X33750000Y-8761600D01*
X34421377Y-20193600D02*
X34531377Y-20083600D01*
X34421377Y-19973600D01*
X34311377Y-20083600D01*
X34421377Y-20193600D01*
X36196377Y-16385600D02*
X36306377Y-16275600D01*
X36196377Y-16165600D01*
X36086377Y-16275600D01*
X36196377Y-16385600D01*
X36225377Y-12600600D02*
X36335377Y-12490600D01*
X36225377Y-12380600D01*
X36115377Y-12490600D01*
X36225377Y-12600600D01*
D10*
X5538554Y-20808984D02*
X5538554Y-20608984D01*
X5538554Y-20608984D02*
X5586173Y-20608984D01*
X5586173Y-20608984D02*
X5614744Y-20618508D01*
X5614744Y-20618508D02*
X5633792Y-20637555D01*
X5633792Y-20637555D02*
X5643315Y-20656603D01*
X5643315Y-20656603D02*
X5652839Y-20694698D01*
X5652839Y-20694698D02*
X5652839Y-20723270D01*
X5652839Y-20723270D02*
X5643315Y-20761365D01*
X5643315Y-20761365D02*
X5633792Y-20780412D01*
X5633792Y-20780412D02*
X5614744Y-20799460D01*
X5614744Y-20799460D02*
X5586173Y-20808984D01*
X5586173Y-20808984D02*
X5538554Y-20808984D01*
X5738553Y-20808984D02*
X5738553Y-20675650D01*
X5738553Y-20713746D02*
X5748077Y-20694698D01*
X5748077Y-20694698D02*
X5757601Y-20685174D01*
X5757601Y-20685174D02*
X5776649Y-20675650D01*
X5776649Y-20675650D02*
X5795696Y-20675650D01*
X5862363Y-20808984D02*
X5862363Y-20675650D01*
X5862363Y-20608984D02*
X5852839Y-20618508D01*
X5852839Y-20618508D02*
X5862363Y-20628031D01*
X5862363Y-20628031D02*
X5871887Y-20618508D01*
X5871887Y-20618508D02*
X5862363Y-20608984D01*
X5862363Y-20608984D02*
X5862363Y-20628031D01*
X5986172Y-20808984D02*
X5967125Y-20799460D01*
X5967125Y-20799460D02*
X5957601Y-20780412D01*
X5957601Y-20780412D02*
X5957601Y-20608984D01*
X6090934Y-20808984D02*
X6071887Y-20799460D01*
X6071887Y-20799460D02*
X6062363Y-20780412D01*
X6062363Y-20780412D02*
X6062363Y-20608984D01*
X6319506Y-20808984D02*
X6319506Y-20608984D01*
X6319506Y-20608984D02*
X6386173Y-20751841D01*
X6386173Y-20751841D02*
X6452839Y-20608984D01*
X6452839Y-20608984D02*
X6452839Y-20808984D01*
X6633792Y-20808984D02*
X6633792Y-20704222D01*
X6633792Y-20704222D02*
X6624268Y-20685174D01*
X6624268Y-20685174D02*
X6605220Y-20675650D01*
X6605220Y-20675650D02*
X6567125Y-20675650D01*
X6567125Y-20675650D02*
X6548077Y-20685174D01*
X6633792Y-20799460D02*
X6614744Y-20808984D01*
X6614744Y-20808984D02*
X6567125Y-20808984D01*
X6567125Y-20808984D02*
X6548077Y-20799460D01*
X6548077Y-20799460D02*
X6538553Y-20780412D01*
X6538553Y-20780412D02*
X6538553Y-20761365D01*
X6538553Y-20761365D02*
X6548077Y-20742317D01*
X6548077Y-20742317D02*
X6567125Y-20732793D01*
X6567125Y-20732793D02*
X6614744Y-20732793D01*
X6614744Y-20732793D02*
X6633792Y-20723270D01*
X6729030Y-20675650D02*
X6729030Y-20875650D01*
X6729030Y-20685174D02*
X6748077Y-20675650D01*
X6748077Y-20675650D02*
X6786173Y-20675650D01*
X6786173Y-20675650D02*
X6805220Y-20685174D01*
X6805220Y-20685174D02*
X6814744Y-20694698D01*
X6814744Y-20694698D02*
X6824268Y-20713746D01*
X6824268Y-20713746D02*
X6824268Y-20770889D01*
X6824268Y-20770889D02*
X6814744Y-20789936D01*
X6814744Y-20789936D02*
X6805220Y-20799460D01*
X6805220Y-20799460D02*
X6786173Y-20808984D01*
X6786173Y-20808984D02*
X6748077Y-20808984D01*
X6748077Y-20808984D02*
X6729030Y-20799460D01*
X6909982Y-20789936D02*
X6919506Y-20799460D01*
X6919506Y-20799460D02*
X6909982Y-20808984D01*
X6909982Y-20808984D02*
X6900458Y-20799460D01*
X6900458Y-20799460D02*
X6909982Y-20789936D01*
X6909982Y-20789936D02*
X6909982Y-20808984D01*
X6909982Y-20685174D02*
X6919506Y-20694698D01*
X6919506Y-20694698D02*
X6909982Y-20704222D01*
X6909982Y-20704222D02*
X6900458Y-20694698D01*
X6900458Y-20694698D02*
X6909982Y-20685174D01*
X6909982Y-20685174D02*
X6909982Y-20704222D01*
D11*
X5257457Y-21127340D02*
X5277777Y-21147660D01*
X5277777Y-21127340D02*
X5257457Y-21147660D01*
D10*
X5576649Y-21028984D02*
X5595696Y-21028984D01*
X5595696Y-21028984D02*
X5614744Y-21038508D01*
X5614744Y-21038508D02*
X5624268Y-21048031D01*
X5624268Y-21048031D02*
X5633792Y-21067079D01*
X5633792Y-21067079D02*
X5643315Y-21105174D01*
X5643315Y-21105174D02*
X5643315Y-21152793D01*
X5643315Y-21152793D02*
X5633792Y-21190889D01*
X5633792Y-21190889D02*
X5624268Y-21209936D01*
X5624268Y-21209936D02*
X5614744Y-21219460D01*
X5614744Y-21219460D02*
X5595696Y-21228984D01*
X5595696Y-21228984D02*
X5576649Y-21228984D01*
X5576649Y-21228984D02*
X5557601Y-21219460D01*
X5557601Y-21219460D02*
X5548077Y-21209936D01*
X5548077Y-21209936D02*
X5538554Y-21190889D01*
X5538554Y-21190889D02*
X5529030Y-21152793D01*
X5529030Y-21152793D02*
X5529030Y-21105174D01*
X5529030Y-21105174D02*
X5538554Y-21067079D01*
X5538554Y-21067079D02*
X5548077Y-21048031D01*
X5548077Y-21048031D02*
X5557601Y-21038508D01*
X5557601Y-21038508D02*
X5576649Y-21028984D01*
X5729030Y-21209936D02*
X5738553Y-21219460D01*
X5738553Y-21219460D02*
X5729030Y-21228984D01*
X5729030Y-21228984D02*
X5719506Y-21219460D01*
X5719506Y-21219460D02*
X5729030Y-21209936D01*
X5729030Y-21209936D02*
X5729030Y-21228984D01*
X5814744Y-21048031D02*
X5824268Y-21038508D01*
X5824268Y-21038508D02*
X5843315Y-21028984D01*
X5843315Y-21028984D02*
X5890934Y-21028984D01*
X5890934Y-21028984D02*
X5909982Y-21038508D01*
X5909982Y-21038508D02*
X5919506Y-21048031D01*
X5919506Y-21048031D02*
X5929030Y-21067079D01*
X5929030Y-21067079D02*
X5929030Y-21086127D01*
X5929030Y-21086127D02*
X5919506Y-21114698D01*
X5919506Y-21114698D02*
X5805220Y-21228984D01*
X5805220Y-21228984D02*
X5929030Y-21228984D01*
X6052839Y-21028984D02*
X6071887Y-21028984D01*
X6071887Y-21028984D02*
X6090934Y-21038508D01*
X6090934Y-21038508D02*
X6100458Y-21048031D01*
X6100458Y-21048031D02*
X6109982Y-21067079D01*
X6109982Y-21067079D02*
X6119506Y-21105174D01*
X6119506Y-21105174D02*
X6119506Y-21152793D01*
X6119506Y-21152793D02*
X6109982Y-21190889D01*
X6109982Y-21190889D02*
X6100458Y-21209936D01*
X6100458Y-21209936D02*
X6090934Y-21219460D01*
X6090934Y-21219460D02*
X6071887Y-21228984D01*
X6071887Y-21228984D02*
X6052839Y-21228984D01*
X6052839Y-21228984D02*
X6033792Y-21219460D01*
X6033792Y-21219460D02*
X6024268Y-21209936D01*
X6024268Y-21209936D02*
X6014744Y-21190889D01*
X6014744Y-21190889D02*
X6005220Y-21152793D01*
X6005220Y-21152793D02*
X6005220Y-21105174D01*
X6005220Y-21105174D02*
X6014744Y-21067079D01*
X6014744Y-21067079D02*
X6024268Y-21048031D01*
X6024268Y-21048031D02*
X6033792Y-21038508D01*
X6033792Y-21038508D02*
X6052839Y-21028984D01*
X6186173Y-21028984D02*
X6309982Y-21028984D01*
X6309982Y-21028984D02*
X6243315Y-21105174D01*
X6243315Y-21105174D02*
X6271887Y-21105174D01*
X6271887Y-21105174D02*
X6290934Y-21114698D01*
X6290934Y-21114698D02*
X6300458Y-21124222D01*
X6300458Y-21124222D02*
X6309982Y-21143270D01*
X6309982Y-21143270D02*
X6309982Y-21190889D01*
X6309982Y-21190889D02*
X6300458Y-21209936D01*
X6300458Y-21209936D02*
X6290934Y-21219460D01*
X6290934Y-21219460D02*
X6271887Y-21228984D01*
X6271887Y-21228984D02*
X6214744Y-21228984D01*
X6214744Y-21228984D02*
X6195696Y-21219460D01*
X6195696Y-21219460D02*
X6186173Y-21209936D01*
X6395696Y-21228984D02*
X6395696Y-21095650D01*
X6395696Y-21114698D02*
X6405220Y-21105174D01*
X6405220Y-21105174D02*
X6424268Y-21095650D01*
X6424268Y-21095650D02*
X6452839Y-21095650D01*
X6452839Y-21095650D02*
X6471887Y-21105174D01*
X6471887Y-21105174D02*
X6481411Y-21124222D01*
X6481411Y-21124222D02*
X6481411Y-21228984D01*
X6481411Y-21124222D02*
X6490934Y-21105174D01*
X6490934Y-21105174D02*
X6509982Y-21095650D01*
X6509982Y-21095650D02*
X6538553Y-21095650D01*
X6538553Y-21095650D02*
X6557601Y-21105174D01*
X6557601Y-21105174D02*
X6567125Y-21124222D01*
X6567125Y-21124222D02*
X6567125Y-21228984D01*
X6662363Y-21228984D02*
X6662363Y-21095650D01*
X6662363Y-21114698D02*
X6671887Y-21105174D01*
X6671887Y-21105174D02*
X6690934Y-21095650D01*
X6690934Y-21095650D02*
X6719506Y-21095650D01*
X6719506Y-21095650D02*
X6738554Y-21105174D01*
X6738554Y-21105174D02*
X6748077Y-21124222D01*
X6748077Y-21124222D02*
X6748077Y-21228984D01*
X6748077Y-21124222D02*
X6757601Y-21105174D01*
X6757601Y-21105174D02*
X6776649Y-21095650D01*
X6776649Y-21095650D02*
X6805220Y-21095650D01*
X6805220Y-21095650D02*
X6824268Y-21105174D01*
X6824268Y-21105174D02*
X6833792Y-21124222D01*
X6833792Y-21124222D02*
X6833792Y-21228984D01*
X7224268Y-21019460D02*
X7052839Y-21276603D01*
X7481411Y-21028984D02*
X7500458Y-21028984D01*
X7500458Y-21028984D02*
X7519506Y-21038508D01*
X7519506Y-21038508D02*
X7529030Y-21048031D01*
X7529030Y-21048031D02*
X7538554Y-21067079D01*
X7538554Y-21067079D02*
X7548077Y-21105174D01*
X7548077Y-21105174D02*
X7548077Y-21152793D01*
X7548077Y-21152793D02*
X7538554Y-21190889D01*
X7538554Y-21190889D02*
X7529030Y-21209936D01*
X7529030Y-21209936D02*
X7519506Y-21219460D01*
X7519506Y-21219460D02*
X7500458Y-21228984D01*
X7500458Y-21228984D02*
X7481411Y-21228984D01*
X7481411Y-21228984D02*
X7462363Y-21219460D01*
X7462363Y-21219460D02*
X7452839Y-21209936D01*
X7452839Y-21209936D02*
X7443316Y-21190889D01*
X7443316Y-21190889D02*
X7433792Y-21152793D01*
X7433792Y-21152793D02*
X7433792Y-21105174D01*
X7433792Y-21105174D02*
X7443316Y-21067079D01*
X7443316Y-21067079D02*
X7452839Y-21048031D01*
X7452839Y-21048031D02*
X7462363Y-21038508D01*
X7462363Y-21038508D02*
X7481411Y-21028984D01*
X7633792Y-21209936D02*
X7643316Y-21219460D01*
X7643316Y-21219460D02*
X7633792Y-21228984D01*
X7633792Y-21228984D02*
X7624268Y-21219460D01*
X7624268Y-21219460D02*
X7633792Y-21209936D01*
X7633792Y-21209936D02*
X7633792Y-21228984D01*
X7767125Y-21028984D02*
X7786173Y-21028984D01*
X7786173Y-21028984D02*
X7805220Y-21038508D01*
X7805220Y-21038508D02*
X7814744Y-21048031D01*
X7814744Y-21048031D02*
X7824268Y-21067079D01*
X7824268Y-21067079D02*
X7833792Y-21105174D01*
X7833792Y-21105174D02*
X7833792Y-21152793D01*
X7833792Y-21152793D02*
X7824268Y-21190889D01*
X7824268Y-21190889D02*
X7814744Y-21209936D01*
X7814744Y-21209936D02*
X7805220Y-21219460D01*
X7805220Y-21219460D02*
X7786173Y-21228984D01*
X7786173Y-21228984D02*
X7767125Y-21228984D01*
X7767125Y-21228984D02*
X7748077Y-21219460D01*
X7748077Y-21219460D02*
X7738554Y-21209936D01*
X7738554Y-21209936D02*
X7729030Y-21190889D01*
X7729030Y-21190889D02*
X7719506Y-21152793D01*
X7719506Y-21152793D02*
X7719506Y-21105174D01*
X7719506Y-21105174D02*
X7729030Y-21067079D01*
X7729030Y-21067079D02*
X7738554Y-21048031D01*
X7738554Y-21048031D02*
X7748077Y-21038508D01*
X7748077Y-21038508D02*
X7767125Y-21028984D01*
X7957601Y-21028984D02*
X7976649Y-21028984D01*
X7976649Y-21028984D02*
X7995697Y-21038508D01*
X7995697Y-21038508D02*
X8005220Y-21048031D01*
X8005220Y-21048031D02*
X8014744Y-21067079D01*
X8014744Y-21067079D02*
X8024268Y-21105174D01*
X8024268Y-21105174D02*
X8024268Y-21152793D01*
X8024268Y-21152793D02*
X8014744Y-21190889D01*
X8014744Y-21190889D02*
X8005220Y-21209936D01*
X8005220Y-21209936D02*
X7995697Y-21219460D01*
X7995697Y-21219460D02*
X7976649Y-21228984D01*
X7976649Y-21228984D02*
X7957601Y-21228984D01*
X7957601Y-21228984D02*
X7938554Y-21219460D01*
X7938554Y-21219460D02*
X7929030Y-21209936D01*
X7929030Y-21209936D02*
X7919506Y-21190889D01*
X7919506Y-21190889D02*
X7909982Y-21152793D01*
X7909982Y-21152793D02*
X7909982Y-21105174D01*
X7909982Y-21105174D02*
X7919506Y-21067079D01*
X7919506Y-21067079D02*
X7929030Y-21048031D01*
X7929030Y-21048031D02*
X7938554Y-21038508D01*
X7938554Y-21038508D02*
X7957601Y-21028984D01*
X8138554Y-21114698D02*
X8119506Y-21105174D01*
X8119506Y-21105174D02*
X8109982Y-21095650D01*
X8109982Y-21095650D02*
X8100458Y-21076603D01*
X8100458Y-21076603D02*
X8100458Y-21067079D01*
X8100458Y-21067079D02*
X8109982Y-21048031D01*
X8109982Y-21048031D02*
X8119506Y-21038508D01*
X8119506Y-21038508D02*
X8138554Y-21028984D01*
X8138554Y-21028984D02*
X8176649Y-21028984D01*
X8176649Y-21028984D02*
X8195697Y-21038508D01*
X8195697Y-21038508D02*
X8205220Y-21048031D01*
X8205220Y-21048031D02*
X8214744Y-21067079D01*
X8214744Y-21067079D02*
X8214744Y-21076603D01*
X8214744Y-21076603D02*
X8205220Y-21095650D01*
X8205220Y-21095650D02*
X8195697Y-21105174D01*
X8195697Y-21105174D02*
X8176649Y-21114698D01*
X8176649Y-21114698D02*
X8138554Y-21114698D01*
X8138554Y-21114698D02*
X8119506Y-21124222D01*
X8119506Y-21124222D02*
X8109982Y-21133746D01*
X8109982Y-21133746D02*
X8100458Y-21152793D01*
X8100458Y-21152793D02*
X8100458Y-21190889D01*
X8100458Y-21190889D02*
X8109982Y-21209936D01*
X8109982Y-21209936D02*
X8119506Y-21219460D01*
X8119506Y-21219460D02*
X8138554Y-21228984D01*
X8138554Y-21228984D02*
X8176649Y-21228984D01*
X8176649Y-21228984D02*
X8195697Y-21219460D01*
X8195697Y-21219460D02*
X8205220Y-21209936D01*
X8205220Y-21209936D02*
X8214744Y-21190889D01*
X8214744Y-21190889D02*
X8214744Y-21152793D01*
X8214744Y-21152793D02*
X8205220Y-21133746D01*
X8205220Y-21133746D02*
X8195697Y-21124222D01*
X8195697Y-21124222D02*
X8176649Y-21114698D01*
X8338554Y-21028984D02*
X8357601Y-21028984D01*
X8357601Y-21028984D02*
X8376649Y-21038508D01*
X8376649Y-21038508D02*
X8386173Y-21048031D01*
X8386173Y-21048031D02*
X8395697Y-21067079D01*
X8395697Y-21067079D02*
X8405220Y-21105174D01*
X8405220Y-21105174D02*
X8405220Y-21152793D01*
X8405220Y-21152793D02*
X8395697Y-21190889D01*
X8395697Y-21190889D02*
X8386173Y-21209936D01*
X8386173Y-21209936D02*
X8376649Y-21219460D01*
X8376649Y-21219460D02*
X8357601Y-21228984D01*
X8357601Y-21228984D02*
X8338554Y-21228984D01*
X8338554Y-21228984D02*
X8319506Y-21219460D01*
X8319506Y-21219460D02*
X8309982Y-21209936D01*
X8309982Y-21209936D02*
X8300458Y-21190889D01*
X8300458Y-21190889D02*
X8290935Y-21152793D01*
X8290935Y-21152793D02*
X8290935Y-21105174D01*
X8290935Y-21105174D02*
X8300458Y-21067079D01*
X8300458Y-21067079D02*
X8309982Y-21048031D01*
X8309982Y-21048031D02*
X8319506Y-21038508D01*
X8319506Y-21038508D02*
X8338554Y-21028984D01*
X8481411Y-21028984D02*
X8481411Y-21067079D01*
X8557601Y-21028984D02*
X8557601Y-21067079D01*
X8852840Y-21305174D02*
X8843316Y-21295650D01*
X8843316Y-21295650D02*
X8824268Y-21267079D01*
X8824268Y-21267079D02*
X8814744Y-21248031D01*
X8814744Y-21248031D02*
X8805221Y-21219460D01*
X8805221Y-21219460D02*
X8795697Y-21171841D01*
X8795697Y-21171841D02*
X8795697Y-21133746D01*
X8795697Y-21133746D02*
X8805221Y-21086127D01*
X8805221Y-21086127D02*
X8814744Y-21057555D01*
X8814744Y-21057555D02*
X8824268Y-21038508D01*
X8824268Y-21038508D02*
X8843316Y-21009936D01*
X8843316Y-21009936D02*
X8852840Y-21000412D01*
X8919506Y-21048031D02*
X8929030Y-21038508D01*
X8929030Y-21038508D02*
X8948078Y-21028984D01*
X8948078Y-21028984D02*
X8995697Y-21028984D01*
X8995697Y-21028984D02*
X9014744Y-21038508D01*
X9014744Y-21038508D02*
X9024268Y-21048031D01*
X9024268Y-21048031D02*
X9033792Y-21067079D01*
X9033792Y-21067079D02*
X9033792Y-21086127D01*
X9033792Y-21086127D02*
X9024268Y-21114698D01*
X9024268Y-21114698D02*
X8909982Y-21228984D01*
X8909982Y-21228984D02*
X9033792Y-21228984D01*
X9271887Y-21228984D02*
X9271887Y-21028984D01*
X9357602Y-21228984D02*
X9357602Y-21124222D01*
X9357602Y-21124222D02*
X9348078Y-21105174D01*
X9348078Y-21105174D02*
X9329030Y-21095650D01*
X9329030Y-21095650D02*
X9300459Y-21095650D01*
X9300459Y-21095650D02*
X9281411Y-21105174D01*
X9281411Y-21105174D02*
X9271887Y-21114698D01*
X9481411Y-21228984D02*
X9462363Y-21219460D01*
X9462363Y-21219460D02*
X9452840Y-21209936D01*
X9452840Y-21209936D02*
X9443316Y-21190889D01*
X9443316Y-21190889D02*
X9443316Y-21133746D01*
X9443316Y-21133746D02*
X9452840Y-21114698D01*
X9452840Y-21114698D02*
X9462363Y-21105174D01*
X9462363Y-21105174D02*
X9481411Y-21095650D01*
X9481411Y-21095650D02*
X9509983Y-21095650D01*
X9509983Y-21095650D02*
X9529030Y-21105174D01*
X9529030Y-21105174D02*
X9538554Y-21114698D01*
X9538554Y-21114698D02*
X9548078Y-21133746D01*
X9548078Y-21133746D02*
X9548078Y-21190889D01*
X9548078Y-21190889D02*
X9538554Y-21209936D01*
X9538554Y-21209936D02*
X9529030Y-21219460D01*
X9529030Y-21219460D02*
X9509983Y-21228984D01*
X9509983Y-21228984D02*
X9481411Y-21228984D01*
X9662363Y-21228984D02*
X9643316Y-21219460D01*
X9643316Y-21219460D02*
X9633792Y-21200412D01*
X9633792Y-21200412D02*
X9633792Y-21028984D01*
X9814744Y-21219460D02*
X9795697Y-21228984D01*
X9795697Y-21228984D02*
X9757602Y-21228984D01*
X9757602Y-21228984D02*
X9738554Y-21219460D01*
X9738554Y-21219460D02*
X9729030Y-21200412D01*
X9729030Y-21200412D02*
X9729030Y-21124222D01*
X9729030Y-21124222D02*
X9738554Y-21105174D01*
X9738554Y-21105174D02*
X9757602Y-21095650D01*
X9757602Y-21095650D02*
X9795697Y-21095650D01*
X9795697Y-21095650D02*
X9814744Y-21105174D01*
X9814744Y-21105174D02*
X9824268Y-21124222D01*
X9824268Y-21124222D02*
X9824268Y-21143270D01*
X9824268Y-21143270D02*
X9729030Y-21162317D01*
X9900459Y-21219460D02*
X9919506Y-21228984D01*
X9919506Y-21228984D02*
X9957602Y-21228984D01*
X9957602Y-21228984D02*
X9976649Y-21219460D01*
X9976649Y-21219460D02*
X9986173Y-21200412D01*
X9986173Y-21200412D02*
X9986173Y-21190889D01*
X9986173Y-21190889D02*
X9976649Y-21171841D01*
X9976649Y-21171841D02*
X9957602Y-21162317D01*
X9957602Y-21162317D02*
X9929030Y-21162317D01*
X9929030Y-21162317D02*
X9909983Y-21152793D01*
X9909983Y-21152793D02*
X9900459Y-21133746D01*
X9900459Y-21133746D02*
X9900459Y-21124222D01*
X9900459Y-21124222D02*
X9909983Y-21105174D01*
X9909983Y-21105174D02*
X9929030Y-21095650D01*
X9929030Y-21095650D02*
X9957602Y-21095650D01*
X9957602Y-21095650D02*
X9976649Y-21105174D01*
X10052840Y-21305174D02*
X10062364Y-21295650D01*
X10062364Y-21295650D02*
X10081411Y-21267079D01*
X10081411Y-21267079D02*
X10090935Y-21248031D01*
X10090935Y-21248031D02*
X10100459Y-21219460D01*
X10100459Y-21219460D02*
X10109983Y-21171841D01*
X10109983Y-21171841D02*
X10109983Y-21133746D01*
X10109983Y-21133746D02*
X10100459Y-21086127D01*
X10100459Y-21086127D02*
X10090935Y-21057555D01*
X10090935Y-21057555D02*
X10081411Y-21038508D01*
X10081411Y-21038508D02*
X10062364Y-21009936D01*
X10062364Y-21009936D02*
X10052840Y-21000412D01*
D11*
X5277777Y-21401500D02*
G75*
G02*
X5252377Y-21401500I-12700J0D01*
G01*
X5252377Y-21401500D02*
G75*
G02*
X5277777Y-21401500I12700J0D01*
G01*
D10*
X5576649Y-21292984D02*
X5595696Y-21292984D01*
X5595696Y-21292984D02*
X5614744Y-21302508D01*
X5614744Y-21302508D02*
X5624268Y-21312031D01*
X5624268Y-21312031D02*
X5633792Y-21331079D01*
X5633792Y-21331079D02*
X5643315Y-21369174D01*
X5643315Y-21369174D02*
X5643315Y-21416793D01*
X5643315Y-21416793D02*
X5633792Y-21454889D01*
X5633792Y-21454889D02*
X5624268Y-21473936D01*
X5624268Y-21473936D02*
X5614744Y-21483460D01*
X5614744Y-21483460D02*
X5595696Y-21492984D01*
X5595696Y-21492984D02*
X5576649Y-21492984D01*
X5576649Y-21492984D02*
X5557601Y-21483460D01*
X5557601Y-21483460D02*
X5548077Y-21473936D01*
X5548077Y-21473936D02*
X5538554Y-21454889D01*
X5538554Y-21454889D02*
X5529030Y-21416793D01*
X5529030Y-21416793D02*
X5529030Y-21369174D01*
X5529030Y-21369174D02*
X5538554Y-21331079D01*
X5538554Y-21331079D02*
X5548077Y-21312031D01*
X5548077Y-21312031D02*
X5557601Y-21302508D01*
X5557601Y-21302508D02*
X5576649Y-21292984D01*
X5729030Y-21473936D02*
X5738553Y-21483460D01*
X5738553Y-21483460D02*
X5729030Y-21492984D01*
X5729030Y-21492984D02*
X5719506Y-21483460D01*
X5719506Y-21483460D02*
X5729030Y-21473936D01*
X5729030Y-21473936D02*
X5729030Y-21492984D01*
X5814744Y-21312031D02*
X5824268Y-21302508D01*
X5824268Y-21302508D02*
X5843315Y-21292984D01*
X5843315Y-21292984D02*
X5890934Y-21292984D01*
X5890934Y-21292984D02*
X5909982Y-21302508D01*
X5909982Y-21302508D02*
X5919506Y-21312031D01*
X5919506Y-21312031D02*
X5929030Y-21331079D01*
X5929030Y-21331079D02*
X5929030Y-21350127D01*
X5929030Y-21350127D02*
X5919506Y-21378698D01*
X5919506Y-21378698D02*
X5805220Y-21492984D01*
X5805220Y-21492984D02*
X5929030Y-21492984D01*
X6109982Y-21292984D02*
X6014744Y-21292984D01*
X6014744Y-21292984D02*
X6005220Y-21388222D01*
X6005220Y-21388222D02*
X6014744Y-21378698D01*
X6014744Y-21378698D02*
X6033792Y-21369174D01*
X6033792Y-21369174D02*
X6081411Y-21369174D01*
X6081411Y-21369174D02*
X6100458Y-21378698D01*
X6100458Y-21378698D02*
X6109982Y-21388222D01*
X6109982Y-21388222D02*
X6119506Y-21407270D01*
X6119506Y-21407270D02*
X6119506Y-21454889D01*
X6119506Y-21454889D02*
X6109982Y-21473936D01*
X6109982Y-21473936D02*
X6100458Y-21483460D01*
X6100458Y-21483460D02*
X6081411Y-21492984D01*
X6081411Y-21492984D02*
X6033792Y-21492984D01*
X6033792Y-21492984D02*
X6014744Y-21483460D01*
X6014744Y-21483460D02*
X6005220Y-21473936D01*
X6290934Y-21359650D02*
X6290934Y-21492984D01*
X6243315Y-21283460D02*
X6195696Y-21426317D01*
X6195696Y-21426317D02*
X6319506Y-21426317D01*
X6395696Y-21492984D02*
X6395696Y-21359650D01*
X6395696Y-21378698D02*
X6405220Y-21369174D01*
X6405220Y-21369174D02*
X6424268Y-21359650D01*
X6424268Y-21359650D02*
X6452839Y-21359650D01*
X6452839Y-21359650D02*
X6471887Y-21369174D01*
X6471887Y-21369174D02*
X6481411Y-21388222D01*
X6481411Y-21388222D02*
X6481411Y-21492984D01*
X6481411Y-21388222D02*
X6490934Y-21369174D01*
X6490934Y-21369174D02*
X6509982Y-21359650D01*
X6509982Y-21359650D02*
X6538553Y-21359650D01*
X6538553Y-21359650D02*
X6557601Y-21369174D01*
X6557601Y-21369174D02*
X6567125Y-21388222D01*
X6567125Y-21388222D02*
X6567125Y-21492984D01*
X6662363Y-21492984D02*
X6662363Y-21359650D01*
X6662363Y-21378698D02*
X6671887Y-21369174D01*
X6671887Y-21369174D02*
X6690934Y-21359650D01*
X6690934Y-21359650D02*
X6719506Y-21359650D01*
X6719506Y-21359650D02*
X6738554Y-21369174D01*
X6738554Y-21369174D02*
X6748077Y-21388222D01*
X6748077Y-21388222D02*
X6748077Y-21492984D01*
X6748077Y-21388222D02*
X6757601Y-21369174D01*
X6757601Y-21369174D02*
X6776649Y-21359650D01*
X6776649Y-21359650D02*
X6805220Y-21359650D01*
X6805220Y-21359650D02*
X6824268Y-21369174D01*
X6824268Y-21369174D02*
X6833792Y-21388222D01*
X6833792Y-21388222D02*
X6833792Y-21492984D01*
X7224268Y-21283460D02*
X7052839Y-21540603D01*
X7481411Y-21292984D02*
X7500458Y-21292984D01*
X7500458Y-21292984D02*
X7519506Y-21302508D01*
X7519506Y-21302508D02*
X7529030Y-21312031D01*
X7529030Y-21312031D02*
X7538554Y-21331079D01*
X7538554Y-21331079D02*
X7548077Y-21369174D01*
X7548077Y-21369174D02*
X7548077Y-21416793D01*
X7548077Y-21416793D02*
X7538554Y-21454889D01*
X7538554Y-21454889D02*
X7529030Y-21473936D01*
X7529030Y-21473936D02*
X7519506Y-21483460D01*
X7519506Y-21483460D02*
X7500458Y-21492984D01*
X7500458Y-21492984D02*
X7481411Y-21492984D01*
X7481411Y-21492984D02*
X7462363Y-21483460D01*
X7462363Y-21483460D02*
X7452839Y-21473936D01*
X7452839Y-21473936D02*
X7443316Y-21454889D01*
X7443316Y-21454889D02*
X7433792Y-21416793D01*
X7433792Y-21416793D02*
X7433792Y-21369174D01*
X7433792Y-21369174D02*
X7443316Y-21331079D01*
X7443316Y-21331079D02*
X7452839Y-21312031D01*
X7452839Y-21312031D02*
X7462363Y-21302508D01*
X7462363Y-21302508D02*
X7481411Y-21292984D01*
X7633792Y-21473936D02*
X7643316Y-21483460D01*
X7643316Y-21483460D02*
X7633792Y-21492984D01*
X7633792Y-21492984D02*
X7624268Y-21483460D01*
X7624268Y-21483460D02*
X7633792Y-21473936D01*
X7633792Y-21473936D02*
X7633792Y-21492984D01*
X7767125Y-21292984D02*
X7786173Y-21292984D01*
X7786173Y-21292984D02*
X7805220Y-21302508D01*
X7805220Y-21302508D02*
X7814744Y-21312031D01*
X7814744Y-21312031D02*
X7824268Y-21331079D01*
X7824268Y-21331079D02*
X7833792Y-21369174D01*
X7833792Y-21369174D02*
X7833792Y-21416793D01*
X7833792Y-21416793D02*
X7824268Y-21454889D01*
X7824268Y-21454889D02*
X7814744Y-21473936D01*
X7814744Y-21473936D02*
X7805220Y-21483460D01*
X7805220Y-21483460D02*
X7786173Y-21492984D01*
X7786173Y-21492984D02*
X7767125Y-21492984D01*
X7767125Y-21492984D02*
X7748077Y-21483460D01*
X7748077Y-21483460D02*
X7738554Y-21473936D01*
X7738554Y-21473936D02*
X7729030Y-21454889D01*
X7729030Y-21454889D02*
X7719506Y-21416793D01*
X7719506Y-21416793D02*
X7719506Y-21369174D01*
X7719506Y-21369174D02*
X7729030Y-21331079D01*
X7729030Y-21331079D02*
X7738554Y-21312031D01*
X7738554Y-21312031D02*
X7748077Y-21302508D01*
X7748077Y-21302508D02*
X7767125Y-21292984D01*
X8024268Y-21492984D02*
X7909982Y-21492984D01*
X7967125Y-21492984D02*
X7967125Y-21292984D01*
X7967125Y-21292984D02*
X7948077Y-21321555D01*
X7948077Y-21321555D02*
X7929030Y-21340603D01*
X7929030Y-21340603D02*
X7909982Y-21350127D01*
X8148077Y-21292984D02*
X8167125Y-21292984D01*
X8167125Y-21292984D02*
X8186173Y-21302508D01*
X8186173Y-21302508D02*
X8195697Y-21312031D01*
X8195697Y-21312031D02*
X8205220Y-21331079D01*
X8205220Y-21331079D02*
X8214744Y-21369174D01*
X8214744Y-21369174D02*
X8214744Y-21416793D01*
X8214744Y-21416793D02*
X8205220Y-21454889D01*
X8205220Y-21454889D02*
X8195697Y-21473936D01*
X8195697Y-21473936D02*
X8186173Y-21483460D01*
X8186173Y-21483460D02*
X8167125Y-21492984D01*
X8167125Y-21492984D02*
X8148077Y-21492984D01*
X8148077Y-21492984D02*
X8129030Y-21483460D01*
X8129030Y-21483460D02*
X8119506Y-21473936D01*
X8119506Y-21473936D02*
X8109982Y-21454889D01*
X8109982Y-21454889D02*
X8100458Y-21416793D01*
X8100458Y-21416793D02*
X8100458Y-21369174D01*
X8100458Y-21369174D02*
X8109982Y-21331079D01*
X8109982Y-21331079D02*
X8119506Y-21312031D01*
X8119506Y-21312031D02*
X8129030Y-21302508D01*
X8129030Y-21302508D02*
X8148077Y-21292984D01*
X8338554Y-21292984D02*
X8357601Y-21292984D01*
X8357601Y-21292984D02*
X8376649Y-21302508D01*
X8376649Y-21302508D02*
X8386173Y-21312031D01*
X8386173Y-21312031D02*
X8395697Y-21331079D01*
X8395697Y-21331079D02*
X8405220Y-21369174D01*
X8405220Y-21369174D02*
X8405220Y-21416793D01*
X8405220Y-21416793D02*
X8395697Y-21454889D01*
X8395697Y-21454889D02*
X8386173Y-21473936D01*
X8386173Y-21473936D02*
X8376649Y-21483460D01*
X8376649Y-21483460D02*
X8357601Y-21492984D01*
X8357601Y-21492984D02*
X8338554Y-21492984D01*
X8338554Y-21492984D02*
X8319506Y-21483460D01*
X8319506Y-21483460D02*
X8309982Y-21473936D01*
X8309982Y-21473936D02*
X8300458Y-21454889D01*
X8300458Y-21454889D02*
X8290935Y-21416793D01*
X8290935Y-21416793D02*
X8290935Y-21369174D01*
X8290935Y-21369174D02*
X8300458Y-21331079D01*
X8300458Y-21331079D02*
X8309982Y-21312031D01*
X8309982Y-21312031D02*
X8319506Y-21302508D01*
X8319506Y-21302508D02*
X8338554Y-21292984D01*
X8481411Y-21292984D02*
X8481411Y-21331079D01*
X8557601Y-21292984D02*
X8557601Y-21331079D01*
X8852840Y-21569174D02*
X8843316Y-21559650D01*
X8843316Y-21559650D02*
X8824268Y-21531079D01*
X8824268Y-21531079D02*
X8814744Y-21512031D01*
X8814744Y-21512031D02*
X8805221Y-21483460D01*
X8805221Y-21483460D02*
X8795697Y-21435841D01*
X8795697Y-21435841D02*
X8795697Y-21397746D01*
X8795697Y-21397746D02*
X8805221Y-21350127D01*
X8805221Y-21350127D02*
X8814744Y-21321555D01*
X8814744Y-21321555D02*
X8824268Y-21302508D01*
X8824268Y-21302508D02*
X8843316Y-21273936D01*
X8843316Y-21273936D02*
X8852840Y-21264412D01*
X8909982Y-21292984D02*
X9033792Y-21292984D01*
X9033792Y-21292984D02*
X8967125Y-21369174D01*
X8967125Y-21369174D02*
X8995697Y-21369174D01*
X8995697Y-21369174D02*
X9014744Y-21378698D01*
X9014744Y-21378698D02*
X9024268Y-21388222D01*
X9024268Y-21388222D02*
X9033792Y-21407270D01*
X9033792Y-21407270D02*
X9033792Y-21454889D01*
X9033792Y-21454889D02*
X9024268Y-21473936D01*
X9024268Y-21473936D02*
X9014744Y-21483460D01*
X9014744Y-21483460D02*
X8995697Y-21492984D01*
X8995697Y-21492984D02*
X8938554Y-21492984D01*
X8938554Y-21492984D02*
X8919506Y-21483460D01*
X8919506Y-21483460D02*
X8909982Y-21473936D01*
X9214744Y-21292984D02*
X9119506Y-21292984D01*
X9119506Y-21292984D02*
X9109982Y-21388222D01*
X9109982Y-21388222D02*
X9119506Y-21378698D01*
X9119506Y-21378698D02*
X9138554Y-21369174D01*
X9138554Y-21369174D02*
X9186173Y-21369174D01*
X9186173Y-21369174D02*
X9205221Y-21378698D01*
X9205221Y-21378698D02*
X9214744Y-21388222D01*
X9214744Y-21388222D02*
X9224268Y-21407270D01*
X9224268Y-21407270D02*
X9224268Y-21454889D01*
X9224268Y-21454889D02*
X9214744Y-21473936D01*
X9214744Y-21473936D02*
X9205221Y-21483460D01*
X9205221Y-21483460D02*
X9186173Y-21492984D01*
X9186173Y-21492984D02*
X9138554Y-21492984D01*
X9138554Y-21492984D02*
X9119506Y-21483460D01*
X9119506Y-21483460D02*
X9109982Y-21473936D01*
X9462363Y-21492984D02*
X9462363Y-21292984D01*
X9548078Y-21492984D02*
X9548078Y-21388222D01*
X9548078Y-21388222D02*
X9538554Y-21369174D01*
X9538554Y-21369174D02*
X9519506Y-21359650D01*
X9519506Y-21359650D02*
X9490935Y-21359650D01*
X9490935Y-21359650D02*
X9471887Y-21369174D01*
X9471887Y-21369174D02*
X9462363Y-21378698D01*
X9671887Y-21492984D02*
X9652840Y-21483460D01*
X9652840Y-21483460D02*
X9643316Y-21473936D01*
X9643316Y-21473936D02*
X9633792Y-21454889D01*
X9633792Y-21454889D02*
X9633792Y-21397746D01*
X9633792Y-21397746D02*
X9643316Y-21378698D01*
X9643316Y-21378698D02*
X9652840Y-21369174D01*
X9652840Y-21369174D02*
X9671887Y-21359650D01*
X9671887Y-21359650D02*
X9700459Y-21359650D01*
X9700459Y-21359650D02*
X9719506Y-21369174D01*
X9719506Y-21369174D02*
X9729030Y-21378698D01*
X9729030Y-21378698D02*
X9738554Y-21397746D01*
X9738554Y-21397746D02*
X9738554Y-21454889D01*
X9738554Y-21454889D02*
X9729030Y-21473936D01*
X9729030Y-21473936D02*
X9719506Y-21483460D01*
X9719506Y-21483460D02*
X9700459Y-21492984D01*
X9700459Y-21492984D02*
X9671887Y-21492984D01*
X9852840Y-21492984D02*
X9833792Y-21483460D01*
X9833792Y-21483460D02*
X9824268Y-21464412D01*
X9824268Y-21464412D02*
X9824268Y-21292984D01*
X10005221Y-21483460D02*
X9986173Y-21492984D01*
X9986173Y-21492984D02*
X9948078Y-21492984D01*
X9948078Y-21492984D02*
X9929030Y-21483460D01*
X9929030Y-21483460D02*
X9919506Y-21464412D01*
X9919506Y-21464412D02*
X9919506Y-21388222D01*
X9919506Y-21388222D02*
X9929030Y-21369174D01*
X9929030Y-21369174D02*
X9948078Y-21359650D01*
X9948078Y-21359650D02*
X9986173Y-21359650D01*
X9986173Y-21359650D02*
X10005221Y-21369174D01*
X10005221Y-21369174D02*
X10014744Y-21388222D01*
X10014744Y-21388222D02*
X10014744Y-21407270D01*
X10014744Y-21407270D02*
X9919506Y-21426317D01*
X10090935Y-21483460D02*
X10109983Y-21492984D01*
X10109983Y-21492984D02*
X10148078Y-21492984D01*
X10148078Y-21492984D02*
X10167125Y-21483460D01*
X10167125Y-21483460D02*
X10176649Y-21464412D01*
X10176649Y-21464412D02*
X10176649Y-21454889D01*
X10176649Y-21454889D02*
X10167125Y-21435841D01*
X10167125Y-21435841D02*
X10148078Y-21426317D01*
X10148078Y-21426317D02*
X10119506Y-21426317D01*
X10119506Y-21426317D02*
X10100459Y-21416793D01*
X10100459Y-21416793D02*
X10090935Y-21397746D01*
X10090935Y-21397746D02*
X10090935Y-21388222D01*
X10090935Y-21388222D02*
X10100459Y-21369174D01*
X10100459Y-21369174D02*
X10119506Y-21359650D01*
X10119506Y-21359650D02*
X10148078Y-21359650D01*
X10148078Y-21359650D02*
X10167125Y-21369174D01*
X10243316Y-21569174D02*
X10252840Y-21559650D01*
X10252840Y-21559650D02*
X10271887Y-21531079D01*
X10271887Y-21531079D02*
X10281411Y-21512031D01*
X10281411Y-21512031D02*
X10290935Y-21483460D01*
X10290935Y-21483460D02*
X10300459Y-21435841D01*
X10300459Y-21435841D02*
X10300459Y-21397746D01*
X10300459Y-21397746D02*
X10290935Y-21350127D01*
X10290935Y-21350127D02*
X10281411Y-21321555D01*
X10281411Y-21321555D02*
X10271887Y-21302508D01*
X10271887Y-21302508D02*
X10252840Y-21273936D01*
X10252840Y-21273936D02*
X10243316Y-21264412D01*
D11*
X5262777Y-21650500D02*
X5262777Y-21680500D01*
X5247777Y-21665500D02*
X5277777Y-21665500D01*
D10*
X5576649Y-21556984D02*
X5595696Y-21556984D01*
X5595696Y-21556984D02*
X5614744Y-21566508D01*
X5614744Y-21566508D02*
X5624268Y-21576031D01*
X5624268Y-21576031D02*
X5633792Y-21595079D01*
X5633792Y-21595079D02*
X5643315Y-21633174D01*
X5643315Y-21633174D02*
X5643315Y-21680793D01*
X5643315Y-21680793D02*
X5633792Y-21718889D01*
X5633792Y-21718889D02*
X5624268Y-21737936D01*
X5624268Y-21737936D02*
X5614744Y-21747460D01*
X5614744Y-21747460D02*
X5595696Y-21756984D01*
X5595696Y-21756984D02*
X5576649Y-21756984D01*
X5576649Y-21756984D02*
X5557601Y-21747460D01*
X5557601Y-21747460D02*
X5548077Y-21737936D01*
X5548077Y-21737936D02*
X5538554Y-21718889D01*
X5538554Y-21718889D02*
X5529030Y-21680793D01*
X5529030Y-21680793D02*
X5529030Y-21633174D01*
X5529030Y-21633174D02*
X5538554Y-21595079D01*
X5538554Y-21595079D02*
X5548077Y-21576031D01*
X5548077Y-21576031D02*
X5557601Y-21566508D01*
X5557601Y-21566508D02*
X5576649Y-21556984D01*
X5729030Y-21737936D02*
X5738553Y-21747460D01*
X5738553Y-21747460D02*
X5729030Y-21756984D01*
X5729030Y-21756984D02*
X5719506Y-21747460D01*
X5719506Y-21747460D02*
X5729030Y-21737936D01*
X5729030Y-21737936D02*
X5729030Y-21756984D01*
X5805220Y-21556984D02*
X5929030Y-21556984D01*
X5929030Y-21556984D02*
X5862363Y-21633174D01*
X5862363Y-21633174D02*
X5890934Y-21633174D01*
X5890934Y-21633174D02*
X5909982Y-21642698D01*
X5909982Y-21642698D02*
X5919506Y-21652222D01*
X5919506Y-21652222D02*
X5929030Y-21671270D01*
X5929030Y-21671270D02*
X5929030Y-21718889D01*
X5929030Y-21718889D02*
X5919506Y-21737936D01*
X5919506Y-21737936D02*
X5909982Y-21747460D01*
X5909982Y-21747460D02*
X5890934Y-21756984D01*
X5890934Y-21756984D02*
X5833792Y-21756984D01*
X5833792Y-21756984D02*
X5814744Y-21747460D01*
X5814744Y-21747460D02*
X5805220Y-21737936D01*
X6052839Y-21556984D02*
X6071887Y-21556984D01*
X6071887Y-21556984D02*
X6090934Y-21566508D01*
X6090934Y-21566508D02*
X6100458Y-21576031D01*
X6100458Y-21576031D02*
X6109982Y-21595079D01*
X6109982Y-21595079D02*
X6119506Y-21633174D01*
X6119506Y-21633174D02*
X6119506Y-21680793D01*
X6119506Y-21680793D02*
X6109982Y-21718889D01*
X6109982Y-21718889D02*
X6100458Y-21737936D01*
X6100458Y-21737936D02*
X6090934Y-21747460D01*
X6090934Y-21747460D02*
X6071887Y-21756984D01*
X6071887Y-21756984D02*
X6052839Y-21756984D01*
X6052839Y-21756984D02*
X6033792Y-21747460D01*
X6033792Y-21747460D02*
X6024268Y-21737936D01*
X6024268Y-21737936D02*
X6014744Y-21718889D01*
X6014744Y-21718889D02*
X6005220Y-21680793D01*
X6005220Y-21680793D02*
X6005220Y-21633174D01*
X6005220Y-21633174D02*
X6014744Y-21595079D01*
X6014744Y-21595079D02*
X6024268Y-21576031D01*
X6024268Y-21576031D02*
X6033792Y-21566508D01*
X6033792Y-21566508D02*
X6052839Y-21556984D01*
X6243315Y-21556984D02*
X6262363Y-21556984D01*
X6262363Y-21556984D02*
X6281411Y-21566508D01*
X6281411Y-21566508D02*
X6290934Y-21576031D01*
X6290934Y-21576031D02*
X6300458Y-21595079D01*
X6300458Y-21595079D02*
X6309982Y-21633174D01*
X6309982Y-21633174D02*
X6309982Y-21680793D01*
X6309982Y-21680793D02*
X6300458Y-21718889D01*
X6300458Y-21718889D02*
X6290934Y-21737936D01*
X6290934Y-21737936D02*
X6281411Y-21747460D01*
X6281411Y-21747460D02*
X6262363Y-21756984D01*
X6262363Y-21756984D02*
X6243315Y-21756984D01*
X6243315Y-21756984D02*
X6224268Y-21747460D01*
X6224268Y-21747460D02*
X6214744Y-21737936D01*
X6214744Y-21737936D02*
X6205220Y-21718889D01*
X6205220Y-21718889D02*
X6195696Y-21680793D01*
X6195696Y-21680793D02*
X6195696Y-21633174D01*
X6195696Y-21633174D02*
X6205220Y-21595079D01*
X6205220Y-21595079D02*
X6214744Y-21576031D01*
X6214744Y-21576031D02*
X6224268Y-21566508D01*
X6224268Y-21566508D02*
X6243315Y-21556984D01*
X6395696Y-21756984D02*
X6395696Y-21623650D01*
X6395696Y-21642698D02*
X6405220Y-21633174D01*
X6405220Y-21633174D02*
X6424268Y-21623650D01*
X6424268Y-21623650D02*
X6452839Y-21623650D01*
X6452839Y-21623650D02*
X6471887Y-21633174D01*
X6471887Y-21633174D02*
X6481411Y-21652222D01*
X6481411Y-21652222D02*
X6481411Y-21756984D01*
X6481411Y-21652222D02*
X6490934Y-21633174D01*
X6490934Y-21633174D02*
X6509982Y-21623650D01*
X6509982Y-21623650D02*
X6538553Y-21623650D01*
X6538553Y-21623650D02*
X6557601Y-21633174D01*
X6557601Y-21633174D02*
X6567125Y-21652222D01*
X6567125Y-21652222D02*
X6567125Y-21756984D01*
X6662363Y-21756984D02*
X6662363Y-21623650D01*
X6662363Y-21642698D02*
X6671887Y-21633174D01*
X6671887Y-21633174D02*
X6690934Y-21623650D01*
X6690934Y-21623650D02*
X6719506Y-21623650D01*
X6719506Y-21623650D02*
X6738554Y-21633174D01*
X6738554Y-21633174D02*
X6748077Y-21652222D01*
X6748077Y-21652222D02*
X6748077Y-21756984D01*
X6748077Y-21652222D02*
X6757601Y-21633174D01*
X6757601Y-21633174D02*
X6776649Y-21623650D01*
X6776649Y-21623650D02*
X6805220Y-21623650D01*
X6805220Y-21623650D02*
X6824268Y-21633174D01*
X6824268Y-21633174D02*
X6833792Y-21652222D01*
X6833792Y-21652222D02*
X6833792Y-21756984D01*
X7224268Y-21547460D02*
X7052839Y-21804603D01*
X7481411Y-21556984D02*
X7500458Y-21556984D01*
X7500458Y-21556984D02*
X7519506Y-21566508D01*
X7519506Y-21566508D02*
X7529030Y-21576031D01*
X7529030Y-21576031D02*
X7538554Y-21595079D01*
X7538554Y-21595079D02*
X7548077Y-21633174D01*
X7548077Y-21633174D02*
X7548077Y-21680793D01*
X7548077Y-21680793D02*
X7538554Y-21718889D01*
X7538554Y-21718889D02*
X7529030Y-21737936D01*
X7529030Y-21737936D02*
X7519506Y-21747460D01*
X7519506Y-21747460D02*
X7500458Y-21756984D01*
X7500458Y-21756984D02*
X7481411Y-21756984D01*
X7481411Y-21756984D02*
X7462363Y-21747460D01*
X7462363Y-21747460D02*
X7452839Y-21737936D01*
X7452839Y-21737936D02*
X7443316Y-21718889D01*
X7443316Y-21718889D02*
X7433792Y-21680793D01*
X7433792Y-21680793D02*
X7433792Y-21633174D01*
X7433792Y-21633174D02*
X7443316Y-21595079D01*
X7443316Y-21595079D02*
X7452839Y-21576031D01*
X7452839Y-21576031D02*
X7462363Y-21566508D01*
X7462363Y-21566508D02*
X7481411Y-21556984D01*
X7633792Y-21737936D02*
X7643316Y-21747460D01*
X7643316Y-21747460D02*
X7633792Y-21756984D01*
X7633792Y-21756984D02*
X7624268Y-21747460D01*
X7624268Y-21747460D02*
X7633792Y-21737936D01*
X7633792Y-21737936D02*
X7633792Y-21756984D01*
X7767125Y-21556984D02*
X7786173Y-21556984D01*
X7786173Y-21556984D02*
X7805220Y-21566508D01*
X7805220Y-21566508D02*
X7814744Y-21576031D01*
X7814744Y-21576031D02*
X7824268Y-21595079D01*
X7824268Y-21595079D02*
X7833792Y-21633174D01*
X7833792Y-21633174D02*
X7833792Y-21680793D01*
X7833792Y-21680793D02*
X7824268Y-21718889D01*
X7824268Y-21718889D02*
X7814744Y-21737936D01*
X7814744Y-21737936D02*
X7805220Y-21747460D01*
X7805220Y-21747460D02*
X7786173Y-21756984D01*
X7786173Y-21756984D02*
X7767125Y-21756984D01*
X7767125Y-21756984D02*
X7748077Y-21747460D01*
X7748077Y-21747460D02*
X7738554Y-21737936D01*
X7738554Y-21737936D02*
X7729030Y-21718889D01*
X7729030Y-21718889D02*
X7719506Y-21680793D01*
X7719506Y-21680793D02*
X7719506Y-21633174D01*
X7719506Y-21633174D02*
X7729030Y-21595079D01*
X7729030Y-21595079D02*
X7738554Y-21576031D01*
X7738554Y-21576031D02*
X7748077Y-21566508D01*
X7748077Y-21566508D02*
X7767125Y-21556984D01*
X8024268Y-21756984D02*
X7909982Y-21756984D01*
X7967125Y-21756984D02*
X7967125Y-21556984D01*
X7967125Y-21556984D02*
X7948077Y-21585555D01*
X7948077Y-21585555D02*
X7929030Y-21604603D01*
X7929030Y-21604603D02*
X7909982Y-21614127D01*
X8214744Y-21756984D02*
X8100458Y-21756984D01*
X8157601Y-21756984D02*
X8157601Y-21556984D01*
X8157601Y-21556984D02*
X8138554Y-21585555D01*
X8138554Y-21585555D02*
X8119506Y-21604603D01*
X8119506Y-21604603D02*
X8100458Y-21614127D01*
X8329030Y-21642698D02*
X8309982Y-21633174D01*
X8309982Y-21633174D02*
X8300458Y-21623650D01*
X8300458Y-21623650D02*
X8290935Y-21604603D01*
X8290935Y-21604603D02*
X8290935Y-21595079D01*
X8290935Y-21595079D02*
X8300458Y-21576031D01*
X8300458Y-21576031D02*
X8309982Y-21566508D01*
X8309982Y-21566508D02*
X8329030Y-21556984D01*
X8329030Y-21556984D02*
X8367125Y-21556984D01*
X8367125Y-21556984D02*
X8386173Y-21566508D01*
X8386173Y-21566508D02*
X8395697Y-21576031D01*
X8395697Y-21576031D02*
X8405220Y-21595079D01*
X8405220Y-21595079D02*
X8405220Y-21604603D01*
X8405220Y-21604603D02*
X8395697Y-21623650D01*
X8395697Y-21623650D02*
X8386173Y-21633174D01*
X8386173Y-21633174D02*
X8367125Y-21642698D01*
X8367125Y-21642698D02*
X8329030Y-21642698D01*
X8329030Y-21642698D02*
X8309982Y-21652222D01*
X8309982Y-21652222D02*
X8300458Y-21661746D01*
X8300458Y-21661746D02*
X8290935Y-21680793D01*
X8290935Y-21680793D02*
X8290935Y-21718889D01*
X8290935Y-21718889D02*
X8300458Y-21737936D01*
X8300458Y-21737936D02*
X8309982Y-21747460D01*
X8309982Y-21747460D02*
X8329030Y-21756984D01*
X8329030Y-21756984D02*
X8367125Y-21756984D01*
X8367125Y-21756984D02*
X8386173Y-21747460D01*
X8386173Y-21747460D02*
X8395697Y-21737936D01*
X8395697Y-21737936D02*
X8405220Y-21718889D01*
X8405220Y-21718889D02*
X8405220Y-21680793D01*
X8405220Y-21680793D02*
X8395697Y-21661746D01*
X8395697Y-21661746D02*
X8386173Y-21652222D01*
X8386173Y-21652222D02*
X8367125Y-21642698D01*
X8481411Y-21556984D02*
X8481411Y-21595079D01*
X8557601Y-21556984D02*
X8557601Y-21595079D01*
X8852840Y-21833174D02*
X8843316Y-21823650D01*
X8843316Y-21823650D02*
X8824268Y-21795079D01*
X8824268Y-21795079D02*
X8814744Y-21776031D01*
X8814744Y-21776031D02*
X8805221Y-21747460D01*
X8805221Y-21747460D02*
X8795697Y-21699841D01*
X8795697Y-21699841D02*
X8795697Y-21661746D01*
X8795697Y-21661746D02*
X8805221Y-21614127D01*
X8805221Y-21614127D02*
X8814744Y-21585555D01*
X8814744Y-21585555D02*
X8824268Y-21566508D01*
X8824268Y-21566508D02*
X8843316Y-21537936D01*
X8843316Y-21537936D02*
X8852840Y-21528412D01*
X8919506Y-21576031D02*
X8929030Y-21566508D01*
X8929030Y-21566508D02*
X8948078Y-21556984D01*
X8948078Y-21556984D02*
X8995697Y-21556984D01*
X8995697Y-21556984D02*
X9014744Y-21566508D01*
X9014744Y-21566508D02*
X9024268Y-21576031D01*
X9024268Y-21576031D02*
X9033792Y-21595079D01*
X9033792Y-21595079D02*
X9033792Y-21614127D01*
X9033792Y-21614127D02*
X9024268Y-21642698D01*
X9024268Y-21642698D02*
X8909982Y-21756984D01*
X8909982Y-21756984D02*
X9033792Y-21756984D01*
X9100459Y-21556984D02*
X9224268Y-21556984D01*
X9224268Y-21556984D02*
X9157601Y-21633174D01*
X9157601Y-21633174D02*
X9186173Y-21633174D01*
X9186173Y-21633174D02*
X9205221Y-21642698D01*
X9205221Y-21642698D02*
X9214744Y-21652222D01*
X9214744Y-21652222D02*
X9224268Y-21671270D01*
X9224268Y-21671270D02*
X9224268Y-21718889D01*
X9224268Y-21718889D02*
X9214744Y-21737936D01*
X9214744Y-21737936D02*
X9205221Y-21747460D01*
X9205221Y-21747460D02*
X9186173Y-21756984D01*
X9186173Y-21756984D02*
X9129030Y-21756984D01*
X9129030Y-21756984D02*
X9109982Y-21747460D01*
X9109982Y-21747460D02*
X9100459Y-21737936D01*
X9462363Y-21756984D02*
X9462363Y-21556984D01*
X9548078Y-21756984D02*
X9548078Y-21652222D01*
X9548078Y-21652222D02*
X9538554Y-21633174D01*
X9538554Y-21633174D02*
X9519506Y-21623650D01*
X9519506Y-21623650D02*
X9490935Y-21623650D01*
X9490935Y-21623650D02*
X9471887Y-21633174D01*
X9471887Y-21633174D02*
X9462363Y-21642698D01*
X9671887Y-21756984D02*
X9652840Y-21747460D01*
X9652840Y-21747460D02*
X9643316Y-21737936D01*
X9643316Y-21737936D02*
X9633792Y-21718889D01*
X9633792Y-21718889D02*
X9633792Y-21661746D01*
X9633792Y-21661746D02*
X9643316Y-21642698D01*
X9643316Y-21642698D02*
X9652840Y-21633174D01*
X9652840Y-21633174D02*
X9671887Y-21623650D01*
X9671887Y-21623650D02*
X9700459Y-21623650D01*
X9700459Y-21623650D02*
X9719506Y-21633174D01*
X9719506Y-21633174D02*
X9729030Y-21642698D01*
X9729030Y-21642698D02*
X9738554Y-21661746D01*
X9738554Y-21661746D02*
X9738554Y-21718889D01*
X9738554Y-21718889D02*
X9729030Y-21737936D01*
X9729030Y-21737936D02*
X9719506Y-21747460D01*
X9719506Y-21747460D02*
X9700459Y-21756984D01*
X9700459Y-21756984D02*
X9671887Y-21756984D01*
X9852840Y-21756984D02*
X9833792Y-21747460D01*
X9833792Y-21747460D02*
X9824268Y-21728412D01*
X9824268Y-21728412D02*
X9824268Y-21556984D01*
X10005221Y-21747460D02*
X9986173Y-21756984D01*
X9986173Y-21756984D02*
X9948078Y-21756984D01*
X9948078Y-21756984D02*
X9929030Y-21747460D01*
X9929030Y-21747460D02*
X9919506Y-21728412D01*
X9919506Y-21728412D02*
X9919506Y-21652222D01*
X9919506Y-21652222D02*
X9929030Y-21633174D01*
X9929030Y-21633174D02*
X9948078Y-21623650D01*
X9948078Y-21623650D02*
X9986173Y-21623650D01*
X9986173Y-21623650D02*
X10005221Y-21633174D01*
X10005221Y-21633174D02*
X10014744Y-21652222D01*
X10014744Y-21652222D02*
X10014744Y-21671270D01*
X10014744Y-21671270D02*
X9919506Y-21690317D01*
X10090935Y-21747460D02*
X10109983Y-21756984D01*
X10109983Y-21756984D02*
X10148078Y-21756984D01*
X10148078Y-21756984D02*
X10167125Y-21747460D01*
X10167125Y-21747460D02*
X10176649Y-21728412D01*
X10176649Y-21728412D02*
X10176649Y-21718889D01*
X10176649Y-21718889D02*
X10167125Y-21699841D01*
X10167125Y-21699841D02*
X10148078Y-21690317D01*
X10148078Y-21690317D02*
X10119506Y-21690317D01*
X10119506Y-21690317D02*
X10100459Y-21680793D01*
X10100459Y-21680793D02*
X10090935Y-21661746D01*
X10090935Y-21661746D02*
X10090935Y-21652222D01*
X10090935Y-21652222D02*
X10100459Y-21633174D01*
X10100459Y-21633174D02*
X10119506Y-21623650D01*
X10119506Y-21623650D02*
X10148078Y-21623650D01*
X10148078Y-21623650D02*
X10167125Y-21633174D01*
X10243316Y-21833174D02*
X10252840Y-21823650D01*
X10252840Y-21823650D02*
X10271887Y-21795079D01*
X10271887Y-21795079D02*
X10281411Y-21776031D01*
X10281411Y-21776031D02*
X10290935Y-21747460D01*
X10290935Y-21747460D02*
X10300459Y-21699841D01*
X10300459Y-21699841D02*
X10300459Y-21661746D01*
X10300459Y-21661746D02*
X10290935Y-21614127D01*
X10290935Y-21614127D02*
X10281411Y-21585555D01*
X10281411Y-21585555D02*
X10271887Y-21566508D01*
X10271887Y-21566508D02*
X10252840Y-21537936D01*
X10252840Y-21537936D02*
X10243316Y-21528412D01*
D12*
X5256250Y-21981473D02*
X5256250Y-21877527D01*
X5152304Y-21877527D01*
X5152304Y-21981473D01*
X5256250Y-21981473D01*
D10*
X5643315Y-22020984D02*
X5529030Y-22020984D01*
X5586173Y-22020984D02*
X5586173Y-21820984D01*
X5586173Y-21820984D02*
X5567125Y-21849555D01*
X5567125Y-21849555D02*
X5548077Y-21868603D01*
X5548077Y-21868603D02*
X5529030Y-21878127D01*
X5729030Y-22001936D02*
X5738553Y-22011460D01*
X5738553Y-22011460D02*
X5729030Y-22020984D01*
X5729030Y-22020984D02*
X5719506Y-22011460D01*
X5719506Y-22011460D02*
X5729030Y-22001936D01*
X5729030Y-22001936D02*
X5729030Y-22020984D01*
X5909982Y-21887650D02*
X5909982Y-22020984D01*
X5862363Y-21811460D02*
X5814744Y-21954317D01*
X5814744Y-21954317D02*
X5938553Y-21954317D01*
X5995696Y-21820984D02*
X6129030Y-21820984D01*
X6129030Y-21820984D02*
X6043315Y-22020984D01*
X6243315Y-21820984D02*
X6262363Y-21820984D01*
X6262363Y-21820984D02*
X6281411Y-21830508D01*
X6281411Y-21830508D02*
X6290934Y-21840031D01*
X6290934Y-21840031D02*
X6300458Y-21859079D01*
X6300458Y-21859079D02*
X6309982Y-21897174D01*
X6309982Y-21897174D02*
X6309982Y-21944793D01*
X6309982Y-21944793D02*
X6300458Y-21982889D01*
X6300458Y-21982889D02*
X6290934Y-22001936D01*
X6290934Y-22001936D02*
X6281411Y-22011460D01*
X6281411Y-22011460D02*
X6262363Y-22020984D01*
X6262363Y-22020984D02*
X6243315Y-22020984D01*
X6243315Y-22020984D02*
X6224268Y-22011460D01*
X6224268Y-22011460D02*
X6214744Y-22001936D01*
X6214744Y-22001936D02*
X6205220Y-21982889D01*
X6205220Y-21982889D02*
X6195696Y-21944793D01*
X6195696Y-21944793D02*
X6195696Y-21897174D01*
X6195696Y-21897174D02*
X6205220Y-21859079D01*
X6205220Y-21859079D02*
X6214744Y-21840031D01*
X6214744Y-21840031D02*
X6224268Y-21830508D01*
X6224268Y-21830508D02*
X6243315Y-21820984D01*
X6395696Y-22020984D02*
X6395696Y-21887650D01*
X6395696Y-21906698D02*
X6405220Y-21897174D01*
X6405220Y-21897174D02*
X6424268Y-21887650D01*
X6424268Y-21887650D02*
X6452839Y-21887650D01*
X6452839Y-21887650D02*
X6471887Y-21897174D01*
X6471887Y-21897174D02*
X6481411Y-21916222D01*
X6481411Y-21916222D02*
X6481411Y-22020984D01*
X6481411Y-21916222D02*
X6490934Y-21897174D01*
X6490934Y-21897174D02*
X6509982Y-21887650D01*
X6509982Y-21887650D02*
X6538553Y-21887650D01*
X6538553Y-21887650D02*
X6557601Y-21897174D01*
X6557601Y-21897174D02*
X6567125Y-21916222D01*
X6567125Y-21916222D02*
X6567125Y-22020984D01*
X6662363Y-22020984D02*
X6662363Y-21887650D01*
X6662363Y-21906698D02*
X6671887Y-21897174D01*
X6671887Y-21897174D02*
X6690934Y-21887650D01*
X6690934Y-21887650D02*
X6719506Y-21887650D01*
X6719506Y-21887650D02*
X6738554Y-21897174D01*
X6738554Y-21897174D02*
X6748077Y-21916222D01*
X6748077Y-21916222D02*
X6748077Y-22020984D01*
X6748077Y-21916222D02*
X6757601Y-21897174D01*
X6757601Y-21897174D02*
X6776649Y-21887650D01*
X6776649Y-21887650D02*
X6805220Y-21887650D01*
X6805220Y-21887650D02*
X6824268Y-21897174D01*
X6824268Y-21897174D02*
X6833792Y-21916222D01*
X6833792Y-21916222D02*
X6833792Y-22020984D01*
X7224268Y-21811460D02*
X7052839Y-22068603D01*
X7481411Y-21820984D02*
X7500458Y-21820984D01*
X7500458Y-21820984D02*
X7519506Y-21830508D01*
X7519506Y-21830508D02*
X7529030Y-21840031D01*
X7529030Y-21840031D02*
X7538554Y-21859079D01*
X7538554Y-21859079D02*
X7548077Y-21897174D01*
X7548077Y-21897174D02*
X7548077Y-21944793D01*
X7548077Y-21944793D02*
X7538554Y-21982889D01*
X7538554Y-21982889D02*
X7529030Y-22001936D01*
X7529030Y-22001936D02*
X7519506Y-22011460D01*
X7519506Y-22011460D02*
X7500458Y-22020984D01*
X7500458Y-22020984D02*
X7481411Y-22020984D01*
X7481411Y-22020984D02*
X7462363Y-22011460D01*
X7462363Y-22011460D02*
X7452839Y-22001936D01*
X7452839Y-22001936D02*
X7443316Y-21982889D01*
X7443316Y-21982889D02*
X7433792Y-21944793D01*
X7433792Y-21944793D02*
X7433792Y-21897174D01*
X7433792Y-21897174D02*
X7443316Y-21859079D01*
X7443316Y-21859079D02*
X7452839Y-21840031D01*
X7452839Y-21840031D02*
X7462363Y-21830508D01*
X7462363Y-21830508D02*
X7481411Y-21820984D01*
X7633792Y-22001936D02*
X7643316Y-22011460D01*
X7643316Y-22011460D02*
X7633792Y-22020984D01*
X7633792Y-22020984D02*
X7624268Y-22011460D01*
X7624268Y-22011460D02*
X7633792Y-22001936D01*
X7633792Y-22001936D02*
X7633792Y-22020984D01*
X7767125Y-21820984D02*
X7786173Y-21820984D01*
X7786173Y-21820984D02*
X7805220Y-21830508D01*
X7805220Y-21830508D02*
X7814744Y-21840031D01*
X7814744Y-21840031D02*
X7824268Y-21859079D01*
X7824268Y-21859079D02*
X7833792Y-21897174D01*
X7833792Y-21897174D02*
X7833792Y-21944793D01*
X7833792Y-21944793D02*
X7824268Y-21982889D01*
X7824268Y-21982889D02*
X7814744Y-22001936D01*
X7814744Y-22001936D02*
X7805220Y-22011460D01*
X7805220Y-22011460D02*
X7786173Y-22020984D01*
X7786173Y-22020984D02*
X7767125Y-22020984D01*
X7767125Y-22020984D02*
X7748077Y-22011460D01*
X7748077Y-22011460D02*
X7738554Y-22001936D01*
X7738554Y-22001936D02*
X7729030Y-21982889D01*
X7729030Y-21982889D02*
X7719506Y-21944793D01*
X7719506Y-21944793D02*
X7719506Y-21897174D01*
X7719506Y-21897174D02*
X7729030Y-21859079D01*
X7729030Y-21859079D02*
X7738554Y-21840031D01*
X7738554Y-21840031D02*
X7748077Y-21830508D01*
X7748077Y-21830508D02*
X7767125Y-21820984D01*
X8014744Y-21820984D02*
X7919506Y-21820984D01*
X7919506Y-21820984D02*
X7909982Y-21916222D01*
X7909982Y-21916222D02*
X7919506Y-21906698D01*
X7919506Y-21906698D02*
X7938554Y-21897174D01*
X7938554Y-21897174D02*
X7986173Y-21897174D01*
X7986173Y-21897174D02*
X8005220Y-21906698D01*
X8005220Y-21906698D02*
X8014744Y-21916222D01*
X8014744Y-21916222D02*
X8024268Y-21935270D01*
X8024268Y-21935270D02*
X8024268Y-21982889D01*
X8024268Y-21982889D02*
X8014744Y-22001936D01*
X8014744Y-22001936D02*
X8005220Y-22011460D01*
X8005220Y-22011460D02*
X7986173Y-22020984D01*
X7986173Y-22020984D02*
X7938554Y-22020984D01*
X7938554Y-22020984D02*
X7919506Y-22011460D01*
X7919506Y-22011460D02*
X7909982Y-22001936D01*
X8090935Y-21820984D02*
X8224268Y-21820984D01*
X8224268Y-21820984D02*
X8138554Y-22020984D01*
X8309982Y-22020984D02*
X8348077Y-22020984D01*
X8348077Y-22020984D02*
X8367125Y-22011460D01*
X8367125Y-22011460D02*
X8376649Y-22001936D01*
X8376649Y-22001936D02*
X8395697Y-21973365D01*
X8395697Y-21973365D02*
X8405220Y-21935270D01*
X8405220Y-21935270D02*
X8405220Y-21859079D01*
X8405220Y-21859079D02*
X8395697Y-21840031D01*
X8395697Y-21840031D02*
X8386173Y-21830508D01*
X8386173Y-21830508D02*
X8367125Y-21820984D01*
X8367125Y-21820984D02*
X8329030Y-21820984D01*
X8329030Y-21820984D02*
X8309982Y-21830508D01*
X8309982Y-21830508D02*
X8300458Y-21840031D01*
X8300458Y-21840031D02*
X8290935Y-21859079D01*
X8290935Y-21859079D02*
X8290935Y-21906698D01*
X8290935Y-21906698D02*
X8300458Y-21925746D01*
X8300458Y-21925746D02*
X8309982Y-21935270D01*
X8309982Y-21935270D02*
X8329030Y-21944793D01*
X8329030Y-21944793D02*
X8367125Y-21944793D01*
X8367125Y-21944793D02*
X8386173Y-21935270D01*
X8386173Y-21935270D02*
X8395697Y-21925746D01*
X8395697Y-21925746D02*
X8405220Y-21906698D01*
X8481411Y-21820984D02*
X8481411Y-21859079D01*
X8557601Y-21820984D02*
X8557601Y-21859079D01*
X8852840Y-22097174D02*
X8843316Y-22087650D01*
X8843316Y-22087650D02*
X8824268Y-22059079D01*
X8824268Y-22059079D02*
X8814744Y-22040031D01*
X8814744Y-22040031D02*
X8805221Y-22011460D01*
X8805221Y-22011460D02*
X8795697Y-21963841D01*
X8795697Y-21963841D02*
X8795697Y-21925746D01*
X8795697Y-21925746D02*
X8805221Y-21878127D01*
X8805221Y-21878127D02*
X8814744Y-21849555D01*
X8814744Y-21849555D02*
X8824268Y-21830508D01*
X8824268Y-21830508D02*
X8843316Y-21801936D01*
X8843316Y-21801936D02*
X8852840Y-21792412D01*
X8909982Y-21820984D02*
X9033792Y-21820984D01*
X9033792Y-21820984D02*
X8967125Y-21897174D01*
X8967125Y-21897174D02*
X8995697Y-21897174D01*
X8995697Y-21897174D02*
X9014744Y-21906698D01*
X9014744Y-21906698D02*
X9024268Y-21916222D01*
X9024268Y-21916222D02*
X9033792Y-21935270D01*
X9033792Y-21935270D02*
X9033792Y-21982889D01*
X9033792Y-21982889D02*
X9024268Y-22001936D01*
X9024268Y-22001936D02*
X9014744Y-22011460D01*
X9014744Y-22011460D02*
X8995697Y-22020984D01*
X8995697Y-22020984D02*
X8938554Y-22020984D01*
X8938554Y-22020984D02*
X8919506Y-22011460D01*
X8919506Y-22011460D02*
X8909982Y-22001936D01*
X9224268Y-22020984D02*
X9109982Y-22020984D01*
X9167125Y-22020984D02*
X9167125Y-21820984D01*
X9167125Y-21820984D02*
X9148078Y-21849555D01*
X9148078Y-21849555D02*
X9129030Y-21868603D01*
X9129030Y-21868603D02*
X9109982Y-21878127D01*
X9395697Y-21887650D02*
X9395697Y-22020984D01*
X9348078Y-21811460D02*
X9300459Y-21954317D01*
X9300459Y-21954317D02*
X9424268Y-21954317D01*
X9652840Y-22020984D02*
X9652840Y-21820984D01*
X9738554Y-22020984D02*
X9738554Y-21916222D01*
X9738554Y-21916222D02*
X9729030Y-21897174D01*
X9729030Y-21897174D02*
X9709983Y-21887650D01*
X9709983Y-21887650D02*
X9681411Y-21887650D01*
X9681411Y-21887650D02*
X9662363Y-21897174D01*
X9662363Y-21897174D02*
X9652840Y-21906698D01*
X9862363Y-22020984D02*
X9843316Y-22011460D01*
X9843316Y-22011460D02*
X9833792Y-22001936D01*
X9833792Y-22001936D02*
X9824268Y-21982889D01*
X9824268Y-21982889D02*
X9824268Y-21925746D01*
X9824268Y-21925746D02*
X9833792Y-21906698D01*
X9833792Y-21906698D02*
X9843316Y-21897174D01*
X9843316Y-21897174D02*
X9862363Y-21887650D01*
X9862363Y-21887650D02*
X9890935Y-21887650D01*
X9890935Y-21887650D02*
X9909983Y-21897174D01*
X9909983Y-21897174D02*
X9919506Y-21906698D01*
X9919506Y-21906698D02*
X9929030Y-21925746D01*
X9929030Y-21925746D02*
X9929030Y-21982889D01*
X9929030Y-21982889D02*
X9919506Y-22001936D01*
X9919506Y-22001936D02*
X9909983Y-22011460D01*
X9909983Y-22011460D02*
X9890935Y-22020984D01*
X9890935Y-22020984D02*
X9862363Y-22020984D01*
X10043316Y-22020984D02*
X10024268Y-22011460D01*
X10024268Y-22011460D02*
X10014744Y-21992412D01*
X10014744Y-21992412D02*
X10014744Y-21820984D01*
X10195697Y-22011460D02*
X10176649Y-22020984D01*
X10176649Y-22020984D02*
X10138554Y-22020984D01*
X10138554Y-22020984D02*
X10119506Y-22011460D01*
X10119506Y-22011460D02*
X10109983Y-21992412D01*
X10109983Y-21992412D02*
X10109983Y-21916222D01*
X10109983Y-21916222D02*
X10119506Y-21897174D01*
X10119506Y-21897174D02*
X10138554Y-21887650D01*
X10138554Y-21887650D02*
X10176649Y-21887650D01*
X10176649Y-21887650D02*
X10195697Y-21897174D01*
X10195697Y-21897174D02*
X10205221Y-21916222D01*
X10205221Y-21916222D02*
X10205221Y-21935270D01*
X10205221Y-21935270D02*
X10109983Y-21954317D01*
X10281411Y-22011460D02*
X10300459Y-22020984D01*
X10300459Y-22020984D02*
X10338554Y-22020984D01*
X10338554Y-22020984D02*
X10357602Y-22011460D01*
X10357602Y-22011460D02*
X10367125Y-21992412D01*
X10367125Y-21992412D02*
X10367125Y-21982889D01*
X10367125Y-21982889D02*
X10357602Y-21963841D01*
X10357602Y-21963841D02*
X10338554Y-21954317D01*
X10338554Y-21954317D02*
X10309983Y-21954317D01*
X10309983Y-21954317D02*
X10290935Y-21944793D01*
X10290935Y-21944793D02*
X10281411Y-21925746D01*
X10281411Y-21925746D02*
X10281411Y-21916222D01*
X10281411Y-21916222D02*
X10290935Y-21897174D01*
X10290935Y-21897174D02*
X10309983Y-21887650D01*
X10309983Y-21887650D02*
X10338554Y-21887650D01*
X10338554Y-21887650D02*
X10357602Y-21897174D01*
X10433792Y-22097174D02*
X10443316Y-22087650D01*
X10443316Y-22087650D02*
X10462364Y-22059079D01*
X10462364Y-22059079D02*
X10471887Y-22040031D01*
X10471887Y-22040031D02*
X10481411Y-22011460D01*
X10481411Y-22011460D02*
X10490935Y-21963841D01*
X10490935Y-21963841D02*
X10490935Y-21925746D01*
X10490935Y-21925746D02*
X10481411Y-21878127D01*
X10481411Y-21878127D02*
X10471887Y-21849555D01*
X10471887Y-21849555D02*
X10462364Y-21830508D01*
X10462364Y-21830508D02*
X10443316Y-21801936D01*
X10443316Y-21801936D02*
X10433792Y-21792412D01*
X5177777Y-22296500D02*
X5277777Y-22196500D01*
X5177777Y-22096500D01*
X5077777Y-22196500D01*
X5177777Y-22296500D01*
X5529030Y-22107031D02*
X5538554Y-22097508D01*
X5538554Y-22097508D02*
X5557601Y-22087984D01*
X5557601Y-22087984D02*
X5605220Y-22087984D01*
X5605220Y-22087984D02*
X5624268Y-22097508D01*
X5624268Y-22097508D02*
X5633792Y-22107031D01*
X5633792Y-22107031D02*
X5643315Y-22126079D01*
X5643315Y-22126079D02*
X5643315Y-22145127D01*
X5643315Y-22145127D02*
X5633792Y-22173698D01*
X5633792Y-22173698D02*
X5519506Y-22287984D01*
X5519506Y-22287984D02*
X5643315Y-22287984D01*
X5729030Y-22268936D02*
X5738553Y-22278460D01*
X5738553Y-22278460D02*
X5729030Y-22287984D01*
X5729030Y-22287984D02*
X5719506Y-22278460D01*
X5719506Y-22278460D02*
X5729030Y-22268936D01*
X5729030Y-22268936D02*
X5729030Y-22287984D01*
X5814744Y-22107031D02*
X5824268Y-22097508D01*
X5824268Y-22097508D02*
X5843315Y-22087984D01*
X5843315Y-22087984D02*
X5890934Y-22087984D01*
X5890934Y-22087984D02*
X5909982Y-22097508D01*
X5909982Y-22097508D02*
X5919506Y-22107031D01*
X5919506Y-22107031D02*
X5929030Y-22126079D01*
X5929030Y-22126079D02*
X5929030Y-22145127D01*
X5929030Y-22145127D02*
X5919506Y-22173698D01*
X5919506Y-22173698D02*
X5805220Y-22287984D01*
X5805220Y-22287984D02*
X5929030Y-22287984D01*
X6052839Y-22087984D02*
X6071887Y-22087984D01*
X6071887Y-22087984D02*
X6090934Y-22097508D01*
X6090934Y-22097508D02*
X6100458Y-22107031D01*
X6100458Y-22107031D02*
X6109982Y-22126079D01*
X6109982Y-22126079D02*
X6119506Y-22164174D01*
X6119506Y-22164174D02*
X6119506Y-22211793D01*
X6119506Y-22211793D02*
X6109982Y-22249889D01*
X6109982Y-22249889D02*
X6100458Y-22268936D01*
X6100458Y-22268936D02*
X6090934Y-22278460D01*
X6090934Y-22278460D02*
X6071887Y-22287984D01*
X6071887Y-22287984D02*
X6052839Y-22287984D01*
X6052839Y-22287984D02*
X6033792Y-22278460D01*
X6033792Y-22278460D02*
X6024268Y-22268936D01*
X6024268Y-22268936D02*
X6014744Y-22249889D01*
X6014744Y-22249889D02*
X6005220Y-22211793D01*
X6005220Y-22211793D02*
X6005220Y-22164174D01*
X6005220Y-22164174D02*
X6014744Y-22126079D01*
X6014744Y-22126079D02*
X6024268Y-22107031D01*
X6024268Y-22107031D02*
X6033792Y-22097508D01*
X6033792Y-22097508D02*
X6052839Y-22087984D01*
X6243315Y-22087984D02*
X6262363Y-22087984D01*
X6262363Y-22087984D02*
X6281411Y-22097508D01*
X6281411Y-22097508D02*
X6290934Y-22107031D01*
X6290934Y-22107031D02*
X6300458Y-22126079D01*
X6300458Y-22126079D02*
X6309982Y-22164174D01*
X6309982Y-22164174D02*
X6309982Y-22211793D01*
X6309982Y-22211793D02*
X6300458Y-22249889D01*
X6300458Y-22249889D02*
X6290934Y-22268936D01*
X6290934Y-22268936D02*
X6281411Y-22278460D01*
X6281411Y-22278460D02*
X6262363Y-22287984D01*
X6262363Y-22287984D02*
X6243315Y-22287984D01*
X6243315Y-22287984D02*
X6224268Y-22278460D01*
X6224268Y-22278460D02*
X6214744Y-22268936D01*
X6214744Y-22268936D02*
X6205220Y-22249889D01*
X6205220Y-22249889D02*
X6195696Y-22211793D01*
X6195696Y-22211793D02*
X6195696Y-22164174D01*
X6195696Y-22164174D02*
X6205220Y-22126079D01*
X6205220Y-22126079D02*
X6214744Y-22107031D01*
X6214744Y-22107031D02*
X6224268Y-22097508D01*
X6224268Y-22097508D02*
X6243315Y-22087984D01*
X6395696Y-22287984D02*
X6395696Y-22154650D01*
X6395696Y-22173698D02*
X6405220Y-22164174D01*
X6405220Y-22164174D02*
X6424268Y-22154650D01*
X6424268Y-22154650D02*
X6452839Y-22154650D01*
X6452839Y-22154650D02*
X6471887Y-22164174D01*
X6471887Y-22164174D02*
X6481411Y-22183222D01*
X6481411Y-22183222D02*
X6481411Y-22287984D01*
X6481411Y-22183222D02*
X6490934Y-22164174D01*
X6490934Y-22164174D02*
X6509982Y-22154650D01*
X6509982Y-22154650D02*
X6538553Y-22154650D01*
X6538553Y-22154650D02*
X6557601Y-22164174D01*
X6557601Y-22164174D02*
X6567125Y-22183222D01*
X6567125Y-22183222D02*
X6567125Y-22287984D01*
X6662363Y-22287984D02*
X6662363Y-22154650D01*
X6662363Y-22173698D02*
X6671887Y-22164174D01*
X6671887Y-22164174D02*
X6690934Y-22154650D01*
X6690934Y-22154650D02*
X6719506Y-22154650D01*
X6719506Y-22154650D02*
X6738554Y-22164174D01*
X6738554Y-22164174D02*
X6748077Y-22183222D01*
X6748077Y-22183222D02*
X6748077Y-22287984D01*
X6748077Y-22183222D02*
X6757601Y-22164174D01*
X6757601Y-22164174D02*
X6776649Y-22154650D01*
X6776649Y-22154650D02*
X6805220Y-22154650D01*
X6805220Y-22154650D02*
X6824268Y-22164174D01*
X6824268Y-22164174D02*
X6833792Y-22183222D01*
X6833792Y-22183222D02*
X6833792Y-22287984D01*
X7224268Y-22078460D02*
X7052839Y-22335603D01*
X7481411Y-22087984D02*
X7500458Y-22087984D01*
X7500458Y-22087984D02*
X7519506Y-22097508D01*
X7519506Y-22097508D02*
X7529030Y-22107031D01*
X7529030Y-22107031D02*
X7538554Y-22126079D01*
X7538554Y-22126079D02*
X7548077Y-22164174D01*
X7548077Y-22164174D02*
X7548077Y-22211793D01*
X7548077Y-22211793D02*
X7538554Y-22249889D01*
X7538554Y-22249889D02*
X7529030Y-22268936D01*
X7529030Y-22268936D02*
X7519506Y-22278460D01*
X7519506Y-22278460D02*
X7500458Y-22287984D01*
X7500458Y-22287984D02*
X7481411Y-22287984D01*
X7481411Y-22287984D02*
X7462363Y-22278460D01*
X7462363Y-22278460D02*
X7452839Y-22268936D01*
X7452839Y-22268936D02*
X7443316Y-22249889D01*
X7443316Y-22249889D02*
X7433792Y-22211793D01*
X7433792Y-22211793D02*
X7433792Y-22164174D01*
X7433792Y-22164174D02*
X7443316Y-22126079D01*
X7443316Y-22126079D02*
X7452839Y-22107031D01*
X7452839Y-22107031D02*
X7462363Y-22097508D01*
X7462363Y-22097508D02*
X7481411Y-22087984D01*
X7633792Y-22268936D02*
X7643316Y-22278460D01*
X7643316Y-22278460D02*
X7633792Y-22287984D01*
X7633792Y-22287984D02*
X7624268Y-22278460D01*
X7624268Y-22278460D02*
X7633792Y-22268936D01*
X7633792Y-22268936D02*
X7633792Y-22287984D01*
X7767125Y-22087984D02*
X7786173Y-22087984D01*
X7786173Y-22087984D02*
X7805220Y-22097508D01*
X7805220Y-22097508D02*
X7814744Y-22107031D01*
X7814744Y-22107031D02*
X7824268Y-22126079D01*
X7824268Y-22126079D02*
X7833792Y-22164174D01*
X7833792Y-22164174D02*
X7833792Y-22211793D01*
X7833792Y-22211793D02*
X7824268Y-22249889D01*
X7824268Y-22249889D02*
X7814744Y-22268936D01*
X7814744Y-22268936D02*
X7805220Y-22278460D01*
X7805220Y-22278460D02*
X7786173Y-22287984D01*
X7786173Y-22287984D02*
X7767125Y-22287984D01*
X7767125Y-22287984D02*
X7748077Y-22278460D01*
X7748077Y-22278460D02*
X7738554Y-22268936D01*
X7738554Y-22268936D02*
X7729030Y-22249889D01*
X7729030Y-22249889D02*
X7719506Y-22211793D01*
X7719506Y-22211793D02*
X7719506Y-22164174D01*
X7719506Y-22164174D02*
X7729030Y-22126079D01*
X7729030Y-22126079D02*
X7738554Y-22107031D01*
X7738554Y-22107031D02*
X7748077Y-22097508D01*
X7748077Y-22097508D02*
X7767125Y-22087984D01*
X7948077Y-22173698D02*
X7929030Y-22164174D01*
X7929030Y-22164174D02*
X7919506Y-22154650D01*
X7919506Y-22154650D02*
X7909982Y-22135603D01*
X7909982Y-22135603D02*
X7909982Y-22126079D01*
X7909982Y-22126079D02*
X7919506Y-22107031D01*
X7919506Y-22107031D02*
X7929030Y-22097508D01*
X7929030Y-22097508D02*
X7948077Y-22087984D01*
X7948077Y-22087984D02*
X7986173Y-22087984D01*
X7986173Y-22087984D02*
X8005220Y-22097508D01*
X8005220Y-22097508D02*
X8014744Y-22107031D01*
X8014744Y-22107031D02*
X8024268Y-22126079D01*
X8024268Y-22126079D02*
X8024268Y-22135603D01*
X8024268Y-22135603D02*
X8014744Y-22154650D01*
X8014744Y-22154650D02*
X8005220Y-22164174D01*
X8005220Y-22164174D02*
X7986173Y-22173698D01*
X7986173Y-22173698D02*
X7948077Y-22173698D01*
X7948077Y-22173698D02*
X7929030Y-22183222D01*
X7929030Y-22183222D02*
X7919506Y-22192746D01*
X7919506Y-22192746D02*
X7909982Y-22211793D01*
X7909982Y-22211793D02*
X7909982Y-22249889D01*
X7909982Y-22249889D02*
X7919506Y-22268936D01*
X7919506Y-22268936D02*
X7929030Y-22278460D01*
X7929030Y-22278460D02*
X7948077Y-22287984D01*
X7948077Y-22287984D02*
X7986173Y-22287984D01*
X7986173Y-22287984D02*
X8005220Y-22278460D01*
X8005220Y-22278460D02*
X8014744Y-22268936D01*
X8014744Y-22268936D02*
X8024268Y-22249889D01*
X8024268Y-22249889D02*
X8024268Y-22211793D01*
X8024268Y-22211793D02*
X8014744Y-22192746D01*
X8014744Y-22192746D02*
X8005220Y-22183222D01*
X8005220Y-22183222D02*
X7986173Y-22173698D01*
X8195697Y-22087984D02*
X8157601Y-22087984D01*
X8157601Y-22087984D02*
X8138554Y-22097508D01*
X8138554Y-22097508D02*
X8129030Y-22107031D01*
X8129030Y-22107031D02*
X8109982Y-22135603D01*
X8109982Y-22135603D02*
X8100458Y-22173698D01*
X8100458Y-22173698D02*
X8100458Y-22249889D01*
X8100458Y-22249889D02*
X8109982Y-22268936D01*
X8109982Y-22268936D02*
X8119506Y-22278460D01*
X8119506Y-22278460D02*
X8138554Y-22287984D01*
X8138554Y-22287984D02*
X8176649Y-22287984D01*
X8176649Y-22287984D02*
X8195697Y-22278460D01*
X8195697Y-22278460D02*
X8205220Y-22268936D01*
X8205220Y-22268936D02*
X8214744Y-22249889D01*
X8214744Y-22249889D02*
X8214744Y-22202270D01*
X8214744Y-22202270D02*
X8205220Y-22183222D01*
X8205220Y-22183222D02*
X8195697Y-22173698D01*
X8195697Y-22173698D02*
X8176649Y-22164174D01*
X8176649Y-22164174D02*
X8138554Y-22164174D01*
X8138554Y-22164174D02*
X8119506Y-22173698D01*
X8119506Y-22173698D02*
X8109982Y-22183222D01*
X8109982Y-22183222D02*
X8100458Y-22202270D01*
X8386173Y-22087984D02*
X8348077Y-22087984D01*
X8348077Y-22087984D02*
X8329030Y-22097508D01*
X8329030Y-22097508D02*
X8319506Y-22107031D01*
X8319506Y-22107031D02*
X8300458Y-22135603D01*
X8300458Y-22135603D02*
X8290935Y-22173698D01*
X8290935Y-22173698D02*
X8290935Y-22249889D01*
X8290935Y-22249889D02*
X8300458Y-22268936D01*
X8300458Y-22268936D02*
X8309982Y-22278460D01*
X8309982Y-22278460D02*
X8329030Y-22287984D01*
X8329030Y-22287984D02*
X8367125Y-22287984D01*
X8367125Y-22287984D02*
X8386173Y-22278460D01*
X8386173Y-22278460D02*
X8395697Y-22268936D01*
X8395697Y-22268936D02*
X8405220Y-22249889D01*
X8405220Y-22249889D02*
X8405220Y-22202270D01*
X8405220Y-22202270D02*
X8395697Y-22183222D01*
X8395697Y-22183222D02*
X8386173Y-22173698D01*
X8386173Y-22173698D02*
X8367125Y-22164174D01*
X8367125Y-22164174D02*
X8329030Y-22164174D01*
X8329030Y-22164174D02*
X8309982Y-22173698D01*
X8309982Y-22173698D02*
X8300458Y-22183222D01*
X8300458Y-22183222D02*
X8290935Y-22202270D01*
X8481411Y-22087984D02*
X8481411Y-22126079D01*
X8557601Y-22087984D02*
X8557601Y-22126079D01*
X8852840Y-22364174D02*
X8843316Y-22354650D01*
X8843316Y-22354650D02*
X8824268Y-22326079D01*
X8824268Y-22326079D02*
X8814744Y-22307031D01*
X8814744Y-22307031D02*
X8805221Y-22278460D01*
X8805221Y-22278460D02*
X8795697Y-22230841D01*
X8795697Y-22230841D02*
X8795697Y-22192746D01*
X8795697Y-22192746D02*
X8805221Y-22145127D01*
X8805221Y-22145127D02*
X8814744Y-22116555D01*
X8814744Y-22116555D02*
X8824268Y-22097508D01*
X8824268Y-22097508D02*
X8843316Y-22068936D01*
X8843316Y-22068936D02*
X8852840Y-22059412D01*
X9033792Y-22287984D02*
X8919506Y-22287984D01*
X8976649Y-22287984D02*
X8976649Y-22087984D01*
X8976649Y-22087984D02*
X8957601Y-22116555D01*
X8957601Y-22116555D02*
X8938554Y-22135603D01*
X8938554Y-22135603D02*
X8919506Y-22145127D01*
X9148078Y-22173698D02*
X9129030Y-22164174D01*
X9129030Y-22164174D02*
X9119506Y-22154650D01*
X9119506Y-22154650D02*
X9109982Y-22135603D01*
X9109982Y-22135603D02*
X9109982Y-22126079D01*
X9109982Y-22126079D02*
X9119506Y-22107031D01*
X9119506Y-22107031D02*
X9129030Y-22097508D01*
X9129030Y-22097508D02*
X9148078Y-22087984D01*
X9148078Y-22087984D02*
X9186173Y-22087984D01*
X9186173Y-22087984D02*
X9205221Y-22097508D01*
X9205221Y-22097508D02*
X9214744Y-22107031D01*
X9214744Y-22107031D02*
X9224268Y-22126079D01*
X9224268Y-22126079D02*
X9224268Y-22135603D01*
X9224268Y-22135603D02*
X9214744Y-22154650D01*
X9214744Y-22154650D02*
X9205221Y-22164174D01*
X9205221Y-22164174D02*
X9186173Y-22173698D01*
X9186173Y-22173698D02*
X9148078Y-22173698D01*
X9148078Y-22173698D02*
X9129030Y-22183222D01*
X9129030Y-22183222D02*
X9119506Y-22192746D01*
X9119506Y-22192746D02*
X9109982Y-22211793D01*
X9109982Y-22211793D02*
X9109982Y-22249889D01*
X9109982Y-22249889D02*
X9119506Y-22268936D01*
X9119506Y-22268936D02*
X9129030Y-22278460D01*
X9129030Y-22278460D02*
X9148078Y-22287984D01*
X9148078Y-22287984D02*
X9186173Y-22287984D01*
X9186173Y-22287984D02*
X9205221Y-22278460D01*
X9205221Y-22278460D02*
X9214744Y-22268936D01*
X9214744Y-22268936D02*
X9224268Y-22249889D01*
X9224268Y-22249889D02*
X9224268Y-22211793D01*
X9224268Y-22211793D02*
X9214744Y-22192746D01*
X9214744Y-22192746D02*
X9205221Y-22183222D01*
X9205221Y-22183222D02*
X9186173Y-22173698D01*
X9462363Y-22287984D02*
X9462363Y-22087984D01*
X9548078Y-22287984D02*
X9548078Y-22183222D01*
X9548078Y-22183222D02*
X9538554Y-22164174D01*
X9538554Y-22164174D02*
X9519506Y-22154650D01*
X9519506Y-22154650D02*
X9490935Y-22154650D01*
X9490935Y-22154650D02*
X9471887Y-22164174D01*
X9471887Y-22164174D02*
X9462363Y-22173698D01*
X9671887Y-22287984D02*
X9652840Y-22278460D01*
X9652840Y-22278460D02*
X9643316Y-22268936D01*
X9643316Y-22268936D02*
X9633792Y-22249889D01*
X9633792Y-22249889D02*
X9633792Y-22192746D01*
X9633792Y-22192746D02*
X9643316Y-22173698D01*
X9643316Y-22173698D02*
X9652840Y-22164174D01*
X9652840Y-22164174D02*
X9671887Y-22154650D01*
X9671887Y-22154650D02*
X9700459Y-22154650D01*
X9700459Y-22154650D02*
X9719506Y-22164174D01*
X9719506Y-22164174D02*
X9729030Y-22173698D01*
X9729030Y-22173698D02*
X9738554Y-22192746D01*
X9738554Y-22192746D02*
X9738554Y-22249889D01*
X9738554Y-22249889D02*
X9729030Y-22268936D01*
X9729030Y-22268936D02*
X9719506Y-22278460D01*
X9719506Y-22278460D02*
X9700459Y-22287984D01*
X9700459Y-22287984D02*
X9671887Y-22287984D01*
X9852840Y-22287984D02*
X9833792Y-22278460D01*
X9833792Y-22278460D02*
X9824268Y-22259412D01*
X9824268Y-22259412D02*
X9824268Y-22087984D01*
X10005221Y-22278460D02*
X9986173Y-22287984D01*
X9986173Y-22287984D02*
X9948078Y-22287984D01*
X9948078Y-22287984D02*
X9929030Y-22278460D01*
X9929030Y-22278460D02*
X9919506Y-22259412D01*
X9919506Y-22259412D02*
X9919506Y-22183222D01*
X9919506Y-22183222D02*
X9929030Y-22164174D01*
X9929030Y-22164174D02*
X9948078Y-22154650D01*
X9948078Y-22154650D02*
X9986173Y-22154650D01*
X9986173Y-22154650D02*
X10005221Y-22164174D01*
X10005221Y-22164174D02*
X10014744Y-22183222D01*
X10014744Y-22183222D02*
X10014744Y-22202270D01*
X10014744Y-22202270D02*
X9919506Y-22221317D01*
X10090935Y-22278460D02*
X10109983Y-22287984D01*
X10109983Y-22287984D02*
X10148078Y-22287984D01*
X10148078Y-22287984D02*
X10167125Y-22278460D01*
X10167125Y-22278460D02*
X10176649Y-22259412D01*
X10176649Y-22259412D02*
X10176649Y-22249889D01*
X10176649Y-22249889D02*
X10167125Y-22230841D01*
X10167125Y-22230841D02*
X10148078Y-22221317D01*
X10148078Y-22221317D02*
X10119506Y-22221317D01*
X10119506Y-22221317D02*
X10100459Y-22211793D01*
X10100459Y-22211793D02*
X10090935Y-22192746D01*
X10090935Y-22192746D02*
X10090935Y-22183222D01*
X10090935Y-22183222D02*
X10100459Y-22164174D01*
X10100459Y-22164174D02*
X10119506Y-22154650D01*
X10119506Y-22154650D02*
X10148078Y-22154650D01*
X10148078Y-22154650D02*
X10167125Y-22164174D01*
X10243316Y-22364174D02*
X10252840Y-22354650D01*
X10252840Y-22354650D02*
X10271887Y-22326079D01*
X10271887Y-22326079D02*
X10281411Y-22307031D01*
X10281411Y-22307031D02*
X10290935Y-22278460D01*
X10290935Y-22278460D02*
X10300459Y-22230841D01*
X10300459Y-22230841D02*
X10300459Y-22192746D01*
X10300459Y-22192746D02*
X10290935Y-22145127D01*
X10290935Y-22145127D02*
X10281411Y-22116555D01*
X10281411Y-22116555D02*
X10271887Y-22097508D01*
X10271887Y-22097508D02*
X10252840Y-22068936D01*
X10252840Y-22068936D02*
X10243316Y-22059412D01*
M02*
