%TF.GenerationSoftware,KiCad,Pcbnew,8.0.2-1*%
%TF.CreationDate,2024-08-02T01:43:28+02:00*%
%TF.ProjectId,keyboard,6b657962-6f61-4726-942e-6b696361645f,1.0*%
%TF.SameCoordinates,Original*%
%TF.FileFunction,Component,L2,Bot*%
%TF.FilePolarity,Positive*%
%FSLAX46Y46*%
G04 Gerber Fmt 4.6, Leading zero omitted, Abs format (unit mm)*
G04 Created by KiCad (PCBNEW 8.0.2-1) date 2024-08-02 01:43:28*
%MOMM*%
%LPD*%
G01*
G04 APERTURE LIST*
%TA.AperFunction,ComponentMain*%
%ADD10C,0.300000*%
%TD*%
%TA.AperFunction,ComponentOutline,Courtyard*%
%ADD11C,0.100000*%
%TD*%
%TA.AperFunction,ComponentPin*%
%ADD12P,0.360000X4X0.000000*%
%TD*%
%TA.AperFunction,ComponentPin*%
%ADD13C,0.100000*%
%TD*%
G04 APERTURE END LIST*
D10*
%TO.C,J1*%
%TO.CFtp,Hirose_FH12-40S-0.5SH_1x40-1MP_P0.50mm_Horizontal*%
%TO.CVal,MATRIX_CONN*%
%TO.CLbN,Connector_FFC-FPC*%
%TO.CMnt,SMD*%
%TO.CRot,180*%
X166543767Y-184780000D03*
D11*
X179593766Y-179880001D02*
X179593766Y-187779999D01*
X153493768Y-187779999D01*
X153493768Y-179880001D01*
X179593766Y-179880001D01*
D12*
%TO.P,J1,1,Pin_1*%
X156793767Y-186630000D03*
D13*
%TO.P,J1,2,Pin_2*%
X157293767Y-186630000D03*
%TO.P,J1,3,Pin_3*%
X157793767Y-186630000D03*
%TO.P,J1,4,Pin_4*%
X158293767Y-186630000D03*
%TO.P,J1,5,Pin_5*%
X158793767Y-186630000D03*
%TO.P,J1,6,Pin_6*%
X159293767Y-186630000D03*
%TO.P,J1,7,Pin_7*%
X159793767Y-186630000D03*
%TO.P,J1,8,Pin_8*%
X160293767Y-186630000D03*
%TO.P,J1,9,Pin_9*%
X160793767Y-186630000D03*
%TO.P,J1,10,Pin_10*%
X161293767Y-186630000D03*
%TO.P,J1,11,Pin_11*%
X161793767Y-186630000D03*
%TO.P,J1,12,Pin_12*%
X162293767Y-186630000D03*
%TO.P,J1,13,Pin_13*%
X162793767Y-186630000D03*
%TO.P,J1,14,Pin_14*%
X163293767Y-186630000D03*
%TO.P,J1,15,Pin_15*%
X163793767Y-186630000D03*
%TO.P,J1,16,Pin_16*%
X164293767Y-186630000D03*
%TO.P,J1,17,Pin_17*%
X164793767Y-186630000D03*
%TO.P,J1,18,Pin_18*%
X165293767Y-186630000D03*
%TO.P,J1,19,Pin_19*%
X165793767Y-186630000D03*
%TO.P,J1,20,Pin_20*%
X166293767Y-186630000D03*
%TO.P,J1,21,Pin_21*%
X166793767Y-186630000D03*
%TO.P,J1,22,Pin_22*%
X167293767Y-186630000D03*
%TO.P,J1,23,Pin_23*%
X167793767Y-186630000D03*
%TO.P,J1,24,Pin_24*%
X168293767Y-186630000D03*
%TO.P,J1,25,Pin_25*%
X168793767Y-186630000D03*
%TO.P,J1,26,Pin_26*%
X169293767Y-186630000D03*
%TO.P,J1,27,Pin_27*%
X169793767Y-186630000D03*
%TO.P,J1,28,Pin_28*%
X170293767Y-186630000D03*
%TO.P,J1,29,Pin_29*%
X170793767Y-186630000D03*
%TO.P,J1,30,Pin_30*%
X171293767Y-186630000D03*
%TO.P,J1,31,Pin_31*%
X171793767Y-186630000D03*
%TO.P,J1,32,Pin_32*%
X172293767Y-186630000D03*
%TO.P,J1,33,Pin_33*%
X172793767Y-186630000D03*
%TO.P,J1,34,Pin_34*%
X173293767Y-186630000D03*
%TO.P,J1,35,Pin_35*%
X173793767Y-186630000D03*
%TO.P,J1,36,Pin_36*%
X174293767Y-186630000D03*
%TO.P,J1,37,Pin_37*%
X174793767Y-186630000D03*
%TO.P,J1,38,Pin_38*%
X175293767Y-186630000D03*
%TO.P,J1,39,Pin_39*%
X175793767Y-186630000D03*
%TO.P,J1,40,Pin_40*%
X176293767Y-186630000D03*
%TO.P,J1,MP*%
X154893767Y-183380000D03*
X178193767Y-183380000D03*
%TD*%
D10*
%TO.C,J2*%
%TO.CFtp,TF2216S0175SHW800*%
%TO.CVal,TF22-16S-0.175SHW_800_*%
%TO.CLbN,TF22-16S*%
%TO.CMnt,SMD*%
%TO.CRot,0*%
X349400000Y-116800000D03*
D11*
X352676999Y-113825001D02*
X352676999Y-119524999D01*
X346123001Y-119524999D01*
X346123001Y-113825001D01*
X352676999Y-113825001D01*
D12*
%TO.P,J2,1,1*%
X350713000Y-115075000D03*
D13*
%TO.P,J2,2,2*%
X350538000Y-118225000D03*
%TO.P,J2,3,3*%
X350362000Y-115075000D03*
%TO.P,J2,4,4*%
X350188000Y-118225000D03*
%TO.P,J2,5,5*%
X350012000Y-115075000D03*
%TO.P,J2,6,6*%
X349838000Y-118225000D03*
%TO.P,J2,7,7*%
X349663000Y-115075000D03*
%TO.P,J2,8,8*%
X349488000Y-118225000D03*
%TO.P,J2,9,9*%
X349313000Y-115075000D03*
%TO.P,J2,10,10*%
X349137000Y-118225000D03*
%TO.P,J2,11,11*%
X348962000Y-115075000D03*
%TO.P,J2,12,12*%
X348788000Y-118225000D03*
%TO.P,J2,13,13*%
X348613000Y-115075000D03*
%TO.P,J2,14,14*%
X348438000Y-118225000D03*
%TO.P,J2,15,15*%
X348262000Y-115075000D03*
%TO.P,J2,16,16*%
X348087000Y-118225000D03*
%TO.P,J2,MP1,MP1*%
X351112000Y-115150000D03*
%TO.P,J2,MP2,MP2*%
X347687000Y-115150000D03*
%TD*%
D10*
%TO.C,SW1*%
%TO.CFtp,Molex_PicoBlade_53261-0271_1x02-1MP_P1.25mm_Horizontal*%
%TO.CVal,SW_SPST*%
%TO.CLbN,Connector_Molex*%
%TO.CMnt,SMD*%
%TO.CRot,180*%
X79200000Y-104300000D03*
D11*
X83919999Y-101200001D02*
X83919999Y-107999999D01*
X74480001Y-107999999D01*
X74480001Y-101200001D01*
X83919999Y-101200001D01*
D12*
%TO.P,SW1,1,A*%
X78575000Y-106700000D03*
D13*
%TO.P,SW1,2,B*%
X79825000Y-106700000D03*
%TO.P,SW1,MP*%
X76025000Y-103800000D03*
X82375000Y-103800000D03*
%TD*%
D10*
%TO.C,J3*%
%TO.CFtp,5050661222*%
%TO.CVal,505066-1222*%
%TO.CLbN,505066-1222*%
%TO.CMnt,SMD*%
%TO.CRot,90*%
X191253767Y-91266000D03*
D11*
X193403766Y-87911001D02*
X193403766Y-94620999D01*
X189103768Y-94620999D01*
X189103768Y-87911001D01*
X193403766Y-87911001D01*
D12*
%TO.P,J3,1,1*%
X192203767Y-90391000D03*
D13*
%TO.P,J3,2,2*%
X190303767Y-90391000D03*
%TO.P,J3,3,3*%
X192203767Y-90741000D03*
%TO.P,J3,4,4*%
X190303767Y-90741000D03*
%TO.P,J3,5,5*%
X192203767Y-91091000D03*
%TO.P,J3,6,6*%
X190303767Y-91091000D03*
%TO.P,J3,7,7*%
X192203767Y-91441000D03*
%TO.P,J3,8,8*%
X190303767Y-91441000D03*
%TO.P,J3,9,9*%
X192203767Y-91791000D03*
%TO.P,J3,10,10*%
X190303767Y-91791000D03*
%TO.P,J3,11,11*%
X192203767Y-92141000D03*
%TO.P,J3,12,12*%
X190303767Y-92141000D03*
%TO.P,J3,MP1,MP1*%
X191735767Y-89111000D03*
%TO.P,J3,MP2,MP2*%
X190771767Y-89111000D03*
%TO.P,J3,MP3,MP3*%
X191735767Y-93421000D03*
%TO.P,J3,MP4,MP4*%
X190771767Y-93421000D03*
%TD*%
M02*
