%TF.GenerationSoftware,KiCad,Pcbnew,8.0.2-1*%
%TF.CreationDate,2024-08-02T01:43:08+02:00*%
%TF.ProjectId,keyboard,6b657962-6f61-4726-942e-6b696361645f,1.0*%
%TF.SameCoordinates,Original*%
%TF.FileFunction,Legend,Bot*%
%TF.FilePolarity,Positive*%
%FSLAX46Y46*%
G04 Gerber Fmt 4.6, Leading zero omitted, Abs format (unit mm)*
G04 Created by KiCad (PCBNEW 8.0.2-1) date 2024-08-02 01:43:08*
%MOMM*%
%LPD*%
G01*
G04 APERTURE LIST*
%ADD10C,0.150000*%
%ADD11C,0.254000*%
%ADD12C,0.120000*%
%ADD13C,0.200000*%
%ADD14C,0.100000*%
G04 APERTURE END LIST*
D10*
X234766476Y-192154875D02*
X234195048Y-192154875D01*
X234480762Y-193154875D02*
X234480762Y-192154875D01*
X233861714Y-193154875D02*
X233861714Y-192154875D01*
X233433143Y-193154875D02*
X233433143Y-192631065D01*
X233433143Y-192631065D02*
X233480762Y-192535827D01*
X233480762Y-192535827D02*
X233576000Y-192488208D01*
X233576000Y-192488208D02*
X233718857Y-192488208D01*
X233718857Y-192488208D02*
X233814095Y-192535827D01*
X233814095Y-192535827D02*
X233861714Y-192583446D01*
X232576000Y-193107256D02*
X232671238Y-193154875D01*
X232671238Y-193154875D02*
X232861714Y-193154875D01*
X232861714Y-193154875D02*
X232956952Y-193107256D01*
X232956952Y-193107256D02*
X233004571Y-193012017D01*
X233004571Y-193012017D02*
X233004571Y-192631065D01*
X233004571Y-192631065D02*
X232956952Y-192535827D01*
X232956952Y-192535827D02*
X232861714Y-192488208D01*
X232861714Y-192488208D02*
X232671238Y-192488208D01*
X232671238Y-192488208D02*
X232576000Y-192535827D01*
X232576000Y-192535827D02*
X232528381Y-192631065D01*
X232528381Y-192631065D02*
X232528381Y-192726303D01*
X232528381Y-192726303D02*
X233004571Y-192821541D01*
X231337904Y-193154875D02*
X231337904Y-192154875D01*
X231337904Y-192631065D02*
X230766476Y-192631065D01*
X230766476Y-193154875D02*
X230766476Y-192154875D01*
X229909333Y-193107256D02*
X230004571Y-193154875D01*
X230004571Y-193154875D02*
X230195047Y-193154875D01*
X230195047Y-193154875D02*
X230290285Y-193107256D01*
X230290285Y-193107256D02*
X230337904Y-193012017D01*
X230337904Y-193012017D02*
X230337904Y-192631065D01*
X230337904Y-192631065D02*
X230290285Y-192535827D01*
X230290285Y-192535827D02*
X230195047Y-192488208D01*
X230195047Y-192488208D02*
X230004571Y-192488208D01*
X230004571Y-192488208D02*
X229909333Y-192535827D01*
X229909333Y-192535827D02*
X229861714Y-192631065D01*
X229861714Y-192631065D02*
X229861714Y-192726303D01*
X229861714Y-192726303D02*
X230337904Y-192821541D01*
X229433142Y-192488208D02*
X229433142Y-193488208D01*
X229433142Y-192535827D02*
X229337904Y-192488208D01*
X229337904Y-192488208D02*
X229147428Y-192488208D01*
X229147428Y-192488208D02*
X229052190Y-192535827D01*
X229052190Y-192535827D02*
X229004571Y-192583446D01*
X229004571Y-192583446D02*
X228956952Y-192678684D01*
X228956952Y-192678684D02*
X228956952Y-192964398D01*
X228956952Y-192964398D02*
X229004571Y-193059636D01*
X229004571Y-193059636D02*
X229052190Y-193107256D01*
X229052190Y-193107256D02*
X229147428Y-193154875D01*
X229147428Y-193154875D02*
X229337904Y-193154875D01*
X229337904Y-193154875D02*
X229433142Y-193107256D01*
X228528380Y-193154875D02*
X228528380Y-192154875D01*
X228099809Y-193154875D02*
X228099809Y-192631065D01*
X228099809Y-192631065D02*
X228147428Y-192535827D01*
X228147428Y-192535827D02*
X228242666Y-192488208D01*
X228242666Y-192488208D02*
X228385523Y-192488208D01*
X228385523Y-192488208D02*
X228480761Y-192535827D01*
X228480761Y-192535827D02*
X228528380Y-192583446D01*
X227195047Y-193154875D02*
X227195047Y-192631065D01*
X227195047Y-192631065D02*
X227242666Y-192535827D01*
X227242666Y-192535827D02*
X227337904Y-192488208D01*
X227337904Y-192488208D02*
X227528380Y-192488208D01*
X227528380Y-192488208D02*
X227623618Y-192535827D01*
X227195047Y-193107256D02*
X227290285Y-193154875D01*
X227290285Y-193154875D02*
X227528380Y-193154875D01*
X227528380Y-193154875D02*
X227623618Y-193107256D01*
X227623618Y-193107256D02*
X227671237Y-193012017D01*
X227671237Y-193012017D02*
X227671237Y-192916779D01*
X227671237Y-192916779D02*
X227623618Y-192821541D01*
X227623618Y-192821541D02*
X227528380Y-192773922D01*
X227528380Y-192773922D02*
X227290285Y-192773922D01*
X227290285Y-192773922D02*
X227195047Y-192726303D01*
X226337904Y-193107256D02*
X226433142Y-193154875D01*
X226433142Y-193154875D02*
X226623618Y-193154875D01*
X226623618Y-193154875D02*
X226718856Y-193107256D01*
X226718856Y-193107256D02*
X226766475Y-193012017D01*
X226766475Y-193012017D02*
X226766475Y-192631065D01*
X226766475Y-192631065D02*
X226718856Y-192535827D01*
X226718856Y-192535827D02*
X226623618Y-192488208D01*
X226623618Y-192488208D02*
X226433142Y-192488208D01*
X226433142Y-192488208D02*
X226337904Y-192535827D01*
X226337904Y-192535827D02*
X226290285Y-192631065D01*
X226290285Y-192631065D02*
X226290285Y-192726303D01*
X226290285Y-192726303D02*
X226766475Y-192821541D01*
X225909332Y-193107256D02*
X225814094Y-193154875D01*
X225814094Y-193154875D02*
X225623618Y-193154875D01*
X225623618Y-193154875D02*
X225528380Y-193107256D01*
X225528380Y-193107256D02*
X225480761Y-193012017D01*
X225480761Y-193012017D02*
X225480761Y-192964398D01*
X225480761Y-192964398D02*
X225528380Y-192869160D01*
X225528380Y-192869160D02*
X225623618Y-192821541D01*
X225623618Y-192821541D02*
X225766475Y-192821541D01*
X225766475Y-192821541D02*
X225861713Y-192773922D01*
X225861713Y-192773922D02*
X225909332Y-192678684D01*
X225909332Y-192678684D02*
X225909332Y-192631065D01*
X225909332Y-192631065D02*
X225861713Y-192535827D01*
X225861713Y-192535827D02*
X225766475Y-192488208D01*
X225766475Y-192488208D02*
X225623618Y-192488208D01*
X225623618Y-192488208D02*
X225528380Y-192535827D01*
X225195046Y-192488208D02*
X224814094Y-192488208D01*
X225052189Y-192154875D02*
X225052189Y-193012017D01*
X225052189Y-193012017D02*
X225004570Y-193107256D01*
X225004570Y-193107256D02*
X224909332Y-193154875D01*
X224909332Y-193154875D02*
X224814094Y-193154875D01*
X224052189Y-192488208D02*
X224052189Y-193154875D01*
X224480760Y-192488208D02*
X224480760Y-193012017D01*
X224480760Y-193012017D02*
X224433141Y-193107256D01*
X224433141Y-193107256D02*
X224337903Y-193154875D01*
X224337903Y-193154875D02*
X224195046Y-193154875D01*
X224195046Y-193154875D02*
X224099808Y-193107256D01*
X224099808Y-193107256D02*
X224052189Y-193059636D01*
X223623617Y-193107256D02*
X223528379Y-193154875D01*
X223528379Y-193154875D02*
X223337903Y-193154875D01*
X223337903Y-193154875D02*
X223242665Y-193107256D01*
X223242665Y-193107256D02*
X223195046Y-193012017D01*
X223195046Y-193012017D02*
X223195046Y-192964398D01*
X223195046Y-192964398D02*
X223242665Y-192869160D01*
X223242665Y-192869160D02*
X223337903Y-192821541D01*
X223337903Y-192821541D02*
X223480760Y-192821541D01*
X223480760Y-192821541D02*
X223575998Y-192773922D01*
X223575998Y-192773922D02*
X223623617Y-192678684D01*
X223623617Y-192678684D02*
X223623617Y-192631065D01*
X223623617Y-192631065D02*
X223575998Y-192535827D01*
X223575998Y-192535827D02*
X223480760Y-192488208D01*
X223480760Y-192488208D02*
X223337903Y-192488208D01*
X223337903Y-192488208D02*
X223242665Y-192535827D01*
X222004569Y-193154875D02*
X222004569Y-192154875D01*
X222004569Y-192154875D02*
X221671236Y-192869160D01*
X221671236Y-192869160D02*
X221337903Y-192154875D01*
X221337903Y-192154875D02*
X221337903Y-193154875D01*
X220718855Y-193154875D02*
X220814093Y-193107256D01*
X220814093Y-193107256D02*
X220861712Y-193059636D01*
X220861712Y-193059636D02*
X220909331Y-192964398D01*
X220909331Y-192964398D02*
X220909331Y-192678684D01*
X220909331Y-192678684D02*
X220861712Y-192583446D01*
X220861712Y-192583446D02*
X220814093Y-192535827D01*
X220814093Y-192535827D02*
X220718855Y-192488208D01*
X220718855Y-192488208D02*
X220575998Y-192488208D01*
X220575998Y-192488208D02*
X220480760Y-192535827D01*
X220480760Y-192535827D02*
X220433141Y-192583446D01*
X220433141Y-192583446D02*
X220385522Y-192678684D01*
X220385522Y-192678684D02*
X220385522Y-192964398D01*
X220385522Y-192964398D02*
X220433141Y-193059636D01*
X220433141Y-193059636D02*
X220480760Y-193107256D01*
X220480760Y-193107256D02*
X220575998Y-193154875D01*
X220575998Y-193154875D02*
X220718855Y-193154875D01*
X219528379Y-193154875D02*
X219528379Y-192154875D01*
X219528379Y-193107256D02*
X219623617Y-193154875D01*
X219623617Y-193154875D02*
X219814093Y-193154875D01*
X219814093Y-193154875D02*
X219909331Y-193107256D01*
X219909331Y-193107256D02*
X219956950Y-193059636D01*
X219956950Y-193059636D02*
X220004569Y-192964398D01*
X220004569Y-192964398D02*
X220004569Y-192678684D01*
X220004569Y-192678684D02*
X219956950Y-192583446D01*
X219956950Y-192583446D02*
X219909331Y-192535827D01*
X219909331Y-192535827D02*
X219814093Y-192488208D01*
X219814093Y-192488208D02*
X219623617Y-192488208D01*
X219623617Y-192488208D02*
X219528379Y-192535827D01*
X235314095Y-194764819D02*
X235314095Y-193764819D01*
X235314095Y-193764819D02*
X234980762Y-194479104D01*
X234980762Y-194479104D02*
X234647429Y-193764819D01*
X234647429Y-193764819D02*
X234647429Y-194764819D01*
X233742667Y-194764819D02*
X233742667Y-194241009D01*
X233742667Y-194241009D02*
X233790286Y-194145771D01*
X233790286Y-194145771D02*
X233885524Y-194098152D01*
X233885524Y-194098152D02*
X234076000Y-194098152D01*
X234076000Y-194098152D02*
X234171238Y-194145771D01*
X233742667Y-194717200D02*
X233837905Y-194764819D01*
X233837905Y-194764819D02*
X234076000Y-194764819D01*
X234076000Y-194764819D02*
X234171238Y-194717200D01*
X234171238Y-194717200D02*
X234218857Y-194621961D01*
X234218857Y-194621961D02*
X234218857Y-194526723D01*
X234218857Y-194526723D02*
X234171238Y-194431485D01*
X234171238Y-194431485D02*
X234076000Y-194383866D01*
X234076000Y-194383866D02*
X233837905Y-194383866D01*
X233837905Y-194383866D02*
X233742667Y-194336247D01*
X233266476Y-194764819D02*
X233266476Y-194098152D01*
X233266476Y-193764819D02*
X233314095Y-193812438D01*
X233314095Y-193812438D02*
X233266476Y-193860057D01*
X233266476Y-193860057D02*
X233218857Y-193812438D01*
X233218857Y-193812438D02*
X233266476Y-193764819D01*
X233266476Y-193764819D02*
X233266476Y-193860057D01*
X232790286Y-194098152D02*
X232790286Y-194764819D01*
X232790286Y-194193390D02*
X232742667Y-194145771D01*
X232742667Y-194145771D02*
X232647429Y-194098152D01*
X232647429Y-194098152D02*
X232504572Y-194098152D01*
X232504572Y-194098152D02*
X232409334Y-194145771D01*
X232409334Y-194145771D02*
X232361715Y-194241009D01*
X232361715Y-194241009D02*
X232361715Y-194764819D01*
X231123619Y-194764819D02*
X231123619Y-193764819D01*
X231123619Y-194145771D02*
X231028381Y-194098152D01*
X231028381Y-194098152D02*
X230837905Y-194098152D01*
X230837905Y-194098152D02*
X230742667Y-194145771D01*
X230742667Y-194145771D02*
X230695048Y-194193390D01*
X230695048Y-194193390D02*
X230647429Y-194288628D01*
X230647429Y-194288628D02*
X230647429Y-194574342D01*
X230647429Y-194574342D02*
X230695048Y-194669580D01*
X230695048Y-194669580D02*
X230742667Y-194717200D01*
X230742667Y-194717200D02*
X230837905Y-194764819D01*
X230837905Y-194764819D02*
X231028381Y-194764819D01*
X231028381Y-194764819D02*
X231123619Y-194717200D01*
X230076000Y-194764819D02*
X230171238Y-194717200D01*
X230171238Y-194717200D02*
X230218857Y-194669580D01*
X230218857Y-194669580D02*
X230266476Y-194574342D01*
X230266476Y-194574342D02*
X230266476Y-194288628D01*
X230266476Y-194288628D02*
X230218857Y-194193390D01*
X230218857Y-194193390D02*
X230171238Y-194145771D01*
X230171238Y-194145771D02*
X230076000Y-194098152D01*
X230076000Y-194098152D02*
X229933143Y-194098152D01*
X229933143Y-194098152D02*
X229837905Y-194145771D01*
X229837905Y-194145771D02*
X229790286Y-194193390D01*
X229790286Y-194193390D02*
X229742667Y-194288628D01*
X229742667Y-194288628D02*
X229742667Y-194574342D01*
X229742667Y-194574342D02*
X229790286Y-194669580D01*
X229790286Y-194669580D02*
X229837905Y-194717200D01*
X229837905Y-194717200D02*
X229933143Y-194764819D01*
X229933143Y-194764819D02*
X230076000Y-194764819D01*
X228885524Y-194764819D02*
X228885524Y-194241009D01*
X228885524Y-194241009D02*
X228933143Y-194145771D01*
X228933143Y-194145771D02*
X229028381Y-194098152D01*
X229028381Y-194098152D02*
X229218857Y-194098152D01*
X229218857Y-194098152D02*
X229314095Y-194145771D01*
X228885524Y-194717200D02*
X228980762Y-194764819D01*
X228980762Y-194764819D02*
X229218857Y-194764819D01*
X229218857Y-194764819D02*
X229314095Y-194717200D01*
X229314095Y-194717200D02*
X229361714Y-194621961D01*
X229361714Y-194621961D02*
X229361714Y-194526723D01*
X229361714Y-194526723D02*
X229314095Y-194431485D01*
X229314095Y-194431485D02*
X229218857Y-194383866D01*
X229218857Y-194383866D02*
X228980762Y-194383866D01*
X228980762Y-194383866D02*
X228885524Y-194336247D01*
X228409333Y-194764819D02*
X228409333Y-194098152D01*
X228409333Y-194288628D02*
X228361714Y-194193390D01*
X228361714Y-194193390D02*
X228314095Y-194145771D01*
X228314095Y-194145771D02*
X228218857Y-194098152D01*
X228218857Y-194098152D02*
X228123619Y-194098152D01*
X227361714Y-194764819D02*
X227361714Y-193764819D01*
X227361714Y-194717200D02*
X227456952Y-194764819D01*
X227456952Y-194764819D02*
X227647428Y-194764819D01*
X227647428Y-194764819D02*
X227742666Y-194717200D01*
X227742666Y-194717200D02*
X227790285Y-194669580D01*
X227790285Y-194669580D02*
X227837904Y-194574342D01*
X227837904Y-194574342D02*
X227837904Y-194288628D01*
X227837904Y-194288628D02*
X227790285Y-194193390D01*
X227790285Y-194193390D02*
X227742666Y-194145771D01*
X227742666Y-194145771D02*
X227647428Y-194098152D01*
X227647428Y-194098152D02*
X227456952Y-194098152D01*
X227456952Y-194098152D02*
X227361714Y-194145771D01*
X226123618Y-194383866D02*
X225361714Y-194383866D01*
X223552190Y-194764819D02*
X223885523Y-194288628D01*
X224123618Y-194764819D02*
X224123618Y-193764819D01*
X224123618Y-193764819D02*
X223742666Y-193764819D01*
X223742666Y-193764819D02*
X223647428Y-193812438D01*
X223647428Y-193812438D02*
X223599809Y-193860057D01*
X223599809Y-193860057D02*
X223552190Y-193955295D01*
X223552190Y-193955295D02*
X223552190Y-194098152D01*
X223552190Y-194098152D02*
X223599809Y-194193390D01*
X223599809Y-194193390D02*
X223647428Y-194241009D01*
X223647428Y-194241009D02*
X223742666Y-194288628D01*
X223742666Y-194288628D02*
X224123618Y-194288628D01*
X222742666Y-194717200D02*
X222837904Y-194764819D01*
X222837904Y-194764819D02*
X223028380Y-194764819D01*
X223028380Y-194764819D02*
X223123618Y-194717200D01*
X223123618Y-194717200D02*
X223171237Y-194621961D01*
X223171237Y-194621961D02*
X223171237Y-194241009D01*
X223171237Y-194241009D02*
X223123618Y-194145771D01*
X223123618Y-194145771D02*
X223028380Y-194098152D01*
X223028380Y-194098152D02*
X222837904Y-194098152D01*
X222837904Y-194098152D02*
X222742666Y-194145771D01*
X222742666Y-194145771D02*
X222695047Y-194241009D01*
X222695047Y-194241009D02*
X222695047Y-194336247D01*
X222695047Y-194336247D02*
X223171237Y-194431485D01*
X222361713Y-194098152D02*
X222123618Y-194764819D01*
X222123618Y-194764819D02*
X221885523Y-194098152D01*
X220218856Y-194764819D02*
X220790284Y-194764819D01*
X220504570Y-194764819D02*
X220504570Y-193764819D01*
X220504570Y-193764819D02*
X220599808Y-193907676D01*
X220599808Y-193907676D02*
X220695046Y-194002914D01*
X220695046Y-194002914D02*
X220790284Y-194050533D01*
X219790284Y-194669580D02*
X219742665Y-194717200D01*
X219742665Y-194717200D02*
X219790284Y-194764819D01*
X219790284Y-194764819D02*
X219837903Y-194717200D01*
X219837903Y-194717200D02*
X219790284Y-194669580D01*
X219790284Y-194669580D02*
X219790284Y-194764819D01*
X219123618Y-193764819D02*
X219028380Y-193764819D01*
X219028380Y-193764819D02*
X218933142Y-193812438D01*
X218933142Y-193812438D02*
X218885523Y-193860057D01*
X218885523Y-193860057D02*
X218837904Y-193955295D01*
X218837904Y-193955295D02*
X218790285Y-194145771D01*
X218790285Y-194145771D02*
X218790285Y-194383866D01*
X218790285Y-194383866D02*
X218837904Y-194574342D01*
X218837904Y-194574342D02*
X218885523Y-194669580D01*
X218885523Y-194669580D02*
X218933142Y-194717200D01*
X218933142Y-194717200D02*
X219028380Y-194764819D01*
X219028380Y-194764819D02*
X219123618Y-194764819D01*
X219123618Y-194764819D02*
X219218856Y-194717200D01*
X219218856Y-194717200D02*
X219266475Y-194669580D01*
X219266475Y-194669580D02*
X219314094Y-194574342D01*
X219314094Y-194574342D02*
X219361713Y-194383866D01*
X219361713Y-194383866D02*
X219361713Y-194145771D01*
X219361713Y-194145771D02*
X219314094Y-193955295D01*
X219314094Y-193955295D02*
X219266475Y-193860057D01*
X219266475Y-193860057D02*
X219218856Y-193812438D01*
X219218856Y-193812438D02*
X219123618Y-193764819D01*
X230766476Y-195850953D02*
X230623619Y-195898572D01*
X230623619Y-195898572D02*
X230576000Y-195946191D01*
X230576000Y-195946191D02*
X230528381Y-196041429D01*
X230528381Y-196041429D02*
X230528381Y-196184286D01*
X230528381Y-196184286D02*
X230576000Y-196279524D01*
X230576000Y-196279524D02*
X230623619Y-196327144D01*
X230623619Y-196327144D02*
X230718857Y-196374763D01*
X230718857Y-196374763D02*
X231099809Y-196374763D01*
X231099809Y-196374763D02*
X231099809Y-195374763D01*
X231099809Y-195374763D02*
X230766476Y-195374763D01*
X230766476Y-195374763D02*
X230671238Y-195422382D01*
X230671238Y-195422382D02*
X230623619Y-195470001D01*
X230623619Y-195470001D02*
X230576000Y-195565239D01*
X230576000Y-195565239D02*
X230576000Y-195660477D01*
X230576000Y-195660477D02*
X230623619Y-195755715D01*
X230623619Y-195755715D02*
X230671238Y-195803334D01*
X230671238Y-195803334D02*
X230766476Y-195850953D01*
X230766476Y-195850953D02*
X231099809Y-195850953D01*
X230195047Y-195708096D02*
X229956952Y-196374763D01*
X229718857Y-195708096D02*
X229956952Y-196374763D01*
X229956952Y-196374763D02*
X230052190Y-196612858D01*
X230052190Y-196612858D02*
X230099809Y-196660477D01*
X230099809Y-196660477D02*
X230195047Y-196708096D01*
X228433142Y-196374763D02*
X228528380Y-196327144D01*
X228528380Y-196327144D02*
X228575999Y-196231905D01*
X228575999Y-196231905D02*
X228575999Y-195374763D01*
X228052189Y-196374763D02*
X228052189Y-195708096D01*
X228052189Y-195374763D02*
X228099808Y-195422382D01*
X228099808Y-195422382D02*
X228052189Y-195470001D01*
X228052189Y-195470001D02*
X228004570Y-195422382D01*
X228004570Y-195422382D02*
X228052189Y-195374763D01*
X228052189Y-195374763D02*
X228052189Y-195470001D01*
X227575999Y-196374763D02*
X227575999Y-195708096D01*
X227575999Y-195803334D02*
X227528380Y-195755715D01*
X227528380Y-195755715D02*
X227433142Y-195708096D01*
X227433142Y-195708096D02*
X227290285Y-195708096D01*
X227290285Y-195708096D02*
X227195047Y-195755715D01*
X227195047Y-195755715D02*
X227147428Y-195850953D01*
X227147428Y-195850953D02*
X227147428Y-196374763D01*
X227147428Y-195850953D02*
X227099809Y-195755715D01*
X227099809Y-195755715D02*
X227004571Y-195708096D01*
X227004571Y-195708096D02*
X226861714Y-195708096D01*
X226861714Y-195708096D02*
X226766475Y-195755715D01*
X226766475Y-195755715D02*
X226718856Y-195850953D01*
X226718856Y-195850953D02*
X226718856Y-196374763D01*
X225861714Y-196327144D02*
X225956952Y-196374763D01*
X225956952Y-196374763D02*
X226147428Y-196374763D01*
X226147428Y-196374763D02*
X226242666Y-196327144D01*
X226242666Y-196327144D02*
X226290285Y-196231905D01*
X226290285Y-196231905D02*
X226290285Y-195850953D01*
X226290285Y-195850953D02*
X226242666Y-195755715D01*
X226242666Y-195755715D02*
X226147428Y-195708096D01*
X226147428Y-195708096D02*
X225956952Y-195708096D01*
X225956952Y-195708096D02*
X225861714Y-195755715D01*
X225861714Y-195755715D02*
X225814095Y-195850953D01*
X225814095Y-195850953D02*
X225814095Y-195946191D01*
X225814095Y-195946191D02*
X226290285Y-196041429D01*
X225385523Y-195708096D02*
X225385523Y-196374763D01*
X225385523Y-195803334D02*
X225337904Y-195755715D01*
X225337904Y-195755715D02*
X225242666Y-195708096D01*
X225242666Y-195708096D02*
X225099809Y-195708096D01*
X225099809Y-195708096D02*
X225004571Y-195755715D01*
X225004571Y-195755715D02*
X224956952Y-195850953D01*
X224956952Y-195850953D02*
X224956952Y-196374763D01*
X224623618Y-195708096D02*
X224242666Y-195708096D01*
X224480761Y-195374763D02*
X224480761Y-196231905D01*
X224480761Y-196231905D02*
X224433142Y-196327144D01*
X224433142Y-196327144D02*
X224337904Y-196374763D01*
X224337904Y-196374763D02*
X224242666Y-196374763D01*
X223909332Y-196374763D02*
X223909332Y-195708096D01*
X223909332Y-195374763D02*
X223956951Y-195422382D01*
X223956951Y-195422382D02*
X223909332Y-195470001D01*
X223909332Y-195470001D02*
X223861713Y-195422382D01*
X223861713Y-195422382D02*
X223909332Y-195374763D01*
X223909332Y-195374763D02*
X223909332Y-195470001D01*
X223004571Y-196327144D02*
X223099809Y-196374763D01*
X223099809Y-196374763D02*
X223290285Y-196374763D01*
X223290285Y-196374763D02*
X223385523Y-196327144D01*
X223385523Y-196327144D02*
X223433142Y-196279524D01*
X223433142Y-196279524D02*
X223480761Y-196184286D01*
X223480761Y-196184286D02*
X223480761Y-195898572D01*
X223480761Y-195898572D02*
X223433142Y-195803334D01*
X223433142Y-195803334D02*
X223385523Y-195755715D01*
X223385523Y-195755715D02*
X223290285Y-195708096D01*
X223290285Y-195708096D02*
X223099809Y-195708096D01*
X223099809Y-195708096D02*
X223004571Y-195755715D01*
X180302819Y-183562666D02*
X181017104Y-183562666D01*
X181017104Y-183562666D02*
X181159961Y-183515047D01*
X181159961Y-183515047D02*
X181255200Y-183419809D01*
X181255200Y-183419809D02*
X181302819Y-183276952D01*
X181302819Y-183276952D02*
X181302819Y-183181714D01*
X181302819Y-184562666D02*
X181302819Y-183991238D01*
X181302819Y-184276952D02*
X180302819Y-184276952D01*
X180302819Y-184276952D02*
X180445676Y-184181714D01*
X180445676Y-184181714D02*
X180540914Y-184086476D01*
X180540914Y-184086476D02*
X180588533Y-183991238D01*
D11*
X349823332Y-120208318D02*
X349823332Y-121115461D01*
X349823332Y-121115461D02*
X349883809Y-121296889D01*
X349883809Y-121296889D02*
X350004761Y-121417842D01*
X350004761Y-121417842D02*
X350186190Y-121478318D01*
X350186190Y-121478318D02*
X350307142Y-121478318D01*
X349279047Y-120329270D02*
X349218571Y-120268794D01*
X349218571Y-120268794D02*
X349097618Y-120208318D01*
X349097618Y-120208318D02*
X348795237Y-120208318D01*
X348795237Y-120208318D02*
X348674285Y-120268794D01*
X348674285Y-120268794D02*
X348613809Y-120329270D01*
X348613809Y-120329270D02*
X348553332Y-120450222D01*
X348553332Y-120450222D02*
X348553332Y-120571175D01*
X348553332Y-120571175D02*
X348613809Y-120752603D01*
X348613809Y-120752603D02*
X349339523Y-121478318D01*
X349339523Y-121478318D02*
X348553332Y-121478318D01*
D10*
X85243200Y-103060667D02*
X85290819Y-103203524D01*
X85290819Y-103203524D02*
X85290819Y-103441619D01*
X85290819Y-103441619D02*
X85243200Y-103536857D01*
X85243200Y-103536857D02*
X85195580Y-103584476D01*
X85195580Y-103584476D02*
X85100342Y-103632095D01*
X85100342Y-103632095D02*
X85005104Y-103632095D01*
X85005104Y-103632095D02*
X84909866Y-103584476D01*
X84909866Y-103584476D02*
X84862247Y-103536857D01*
X84862247Y-103536857D02*
X84814628Y-103441619D01*
X84814628Y-103441619D02*
X84767009Y-103251143D01*
X84767009Y-103251143D02*
X84719390Y-103155905D01*
X84719390Y-103155905D02*
X84671771Y-103108286D01*
X84671771Y-103108286D02*
X84576533Y-103060667D01*
X84576533Y-103060667D02*
X84481295Y-103060667D01*
X84481295Y-103060667D02*
X84386057Y-103108286D01*
X84386057Y-103108286D02*
X84338438Y-103155905D01*
X84338438Y-103155905D02*
X84290819Y-103251143D01*
X84290819Y-103251143D02*
X84290819Y-103489238D01*
X84290819Y-103489238D02*
X84338438Y-103632095D01*
X84290819Y-103965429D02*
X85290819Y-104203524D01*
X85290819Y-104203524D02*
X84576533Y-104394000D01*
X84576533Y-104394000D02*
X85290819Y-104584476D01*
X85290819Y-104584476D02*
X84290819Y-104822572D01*
X85290819Y-105727333D02*
X85290819Y-105155905D01*
X85290819Y-105441619D02*
X84290819Y-105441619D01*
X84290819Y-105441619D02*
X84433676Y-105346381D01*
X84433676Y-105346381D02*
X84528914Y-105251143D01*
X84528914Y-105251143D02*
X84576533Y-105155905D01*
D11*
X187010318Y-90842667D02*
X187917461Y-90842667D01*
X187917461Y-90842667D02*
X188098889Y-90782190D01*
X188098889Y-90782190D02*
X188219842Y-90661238D01*
X188219842Y-90661238D02*
X188280318Y-90479809D01*
X188280318Y-90479809D02*
X188280318Y-90358857D01*
X187010318Y-91326476D02*
X187010318Y-92112667D01*
X187010318Y-92112667D02*
X187494127Y-91689333D01*
X187494127Y-91689333D02*
X187494127Y-91870762D01*
X187494127Y-91870762D02*
X187554603Y-91991714D01*
X187554603Y-91991714D02*
X187615080Y-92052190D01*
X187615080Y-92052190D02*
X187736032Y-92112667D01*
X187736032Y-92112667D02*
X188038413Y-92112667D01*
X188038413Y-92112667D02*
X188159365Y-92052190D01*
X188159365Y-92052190D02*
X188219842Y-91991714D01*
X188219842Y-91991714D02*
X188280318Y-91870762D01*
X188280318Y-91870762D02*
X188280318Y-91507905D01*
X188280318Y-91507905D02*
X188219842Y-91386952D01*
X188219842Y-91386952D02*
X188159365Y-91326476D01*
D12*
X154893767Y-180280000D02*
X154893767Y-182020000D01*
X154893767Y-184740000D02*
X154893767Y-186080000D01*
X154893767Y-186080000D02*
X156383767Y-186080000D01*
X156383767Y-187280000D02*
X156383767Y-186080000D01*
X178193767Y-180280000D02*
X154893767Y-180280000D01*
X178193767Y-182020000D02*
X178193767Y-180280000D01*
X178193767Y-184740000D02*
X178193767Y-186080000D01*
X178193767Y-186080000D02*
X176703767Y-186080000D01*
D13*
X347123000Y-115195000D02*
X347123000Y-118525000D01*
X347123000Y-118525000D02*
X347600000Y-118525000D01*
D14*
X350713000Y-114300000D02*
X350713000Y-114300000D01*
X350713000Y-114400000D02*
X350713000Y-114400000D01*
D13*
X351677000Y-115195000D02*
X351677000Y-118525000D01*
X351677000Y-118525000D02*
X351000000Y-118525000D01*
D14*
X350713000Y-114300000D02*
G75*
G02*
X350713000Y-114400000I0J-50000D01*
G01*
X350713000Y-114400000D02*
G75*
G02*
X350713000Y-114300000I0J50000D01*
G01*
D12*
X76965000Y-101590000D02*
X76965000Y-102040000D01*
X76965000Y-106010000D02*
X76965000Y-105560000D01*
X77915000Y-106010000D02*
X76965000Y-106010000D01*
X77915000Y-107500000D02*
X77915000Y-106010000D01*
X80485000Y-106010000D02*
X81435000Y-106010000D01*
X81435000Y-101590000D02*
X76965000Y-101590000D01*
X81435000Y-102040000D02*
X81435000Y-101590000D01*
X81435000Y-106010000D02*
X81435000Y-105560000D01*
D14*
X190253767Y-88966000D02*
X190253767Y-90066000D01*
X190253767Y-93541000D02*
X190253767Y-92466000D01*
X192253767Y-88966000D02*
X192253767Y-90066000D01*
X192253767Y-93566000D02*
X192253767Y-92466000D01*
M02*
