%TF.GenerationSoftware,KiCad,Pcbnew,8.0.2-1*%
%TF.CreationDate,2024-08-02T01:43:11+02:00*%
%TF.ProjectId,keyboard,6b657962-6f61-4726-942e-6b696361645f,1.0*%
%TF.SameCoordinates,Original*%
%TF.FileFunction,NonPlated,1,2,NPTH,Drill*%
%TF.FilePolarity,Positive*%
%FSLAX46Y46*%
G04 Gerber Fmt 4.6, Leading zero omitted, Abs format (unit mm)*
G04 Created by KiCad (PCBNEW 8.0.2-1) date 2024-08-02 01:43:11*
%MOMM*%
%LPD*%
G01*
G04 APERTURE LIST*
%TA.AperFunction,ComponentDrill*%
%ADD10C,1.701800*%
%TD*%
%TA.AperFunction,ComponentDrill*%
%ADD11C,1.750000*%
%TD*%
%TA.AperFunction,ComponentDrill*%
%ADD12C,3.048000*%
%TD*%
%TA.AperFunction,ComponentDrill*%
%ADD13C,3.987800*%
%TD*%
G04 APERTURE END LIST*
D10*
%TO.C,K_SPACE54*%
X331721517Y-138645000D03*
X331721517Y-148805000D03*
D11*
%TO.C,K_SPACE0*%
X62322767Y-96100000D03*
%TO.C,K_SPACE14*%
X62322767Y-115150000D03*
%TO.C,K_SPACE69*%
X62322767Y-191350000D03*
%TO.C,K_SPACE55*%
X64704017Y-172300000D03*
%TO.C,K_SPACE28*%
X67085267Y-134200000D03*
%TO.C,K_SPACE41*%
X69466517Y-153250000D03*
%TO.C,K_SPACE0*%
X72482767Y-96100000D03*
%TO.C,K_SPACE14*%
X72482767Y-115150000D03*
%TO.C,K_SPACE69*%
X72482767Y-191350000D03*
%TO.C,K_SPACE55*%
X74864017Y-172300000D03*
%TO.C,K_SPACE28*%
X77245267Y-134200000D03*
%TO.C,K_SPACE41*%
X79626517Y-153250000D03*
%TO.C,K_SPACE15*%
X81372767Y-115150000D03*
%TO.C,K_SPACE70*%
X81372767Y-191350000D03*
%TO.C,K_SPACE56*%
X86135267Y-172300000D03*
%TO.C,K_SPACE1*%
X90897767Y-96100000D03*
%TO.C,K_SPACE29*%
X90897767Y-134200000D03*
%TO.C,K_SPACE15*%
X91532767Y-115150000D03*
%TO.C,K_SPACE70*%
X91532767Y-191350000D03*
%TO.C,K_SPACE42*%
X95660267Y-153250000D03*
%TO.C,K_SPACE56*%
X96295267Y-172300000D03*
%TO.C,K_SPACE16*%
X100422767Y-115150000D03*
%TO.C,K_SPACE71*%
X100422767Y-191350000D03*
%TO.C,K_SPACE1*%
X101057767Y-96100000D03*
%TO.C,K_SPACE29*%
X101057767Y-134200000D03*
%TO.C,K_SPACE57*%
X105185267Y-172300000D03*
%TO.C,K_SPACE42*%
X105820267Y-153250000D03*
%TO.C,K_SPACE2*%
X109947767Y-96100000D03*
%TO.C,K_SPACE30*%
X109947767Y-134200000D03*
%TO.C,K_SPACE16*%
X110582767Y-115150000D03*
%TO.C,K_SPACE71*%
X110582767Y-191350000D03*
%TO.C,K_SPACE43*%
X114710267Y-153250000D03*
%TO.C,K_SPACE57*%
X115345267Y-172300000D03*
%TO.C,K_SPACE17*%
X119472767Y-115150000D03*
%TO.C,K_SPACE2*%
X120107767Y-96100000D03*
%TO.C,K_SPACE30*%
X120107767Y-134200000D03*
%TO.C,K_SPACE72*%
X121854017Y-191350000D03*
%TO.C,K_SPACE58*%
X124235267Y-172300000D03*
%TO.C,K_SPACE43*%
X124870267Y-153250000D03*
%TO.C,K_SPACE3*%
X128997767Y-96100000D03*
%TO.C,K_SPACE31*%
X128997767Y-134200000D03*
%TO.C,K_SPACE17*%
X129632767Y-115150000D03*
%TO.C,K_SPACE72*%
X132014017Y-191350000D03*
%TO.C,K_SPACE44*%
X133760267Y-153250000D03*
%TO.C,K_SPACE58*%
X134395267Y-172300000D03*
%TO.C,K_SPACE18*%
X138522767Y-115150000D03*
%TO.C,K_SPACE3*%
X139157767Y-96100000D03*
%TO.C,K_SPACE31*%
X139157767Y-134200000D03*
%TO.C,K_SPACE59*%
X143285267Y-172300000D03*
%TO.C,K_SPACE44*%
X143920267Y-153250000D03*
%TO.C,K_SPACE4*%
X148047767Y-96100000D03*
%TO.C,K_SPACE32*%
X148047767Y-134200000D03*
%TO.C,K_SPACE18*%
X148682767Y-115150000D03*
%TO.C,K_SPACE45*%
X152810267Y-153250000D03*
%TO.C,K_SPACE59*%
X153445267Y-172300000D03*
%TO.C,K_SPACE19*%
X157572767Y-115150000D03*
%TO.C,K_SPACE4*%
X158207767Y-96100000D03*
%TO.C,K_SPACE32*%
X158207767Y-134200000D03*
%TO.C,K_SPACE60*%
X162335267Y-172300000D03*
%TO.C,K_SPACE45*%
X162970267Y-153250000D03*
%TO.C,K_SPACE33*%
X167097767Y-134200000D03*
%TO.C,K_SPACE19*%
X167732767Y-115150000D03*
%TO.C,K_SPACE46*%
X171860267Y-153250000D03*
%TO.C,K_SPACE60*%
X172495267Y-172300000D03*
%TO.C,K_SPACE5*%
X176622767Y-96100000D03*
%TO.C,K_SPACE20*%
X176622767Y-115150000D03*
%TO.C,K_SPACE33*%
X177257767Y-134200000D03*
%TO.C,K_SPACE61*%
X181385267Y-172300000D03*
%TO.C,K_SPACE46*%
X182020267Y-153250000D03*
%TO.C,K_SPACE34*%
X186147767Y-134200000D03*
%TO.C,K_SPACE5*%
X186782767Y-96100000D03*
%TO.C,K_SPACE20*%
X186782767Y-115150000D03*
%TO.C,K_SPACE47*%
X190910267Y-153250000D03*
%TO.C,K_SPACE61*%
X191545267Y-172300000D03*
%TO.C,K_SPACE73*%
X193291517Y-191350000D03*
%TO.C,K_SPACE6*%
X195672767Y-96100000D03*
%TO.C,K_SPACE21*%
X195672767Y-115150000D03*
%TO.C,K_SPACE34*%
X196307767Y-134200000D03*
%TO.C,K_SPACE62*%
X200435267Y-172300000D03*
%TO.C,K_SPACE47*%
X201070267Y-153250000D03*
%TO.C,K_SPACE73*%
X203451517Y-191350000D03*
%TO.C,K_SPACE35*%
X205197767Y-134200000D03*
%TO.C,K_SPACE6*%
X205832767Y-96100000D03*
%TO.C,K_SPACE21*%
X205832767Y-115150000D03*
%TO.C,K_SPACE48*%
X209960267Y-153250000D03*
%TO.C,K_SPACE62*%
X210595267Y-172300000D03*
%TO.C,K_SPACE7*%
X214710000Y-96100000D03*
%TO.C,K_SPACE22*%
X214722767Y-115150000D03*
%TO.C,K_SPACE35*%
X215357767Y-134200000D03*
%TO.C,K_SPACE63*%
X219485267Y-172300000D03*
%TO.C,K_SPACE48*%
X220120267Y-153250000D03*
%TO.C,K_SPACE36*%
X224247767Y-134200000D03*
%TO.C,K_SPACE7*%
X224870000Y-96100000D03*
%TO.C,K_SPACE22*%
X224882767Y-115150000D03*
%TO.C,K_SPACE49*%
X229010267Y-153250000D03*
%TO.C,K_SPACE63*%
X229645267Y-172300000D03*
%TO.C,K_SPACE8*%
X233772767Y-96100000D03*
%TO.C,K_SPACE23*%
X233772767Y-115150000D03*
%TO.C,K_SPACE36*%
X234407767Y-134200000D03*
%TO.C,K_SPACE64*%
X238535267Y-172300000D03*
%TO.C,K_SPACE49*%
X239170267Y-153250000D03*
%TO.C,K_SPACE37*%
X243297767Y-134200000D03*
%TO.C,K_SPACE8*%
X243932767Y-96100000D03*
%TO.C,K_SPACE23*%
X243932767Y-115150000D03*
%TO.C,K_SPACE50*%
X248060267Y-153250000D03*
%TO.C,K_SPACE64*%
X248695267Y-172300000D03*
%TO.C,K_SPACE24*%
X252822767Y-115150000D03*
%TO.C,K_SPACE37*%
X253457767Y-134200000D03*
%TO.C,K_SPACE65*%
X257585267Y-172300000D03*
%TO.C,K_SPACE50*%
X258220267Y-153250000D03*
%TO.C,K_SPACE9*%
X262347767Y-96100000D03*
%TO.C,K_SPACE38*%
X262347767Y-134200000D03*
%TO.C,K_SPACE24*%
X262982767Y-115150000D03*
%TO.C,K_SPACE74*%
X264729017Y-191350000D03*
%TO.C,K_SPACE51*%
X267110267Y-153250000D03*
%TO.C,K_SPACE65*%
X267745267Y-172300000D03*
%TO.C,K_SPACE25*%
X271872767Y-115150000D03*
%TO.C,K_SPACE9*%
X272507767Y-96100000D03*
%TO.C,K_SPACE38*%
X272507767Y-134200000D03*
%TO.C,K_SPACE74*%
X274889017Y-191350000D03*
%TO.C,K_SPACE66*%
X276635267Y-172300000D03*
%TO.C,K_SPACE51*%
X277270267Y-153250000D03*
%TO.C,K_SPACE10*%
X281397767Y-96100000D03*
%TO.C,K_SPACE39*%
X281397767Y-134200000D03*
%TO.C,K_SPACE25*%
X282032767Y-115150000D03*
%TO.C,K_SPACE52*%
X286160267Y-153250000D03*
%TO.C,K_SPACE75*%
X286160267Y-191350000D03*
%TO.C,K_SPACE66*%
X286795267Y-172300000D03*
%TO.C,K_SPACE26*%
X290922767Y-115150000D03*
%TO.C,K_SPACE10*%
X291557767Y-96100000D03*
%TO.C,K_SPACE39*%
X291557767Y-134200000D03*
%TO.C,K_SPACE52*%
X296320267Y-153250000D03*
%TO.C,K_SPACE75*%
X296320267Y-191350000D03*
%TO.C,K_SPACE11*%
X300447767Y-96100000D03*
%TO.C,K_SPACE40*%
X300447767Y-134200000D03*
%TO.C,K_SPACE67*%
X300447767Y-172300000D03*
%TO.C,K_SPACE26*%
X301082767Y-115150000D03*
%TO.C,K_SPACE53*%
X305210267Y-153250000D03*
%TO.C,K_SPACE76*%
X309972767Y-191350000D03*
%TO.C,K_SPACE11*%
X310607767Y-96100000D03*
%TO.C,K_SPACE40*%
X310607767Y-134200000D03*
%TO.C,K_SPACE67*%
X310607767Y-172300000D03*
%TO.C,K_SPACE53*%
X315370267Y-153250000D03*
%TO.C,K_SPACE12*%
X319497767Y-96100000D03*
%TO.C,K_SPACE27*%
X319497767Y-115150000D03*
%TO.C,K_SPACE76*%
X320132767Y-191350000D03*
%TO.C,K_SPACE68*%
X329022767Y-172300000D03*
%TO.C,K_SPACE77*%
X329022767Y-191350000D03*
%TO.C,K_SPACE12*%
X329657767Y-96100000D03*
%TO.C,K_SPACE27*%
X329657767Y-115150000D03*
%TO.C,K_SPACE68*%
X339182767Y-172300000D03*
%TO.C,K_SPACE77*%
X339182767Y-191350000D03*
%TO.C,K_SPACE78*%
X348072767Y-191350000D03*
X358232767Y-191350000D03*
D12*
%TO.C,K_SPACE73*%
X148371617Y-198335000D03*
X248371417Y-198335000D03*
%TO.C,K_SPACE27*%
X312639767Y-122135000D03*
%TO.C,K_SPACE54*%
X324736517Y-131787000D03*
X324736517Y-155663000D03*
%TO.C,K_SPACE27*%
X336515767Y-122135000D03*
D13*
%TO.C,K_SPACE0*%
X67402767Y-96100000D03*
%TO.C,K_SPACE14*%
X67402767Y-115150000D03*
%TO.C,K_SPACE69*%
X67402767Y-191350000D03*
%TO.C,K_SPACE55*%
X69784017Y-172300000D03*
%TO.C,K_SPACE28*%
X72165267Y-134200000D03*
%TO.C,K_SPACE41*%
X74546517Y-153250000D03*
%TO.C,K_SPACE15*%
X86452767Y-115150000D03*
%TO.C,K_SPACE70*%
X86452767Y-191350000D03*
%TO.C,K_SPACE56*%
X91215267Y-172300000D03*
%TO.C,K_SPACE1*%
X95977767Y-96100000D03*
%TO.C,K_SPACE29*%
X95977767Y-134200000D03*
%TO.C,K_SPACE42*%
X100740267Y-153250000D03*
%TO.C,K_SPACE16*%
X105502767Y-115150000D03*
%TO.C,K_SPACE71*%
X105502767Y-191350000D03*
%TO.C,K_SPACE57*%
X110265267Y-172300000D03*
%TO.C,K_SPACE2*%
X115027767Y-96100000D03*
%TO.C,K_SPACE30*%
X115027767Y-134200000D03*
%TO.C,K_SPACE43*%
X119790267Y-153250000D03*
%TO.C,K_SPACE17*%
X124552767Y-115150000D03*
%TO.C,K_SPACE72*%
X126934017Y-191350000D03*
%TO.C,K_SPACE58*%
X129315267Y-172300000D03*
%TO.C,K_SPACE3*%
X134077767Y-96100000D03*
%TO.C,K_SPACE31*%
X134077767Y-134200000D03*
%TO.C,K_SPACE44*%
X138840267Y-153250000D03*
%TO.C,K_SPACE18*%
X143602767Y-115150000D03*
%TO.C,K_SPACE59*%
X148365267Y-172300000D03*
%TO.C,K_SPACE73*%
X148371617Y-183095000D03*
%TO.C,K_SPACE4*%
X153127767Y-96100000D03*
%TO.C,K_SPACE32*%
X153127767Y-134200000D03*
%TO.C,K_SPACE45*%
X157890267Y-153250000D03*
%TO.C,K_SPACE19*%
X162652767Y-115150000D03*
%TO.C,K_SPACE60*%
X167415267Y-172300000D03*
%TO.C,K_SPACE33*%
X172177767Y-134200000D03*
%TO.C,K_SPACE46*%
X176940267Y-153250000D03*
%TO.C,K_SPACE5*%
X181702767Y-96100000D03*
%TO.C,K_SPACE20*%
X181702767Y-115150000D03*
%TO.C,K_SPACE61*%
X186465267Y-172300000D03*
%TO.C,K_SPACE34*%
X191227767Y-134200000D03*
%TO.C,K_SPACE47*%
X195990267Y-153250000D03*
%TO.C,K_SPACE73*%
X198371517Y-191350000D03*
%TO.C,K_SPACE6*%
X200752767Y-96100000D03*
%TO.C,K_SPACE21*%
X200752767Y-115150000D03*
%TO.C,K_SPACE62*%
X205515267Y-172300000D03*
%TO.C,K_SPACE35*%
X210277767Y-134200000D03*
%TO.C,K_SPACE48*%
X215040267Y-153250000D03*
%TO.C,K_SPACE7*%
X219790000Y-96100000D03*
%TO.C,K_SPACE22*%
X219802767Y-115150000D03*
%TO.C,K_SPACE63*%
X224565267Y-172300000D03*
%TO.C,K_SPACE36*%
X229327767Y-134200000D03*
%TO.C,K_SPACE49*%
X234090267Y-153250000D03*
%TO.C,K_SPACE8*%
X238852767Y-96100000D03*
%TO.C,K_SPACE23*%
X238852767Y-115150000D03*
%TO.C,K_SPACE64*%
X243615267Y-172300000D03*
%TO.C,K_SPACE73*%
X248371417Y-183095000D03*
%TO.C,K_SPACE37*%
X248377767Y-134200000D03*
%TO.C,K_SPACE50*%
X253140267Y-153250000D03*
%TO.C,K_SPACE24*%
X257902767Y-115150000D03*
%TO.C,K_SPACE65*%
X262665267Y-172300000D03*
%TO.C,K_SPACE9*%
X267427767Y-96100000D03*
%TO.C,K_SPACE38*%
X267427767Y-134200000D03*
%TO.C,K_SPACE74*%
X269809017Y-191350000D03*
%TO.C,K_SPACE51*%
X272190267Y-153250000D03*
%TO.C,K_SPACE25*%
X276952767Y-115150000D03*
%TO.C,K_SPACE66*%
X281715267Y-172300000D03*
%TO.C,K_SPACE10*%
X286477767Y-96100000D03*
%TO.C,K_SPACE39*%
X286477767Y-134200000D03*
%TO.C,K_SPACE52*%
X291240267Y-153250000D03*
%TO.C,K_SPACE75*%
X291240267Y-191350000D03*
%TO.C,K_SPACE26*%
X296002767Y-115150000D03*
%TO.C,K_SPACE11*%
X305527767Y-96100000D03*
%TO.C,K_SPACE40*%
X305527767Y-134200000D03*
%TO.C,K_SPACE67*%
X305527767Y-172300000D03*
%TO.C,K_SPACE53*%
X310290267Y-153250000D03*
%TO.C,K_SPACE27*%
X312639767Y-106895000D03*
%TO.C,K_SPACE76*%
X315052767Y-191350000D03*
%TO.C,K_SPACE12*%
X324577767Y-96100000D03*
%TO.C,K_SPACE27*%
X324577767Y-115150000D03*
%TO.C,K_SPACE54*%
X331721517Y-143725000D03*
%TO.C,K_SPACE68*%
X334102767Y-172300000D03*
%TO.C,K_SPACE77*%
X334102767Y-191350000D03*
%TO.C,K_SPACE27*%
X336515767Y-106895000D03*
%TO.C,K_SPACE54*%
X339976517Y-131787000D03*
X339976517Y-155663000D03*
%TO.C,K_SPACE78*%
X353152767Y-191350000D03*
M02*
