%TF.GenerationSoftware,KiCad,Pcbnew,8.0.2-1*%
%TF.CreationDate,2024-08-02T01:43:08+02:00*%
%TF.ProjectId,keyboard,6b657962-6f61-4726-942e-6b696361645f,1.0*%
%TF.SameCoordinates,Original*%
%TF.FileFunction,Paste,Bot*%
%TF.FilePolarity,Positive*%
%FSLAX46Y46*%
G04 Gerber Fmt 4.6, Leading zero omitted, Abs format (unit mm)*
G04 Created by KiCad (PCBNEW 8.0.2-1) date 2024-08-02 01:43:08*
%MOMM*%
%LPD*%
G01*
G04 APERTURE LIST*
G04 Aperture macros list*
%AMRoundRect*
0 Rectangle with rounded corners*
0 $1 Rounding radius*
0 $2 $3 $4 $5 $6 $7 $8 $9 X,Y pos of 4 corners*
0 Add a 4 corners polygon primitive as box body*
4,1,4,$2,$3,$4,$5,$6,$7,$8,$9,$2,$3,0*
0 Add four circle primitives for the rounded corners*
1,1,$1+$1,$2,$3*
1,1,$1+$1,$4,$5*
1,1,$1+$1,$6,$7*
1,1,$1+$1,$8,$9*
0 Add four rect primitives between the rounded corners*
20,1,$1+$1,$2,$3,$4,$5,0*
20,1,$1+$1,$4,$5,$6,$7,0*
20,1,$1+$1,$6,$7,$8,$9,0*
20,1,$1+$1,$8,$9,$2,$3,0*%
G04 Aperture macros list end*
%ADD10R,0.300000X1.300000*%
%ADD11R,1.800000X2.200000*%
%ADD12R,0.200000X0.500000*%
%ADD13R,0.200000X0.650000*%
%ADD14RoundRect,0.200000X-0.200000X-0.600000X0.200000X-0.600000X0.200000X0.600000X-0.200000X0.600000X0*%
%ADD15RoundRect,0.250001X-0.799999X-1.249999X0.799999X-1.249999X0.799999X1.249999X-0.799999X1.249999X0*%
%ADD16R,0.400000X0.180000*%
%ADD17R,0.385000X0.400000*%
G04 APERTURE END LIST*
D10*
X156793767Y-186630000D03*
X157293767Y-186630000D03*
X157793767Y-186630000D03*
X158293767Y-186630000D03*
X158793767Y-186630000D03*
X159293767Y-186630000D03*
X159793767Y-186630000D03*
X160293767Y-186630000D03*
X160793767Y-186630000D03*
X161293767Y-186630000D03*
X161793767Y-186630000D03*
X162293767Y-186630000D03*
X162793767Y-186630000D03*
X163293767Y-186630000D03*
X163793767Y-186630000D03*
X164293767Y-186630000D03*
X164793767Y-186630000D03*
X165293767Y-186630000D03*
X165793767Y-186630000D03*
X166293767Y-186630000D03*
X166793767Y-186630000D03*
X167293767Y-186630000D03*
X167793767Y-186630000D03*
X168293767Y-186630000D03*
X168793767Y-186630000D03*
X169293767Y-186630000D03*
X169793767Y-186630000D03*
X170293767Y-186630000D03*
X170793767Y-186630000D03*
X171293767Y-186630000D03*
X171793767Y-186630000D03*
X172293767Y-186630000D03*
X172793767Y-186630000D03*
X173293767Y-186630000D03*
X173793767Y-186630000D03*
X174293767Y-186630000D03*
X174793767Y-186630000D03*
X175293767Y-186630000D03*
X175793767Y-186630000D03*
X176293767Y-186630000D03*
D11*
X154893767Y-183380000D03*
X178193767Y-183380000D03*
D12*
X350713000Y-115075000D03*
X350538000Y-118225000D03*
X350362000Y-115075000D03*
X350188000Y-118225000D03*
X350012000Y-115075000D03*
X349838000Y-118225000D03*
X349663000Y-115075000D03*
X349488000Y-118225000D03*
X349313000Y-115075000D03*
X349137000Y-118225000D03*
X348962000Y-115075000D03*
X348788000Y-118225000D03*
X348613000Y-115075000D03*
X348438000Y-118225000D03*
X348262000Y-115075000D03*
X348087000Y-118225000D03*
D13*
X351112000Y-115150000D03*
X347687000Y-115150000D03*
D14*
X78575000Y-106700000D03*
X79825000Y-106700000D03*
D15*
X76025000Y-103800000D03*
X82375000Y-103800000D03*
D16*
X192203767Y-90391000D03*
X190303767Y-90391000D03*
X192203767Y-90741000D03*
X190303767Y-90741000D03*
X192203767Y-91091000D03*
X190303767Y-91091000D03*
X192203767Y-91441000D03*
X190303767Y-91441000D03*
X192203767Y-91791000D03*
X190303767Y-91791000D03*
X192203767Y-92141000D03*
X190303767Y-92141000D03*
D17*
X191735767Y-89111000D03*
X190771767Y-89111000D03*
X191735767Y-93421000D03*
X190771767Y-93421000D03*
M02*
