%TF.GenerationSoftware,KiCad,Pcbnew,8.0.2-1*%
%TF.CreationDate,2024-08-02T01:43:11+02:00*%
%TF.ProjectId,keyboard,6b657962-6f61-4726-942e-6b696361645f,1.0*%
%TF.SameCoordinates,Original*%
%TF.FileFunction,Plated,1,2,PTH,Drill*%
%TF.FilePolarity,Positive*%
%FSLAX46Y46*%
G04 Gerber Fmt 4.6, Leading zero omitted, Abs format (unit mm)*
G04 Created by KiCad (PCBNEW 8.0.2-1) date 2024-08-02 01:43:11*
%MOMM*%
%LPD*%
G01*
G04 APERTURE LIST*
%TA.AperFunction,ViaDrill*%
%ADD10C,0.203200*%
%TD*%
%TA.AperFunction,ViaDrill*%
%ADD11C,0.254000*%
%TD*%
%TA.AperFunction,ViaDrill*%
%ADD12C,0.300000*%
%TD*%
%TA.AperFunction,ComponentDrill*%
%ADD13C,1.470000*%
%TD*%
%TA.AperFunction,ComponentDrill*%
%ADD14C,2.200000*%
%TD*%
G04 APERTURE END LIST*
D10*
X194056000Y-91275236D03*
X350212746Y-119001742D03*
D11*
X80010000Y-118872000D03*
X101092000Y-89408000D03*
X114554000Y-185420000D03*
X140335000Y-195199000D03*
X142494000Y-188976000D03*
X156718000Y-191262000D03*
X157734000Y-189738000D03*
X158793767Y-189484000D03*
X160703351Y-190135117D03*
X160785767Y-188152383D03*
X162814000Y-192786000D03*
X164293767Y-188468000D03*
X165354000Y-195072000D03*
X166566258Y-192716742D03*
X167285767Y-188722000D03*
X167285767Y-189716578D03*
X167285767Y-191770000D03*
X168301767Y-193193767D03*
X169418000Y-184150000D03*
X169672000Y-188722000D03*
X169926000Y-179578000D03*
X170942000Y-194818000D03*
X170942000Y-195834000D03*
X173093881Y-194818000D03*
X173093881Y-195834000D03*
X178308000Y-189230000D03*
X189484000Y-87376000D03*
X198374000Y-180340000D03*
X207772000Y-180340000D03*
X248920000Y-186436000D03*
X254254000Y-195072000D03*
X255778000Y-181610000D03*
X256794000Y-103378000D03*
X259080000Y-181610000D03*
X264922000Y-200914000D03*
D12*
X90170000Y-184150000D03*
X91440000Y-202438000D03*
X95758000Y-119888000D03*
X97282000Y-195580000D03*
X115062000Y-120142000D03*
X117348000Y-194818000D03*
X131572000Y-159766000D03*
X137668000Y-194310000D03*
X139954000Y-177800000D03*
X161290000Y-141224000D03*
X161544000Y-184912000D03*
X164084000Y-181102000D03*
X169418000Y-198120000D03*
X174752000Y-184404000D03*
X189484000Y-92964000D03*
X210312000Y-96266000D03*
X229616000Y-96266000D03*
X266954000Y-119380000D03*
X343662000Y-93726000D03*
X346456000Y-111760000D03*
X346584125Y-116635756D03*
X346710000Y-120650000D03*
X351536000Y-113030000D03*
D13*
%TO.C,K_SPACE0*%
X64862767Y-101180000D03*
%TO.C,K_SPACE14*%
X64862767Y-120230000D03*
%TO.C,K_SPACE69*%
X64862767Y-196430000D03*
%TO.C,K_SPACE0*%
X64902767Y-100600000D03*
%TO.C,K_SPACE14*%
X64902767Y-119650000D03*
%TO.C,K_SPACE69*%
X64902767Y-195850000D03*
%TO.C,K_SPACE55*%
X67244017Y-177380000D03*
X67284017Y-176800000D03*
%TO.C,K_SPACE28*%
X69625267Y-139280000D03*
X69665267Y-138700000D03*
%TO.C,K_SPACE0*%
X69902767Y-100100000D03*
%TO.C,K_SPACE14*%
X69902767Y-119150000D03*
%TO.C,K_SPACE69*%
X69902767Y-195350000D03*
%TO.C,K_SPACE0*%
X71212767Y-98640000D03*
%TO.C,K_SPACE14*%
X71212767Y-117690000D03*
%TO.C,K_SPACE69*%
X71212767Y-193890000D03*
%TO.C,K_SPACE41*%
X72006517Y-158330000D03*
X72046517Y-157750000D03*
%TO.C,K_SPACE55*%
X72284017Y-176300000D03*
X73594017Y-174840000D03*
%TO.C,K_SPACE28*%
X74665267Y-138200000D03*
X75975267Y-136740000D03*
%TO.C,K_SPACE41*%
X77046517Y-157250000D03*
X78356517Y-155790000D03*
%TO.C,K_SPACE15*%
X83912767Y-120230000D03*
%TO.C,K_SPACE70*%
X83912767Y-196430000D03*
%TO.C,K_SPACE15*%
X83952767Y-119650000D03*
%TO.C,K_SPACE70*%
X83952767Y-195850000D03*
%TO.C,K_SPACE56*%
X88675267Y-177380000D03*
X88715267Y-176800000D03*
%TO.C,K_SPACE15*%
X88952767Y-119150000D03*
%TO.C,K_SPACE70*%
X88952767Y-195350000D03*
%TO.C,K_SPACE15*%
X90262767Y-117690000D03*
%TO.C,K_SPACE70*%
X90262767Y-193890000D03*
%TO.C,K_SPACE1*%
X93437767Y-101180000D03*
%TO.C,K_SPACE29*%
X93437767Y-139280000D03*
%TO.C,K_SPACE1*%
X93477767Y-100600000D03*
%TO.C,K_SPACE29*%
X93477767Y-138700000D03*
%TO.C,K_SPACE56*%
X93715267Y-176300000D03*
X95025267Y-174840000D03*
%TO.C,K_SPACE42*%
X98200267Y-158330000D03*
X98240267Y-157750000D03*
%TO.C,K_SPACE1*%
X98477767Y-100100000D03*
%TO.C,K_SPACE29*%
X98477767Y-138200000D03*
%TO.C,K_SPACE1*%
X99787767Y-98640000D03*
%TO.C,K_SPACE29*%
X99787767Y-136740000D03*
%TO.C,K_SPACE16*%
X102962767Y-120230000D03*
%TO.C,K_SPACE71*%
X102962767Y-196430000D03*
%TO.C,K_SPACE16*%
X103002767Y-119650000D03*
%TO.C,K_SPACE71*%
X103002767Y-195850000D03*
%TO.C,K_SPACE42*%
X103240267Y-157250000D03*
X104550267Y-155790000D03*
%TO.C,K_SPACE57*%
X107725267Y-177380000D03*
X107765267Y-176800000D03*
%TO.C,K_SPACE16*%
X108002767Y-119150000D03*
%TO.C,K_SPACE71*%
X108002767Y-195350000D03*
%TO.C,K_SPACE16*%
X109312767Y-117690000D03*
%TO.C,K_SPACE71*%
X109312767Y-193890000D03*
%TO.C,K_SPACE2*%
X112487767Y-101180000D03*
%TO.C,K_SPACE30*%
X112487767Y-139280000D03*
%TO.C,K_SPACE2*%
X112527767Y-100600000D03*
%TO.C,K_SPACE30*%
X112527767Y-138700000D03*
%TO.C,K_SPACE57*%
X112765267Y-176300000D03*
X114075267Y-174840000D03*
%TO.C,K_SPACE43*%
X117250267Y-158330000D03*
X117290267Y-157750000D03*
%TO.C,K_SPACE2*%
X117527767Y-100100000D03*
%TO.C,K_SPACE30*%
X117527767Y-138200000D03*
%TO.C,K_SPACE2*%
X118837767Y-98640000D03*
%TO.C,K_SPACE30*%
X118837767Y-136740000D03*
%TO.C,K_SPACE17*%
X122012767Y-120230000D03*
X122052767Y-119650000D03*
%TO.C,K_SPACE43*%
X122290267Y-157250000D03*
X123600267Y-155790000D03*
%TO.C,K_SPACE72*%
X124394017Y-196430000D03*
X124434017Y-195850000D03*
%TO.C,K_SPACE58*%
X126775267Y-177380000D03*
X126815267Y-176800000D03*
%TO.C,K_SPACE17*%
X127052767Y-119150000D03*
X128362767Y-117690000D03*
%TO.C,K_SPACE72*%
X129434017Y-195350000D03*
X130744017Y-193890000D03*
%TO.C,K_SPACE3*%
X131537767Y-101180000D03*
%TO.C,K_SPACE31*%
X131537767Y-139280000D03*
%TO.C,K_SPACE3*%
X131577767Y-100600000D03*
%TO.C,K_SPACE31*%
X131577767Y-138700000D03*
%TO.C,K_SPACE58*%
X131815267Y-176300000D03*
X133125267Y-174840000D03*
%TO.C,K_SPACE44*%
X136300267Y-158330000D03*
X136340267Y-157750000D03*
%TO.C,K_SPACE3*%
X136577767Y-100100000D03*
%TO.C,K_SPACE31*%
X136577767Y-138200000D03*
%TO.C,K_SPACE3*%
X137887767Y-98640000D03*
%TO.C,K_SPACE31*%
X137887767Y-136740000D03*
%TO.C,K_SPACE18*%
X141062767Y-120230000D03*
X141102767Y-119650000D03*
%TO.C,K_SPACE44*%
X141340267Y-157250000D03*
X142650267Y-155790000D03*
%TO.C,K_SPACE59*%
X145825267Y-177380000D03*
X145865267Y-176800000D03*
%TO.C,K_SPACE18*%
X146102767Y-119150000D03*
X147412767Y-117690000D03*
%TO.C,K_SPACE4*%
X150587767Y-101180000D03*
%TO.C,K_SPACE32*%
X150587767Y-139280000D03*
%TO.C,K_SPACE4*%
X150627767Y-100600000D03*
%TO.C,K_SPACE32*%
X150627767Y-138700000D03*
%TO.C,K_SPACE59*%
X150865267Y-176300000D03*
X152175267Y-174840000D03*
%TO.C,K_SPACE45*%
X155350267Y-158330000D03*
X155390267Y-157750000D03*
%TO.C,K_SPACE4*%
X155627767Y-100100000D03*
%TO.C,K_SPACE32*%
X155627767Y-138200000D03*
%TO.C,K_SPACE4*%
X156937767Y-98640000D03*
%TO.C,K_SPACE32*%
X156937767Y-136740000D03*
%TO.C,K_SPACE19*%
X160112767Y-120230000D03*
X160152767Y-119650000D03*
%TO.C,K_SPACE45*%
X160390267Y-157250000D03*
X161700267Y-155790000D03*
%TO.C,K_SPACE60*%
X164875267Y-177380000D03*
X164915267Y-176800000D03*
%TO.C,K_SPACE19*%
X165152767Y-119150000D03*
X166462767Y-117690000D03*
%TO.C,K_SPACE33*%
X169637767Y-139280000D03*
X169677767Y-138700000D03*
%TO.C,K_SPACE60*%
X169915267Y-176300000D03*
X171225267Y-174840000D03*
%TO.C,K_SPACE46*%
X174400267Y-158330000D03*
X174440267Y-157750000D03*
%TO.C,K_SPACE33*%
X174677767Y-138200000D03*
X175987767Y-136740000D03*
%TO.C,K_SPACE5*%
X179162767Y-101180000D03*
%TO.C,K_SPACE20*%
X179162767Y-120230000D03*
%TO.C,K_SPACE5*%
X179202767Y-100600000D03*
%TO.C,K_SPACE20*%
X179202767Y-119650000D03*
%TO.C,K_SPACE46*%
X179440267Y-157250000D03*
X180750267Y-155790000D03*
%TO.C,K_SPACE61*%
X183925267Y-177380000D03*
X183965267Y-176800000D03*
%TO.C,K_SPACE5*%
X184202767Y-100100000D03*
%TO.C,K_SPACE20*%
X184202767Y-119150000D03*
%TO.C,K_SPACE5*%
X185512767Y-98640000D03*
%TO.C,K_SPACE20*%
X185512767Y-117690000D03*
%TO.C,K_SPACE34*%
X188687767Y-139280000D03*
X188727767Y-138700000D03*
%TO.C,K_SPACE61*%
X188965267Y-176300000D03*
X190275267Y-174840000D03*
%TO.C,K_SPACE47*%
X193450267Y-158330000D03*
X193490267Y-157750000D03*
%TO.C,K_SPACE34*%
X193727767Y-138200000D03*
X195037767Y-136740000D03*
%TO.C,K_SPACE73*%
X195831517Y-196430000D03*
X195871517Y-195850000D03*
%TO.C,K_SPACE6*%
X198212767Y-101180000D03*
%TO.C,K_SPACE21*%
X198212767Y-120230000D03*
%TO.C,K_SPACE6*%
X198252767Y-100600000D03*
%TO.C,K_SPACE21*%
X198252767Y-119650000D03*
%TO.C,K_SPACE47*%
X198490267Y-157250000D03*
X199800267Y-155790000D03*
%TO.C,K_SPACE73*%
X200871517Y-195350000D03*
X202181517Y-193890000D03*
%TO.C,K_SPACE62*%
X202975267Y-177380000D03*
X203015267Y-176800000D03*
%TO.C,K_SPACE6*%
X203252767Y-100100000D03*
%TO.C,K_SPACE21*%
X203252767Y-119150000D03*
%TO.C,K_SPACE6*%
X204562767Y-98640000D03*
%TO.C,K_SPACE21*%
X204562767Y-117690000D03*
%TO.C,K_SPACE35*%
X207737767Y-139280000D03*
X207777767Y-138700000D03*
%TO.C,K_SPACE62*%
X208015267Y-176300000D03*
X209325267Y-174840000D03*
%TO.C,K_SPACE48*%
X212500267Y-158330000D03*
X212540267Y-157750000D03*
%TO.C,K_SPACE35*%
X212777767Y-138200000D03*
X214087767Y-136740000D03*
%TO.C,K_SPACE7*%
X217250000Y-101180000D03*
%TO.C,K_SPACE22*%
X217262767Y-120230000D03*
%TO.C,K_SPACE7*%
X217290000Y-100600000D03*
%TO.C,K_SPACE22*%
X217302767Y-119650000D03*
%TO.C,K_SPACE48*%
X217540267Y-157250000D03*
X218850267Y-155790000D03*
%TO.C,K_SPACE63*%
X222025267Y-177380000D03*
X222065267Y-176800000D03*
%TO.C,K_SPACE7*%
X222290000Y-100100000D03*
%TO.C,K_SPACE22*%
X222302767Y-119150000D03*
%TO.C,K_SPACE7*%
X223600000Y-98640000D03*
%TO.C,K_SPACE22*%
X223612767Y-117690000D03*
%TO.C,K_SPACE36*%
X226787767Y-139280000D03*
X226827767Y-138700000D03*
%TO.C,K_SPACE63*%
X227065267Y-176300000D03*
X228375267Y-174840000D03*
%TO.C,K_SPACE49*%
X231550267Y-158330000D03*
X231590267Y-157750000D03*
%TO.C,K_SPACE36*%
X231827767Y-138200000D03*
X233137767Y-136740000D03*
%TO.C,K_SPACE8*%
X236312767Y-101180000D03*
%TO.C,K_SPACE23*%
X236312767Y-120230000D03*
%TO.C,K_SPACE8*%
X236352767Y-100600000D03*
%TO.C,K_SPACE23*%
X236352767Y-119650000D03*
%TO.C,K_SPACE49*%
X236590267Y-157250000D03*
X237900267Y-155790000D03*
%TO.C,K_SPACE64*%
X241075267Y-177380000D03*
X241115267Y-176800000D03*
%TO.C,K_SPACE8*%
X241352767Y-100100000D03*
%TO.C,K_SPACE23*%
X241352767Y-119150000D03*
%TO.C,K_SPACE8*%
X242662767Y-98640000D03*
%TO.C,K_SPACE23*%
X242662767Y-117690000D03*
%TO.C,K_SPACE37*%
X245837767Y-139280000D03*
X245877767Y-138700000D03*
%TO.C,K_SPACE64*%
X246115267Y-176300000D03*
X247425267Y-174840000D03*
%TO.C,K_SPACE50*%
X250600267Y-158330000D03*
X250640267Y-157750000D03*
%TO.C,K_SPACE37*%
X250877767Y-138200000D03*
X252187767Y-136740000D03*
%TO.C,K_SPACE24*%
X255362767Y-120230000D03*
X255402767Y-119650000D03*
%TO.C,K_SPACE50*%
X255640267Y-157250000D03*
X256950267Y-155790000D03*
%TO.C,K_SPACE65*%
X260125267Y-177380000D03*
X260165267Y-176800000D03*
%TO.C,K_SPACE24*%
X260402767Y-119150000D03*
X261712767Y-117690000D03*
%TO.C,K_SPACE9*%
X264887767Y-101180000D03*
%TO.C,K_SPACE38*%
X264887767Y-139280000D03*
%TO.C,K_SPACE9*%
X264927767Y-100600000D03*
%TO.C,K_SPACE38*%
X264927767Y-138700000D03*
%TO.C,K_SPACE65*%
X265165267Y-176300000D03*
X266475267Y-174840000D03*
%TO.C,K_SPACE74*%
X267269017Y-196430000D03*
X267309017Y-195850000D03*
%TO.C,K_SPACE51*%
X269650267Y-158330000D03*
X269690267Y-157750000D03*
%TO.C,K_SPACE9*%
X269927767Y-100100000D03*
%TO.C,K_SPACE38*%
X269927767Y-138200000D03*
%TO.C,K_SPACE9*%
X271237767Y-98640000D03*
%TO.C,K_SPACE38*%
X271237767Y-136740000D03*
%TO.C,K_SPACE74*%
X272309017Y-195350000D03*
X273619017Y-193890000D03*
%TO.C,K_SPACE25*%
X274412767Y-120230000D03*
X274452767Y-119650000D03*
%TO.C,K_SPACE51*%
X274690267Y-157250000D03*
X276000267Y-155790000D03*
%TO.C,K_SPACE66*%
X279175267Y-177380000D03*
X279215267Y-176800000D03*
%TO.C,K_SPACE25*%
X279452767Y-119150000D03*
X280762767Y-117690000D03*
%TO.C,K_SPACE10*%
X283937767Y-101180000D03*
%TO.C,K_SPACE39*%
X283937767Y-139280000D03*
%TO.C,K_SPACE10*%
X283977767Y-100600000D03*
%TO.C,K_SPACE39*%
X283977767Y-138700000D03*
%TO.C,K_SPACE66*%
X284215267Y-176300000D03*
X285525267Y-174840000D03*
%TO.C,K_SPACE52*%
X288700267Y-158330000D03*
%TO.C,K_SPACE75*%
X288700267Y-196430000D03*
%TO.C,K_SPACE52*%
X288740267Y-157750000D03*
%TO.C,K_SPACE75*%
X288740267Y-195850000D03*
%TO.C,K_SPACE10*%
X288977767Y-100100000D03*
%TO.C,K_SPACE39*%
X288977767Y-138200000D03*
%TO.C,K_SPACE10*%
X290287767Y-98640000D03*
%TO.C,K_SPACE39*%
X290287767Y-136740000D03*
%TO.C,K_SPACE26*%
X293462767Y-120230000D03*
X293502767Y-119650000D03*
%TO.C,K_SPACE52*%
X293740267Y-157250000D03*
%TO.C,K_SPACE75*%
X293740267Y-195350000D03*
%TO.C,K_SPACE52*%
X295050267Y-155790000D03*
%TO.C,K_SPACE75*%
X295050267Y-193890000D03*
%TO.C,K_SPACE26*%
X298502767Y-119150000D03*
X299812767Y-117690000D03*
%TO.C,K_SPACE11*%
X302987767Y-101180000D03*
%TO.C,K_SPACE40*%
X302987767Y-139280000D03*
%TO.C,K_SPACE67*%
X302987767Y-177380000D03*
%TO.C,K_SPACE11*%
X303027767Y-100600000D03*
%TO.C,K_SPACE40*%
X303027767Y-138700000D03*
%TO.C,K_SPACE67*%
X303027767Y-176800000D03*
%TO.C,K_SPACE53*%
X307750267Y-158330000D03*
X307790267Y-157750000D03*
%TO.C,K_SPACE11*%
X308027767Y-100100000D03*
%TO.C,K_SPACE40*%
X308027767Y-138200000D03*
%TO.C,K_SPACE67*%
X308027767Y-176300000D03*
%TO.C,K_SPACE11*%
X309337767Y-98640000D03*
%TO.C,K_SPACE40*%
X309337767Y-136740000D03*
%TO.C,K_SPACE67*%
X309337767Y-174840000D03*
%TO.C,K_SPACE76*%
X312512767Y-196430000D03*
X312552767Y-195850000D03*
%TO.C,K_SPACE53*%
X312790267Y-157250000D03*
X314100267Y-155790000D03*
%TO.C,K_SPACE76*%
X317552767Y-195350000D03*
X318862767Y-193890000D03*
%TO.C,K_SPACE12*%
X322037767Y-101180000D03*
%TO.C,K_SPACE27*%
X322037767Y-120230000D03*
%TO.C,K_SPACE12*%
X322077767Y-100600000D03*
%TO.C,K_SPACE27*%
X322077767Y-119650000D03*
%TO.C,K_SPACE12*%
X327077767Y-100100000D03*
%TO.C,K_SPACE27*%
X327077767Y-119150000D03*
%TO.C,K_SPACE12*%
X328387767Y-98640000D03*
%TO.C,K_SPACE27*%
X328387767Y-117690000D03*
%TO.C,K_SPACE54*%
X329221517Y-148225000D03*
%TO.C,K_SPACE68*%
X331562767Y-177380000D03*
%TO.C,K_SPACE77*%
X331562767Y-196430000D03*
%TO.C,K_SPACE68*%
X331602767Y-176800000D03*
%TO.C,K_SPACE77*%
X331602767Y-195850000D03*
%TO.C,K_SPACE54*%
X334221517Y-147725000D03*
X334261517Y-139915000D03*
X335721517Y-141225000D03*
X336221517Y-146225000D03*
%TO.C,K_SPACE68*%
X336602767Y-176300000D03*
%TO.C,K_SPACE77*%
X336602767Y-195350000D03*
%TO.C,K_SPACE54*%
X336801517Y-146265000D03*
%TO.C,K_SPACE68*%
X337912767Y-174840000D03*
%TO.C,K_SPACE77*%
X337912767Y-193890000D03*
%TO.C,K_SPACE78*%
X350612767Y-196430000D03*
X350652767Y-195850000D03*
X355652767Y-195350000D03*
X356962767Y-193890000D03*
D14*
%TO.C,REF\u002A\u002A*%
X60463767Y-124736000D03*
X60463767Y-162756000D03*
X77433767Y-200836000D03*
X81773767Y-86496000D03*
X124543767Y-124906000D03*
X138863767Y-162756000D03*
X166543767Y-200836000D03*
X191263767Y-124906000D03*
X215013767Y-162756000D03*
X253443767Y-86496000D03*
X257713767Y-200836000D03*
X267373767Y-124906000D03*
X291313767Y-162756000D03*
X320003767Y-143786000D03*
X337500000Y-86516000D03*
X344213767Y-200836000D03*
X361963767Y-162756000D03*
X362253767Y-124906000D03*
M02*
