%TF.GenerationSoftware,KiCad,Pcbnew,8.0.2-1*%
%TF.CreationDate,2024-08-03T10:32:13+02:00*%
%TF.ProjectId,dev-board,6465762d-626f-4617-9264-2e6b69636164,1.0*%
%TF.SameCoordinates,Original*%
%TF.FileFunction,Paste,Top*%
%TF.FilePolarity,Positive*%
%FSLAX46Y46*%
G04 Gerber Fmt 4.6, Leading zero omitted, Abs format (unit mm)*
G04 Created by KiCad (PCBNEW 8.0.2-1) date 2024-08-03 10:32:13*
%MOMM*%
%LPD*%
G01*
G04 APERTURE LIST*
G04 Aperture macros list*
%AMRoundRect*
0 Rectangle with rounded corners*
0 $1 Rounding radius*
0 $2 $3 $4 $5 $6 $7 $8 $9 X,Y pos of 4 corners*
0 Add a 4 corners polygon primitive as box body*
4,1,4,$2,$3,$4,$5,$6,$7,$8,$9,$2,$3,0*
0 Add four circle primitives for the rounded corners*
1,1,$1+$1,$2,$3*
1,1,$1+$1,$4,$5*
1,1,$1+$1,$6,$7*
1,1,$1+$1,$8,$9*
0 Add four rect primitives between the rounded corners*
20,1,$1+$1,$2,$3,$4,$5,0*
20,1,$1+$1,$4,$5,$6,$7,0*
20,1,$1+$1,$6,$7,$8,$9,0*
20,1,$1+$1,$8,$9,$2,$3,0*%
G04 Aperture macros list end*
%ADD10R,0.300000X1.300000*%
%ADD11R,1.800000X2.200000*%
%ADD12RoundRect,0.243750X0.456250X-0.243750X0.456250X0.243750X-0.456250X0.243750X-0.456250X-0.243750X0*%
G04 APERTURE END LIST*
D10*
%TO.C,J157*%
X142015000Y-137850000D03*
X142515000Y-137850000D03*
X143015000Y-137850000D03*
X143515000Y-137850000D03*
X144015000Y-137850000D03*
X144515000Y-137850000D03*
X145015000Y-137850000D03*
X145515000Y-137850000D03*
X146015000Y-137850000D03*
X146515000Y-137850000D03*
X147015000Y-137850000D03*
X147515000Y-137850000D03*
X148015000Y-137850000D03*
X148515000Y-137850000D03*
X149015000Y-137850000D03*
X149515000Y-137850000D03*
X150015000Y-137850000D03*
X150515000Y-137850000D03*
X151015000Y-137850000D03*
X151515000Y-137850000D03*
X152015000Y-137850000D03*
X152515000Y-137850000D03*
X153015000Y-137850000D03*
X153515000Y-137850000D03*
X154015000Y-137850000D03*
X154515000Y-137850000D03*
X155015000Y-137850000D03*
X155515000Y-137850000D03*
X156015000Y-137850000D03*
X156515000Y-137850000D03*
X157015000Y-137850000D03*
X157515000Y-137850000D03*
X158015000Y-137850000D03*
X158515000Y-137850000D03*
X159015000Y-137850000D03*
X159515000Y-137850000D03*
X160015000Y-137850000D03*
X160515000Y-137850000D03*
X161015000Y-137850000D03*
X161515000Y-137850000D03*
D11*
X163415000Y-141100000D03*
X140115000Y-141100000D03*
%TD*%
D12*
%TO.C,D1*%
X134620000Y-142565439D03*
X134620000Y-140690439D03*
%TD*%
M02*
