%TF.GenerationSoftware,KiCad,Pcbnew,8.0.2-1*%
%TF.CreationDate,2024-08-03T10:32:13+02:00*%
%TF.ProjectId,dev-board,6465762d-626f-4617-9264-2e6b69636164,1.0*%
%TF.SameCoordinates,Original*%
%TF.FileFunction,Copper,L1,Top*%
%TF.FilePolarity,Positive*%
%FSLAX46Y46*%
G04 Gerber Fmt 4.6, Leading zero omitted, Abs format (unit mm)*
G04 Created by KiCad (PCBNEW 8.0.2-1) date 2024-08-03 10:32:13*
%MOMM*%
%LPD*%
G01*
G04 APERTURE LIST*
G04 Aperture macros list*
%AMRoundRect*
0 Rectangle with rounded corners*
0 $1 Rounding radius*
0 $2 $3 $4 $5 $6 $7 $8 $9 X,Y pos of 4 corners*
0 Add a 4 corners polygon primitive as box body*
4,1,4,$2,$3,$4,$5,$6,$7,$8,$9,$2,$3,0*
0 Add four circle primitives for the rounded corners*
1,1,$1+$1,$2,$3*
1,1,$1+$1,$4,$5*
1,1,$1+$1,$6,$7*
1,1,$1+$1,$8,$9*
0 Add four rect primitives between the rounded corners*
20,1,$1+$1,$2,$3,$4,$5,0*
20,1,$1+$1,$4,$5,$6,$7,0*
20,1,$1+$1,$6,$7,$8,$9,0*
20,1,$1+$1,$8,$9,$2,$3,0*%
G04 Aperture macros list end*
%TA.AperFunction,ComponentPad*%
%ADD10R,1.700000X1.700000*%
%TD*%
%TA.AperFunction,ComponentPad*%
%ADD11O,1.700000X1.700000*%
%TD*%
%TA.AperFunction,SMDPad,CuDef*%
%ADD12R,0.300000X1.300000*%
%TD*%
%TA.AperFunction,SMDPad,CuDef*%
%ADD13R,1.800000X2.200000*%
%TD*%
%TA.AperFunction,SMDPad,CuDef*%
%ADD14RoundRect,0.243750X0.456250X-0.243750X0.456250X0.243750X-0.456250X0.243750X-0.456250X-0.243750X0*%
%TD*%
%TA.AperFunction,ViaPad*%
%ADD15C,0.800000*%
%TD*%
%TA.AperFunction,Conductor*%
%ADD16C,0.200000*%
%TD*%
%TA.AperFunction,Conductor*%
%ADD17C,0.250000*%
%TD*%
G04 APERTURE END LIST*
D10*
%TO.P,J90,1,Pin_1*%
%TO.N,Net-(J103-Pin_2)*%
X189865000Y-94620000D03*
D11*
%TO.P,J90,2,Pin_2*%
%TO.N,PIN_27 *%
X189865000Y-92080000D03*
%TD*%
D10*
%TO.P,J69,1,Pin_1*%
%TO.N,PIN_7 *%
X128905000Y-85730000D03*
D11*
%TO.P,J69,2,Pin_2*%
%TO.N,Net-(J56-Pin_1)*%
X128905000Y-83190000D03*
%TD*%
D10*
%TO.P,J97,1,Pin_1*%
%TO.N,PIN_17 *%
X144145000Y-99705000D03*
D11*
%TO.P,J97,2,Pin_2*%
%TO.N,Net-(J84-Pin_1)*%
X144145000Y-97165000D03*
%TD*%
D10*
%TO.P,J28,1,Pin_1*%
%TO.N,Net-(J28-Pin_1)*%
X113665000Y-66675000D03*
D11*
%TO.P,J28,2,Pin_2*%
%TO.N,PIN_1 *%
X113665000Y-64135000D03*
%TD*%
D12*
%TO.P,J157,1,Pin_1*%
%TO.N,PIN_1 *%
X142015000Y-137850000D03*
%TO.P,J157,2,Pin_2*%
%TO.N,PIN_2 *%
X142515000Y-137850000D03*
%TO.P,J157,3,Pin_3*%
%TO.N,PIN_3 *%
X143015000Y-137850000D03*
%TO.P,J157,4,Pin_4*%
%TO.N,unconnected-(J157-Pin_4-Pad4)*%
X143515000Y-137850000D03*
%TO.P,J157,5,Pin_5*%
%TO.N,CAPS_LOCK_LED+*%
X144015000Y-137850000D03*
%TO.P,J157,6,Pin_6*%
X144515000Y-137850000D03*
%TO.P,J157,7,Pin_7*%
%TO.N,PIN_7 *%
X145015000Y-137850000D03*
%TO.P,J157,8,Pin_8*%
%TO.N,PIN_8 *%
X145515000Y-137850000D03*
%TO.P,J157,9,Pin_9*%
%TO.N,PIN_9 *%
X146015000Y-137850000D03*
%TO.P,J157,10,Pin_10*%
%TO.N,CAPS_LOCK_LED-*%
X146515000Y-137850000D03*
%TO.P,J157,11,Pin_11*%
%TO.N,PIN_11 *%
X147015000Y-137850000D03*
%TO.P,J157,12,Pin_12*%
%TO.N,unconnected-(J157-Pin_12-Pad12)*%
X147515000Y-137850000D03*
%TO.P,J157,13,Pin_13*%
%TO.N,PIN_13 *%
X148015000Y-137850000D03*
%TO.P,J157,14,Pin_14*%
%TO.N,PIN_14 *%
X148515000Y-137850000D03*
%TO.P,J157,15,Pin_15*%
%TO.N,PIN_15 *%
X149015000Y-137850000D03*
%TO.P,J157,16,Pin_16*%
%TO.N,PIN_16 *%
X149515000Y-137850000D03*
%TO.P,J157,17,Pin_17*%
%TO.N,PIN_17 *%
X150015000Y-137850000D03*
%TO.P,J157,18,Pin_18*%
%TO.N,PIN_18 *%
X150515000Y-137850000D03*
%TO.P,J157,19,Pin_19*%
%TO.N,PIN_19 *%
X151015000Y-137850000D03*
%TO.P,J157,20,Pin_20*%
%TO.N,PIN_20 *%
X151515000Y-137850000D03*
%TO.P,J157,21,Pin_21*%
%TO.N,PIN_21 *%
X152015000Y-137850000D03*
%TO.P,J157,22,Pin_22*%
%TO.N,PIN_22 *%
X152515000Y-137850000D03*
%TO.P,J157,23,Pin_23*%
%TO.N,PIN_23 *%
X153015000Y-137850000D03*
%TO.P,J157,24,Pin_24*%
%TO.N,PIN_24 *%
X153515000Y-137850000D03*
%TO.P,J157,25,Pin_25*%
%TO.N,PIN_25 *%
X154015000Y-137850000D03*
%TO.P,J157,26,Pin_26*%
%TO.N,PIN_26 *%
X154515000Y-137850000D03*
%TO.P,J157,27,Pin_27*%
%TO.N,PIN_27 *%
X155015000Y-137850000D03*
%TO.P,J157,28,Pin_28*%
%TO.N,PIN_28 *%
X155515000Y-137850000D03*
%TO.P,J157,29,Pin_29*%
%TO.N,PIN_29 *%
X156015000Y-137850000D03*
%TO.P,J157,30,Pin_30*%
%TO.N,PIN_30 *%
X156515000Y-137850000D03*
%TO.P,J157,31,Pin_31*%
%TO.N,PWR_1 *%
X157015000Y-137850000D03*
%TO.P,J157,32,Pin_32*%
%TO.N,PWR_2 *%
X157515000Y-137850000D03*
%TO.P,J157,33,Pin_33*%
%TO.N,unconnected-(J157-Pin_33-Pad33)*%
X158015000Y-137850000D03*
%TO.P,J157,34,Pin_34*%
%TO.N,unconnected-(J157-Pin_34-Pad34)*%
X158515000Y-137850000D03*
%TO.P,J157,35,Pin_35*%
%TO.N,unconnected-(J157-Pin_35-Pad35)*%
X159015000Y-137850000D03*
%TO.P,J157,36,Pin_36*%
%TO.N,unconnected-(J157-Pin_36-Pad36)*%
X159515000Y-137850000D03*
%TO.P,J157,37,Pin_37*%
%TO.N,unconnected-(J157-Pin_37-Pad37)*%
X160015000Y-137850000D03*
%TO.P,J157,38,Pin_38*%
%TO.N,unconnected-(J157-Pin_38-Pad38)*%
X160515000Y-137850000D03*
%TO.P,J157,39,Pin_39*%
%TO.N,unconnected-(J157-Pin_39-Pad39)*%
X161015000Y-137850000D03*
%TO.P,J157,40,Pin_40*%
%TO.N,unconnected-(J157-Pin_40-Pad40)*%
X161515000Y-137850000D03*
D13*
%TO.P,J157,MP*%
%TO.N,N/C*%
X163415000Y-141100000D03*
X140115000Y-141100000D03*
%TD*%
D10*
%TO.P,J63,1,Pin_1*%
%TO.N,Net-(J63-Pin_1)*%
X182245000Y-80650000D03*
D11*
%TO.P,J63,2,Pin_2*%
%TO.N,PIN_15 *%
X182245000Y-78110000D03*
%TD*%
D10*
%TO.P,J81,1,Pin_1*%
%TO.N,Net-(J81-Pin_1)*%
X121285000Y-94625000D03*
D11*
%TO.P,J81,2,Pin_2*%
%TO.N,PIN_18 *%
X121285000Y-92085000D03*
%TD*%
D10*
%TO.P,J49,1,Pin_1*%
%TO.N,PIN_30 *%
X174625000Y-71760000D03*
D11*
%TO.P,J49,2,Pin_2*%
%TO.N,Net-(J36-Pin_1)*%
X174625000Y-69220000D03*
%TD*%
D10*
%TO.P,J22,1,Pin_1*%
%TO.N,PIN_28 *%
X167005000Y-57785000D03*
D11*
%TO.P,J22,2,Pin_2*%
%TO.N,Net-(J22-Pin_2)*%
X167005000Y-55245000D03*
%TD*%
D10*
%TO.P,J118,1,Pin_1*%
%TO.N,PIN_9 *%
X106045000Y-113665000D03*
D11*
%TO.P,J118,2,Pin_2*%
%TO.N,Net-(J105-Pin_1)*%
X106045000Y-111125000D03*
%TD*%
D10*
%TO.P,J143,1,Pin_1*%
%TO.N,Net-(J143-Pin_1)*%
X189865000Y-122560000D03*
D11*
%TO.P,J143,2,Pin_2*%
%TO.N,PIN_19 *%
X189865000Y-120020000D03*
%TD*%
D10*
%TO.P,J116,1,Pin_1*%
%TO.N,Net-(J116-Pin_1)*%
X189865000Y-108595000D03*
D11*
%TO.P,J116,2,Pin_2*%
%TO.N,PIN_27 *%
X189865000Y-106055000D03*
%TD*%
D10*
%TO.P,J37,1,Pin_1*%
%TO.N,Net-(J37-Pin_1)*%
X182245000Y-66680000D03*
D11*
%TO.P,J37,2,Pin_2*%
%TO.N,PIN_27 *%
X182245000Y-64140000D03*
%TD*%
D10*
%TO.P,J122,1,Pin_1*%
%TO.N,PIN_8 *%
X136525000Y-113675000D03*
D11*
%TO.P,J122,2,Pin_2*%
%TO.N,Net-(J109-Pin_1)*%
X136525000Y-111135000D03*
%TD*%
D10*
%TO.P,J68,1,Pin_1*%
%TO.N,PIN_3 *%
X121285000Y-85730000D03*
D11*
%TO.P,J68,2,Pin_2*%
%TO.N,Net-(J55-Pin_1)*%
X121285000Y-83190000D03*
%TD*%
D10*
%TO.P,J65,1,Pin_1*%
%TO.N,Net-(J65-Pin_1)*%
X197485000Y-80650000D03*
D11*
%TO.P,J65,2,Pin_2*%
%TO.N,PIN_19 *%
X197485000Y-78110000D03*
%TD*%
D10*
%TO.P,J27,1,Pin_1*%
%TO.N,Net-(J27-Pin_1)*%
X106045000Y-66675000D03*
D11*
%TO.P,J27,2,Pin_2*%
%TO.N,PIN_19 *%
X106045000Y-64135000D03*
%TD*%
D10*
%TO.P,J102,1,Pin_1*%
%TO.N,PIN_30 *%
X182245000Y-99705000D03*
D11*
%TO.P,J102,2,Pin_2*%
%TO.N,Net-(J102-Pin_2)*%
X182245000Y-97165000D03*
%TD*%
D10*
%TO.P,J14,1,Pin_1*%
%TO.N,PIN_7 *%
X106045000Y-57785000D03*
D11*
%TO.P,J14,2,Pin_2*%
%TO.N,Net-(J1-Pin_1)*%
X106045000Y-55245000D03*
%TD*%
D10*
%TO.P,J151,1,Pin_1*%
%TO.N,PIN_23 *%
X151765000Y-127640000D03*
D11*
%TO.P,J151,2,Pin_2*%
%TO.N,Net-(J138-Pin_1)*%
X151765000Y-125100000D03*
%TD*%
D10*
%TO.P,J115,1,Pin_1*%
%TO.N,Net-(J115-Pin_1)*%
X182245000Y-108595000D03*
D11*
%TO.P,J115,2,Pin_2*%
%TO.N,PIN_20 *%
X182245000Y-106055000D03*
%TD*%
D10*
%TO.P,J107,1,Pin_1*%
%TO.N,Net-(J107-Pin_1)*%
X121285000Y-108595000D03*
D11*
%TO.P,J107,2,Pin_2*%
%TO.N,PIN_20 *%
X121285000Y-106055000D03*
%TD*%
D10*
%TO.P,J50,1,Pin_1*%
%TO.N,PIN_23 *%
X182245000Y-71760000D03*
D11*
%TO.P,J50,2,Pin_2*%
%TO.N,Net-(J37-Pin_1)*%
X182245000Y-69220000D03*
%TD*%
D10*
%TO.P,J29,1,Pin_1*%
%TO.N,Net-(J29-Pin_1)*%
X121285000Y-66680000D03*
D11*
%TO.P,J29,2,Pin_2*%
%TO.N,PIN_1 *%
X121285000Y-64140000D03*
%TD*%
D10*
%TO.P,J41,1,Pin_1*%
%TO.N,PIN_3 *%
X113665000Y-71755000D03*
D11*
%TO.P,J41,2,Pin_2*%
%TO.N,Net-(J28-Pin_1)*%
X113665000Y-69215000D03*
%TD*%
D10*
%TO.P,J156,1,Pin_1*%
%TO.N,PIN_30 *%
X189865000Y-127645000D03*
D11*
%TO.P,J156,2,Pin_2*%
%TO.N,Net-(J143-Pin_1)*%
X189865000Y-125105000D03*
%TD*%
D10*
%TO.P,J139,1,Pin_1*%
%TO.N,Net-(J139-Pin_1)*%
X159385000Y-122560000D03*
D11*
%TO.P,J139,2,Pin_2*%
%TO.N,PIN_3 *%
X159385000Y-120020000D03*
%TD*%
D10*
%TO.P,J155,1,Pin_1*%
%TO.N,PIN_28 *%
X182245000Y-127645000D03*
D11*
%TO.P,J155,2,Pin_2*%
%TO.N,Net-(J142-Pin_1)*%
X182245000Y-125105000D03*
%TD*%
D10*
%TO.P,J8,1,Pin_1*%
%TO.N,Net-(J21-Pin_2)*%
X159385000Y-52705000D03*
D11*
%TO.P,J8,2,Pin_2*%
%TO.N,PIN_26 *%
X159385000Y-50165000D03*
%TD*%
D10*
%TO.P,J55,1,Pin_1*%
%TO.N,Net-(J55-Pin_1)*%
X121285000Y-80655000D03*
D11*
%TO.P,J55,2,Pin_2*%
%TO.N,PIN_15 *%
X121285000Y-78115000D03*
%TD*%
D10*
%TO.P,J36,1,Pin_1*%
%TO.N,Net-(J36-Pin_1)*%
X174625000Y-66680000D03*
D11*
%TO.P,J36,2,Pin_2*%
%TO.N,PIN_9 *%
X174625000Y-64140000D03*
%TD*%
D10*
%TO.P,J76,1,Pin_1*%
%TO.N,PIN_30 *%
X182245000Y-85730000D03*
D11*
%TO.P,J76,2,Pin_2*%
%TO.N,Net-(J63-Pin_1)*%
X182245000Y-83190000D03*
%TD*%
D10*
%TO.P,J134,1,Pin_1*%
%TO.N,Net-(J134-Pin_1)*%
X121285000Y-122560000D03*
D11*
%TO.P,J134,2,Pin_2*%
%TO.N,PIN_1 *%
X121285000Y-120020000D03*
%TD*%
D10*
%TO.P,J152,1,Pin_1*%
%TO.N,PIN_24 *%
X159385000Y-127640000D03*
D11*
%TO.P,J152,2,Pin_2*%
%TO.N,Net-(J139-Pin_1)*%
X159385000Y-125100000D03*
%TD*%
D10*
%TO.P,J25,1,Pin_1*%
%TO.N,PIN_3 *%
X189865000Y-57785000D03*
D11*
%TO.P,J25,2,Pin_2*%
%TO.N,Net-(J12-Pin_1)*%
X189865000Y-55245000D03*
%TD*%
D10*
%TO.P,J21,1,Pin_1*%
%TO.N,PIN_25 *%
X159385000Y-57785000D03*
D11*
%TO.P,J21,2,Pin_2*%
%TO.N,Net-(J21-Pin_2)*%
X159385000Y-55245000D03*
%TD*%
D10*
%TO.P,J136,1,Pin_1*%
%TO.N,Net-(J136-Pin_1)*%
X136525000Y-122560000D03*
D11*
%TO.P,J136,2,Pin_2*%
%TO.N,PIN_20 *%
X136525000Y-120020000D03*
%TD*%
D10*
%TO.P,J101,1,Pin_1*%
%TO.N,PIN_28 *%
X174625000Y-99705000D03*
D11*
%TO.P,J101,2,Pin_2*%
%TO.N,Net-(J101-Pin_2)*%
X174625000Y-97165000D03*
%TD*%
D10*
%TO.P,J58,1,Pin_1*%
%TO.N,Net-(J58-Pin_1)*%
X144145000Y-80650000D03*
D11*
%TO.P,J58,2,Pin_2*%
%TO.N,PIN_2 *%
X144145000Y-78110000D03*
%TD*%
D10*
%TO.P,J38,1,Pin_1*%
%TO.N,Net-(J38-Pin_1)*%
X189865000Y-66685000D03*
D11*
%TO.P,J38,2,Pin_2*%
%TO.N,PIN_27 *%
X189865000Y-64145000D03*
%TD*%
D10*
%TO.P,J149,1,Pin_1*%
%TO.N,PIN_23 *%
X136525000Y-127645000D03*
D11*
%TO.P,J149,2,Pin_2*%
%TO.N,Net-(J136-Pin_1)*%
X136525000Y-125105000D03*
%TD*%
D10*
%TO.P,J89,1,Pin_1*%
%TO.N,Net-(J102-Pin_2)*%
X182245000Y-94620000D03*
D11*
%TO.P,J89,2,Pin_2*%
%TO.N,PIN_18 *%
X182245000Y-92080000D03*
%TD*%
D10*
%TO.P,J13,1,Pin_1*%
%TO.N,Net-(J13-Pin_1)*%
X197485000Y-52705000D03*
D11*
%TO.P,J13,2,Pin_2*%
%TO.N,PIN_19 *%
X197485000Y-50165000D03*
%TD*%
D10*
%TO.P,J96,1,Pin_1*%
%TO.N,PIN_8 *%
X136525000Y-99705000D03*
D11*
%TO.P,J96,2,Pin_2*%
%TO.N,Net-(J83-Pin_1)*%
X136525000Y-97165000D03*
%TD*%
D10*
%TO.P,J18,1,Pin_1*%
%TO.N,PIN_17 *%
X136525000Y-57785000D03*
D11*
%TO.P,J18,2,Pin_2*%
%TO.N,Net-(J18-Pin_2)*%
X136525000Y-55245000D03*
%TD*%
D10*
%TO.P,J19,1,Pin_1*%
%TO.N,PIN_21 *%
X144145000Y-57785000D03*
D11*
%TO.P,J19,2,Pin_2*%
%TO.N,Net-(J19-Pin_2)*%
X144145000Y-55245000D03*
%TD*%
D10*
%TO.P,J57,1,Pin_1*%
%TO.N,Net-(J57-Pin_1)*%
X136525000Y-80655000D03*
D11*
%TO.P,J57,2,Pin_2*%
%TO.N,PIN_16 *%
X136525000Y-78115000D03*
%TD*%
D10*
%TO.P,J79,1,Pin_1*%
%TO.N,Net-(J79-Pin_1)*%
X106045000Y-94615000D03*
D11*
%TO.P,J79,2,Pin_2*%
%TO.N,PIN_27 *%
X106045000Y-92075000D03*
%TD*%
D10*
%TO.P,J44,1,Pin_1*%
%TO.N,PIN_17 *%
X136525000Y-71760000D03*
D11*
%TO.P,J44,2,Pin_2*%
%TO.N,Net-(J31-Pin_1)*%
X136525000Y-69220000D03*
%TD*%
D10*
%TO.P,J35,1,Pin_1*%
%TO.N,Net-(J35-Pin_1)*%
X167005000Y-66680000D03*
D11*
%TO.P,J35,2,Pin_2*%
%TO.N,PIN_1 *%
X167005000Y-64140000D03*
%TD*%
D10*
%TO.P,J45,1,Pin_1*%
%TO.N,PIN_21 *%
X144145000Y-71760000D03*
D11*
%TO.P,J45,2,Pin_2*%
%TO.N,Net-(J32-Pin_1)*%
X144145000Y-69220000D03*
%TD*%
D10*
%TO.P,J70,1,Pin_1*%
%TO.N,PIN_8 *%
X136525000Y-85735000D03*
D11*
%TO.P,J70,2,Pin_2*%
%TO.N,Net-(J57-Pin_1)*%
X136525000Y-83195000D03*
%TD*%
D10*
%TO.P,J67,1,Pin_1*%
%TO.N,PIN_7 *%
X113665000Y-85730000D03*
D11*
%TO.P,J67,2,Pin_2*%
%TO.N,Net-(J54-Pin_1)*%
X113665000Y-83190000D03*
%TD*%
D10*
%TO.P,J105,1,Pin_1*%
%TO.N,Net-(J105-Pin_1)*%
X106045000Y-108585000D03*
D11*
%TO.P,J105,2,Pin_2*%
%TO.N,PIN_15 *%
X106045000Y-106045000D03*
%TD*%
D10*
%TO.P,J47,1,Pin_1*%
%TO.N,PIN_25 *%
X159385000Y-71760000D03*
D11*
%TO.P,J47,2,Pin_2*%
%TO.N,Net-(J34-Pin_1)*%
X159385000Y-69220000D03*
%TD*%
D10*
%TO.P,J144,1,Pin_1*%
%TO.N,PIN_30 *%
X197485000Y-127645000D03*
D11*
%TO.P,J144,2,Pin_2*%
%TO.N,Net-(J131-Pin_1)*%
X197485000Y-125105000D03*
%TD*%
D10*
%TO.P,J84,1,Pin_1*%
%TO.N,Net-(J84-Pin_1)*%
X144145000Y-94620000D03*
D11*
%TO.P,J84,2,Pin_2*%
%TO.N,PIN_18 *%
X144145000Y-92080000D03*
%TD*%
D10*
%TO.P,J12,1,Pin_1*%
%TO.N,Net-(J12-Pin_1)*%
X189865000Y-52705000D03*
D11*
%TO.P,J12,2,Pin_2*%
%TO.N,PIN_27 *%
X189865000Y-50165000D03*
%TD*%
D10*
%TO.P,J26,1,Pin_1*%
%TO.N,PIN_3 *%
X197485000Y-57785000D03*
D11*
%TO.P,J26,2,Pin_2*%
%TO.N,Net-(J13-Pin_1)*%
X197485000Y-55245000D03*
%TD*%
D10*
%TO.P,J120,1,Pin_1*%
%TO.N,PIN_3 *%
X121285000Y-113675000D03*
D11*
%TO.P,J120,2,Pin_2*%
%TO.N,Net-(J107-Pin_1)*%
X121285000Y-111135000D03*
%TD*%
D10*
%TO.P,J39,1,Pin_1*%
%TO.N,Net-(J39-Pin_1)*%
X197485000Y-66685000D03*
D11*
%TO.P,J39,2,Pin_2*%
%TO.N,PIN_19 *%
X197485000Y-64145000D03*
%TD*%
D10*
%TO.P,J62,1,Pin_1*%
%TO.N,Net-(J62-Pin_1)*%
X174625000Y-80650000D03*
D11*
%TO.P,J62,2,Pin_2*%
%TO.N,PIN_15 *%
X174625000Y-78110000D03*
%TD*%
D10*
%TO.P,J142,1,Pin_1*%
%TO.N,Net-(J142-Pin_1)*%
X182245000Y-122560000D03*
D11*
%TO.P,J142,2,Pin_2*%
%TO.N,PIN_22 *%
X182245000Y-120020000D03*
%TD*%
D10*
%TO.P,J112,1,Pin_1*%
%TO.N,Net-(J112-Pin_1)*%
X159385000Y-108590000D03*
D11*
%TO.P,J112,2,Pin_2*%
%TO.N,PIN_20 *%
X159385000Y-106050000D03*
%TD*%
D10*
%TO.P,J135,1,Pin_1*%
%TO.N,Net-(J135-Pin_1)*%
X128905000Y-122565000D03*
D11*
%TO.P,J135,2,Pin_2*%
%TO.N,PIN_18 *%
X128905000Y-120025000D03*
%TD*%
D10*
%TO.P,J110,1,Pin_1*%
%TO.N,Net-(J110-Pin_1)*%
X144145000Y-108590000D03*
D11*
%TO.P,J110,2,Pin_2*%
%TO.N,PIN_14 *%
X144145000Y-106050000D03*
%TD*%
D10*
%TO.P,J87,1,Pin_1*%
%TO.N,Net-(J100-Pin_2)*%
X167005000Y-94620000D03*
D11*
%TO.P,J87,2,Pin_2*%
%TO.N,PIN_18 *%
X167005000Y-92080000D03*
%TD*%
D10*
%TO.P,J104,1,Pin_1*%
%TO.N,PIN_25 *%
X197485000Y-99700000D03*
D11*
%TO.P,J104,2,Pin_2*%
%TO.N,Net-(J104-Pin_2)*%
X197485000Y-97160000D03*
%TD*%
D10*
%TO.P,J95,1,Pin_1*%
%TO.N,PIN_7 *%
X128905000Y-99705000D03*
D11*
%TO.P,J95,2,Pin_2*%
%TO.N,Net-(J82-Pin_1)*%
X128905000Y-97165000D03*
%TD*%
D10*
%TO.P,J15,1,Pin_1*%
%TO.N,PIN_3 *%
X113665000Y-57785000D03*
D11*
%TO.P,J15,2,Pin_2*%
%TO.N,Net-(J15-Pin_2)*%
X113665000Y-55245000D03*
%TD*%
D10*
%TO.P,J129,1,Pin_1*%
%TO.N,PIN_29 *%
X189865000Y-113675000D03*
D11*
%TO.P,J129,2,Pin_2*%
%TO.N,Net-(J116-Pin_1)*%
X189865000Y-111135000D03*
%TD*%
D10*
%TO.P,J117,1,Pin_1*%
%TO.N,Net-(J117-Pin_1)*%
X197485000Y-108590000D03*
D11*
%TO.P,J117,2,Pin_2*%
%TO.N,PIN_19 *%
X197485000Y-106050000D03*
%TD*%
D10*
%TO.P,J91,1,Pin_1*%
%TO.N,Net-(J104-Pin_2)*%
X197485000Y-94625000D03*
D11*
%TO.P,J91,2,Pin_2*%
%TO.N,PIN_22 *%
X197485000Y-92085000D03*
%TD*%
D10*
%TO.P,J145,1,Pin_1*%
%TO.N,PIN_9 *%
X106045000Y-127635000D03*
D11*
%TO.P,J145,2,Pin_2*%
%TO.N,Net-(J132-Pin_1)*%
X106045000Y-125095000D03*
%TD*%
D10*
%TO.P,J33,1,Pin_1*%
%TO.N,Net-(J33-Pin_1)*%
X151765000Y-66680000D03*
D11*
%TO.P,J33,2,Pin_2*%
%TO.N,PIN_1 *%
X151765000Y-64140000D03*
%TD*%
D10*
%TO.P,J113,1,Pin_1*%
%TO.N,Net-(J113-Pin_1)*%
X167005000Y-108590000D03*
D11*
%TO.P,J113,2,Pin_2*%
%TO.N,PIN_20 *%
X167005000Y-106050000D03*
%TD*%
D10*
%TO.P,J51,1,Pin_1*%
%TO.N,PIN_21 *%
X189865000Y-71760000D03*
D11*
%TO.P,J51,2,Pin_2*%
%TO.N,Net-(J38-Pin_1)*%
X189865000Y-69220000D03*
%TD*%
D14*
%TO.P,D1,1,K*%
%TO.N,CAPS_LOCK_LED-*%
X134620000Y-142565439D03*
%TO.P,D1,2,A*%
%TO.N,CAPS_LOCK_LED+*%
X134620000Y-140690439D03*
%TD*%
D10*
%TO.P,J114,1,Pin_1*%
%TO.N,Net-(J114-Pin_1)*%
X174625000Y-108590000D03*
D11*
%TO.P,J114,2,Pin_2*%
%TO.N,PIN_20 *%
X174625000Y-106050000D03*
%TD*%
D10*
%TO.P,J141,1,Pin_1*%
%TO.N,Net-(J141-Pin_1)*%
X174625000Y-122565000D03*
D11*
%TO.P,J141,2,Pin_2*%
%TO.N,PIN_27 *%
X174625000Y-120025000D03*
%TD*%
D10*
%TO.P,J10,1,Pin_1*%
%TO.N,Net-(J10-Pin_1)*%
X174625000Y-52705000D03*
D11*
%TO.P,J10,2,Pin_2*%
%TO.N,PIN_26 *%
X174625000Y-50165000D03*
%TD*%
D10*
%TO.P,J86,1,Pin_1*%
%TO.N,Net-(J86-Pin_1)*%
X159385000Y-94625000D03*
D11*
%TO.P,J86,2,Pin_2*%
%TO.N,PIN_18 *%
X159385000Y-92085000D03*
%TD*%
D10*
%TO.P,J83,1,Pin_1*%
%TO.N,Net-(J83-Pin_1)*%
X136525000Y-94625000D03*
D11*
%TO.P,J83,2,Pin_2*%
%TO.N,PIN_14 *%
X136525000Y-92085000D03*
%TD*%
D10*
%TO.P,J53,1,Pin_1*%
%TO.N,Net-(J53-Pin_1)*%
X106045000Y-80645000D03*
D11*
%TO.P,J53,2,Pin_2*%
%TO.N,PIN_22 *%
X106045000Y-78105000D03*
%TD*%
D10*
%TO.P,J82,1,Pin_1*%
%TO.N,Net-(J82-Pin_1)*%
X128905000Y-94620000D03*
D11*
%TO.P,J82,2,Pin_2*%
%TO.N,PIN_13 *%
X128905000Y-92080000D03*
%TD*%
D10*
%TO.P,J17,1,Pin_1*%
%TO.N,PIN_8 *%
X128905000Y-57785000D03*
D11*
%TO.P,J17,2,Pin_2*%
%TO.N,Net-(J17-Pin_2)*%
X128905000Y-55245000D03*
%TD*%
D10*
%TO.P,J146,1,Pin_1*%
%TO.N,PIN_21 *%
X113665000Y-127640000D03*
D11*
%TO.P,J146,2,Pin_2*%
%TO.N,Net-(J133-Pin_1)*%
X113665000Y-125100000D03*
%TD*%
D10*
%TO.P,J9,1,Pin_1*%
%TO.N,Net-(J22-Pin_2)*%
X167005000Y-52705000D03*
D11*
%TO.P,J9,2,Pin_2*%
%TO.N,PIN_26 *%
X167005000Y-50165000D03*
%TD*%
D10*
%TO.P,J140,1,Pin_1*%
%TO.N,Net-(J140-Pin_1)*%
X167005000Y-122565000D03*
D11*
%TO.P,J140,2,Pin_2*%
%TO.N,PIN_19 *%
X167005000Y-120025000D03*
%TD*%
D10*
%TO.P,J119,1,Pin_1*%
%TO.N,PIN_7 *%
X113665000Y-113670000D03*
D11*
%TO.P,J119,2,Pin_2*%
%TO.N,Net-(J106-Pin_1)*%
X113665000Y-111130000D03*
%TD*%
D10*
%TO.P,J64,1,Pin_1*%
%TO.N,Net-(J64-Pin_1)*%
X189865000Y-80655000D03*
D11*
%TO.P,J64,2,Pin_2*%
%TO.N,PIN_27 *%
X189865000Y-78115000D03*
%TD*%
D10*
%TO.P,J94,1,Pin_1*%
%TO.N,PIN_3 *%
X121285000Y-99705000D03*
D11*
%TO.P,J94,2,Pin_2*%
%TO.N,Net-(J81-Pin_1)*%
X121285000Y-97165000D03*
%TD*%
D10*
%TO.P,J125,1,Pin_1*%
%TO.N,PIN_29 *%
X159385000Y-113675000D03*
D11*
%TO.P,J125,2,Pin_2*%
%TO.N,Net-(J112-Pin_1)*%
X159385000Y-111135000D03*
%TD*%
D10*
%TO.P,J2,1,Pin_1*%
%TO.N,Net-(J15-Pin_2)*%
X113665000Y-52705000D03*
D11*
%TO.P,J2,2,Pin_2*%
%TO.N,PIN_26 *%
X113665000Y-50165000D03*
%TD*%
D10*
%TO.P,J124,1,Pin_1*%
%TO.N,PIN_21 *%
X151765000Y-113675000D03*
D11*
%TO.P,J124,2,Pin_2*%
%TO.N,Net-(J111-Pin_1)*%
X151765000Y-111135000D03*
%TD*%
D10*
%TO.P,J147,1,Pin_1*%
%TO.N,PIN_11 *%
X121285000Y-127640000D03*
D11*
%TO.P,J147,2,Pin_2*%
%TO.N,Net-(J134-Pin_1)*%
X121285000Y-125100000D03*
%TD*%
D10*
%TO.P,J148,1,Pin_1*%
%TO.N,PIN_24 *%
X128905000Y-127640000D03*
D11*
%TO.P,J148,2,Pin_2*%
%TO.N,Net-(J135-Pin_1)*%
X128905000Y-125100000D03*
%TD*%
D10*
%TO.P,J150,1,Pin_1*%
%TO.N,PIN_24 *%
X144145000Y-127645000D03*
D11*
%TO.P,J150,2,Pin_2*%
%TO.N,Net-(J137-Pin_1)*%
X144145000Y-125105000D03*
%TD*%
D10*
%TO.P,J93,1,Pin_1*%
%TO.N,PIN_11 *%
X113665000Y-99700000D03*
D11*
%TO.P,J93,2,Pin_2*%
%TO.N,Net-(J80-Pin_1)*%
X113665000Y-97160000D03*
%TD*%
D10*
%TO.P,J30,1,Pin_1*%
%TO.N,Net-(J30-Pin_1)*%
X128905000Y-66680000D03*
D11*
%TO.P,J30,2,Pin_2*%
%TO.N,PIN_1 *%
X128905000Y-64140000D03*
%TD*%
D10*
%TO.P,J3,1,Pin_1*%
%TO.N,Net-(J16-Pin_2)*%
X121285000Y-52705000D03*
D11*
%TO.P,J3,2,Pin_2*%
%TO.N,PIN_26 *%
X121285000Y-50165000D03*
%TD*%
D10*
%TO.P,J1,1,Pin_1*%
%TO.N,Net-(J1-Pin_1)*%
X106045000Y-52705000D03*
D11*
%TO.P,J1,2,Pin_2*%
%TO.N,PIN_27 *%
X106045000Y-50165000D03*
%TD*%
D10*
%TO.P,J137,1,Pin_1*%
%TO.N,Net-(J137-Pin_1)*%
X144145000Y-122565000D03*
D11*
%TO.P,J137,2,Pin_2*%
%TO.N,PIN_16 *%
X144145000Y-120025000D03*
%TD*%
D10*
%TO.P,J52,1,Pin_1*%
%TO.N,PIN_29 *%
X197485000Y-71765000D03*
D11*
%TO.P,J52,2,Pin_2*%
%TO.N,Net-(J39-Pin_1)*%
X197485000Y-69225000D03*
%TD*%
D10*
%TO.P,J11,1,Pin_1*%
%TO.N,Net-(J11-Pin_1)*%
X182245000Y-52705000D03*
D11*
%TO.P,J11,2,Pin_2*%
%TO.N,PIN_27 *%
X182245000Y-50165000D03*
%TD*%
D10*
%TO.P,J54,1,Pin_1*%
%TO.N,Net-(J54-Pin_1)*%
X113665000Y-80650000D03*
D11*
%TO.P,J54,2,Pin_2*%
%TO.N,PIN_24 *%
X113665000Y-78110000D03*
%TD*%
D10*
%TO.P,J59,1,Pin_1*%
%TO.N,Net-(J59-Pin_1)*%
X151765000Y-80655000D03*
D11*
%TO.P,J59,2,Pin_2*%
%TO.N,PIN_15 *%
X151765000Y-78115000D03*
%TD*%
D10*
%TO.P,J74,1,Pin_1*%
%TO.N,PIN_25 *%
X167005000Y-85735000D03*
D11*
%TO.P,J74,2,Pin_2*%
%TO.N,Net-(J61-Pin_1)*%
X167005000Y-83195000D03*
%TD*%
D10*
%TO.P,J111,1,Pin_1*%
%TO.N,Net-(J111-Pin_1)*%
X151765000Y-108590000D03*
D11*
%TO.P,J111,2,Pin_2*%
%TO.N,PIN_14 *%
X151765000Y-106050000D03*
%TD*%
D10*
%TO.P,J123,1,Pin_1*%
%TO.N,PIN_17 *%
X144145000Y-113675000D03*
D11*
%TO.P,J123,2,Pin_2*%
%TO.N,Net-(J110-Pin_1)*%
X144145000Y-111135000D03*
%TD*%
D10*
%TO.P,J98,1,Pin_1*%
%TO.N,PIN_21 *%
X151765000Y-99705000D03*
D11*
%TO.P,J98,2,Pin_2*%
%TO.N,Net-(J85-Pin_1)*%
X151765000Y-97165000D03*
%TD*%
D10*
%TO.P,J20,1,Pin_1*%
%TO.N,PIN_29 *%
X151765000Y-57785000D03*
D11*
%TO.P,J20,2,Pin_2*%
%TO.N,Net-(J20-Pin_2)*%
X151765000Y-55245000D03*
%TD*%
D10*
%TO.P,J56,1,Pin_1*%
%TO.N,Net-(J56-Pin_1)*%
X128905000Y-80655000D03*
D11*
%TO.P,J56,2,Pin_2*%
%TO.N,PIN_2 *%
X128905000Y-78115000D03*
%TD*%
D10*
%TO.P,J109,1,Pin_1*%
%TO.N,Net-(J109-Pin_1)*%
X136525000Y-108595000D03*
D11*
%TO.P,J109,2,Pin_2*%
%TO.N,PIN_20 *%
X136525000Y-106055000D03*
%TD*%
D10*
%TO.P,J138,1,Pin_1*%
%TO.N,Net-(J138-Pin_1)*%
X151765000Y-122565000D03*
D11*
%TO.P,J138,2,Pin_2*%
%TO.N,PIN_19 *%
X151765000Y-120025000D03*
%TD*%
D10*
%TO.P,J127,1,Pin_1*%
%TO.N,PIN_28 *%
X174625000Y-113670000D03*
D11*
%TO.P,J127,2,Pin_2*%
%TO.N,Net-(J114-Pin_1)*%
X174625000Y-111130000D03*
%TD*%
D10*
%TO.P,J154,1,Pin_1*%
%TO.N,PIN_28 *%
X174625000Y-127640000D03*
D11*
%TO.P,J154,2,Pin_2*%
%TO.N,Net-(J141-Pin_1)*%
X174625000Y-125100000D03*
%TD*%
D10*
%TO.P,J77,1,Pin_1*%
%TO.N,PIN_11 *%
X189865000Y-85735000D03*
D11*
%TO.P,J77,2,Pin_2*%
%TO.N,Net-(J64-Pin_1)*%
X189865000Y-83195000D03*
%TD*%
D10*
%TO.P,J158,1,Pin_1*%
%TO.N,PWR_1 *%
X169545000Y-142240000D03*
D11*
%TO.P,J158,2,Pin_2*%
%TO.N,PWR_2 *%
X169545000Y-139700000D03*
%TD*%
D10*
%TO.P,J100,1,Pin_1*%
%TO.N,PIN_25 *%
X167005000Y-99700000D03*
D11*
%TO.P,J100,2,Pin_2*%
%TO.N,Net-(J100-Pin_2)*%
X167005000Y-97160000D03*
%TD*%
D10*
%TO.P,J85,1,Pin_1*%
%TO.N,Net-(J85-Pin_1)*%
X151765000Y-94625000D03*
D11*
%TO.P,J85,2,Pin_2*%
%TO.N,PIN_13 *%
X151765000Y-92085000D03*
%TD*%
D10*
%TO.P,J5,1,Pin_1*%
%TO.N,Net-(J18-Pin_2)*%
X136525000Y-52705000D03*
D11*
%TO.P,J5,2,Pin_2*%
%TO.N,PIN_26 *%
X136525000Y-50165000D03*
%TD*%
D10*
%TO.P,J31,1,Pin_1*%
%TO.N,Net-(J31-Pin_1)*%
X136525000Y-66680000D03*
D11*
%TO.P,J31,2,Pin_2*%
%TO.N,PIN_1 *%
X136525000Y-64140000D03*
%TD*%
D10*
%TO.P,J23,1,Pin_1*%
%TO.N,PIN_30 *%
X174625000Y-57785000D03*
D11*
%TO.P,J23,2,Pin_2*%
%TO.N,Net-(J10-Pin_1)*%
X174625000Y-55245000D03*
%TD*%
D10*
%TO.P,J24,1,Pin_1*%
%TO.N,PIN_24 *%
X182245000Y-57785000D03*
D11*
%TO.P,J24,2,Pin_2*%
%TO.N,Net-(J11-Pin_1)*%
X182245000Y-55245000D03*
%TD*%
D10*
%TO.P,J128,1,Pin_1*%
%TO.N,PIN_30 *%
X182245000Y-113675000D03*
D11*
%TO.P,J128,2,Pin_2*%
%TO.N,Net-(J115-Pin_1)*%
X182245000Y-111135000D03*
%TD*%
D10*
%TO.P,J88,1,Pin_1*%
%TO.N,Net-(J101-Pin_2)*%
X174625000Y-94625000D03*
D11*
%TO.P,J88,2,Pin_2*%
%TO.N,PIN_18 *%
X174625000Y-92085000D03*
%TD*%
D10*
%TO.P,J6,1,Pin_1*%
%TO.N,Net-(J19-Pin_2)*%
X144145000Y-52705000D03*
D11*
%TO.P,J6,2,Pin_2*%
%TO.N,PIN_26 *%
X144145000Y-50165000D03*
%TD*%
D10*
%TO.P,J126,1,Pin_1*%
%TO.N,PIN_25 *%
X167005000Y-113675000D03*
D11*
%TO.P,J126,2,Pin_2*%
%TO.N,Net-(J113-Pin_1)*%
X167005000Y-111135000D03*
%TD*%
D10*
%TO.P,J48,1,Pin_1*%
%TO.N,PIN_28 *%
X167005000Y-71760000D03*
D11*
%TO.P,J48,2,Pin_2*%
%TO.N,Net-(J35-Pin_1)*%
X167005000Y-69220000D03*
%TD*%
D10*
%TO.P,J106,1,Pin_1*%
%TO.N,Net-(J106-Pin_1)*%
X113665000Y-108595000D03*
D11*
%TO.P,J106,2,Pin_2*%
%TO.N,PIN_19 *%
X113665000Y-106055000D03*
%TD*%
D10*
%TO.P,J7,1,Pin_1*%
%TO.N,Net-(J20-Pin_2)*%
X151765000Y-52705000D03*
D11*
%TO.P,J7,2,Pin_2*%
%TO.N,PIN_26 *%
X151765000Y-50165000D03*
%TD*%
D10*
%TO.P,J78,1,Pin_1*%
%TO.N,PIN_21 *%
X197485000Y-85730000D03*
D11*
%TO.P,J78,2,Pin_2*%
%TO.N,Net-(J65-Pin_1)*%
X197485000Y-83190000D03*
%TD*%
D10*
%TO.P,J131,1,Pin_1*%
%TO.N,Net-(J131-Pin_1)*%
X197485000Y-122560000D03*
D11*
%TO.P,J131,2,Pin_2*%
%TO.N,PIN_27 *%
X197485000Y-120020000D03*
%TD*%
D10*
%TO.P,J92,1,Pin_1*%
%TO.N,PIN_9 *%
X106045000Y-99700000D03*
D11*
%TO.P,J92,2,Pin_2*%
%TO.N,Net-(J79-Pin_1)*%
X106045000Y-97160000D03*
%TD*%
D10*
%TO.P,J4,1,Pin_1*%
%TO.N,Net-(J17-Pin_2)*%
X128905000Y-52705000D03*
D11*
%TO.P,J4,2,Pin_2*%
%TO.N,PIN_26 *%
X128905000Y-50165000D03*
%TD*%
D10*
%TO.P,J32,1,Pin_1*%
%TO.N,Net-(J32-Pin_1)*%
X144145000Y-66680000D03*
D11*
%TO.P,J32,2,Pin_2*%
%TO.N,PIN_1 *%
X144145000Y-64140000D03*
%TD*%
D10*
%TO.P,J43,1,Pin_1*%
%TO.N,PIN_8 *%
X128905000Y-71755000D03*
D11*
%TO.P,J43,2,Pin_2*%
%TO.N,Net-(J30-Pin_1)*%
X128905000Y-69215000D03*
%TD*%
D10*
%TO.P,J46,1,Pin_1*%
%TO.N,PIN_29 *%
X151765000Y-71765000D03*
D11*
%TO.P,J46,2,Pin_2*%
%TO.N,Net-(J33-Pin_1)*%
X151765000Y-69225000D03*
%TD*%
D10*
%TO.P,J133,1,Pin_1*%
%TO.N,Net-(J133-Pin_1)*%
X113665000Y-122560000D03*
D11*
%TO.P,J133,2,Pin_2*%
%TO.N,PIN_22 *%
X113665000Y-120020000D03*
%TD*%
D10*
%TO.P,J80,1,Pin_1*%
%TO.N,Net-(J80-Pin_1)*%
X113665000Y-94620000D03*
D11*
%TO.P,J80,2,Pin_2*%
%TO.N,PIN_22 *%
X113665000Y-92080000D03*
%TD*%
D10*
%TO.P,J61,1,Pin_1*%
%TO.N,Net-(J61-Pin_1)*%
X167005000Y-80650000D03*
D11*
%TO.P,J61,2,Pin_2*%
%TO.N,PIN_15 *%
X167005000Y-78110000D03*
%TD*%
D10*
%TO.P,J75,1,Pin_1*%
%TO.N,PIN_28 *%
X174625000Y-85735000D03*
D11*
%TO.P,J75,2,Pin_2*%
%TO.N,Net-(J62-Pin_1)*%
X174625000Y-83195000D03*
%TD*%
D10*
%TO.P,J34,1,Pin_1*%
%TO.N,Net-(J34-Pin_1)*%
X159385000Y-66685000D03*
D11*
%TO.P,J34,2,Pin_2*%
%TO.N,PIN_1 *%
X159385000Y-64145000D03*
%TD*%
D10*
%TO.P,J60,1,Pin_1*%
%TO.N,Net-(J60-Pin_1)*%
X159385000Y-80655000D03*
D11*
%TO.P,J60,2,Pin_2*%
%TO.N,PIN_15 *%
X159385000Y-78115000D03*
%TD*%
D10*
%TO.P,J103,1,Pin_1*%
%TO.N,PIN_25 *%
X189865000Y-99700000D03*
D11*
%TO.P,J103,2,Pin_2*%
%TO.N,Net-(J103-Pin_2)*%
X189865000Y-97160000D03*
%TD*%
D10*
%TO.P,J73,1,Pin_1*%
%TO.N,PIN_29 *%
X159385000Y-85730000D03*
D11*
%TO.P,J73,2,Pin_2*%
%TO.N,Net-(J60-Pin_1)*%
X159385000Y-83190000D03*
%TD*%
D10*
%TO.P,J72,1,Pin_1*%
%TO.N,PIN_21 *%
X151765000Y-85735000D03*
D11*
%TO.P,J72,2,Pin_2*%
%TO.N,Net-(J59-Pin_1)*%
X151765000Y-83195000D03*
%TD*%
D10*
%TO.P,J71,1,Pin_1*%
%TO.N,PIN_17 *%
X144145000Y-85730000D03*
D11*
%TO.P,J71,2,Pin_2*%
%TO.N,Net-(J58-Pin_1)*%
X144145000Y-83190000D03*
%TD*%
D10*
%TO.P,J66,1,Pin_1*%
%TO.N,PIN_3 *%
X106045000Y-85725000D03*
D11*
%TO.P,J66,2,Pin_2*%
%TO.N,Net-(J53-Pin_1)*%
X106045000Y-83185000D03*
%TD*%
D10*
%TO.P,J130,1,Pin_1*%
%TO.N,PIN_17 *%
X197485000Y-113670000D03*
D11*
%TO.P,J130,2,Pin_2*%
%TO.N,Net-(J117-Pin_1)*%
X197485000Y-111130000D03*
%TD*%
D10*
%TO.P,J16,1,Pin_1*%
%TO.N,PIN_7 *%
X121285000Y-57785000D03*
D11*
%TO.P,J16,2,Pin_2*%
%TO.N,Net-(J16-Pin_2)*%
X121285000Y-55245000D03*
%TD*%
D10*
%TO.P,J99,1,Pin_1*%
%TO.N,PIN_29 *%
X159385000Y-99705000D03*
D11*
%TO.P,J99,2,Pin_2*%
%TO.N,Net-(J86-Pin_1)*%
X159385000Y-97165000D03*
%TD*%
D10*
%TO.P,J40,1,Pin_1*%
%TO.N,PIN_8 *%
X106045000Y-71755000D03*
D11*
%TO.P,J40,2,Pin_2*%
%TO.N,Net-(J27-Pin_1)*%
X106045000Y-69215000D03*
%TD*%
D10*
%TO.P,J42,1,Pin_1*%
%TO.N,PIN_7 *%
X121285000Y-71755000D03*
D11*
%TO.P,J42,2,Pin_2*%
%TO.N,Net-(J29-Pin_1)*%
X121285000Y-69215000D03*
%TD*%
D10*
%TO.P,J108,1,Pin_1*%
%TO.N,Net-(J108-Pin_1)*%
X128905000Y-108590000D03*
D11*
%TO.P,J108,2,Pin_2*%
%TO.N,PIN_20 *%
X128905000Y-106050000D03*
%TD*%
D10*
%TO.P,J153,1,Pin_1*%
%TO.N,PIN_25 *%
X167005000Y-127645000D03*
D11*
%TO.P,J153,2,Pin_2*%
%TO.N,Net-(J140-Pin_1)*%
X167005000Y-125105000D03*
%TD*%
D10*
%TO.P,J121,1,Pin_1*%
%TO.N,PIN_7 *%
X128905000Y-113670000D03*
D11*
%TO.P,J121,2,Pin_2*%
%TO.N,Net-(J108-Pin_1)*%
X128905000Y-111130000D03*
%TD*%
D10*
%TO.P,J132,1,Pin_1*%
%TO.N,Net-(J132-Pin_1)*%
X106045000Y-122555000D03*
D11*
%TO.P,J132,2,Pin_2*%
%TO.N,PIN_26 *%
X106045000Y-120015000D03*
%TD*%
D15*
%TO.N,PIN_27 *%
X194310000Y-122555000D03*
%TO.N,PIN_19 *%
X150495000Y-133350000D03*
X108585000Y-94620000D03*
%TO.N,PIN_7 *%
X118745000Y-129540000D03*
%TO.N,PIN_3 *%
X140983290Y-132540084D03*
X138430000Y-120015000D03*
%TO.N,PIN_8 *%
X147255349Y-120469249D03*
X143001140Y-132508738D03*
%TO.N,PIN_17 *%
X149045500Y-131816582D03*
X155040000Y-112495000D03*
%TO.N,PIN_21 *%
X149225000Y-129930304D03*
%TO.N,PIN_29 *%
X178435000Y-126180000D03*
X177250000Y-114850000D03*
%TO.N,PIN_24 *%
X116205000Y-95250000D03*
X116205000Y-107315000D03*
%TO.N,PIN_9 *%
X122899848Y-130279446D03*
%TO.N,PIN_23 *%
X155895000Y-117795000D03*
X186055000Y-115575000D03*
%TO.N,PIN_22 *%
X151765000Y-131445000D03*
%TO.N,PIN_15 *%
X147123628Y-131006371D03*
X150495000Y-102870000D03*
X154305000Y-91440000D03*
%TO.N,PIN_2 *%
X142092097Y-135287583D03*
%TO.N,PIN_16 *%
X140652500Y-94937500D03*
X146685000Y-102875000D03*
X142875000Y-130084500D03*
X148270927Y-131129072D03*
%TO.N,PIN_18 *%
X150288787Y-134327998D03*
X132715000Y-109855000D03*
%TO.N,PIN_13 *%
X147790500Y-135828878D03*
%TO.N,PIN_14 *%
X141856675Y-130090774D03*
%TO.N,PWR_2 *%
X159385000Y-139700000D03*
%TD*%
D16*
%TO.N,CAPS_LOCK_LED-*%
X134625439Y-142560000D02*
X134620000Y-142565439D01*
X146515000Y-137850000D02*
X146515000Y-138750000D01*
X134625279Y-142560160D02*
X134620000Y-142565439D01*
X146515000Y-138750000D02*
X142704840Y-142560160D01*
X142704840Y-142560160D02*
X134625279Y-142560160D01*
%TO.N,CAPS_LOCK_LED+*%
X144256585Y-138982107D02*
X143844208Y-139394484D01*
X144515000Y-137850000D02*
X144515000Y-138723692D01*
X135915955Y-139394484D02*
X134620000Y-140690439D01*
X143844208Y-139394484D02*
X135915955Y-139394484D01*
X144256585Y-138982107D02*
X144015000Y-138740522D01*
X144515000Y-138723692D02*
X144256585Y-138982107D01*
X144015000Y-138740522D02*
X144015000Y-137850000D01*
D17*
%TO.N,PIN_26 *%
X151765000Y-50165000D02*
X159385000Y-50165000D01*
X149805000Y-143510000D02*
X118745000Y-143510000D01*
X118745000Y-143510000D02*
X109220000Y-133985000D01*
X109220000Y-133985000D02*
X109220000Y-123190000D01*
X154515000Y-137850000D02*
X154515000Y-138800000D01*
X144145000Y-50165000D02*
X151765000Y-50165000D01*
X154515000Y-138800000D02*
X149805000Y-143510000D01*
X113665000Y-50165000D02*
X121285000Y-50165000D01*
X167005000Y-50165000D02*
X174625000Y-50165000D01*
X109220000Y-123190000D02*
X106045000Y-120015000D01*
X121285000Y-50165000D02*
X128905000Y-50165000D01*
X136525000Y-50165000D02*
X144145000Y-50165000D01*
X128905000Y-50165000D02*
X136525000Y-50165000D01*
X159385000Y-50165000D02*
X167005000Y-50165000D01*
%TO.N,PIN_27 *%
X160207792Y-129355000D02*
X167645000Y-129355000D01*
X155015000Y-134547792D02*
X160207792Y-129355000D01*
X155015000Y-137850000D02*
X155015000Y-134547792D01*
X192935000Y-123930000D02*
X194310000Y-122555000D01*
X107225000Y-48990000D02*
X107950000Y-48265000D01*
X170815000Y-126185000D02*
X170815000Y-122555000D01*
X170815000Y-122555000D02*
X173345000Y-120025000D01*
X174625000Y-120025000D02*
X178530000Y-123930000D01*
X173345000Y-120025000D02*
X174625000Y-120025000D01*
X106045000Y-50165000D02*
X107220000Y-48990000D01*
X182250000Y-64145000D02*
X182245000Y-64140000D01*
X189865000Y-64145000D02*
X182250000Y-64145000D01*
X182245000Y-50165000D02*
X189865000Y-50165000D01*
X180345000Y-48265000D02*
X182245000Y-50165000D01*
X167645000Y-129355000D02*
X170815000Y-126185000D01*
X107220000Y-48990000D02*
X107225000Y-48990000D01*
X178530000Y-123930000D02*
X192935000Y-123930000D01*
X107950000Y-48265000D02*
X180345000Y-48265000D01*
%TO.N,PIN_19 *%
X168280000Y-118750000D02*
X168277500Y-118752500D01*
X151015000Y-137850000D02*
X151015000Y-133870000D01*
X168277500Y-118752500D02*
X167005000Y-120025000D01*
X108585000Y-100975000D02*
X113665000Y-106055000D01*
X165097500Y-118752500D02*
X153037500Y-118752500D01*
X153037500Y-118752500D02*
X151765000Y-120025000D01*
X172815000Y-65505000D02*
X196125000Y-65505000D01*
X151015000Y-133870000D02*
X151007652Y-133862652D01*
X151007652Y-133862652D02*
X150495000Y-133350000D01*
X196125000Y-65505000D02*
X197485000Y-64145000D01*
X107945000Y-62235000D02*
X169545000Y-62235000D01*
X108585000Y-94620000D02*
X108585000Y-100975000D01*
X189865000Y-120020000D02*
X188595000Y-118750000D01*
X167005000Y-120025000D02*
X165732500Y-118752500D01*
X106045000Y-64135000D02*
X107945000Y-62235000D01*
X165732500Y-118752500D02*
X165097500Y-118752500D01*
X188595000Y-118750000D02*
X168280000Y-118750000D01*
X169545000Y-62235000D02*
X172815000Y-65505000D01*
%TO.N,PIN_7 *%
X145015000Y-137850000D02*
X145015000Y-135547196D01*
X145015000Y-135547196D02*
X140472250Y-131004446D01*
X107410000Y-56420000D02*
X119920000Y-56420000D01*
X127635000Y-87000000D02*
X114935000Y-87000000D01*
X128905000Y-113670000D02*
X127630000Y-112395000D01*
X114935000Y-87000000D02*
X113665000Y-85730000D01*
X120209446Y-131004446D02*
X118745000Y-129540000D01*
X106045000Y-57785000D02*
X107410000Y-56420000D01*
X127630000Y-112395000D02*
X114940000Y-112395000D01*
X128905000Y-85730000D02*
X127635000Y-87000000D01*
X114940000Y-112395000D02*
X113665000Y-113670000D01*
X119920000Y-56420000D02*
X121285000Y-57785000D01*
X140472250Y-131004446D02*
X120209446Y-131004446D01*
%TO.N,PIN_3 *%
X121285000Y-85730000D02*
X120110000Y-84555000D01*
X140983290Y-132551996D02*
X143015000Y-134583706D01*
X140983290Y-132540084D02*
X140983290Y-132551996D01*
X114840000Y-58960000D02*
X113665000Y-57785000D01*
X107215000Y-84555000D02*
X106045000Y-85725000D01*
X188765000Y-57785000D02*
X187590000Y-58960000D01*
X158205000Y-121200000D02*
X139615000Y-121200000D01*
X136525000Y-116205000D02*
X123815000Y-116205000D01*
X159385000Y-120020000D02*
X158205000Y-121200000D01*
X187590000Y-58960000D02*
X114840000Y-58960000D01*
X189865000Y-57785000D02*
X188765000Y-57785000D01*
X138430000Y-118110000D02*
X136525000Y-116205000D01*
X143015000Y-134583706D02*
X143015000Y-137850000D01*
X138430000Y-120015000D02*
X138430000Y-118110000D01*
X120110000Y-84555000D02*
X107215000Y-84555000D01*
X139615000Y-121200000D02*
X138430000Y-120015000D01*
X189865000Y-57785000D02*
X197485000Y-57785000D01*
X123815000Y-116205000D02*
X121285000Y-113675000D01*
%TO.N,PIN_8 *%
X106045000Y-71755000D02*
X107220000Y-70580000D01*
X136535000Y-113675000D02*
X136525000Y-113675000D01*
X139700000Y-116840000D02*
X136535000Y-113675000D01*
X143001140Y-132517684D02*
X145092517Y-134609061D01*
X107220000Y-70580000D02*
X127730000Y-70580000D01*
X145515000Y-135034288D02*
X145515000Y-137850000D01*
X143626100Y-116840000D02*
X139700000Y-116840000D01*
X143001140Y-132508738D02*
X143001140Y-132517684D01*
X147255349Y-120469249D02*
X143626100Y-116840000D01*
X127730000Y-70580000D02*
X128905000Y-71755000D01*
X145092517Y-134609061D02*
X145092517Y-134611805D01*
X145092517Y-134611805D02*
X145515000Y-135034288D01*
%TO.N,PIN_17 *%
X149045500Y-134110016D02*
X149045500Y-131816582D01*
X150015000Y-137850000D02*
X150015000Y-135079516D01*
X155040000Y-112495000D02*
X145325000Y-112495000D01*
X145325000Y-112495000D02*
X144145000Y-113675000D01*
X196310000Y-112495000D02*
X197485000Y-113670000D01*
X155040000Y-112495000D02*
X196310000Y-112495000D01*
X150015000Y-135079516D02*
X149045500Y-134110016D01*
%TO.N,PIN_21 *%
X142970000Y-114850000D02*
X150590000Y-114850000D01*
X140515000Y-112395000D02*
X142970000Y-114850000D01*
X144145000Y-71760000D02*
X146050000Y-73665000D01*
X113665000Y-127640000D02*
X109855000Y-123830000D01*
X150590000Y-114850000D02*
X151765000Y-113675000D01*
X149225000Y-129930304D02*
X152015000Y-132720305D01*
X187960000Y-73665000D02*
X189865000Y-71760000D01*
X132715000Y-112395000D02*
X140515000Y-112395000D01*
X109855000Y-123830000D02*
X109855000Y-113278299D01*
X113278299Y-109855000D02*
X130175000Y-109855000D01*
X146050000Y-73665000D02*
X187960000Y-73665000D01*
X151765000Y-85735000D02*
X152940000Y-86910000D01*
X152015000Y-137850000D02*
X152015000Y-132720305D01*
X152940000Y-86910000D02*
X196305000Y-86910000D01*
X130175000Y-109855000D02*
X132715000Y-112395000D01*
X109855000Y-113278299D02*
X113278299Y-109855000D01*
X196305000Y-86910000D02*
X197485000Y-85730000D01*
%TO.N,PIN_29 *%
X160560000Y-114850000D02*
X177250000Y-114850000D01*
X178435000Y-126180000D02*
X174360000Y-130255000D01*
X159385000Y-113675000D02*
X160560000Y-114850000D01*
X151765000Y-71765000D02*
X155580000Y-67950000D01*
X188690000Y-114850000D02*
X189865000Y-113675000D01*
X160580584Y-130255000D02*
X156015000Y-134820584D01*
X155580000Y-67950000D02*
X193670000Y-67950000D01*
X156015000Y-134820584D02*
X156015000Y-137850000D01*
X193670000Y-67950000D02*
X197485000Y-71765000D01*
X177250000Y-114850000D02*
X188690000Y-114850000D01*
X174360000Y-130255000D02*
X160580584Y-130255000D01*
%TO.N,PIN_25 *%
X197485000Y-99700000D02*
X189865000Y-99700000D01*
X160021396Y-128905000D02*
X165745000Y-128905000D01*
X188695000Y-98530000D02*
X168175000Y-98530000D01*
X165745000Y-128905000D02*
X167005000Y-127645000D01*
X189865000Y-99700000D02*
X188695000Y-98530000D01*
X154015000Y-134911396D02*
X160021396Y-128905000D01*
X168175000Y-98530000D02*
X167005000Y-99700000D01*
X154015000Y-137850000D02*
X154015000Y-134911396D01*
%TO.N,PIN_28 *%
X155515000Y-137850000D02*
X155515000Y-134684188D01*
X182240000Y-127640000D02*
X182245000Y-127645000D01*
X172460000Y-129805000D02*
X174625000Y-127640000D01*
X160394188Y-129805000D02*
X172460000Y-129805000D01*
X155515000Y-134684188D02*
X160394188Y-129805000D01*
%TO.N,PIN_30 *%
X156515000Y-134956980D02*
X160766980Y-130705000D01*
X189865000Y-127645000D02*
X197485000Y-127645000D01*
X186805000Y-130705000D02*
X189865000Y-127645000D01*
X156515000Y-137850000D02*
X156515000Y-134956980D01*
X160766980Y-130705000D02*
X186805000Y-130705000D01*
%TO.N,PIN_24 *%
X159385000Y-128905000D02*
X153515000Y-134775000D01*
X116205000Y-95250000D02*
X116205000Y-107315000D01*
X145420000Y-126370000D02*
X158115000Y-126370000D01*
X158115000Y-126370000D02*
X159385000Y-127640000D01*
X128905000Y-127640000D02*
X130075000Y-126470000D01*
X130075000Y-126470000D02*
X142970000Y-126470000D01*
X159385000Y-127640000D02*
X159385000Y-128905000D01*
X144145000Y-127645000D02*
X145420000Y-126370000D01*
X153515000Y-134775000D02*
X153515000Y-137850000D01*
X142970000Y-126470000D02*
X144145000Y-127645000D01*
%TO.N,PIN_1 *%
X119611400Y-131454446D02*
X117981225Y-129824271D01*
X117981225Y-129824271D02*
X117981225Y-123323775D01*
X128905000Y-64140000D02*
X136525000Y-64140000D01*
X117981225Y-123323775D02*
X121285000Y-120020000D01*
X121285000Y-64140000D02*
X128905000Y-64140000D01*
X136525000Y-64140000D02*
X144145000Y-64140000D01*
X151765000Y-64140000D02*
X159380000Y-64140000D01*
X144145000Y-64140000D02*
X151765000Y-64140000D01*
X167000000Y-64145000D02*
X167005000Y-64140000D01*
X121280000Y-64135000D02*
X121285000Y-64140000D01*
X159385000Y-64145000D02*
X167000000Y-64145000D01*
X159380000Y-64140000D02*
X159385000Y-64145000D01*
X113665000Y-64135000D02*
X121280000Y-64135000D01*
X142015000Y-137850000D02*
X142015000Y-137036396D01*
X136433050Y-131454446D02*
X119611400Y-131454446D01*
X142015000Y-137036396D02*
X136433050Y-131454446D01*
%TO.N,PIN_9 *%
X143726140Y-132208433D02*
X143726140Y-132217371D01*
X104140000Y-125735000D02*
X106040000Y-127635000D01*
X171450000Y-60965000D02*
X107315000Y-60965000D01*
X107315000Y-60965000D02*
X103505000Y-64775000D01*
X146015000Y-134506231D02*
X146015000Y-137850000D01*
X140383646Y-130279446D02*
X141814199Y-131709999D01*
X103505000Y-97160000D02*
X106045000Y-99700000D01*
X141814199Y-131709999D02*
X143227706Y-131709999D01*
X103505000Y-64775000D02*
X103505000Y-97160000D01*
X106040000Y-127635000D02*
X106045000Y-127635000D01*
X143227706Y-131709999D02*
X143726140Y-132208433D01*
X143726140Y-132217371D02*
X146015000Y-134506231D01*
X122899848Y-130279446D02*
X140383646Y-130279446D01*
X174625000Y-64140000D02*
X171450000Y-60965000D01*
X106045000Y-113665000D02*
X104140000Y-115570000D01*
X104140000Y-115570000D02*
X104140000Y-125735000D01*
%TO.N,PIN_23 *%
X153015000Y-128925000D02*
X153015000Y-137850000D01*
X156845000Y-116845000D02*
X155895000Y-117795000D01*
X151765000Y-127640000D02*
X153030000Y-128905000D01*
X137790000Y-128910000D02*
X150495000Y-128910000D01*
X150495000Y-128910000D02*
X151765000Y-127640000D01*
X186055000Y-115575000D02*
X184785000Y-116845000D01*
X153035000Y-128905000D02*
X153015000Y-128925000D01*
X136525000Y-127645000D02*
X137790000Y-128910000D01*
X184785000Y-116845000D02*
X156845000Y-116845000D01*
X153030000Y-128905000D02*
X153035000Y-128905000D01*
%TO.N,PIN_22 *%
X197485000Y-92085000D02*
X199380000Y-93980000D01*
X199380000Y-93980000D02*
X199390000Y-93980000D01*
X199390000Y-119776701D02*
X197881701Y-121285000D01*
X151765000Y-131445000D02*
X152515000Y-132195000D01*
X116840000Y-88905000D02*
X116840000Y-88900000D01*
X197881701Y-121285000D02*
X183510000Y-121285000D01*
X116840000Y-88900000D02*
X194300000Y-88900000D01*
X194300000Y-88900000D02*
X197485000Y-92085000D01*
X152515000Y-132195000D02*
X152515000Y-137850000D01*
X183510000Y-121285000D02*
X182245000Y-120020000D01*
X113665000Y-92080000D02*
X116840000Y-88905000D01*
X199390000Y-93980000D02*
X199390000Y-119776701D01*
%TO.N,PIN_15 *%
X123825000Y-75570000D02*
X149220000Y-75570000D01*
X167005000Y-78110000D02*
X174625000Y-78110000D01*
X154305000Y-91440000D02*
X154305000Y-101600000D01*
X174625000Y-78110000D02*
X182245000Y-78110000D01*
X149220000Y-75570000D02*
X151765000Y-78115000D01*
X154305000Y-101600000D02*
X153035000Y-102870000D01*
X147123628Y-131006371D02*
X147100548Y-131029451D01*
X121285000Y-78115000D02*
X123825000Y-75575000D01*
X167000000Y-78115000D02*
X167005000Y-78110000D01*
X151765000Y-78115000D02*
X159385000Y-78115000D01*
X159385000Y-78115000D02*
X167000000Y-78115000D01*
X123825000Y-75575000D02*
X123825000Y-75570000D01*
X153035000Y-102870000D02*
X150495000Y-102870000D01*
X149015000Y-135352308D02*
X149015000Y-137850000D01*
X147100548Y-131029451D02*
X147100548Y-133437856D01*
X147100548Y-133437856D02*
X149015000Y-135352308D01*
%TO.N,PIN_2 *%
X130080000Y-76940000D02*
X142975000Y-76940000D01*
X142975000Y-76940000D02*
X144145000Y-78110000D01*
X142092097Y-136477097D02*
X142515000Y-136900000D01*
X142092097Y-135287583D02*
X142092097Y-136477097D01*
X142515000Y-136900000D02*
X142515000Y-137850000D01*
X128905000Y-78115000D02*
X130080000Y-76940000D01*
%TO.N,PIN_16 *%
X148270927Y-131129072D02*
X148270927Y-133971839D01*
X148270927Y-133971839D02*
X149515000Y-135215912D01*
X149515000Y-135215912D02*
X149515000Y-137850000D01*
X144631701Y-95990000D02*
X146685000Y-98043299D01*
X140652500Y-94937500D02*
X141705000Y-95990000D01*
X148270927Y-131129072D02*
X147226355Y-130084500D01*
X147226355Y-130084500D02*
X142875000Y-130084500D01*
X141705000Y-95990000D02*
X144631701Y-95990000D01*
X146685000Y-98043299D02*
X146685000Y-102875000D01*
%TO.N,PIN_11 *%
X104140000Y-87000000D02*
X109855000Y-92715000D01*
X186140000Y-82010000D02*
X105558299Y-82010000D01*
X109855000Y-95890000D02*
X113665000Y-99700000D01*
X143560976Y-131259999D02*
X142000595Y-131259999D01*
X189865000Y-85735000D02*
X186140000Y-82010000D01*
X123455000Y-129810000D02*
X121285000Y-127640000D01*
X147015000Y-137850000D02*
X147015000Y-134714023D01*
X105558299Y-82010000D02*
X104140000Y-83428299D01*
X140550596Y-129810000D02*
X123455000Y-129810000D01*
X147015000Y-134714023D02*
X143560976Y-131259999D01*
X104140000Y-83428299D02*
X104140000Y-87000000D01*
X142000595Y-131259999D02*
X140550596Y-129810000D01*
X109855000Y-92715000D02*
X109855000Y-95890000D01*
%TO.N,PIN_18 *%
X142240000Y-90175000D02*
X144145000Y-92080000D01*
X121285000Y-92085000D02*
X123195000Y-90175000D01*
X144145000Y-92080000D02*
X146050000Y-90175000D01*
X123195000Y-90175000D02*
X142240000Y-90175000D01*
X132715000Y-105865000D02*
X127730000Y-100880000D01*
X159385000Y-92085000D02*
X167000000Y-92085000D01*
X167005000Y-92080000D02*
X174620000Y-92080000D01*
X167000000Y-92085000D02*
X167005000Y-92080000D01*
X174625000Y-92085000D02*
X182240000Y-92085000D01*
X182240000Y-92085000D02*
X182245000Y-92080000D01*
X127730000Y-100880000D02*
X127730000Y-98530000D01*
X127730000Y-98530000D02*
X121285000Y-92085000D01*
X150515000Y-134554211D02*
X150288787Y-134327998D01*
X174620000Y-92080000D02*
X174625000Y-92085000D01*
X146050000Y-90175000D02*
X157475000Y-90175000D01*
X150515000Y-137850000D02*
X150515000Y-134554211D01*
X132715000Y-109855000D02*
X132715000Y-105865000D01*
X157475000Y-90175000D02*
X159385000Y-92085000D01*
%TO.N,PIN_13 *%
X147790500Y-135828878D02*
X148015000Y-136053378D01*
X151765000Y-92085000D02*
X150405000Y-93445000D01*
X130270000Y-93445000D02*
X128905000Y-92080000D01*
X150405000Y-93445000D02*
X130270000Y-93445000D01*
X148015000Y-136053378D02*
X148015000Y-137850000D01*
%TO.N,PIN_14 *%
X146398628Y-133372332D02*
X146381239Y-133372332D01*
X146381239Y-133372332D02*
X143818906Y-130809999D01*
X143818906Y-130809999D02*
X142575900Y-130809999D01*
X144145000Y-106050000D02*
X151765000Y-106050000D01*
X142575900Y-130809999D02*
X141856675Y-130090774D01*
X148515000Y-137850000D02*
X148515000Y-135488704D01*
X148515000Y-135488704D02*
X146398628Y-133372332D01*
%TO.N,PIN_20 *%
X151515000Y-137850000D02*
X151515000Y-133245609D01*
X127455000Y-129360000D02*
X126365000Y-128270000D01*
X159385000Y-106050000D02*
X167005000Y-106050000D01*
X127920000Y-121200000D02*
X135345000Y-121200000D01*
X151515000Y-133245609D02*
X147629391Y-129360000D01*
X174625000Y-106050000D02*
X182240000Y-106050000D01*
X138435000Y-104145000D02*
X157480000Y-104145000D01*
X147629391Y-129360000D02*
X147255844Y-129360000D01*
X126365000Y-128270000D02*
X126365000Y-122755000D01*
X128900000Y-106055000D02*
X128905000Y-106050000D01*
X157480000Y-104145000D02*
X159385000Y-106050000D01*
X147255844Y-129360000D02*
X127455000Y-129360000D01*
X121285000Y-106055000D02*
X128900000Y-106055000D01*
X135345000Y-121200000D02*
X136525000Y-120020000D01*
X167005000Y-106050000D02*
X174625000Y-106050000D01*
X136520000Y-106050000D02*
X136525000Y-106055000D01*
X126365000Y-122755000D02*
X127920000Y-121200000D01*
X182240000Y-106050000D02*
X182245000Y-106055000D01*
X136525000Y-106055000D02*
X138435000Y-104145000D01*
%TO.N,Net-(J131-Pin_1)*%
X197485000Y-122560000D02*
X197485000Y-125105000D01*
%TO.N,PWR_1 *%
X157015000Y-138800000D02*
X157015000Y-137850000D01*
X169545000Y-142240000D02*
X169260000Y-142525000D01*
X169260000Y-142525000D02*
X160740000Y-142525000D01*
X160740000Y-142525000D02*
X157015000Y-138800000D01*
%TO.N,PWR_2 *%
X159385000Y-139700000D02*
X158551396Y-139700000D01*
X157515000Y-138663604D02*
X157515000Y-137850000D01*
X158551396Y-139700000D02*
X157515000Y-138663604D01*
%TD*%
M02*
