%TF.GenerationSoftware,KiCad,Pcbnew,8.0.2-1*%
%TF.CreationDate,2024-08-03T10:32:31+02:00*%
%TF.ProjectId,dev-board,6465762d-626f-4617-9264-2e6b69636164,1.0*%
%TF.SameCoordinates,Original*%
%TF.FileFunction,Component,L1,Top*%
%TF.FilePolarity,Positive*%
%FSLAX46Y46*%
G04 Gerber Fmt 4.6, Leading zero omitted, Abs format (unit mm)*
G04 Created by KiCad (PCBNEW 8.0.2-1) date 2024-08-03 10:32:31*
%MOMM*%
%LPD*%
G01*
G04 APERTURE LIST*
%TA.AperFunction,ComponentMain*%
%ADD10C,0.300000*%
%TD*%
%TA.AperFunction,ComponentOutline,Courtyard*%
%ADD11C,0.100000*%
%TD*%
%TA.AperFunction,ComponentPin*%
%ADD12P,0.360000X4X0.000000*%
%TD*%
%TA.AperFunction,ComponentPin*%
%ADD13C,0.100000*%
%TD*%
G04 APERTURE END LIST*
D10*
%TO.C,J90*%
%TO.CFtp,PinHeader_1x02_P2.54mm_Vertical*%
%TO.CVal,Diode_header*%
%TO.CLbN,Connector_PinHeader_2.54mm*%
%TO.CMnt,TH*%
%TO.CRot,180*%
X189865000Y-94620000D03*
D11*
X191664999Y-90270001D02*
X191664999Y-96419999D01*
X188065001Y-96419999D01*
X188065001Y-90270001D01*
X191664999Y-90270001D01*
D12*
%TO.P,J90,1,Pin_1*%
X189865000Y-94620000D03*
D13*
%TO.P,J90,2,Pin_2*%
X189865000Y-92080000D03*
%TD*%
D10*
%TO.C,J69*%
%TO.CFtp,PinHeader_1x02_P2.54mm_Vertical*%
%TO.CVal,Button_header*%
%TO.CLbN,Connector_PinHeader_2.54mm*%
%TO.CMnt,TH*%
%TO.CRot,180*%
X128905000Y-85730000D03*
D11*
X130704999Y-81380001D02*
X130704999Y-87529999D01*
X127105001Y-87529999D01*
X127105001Y-81380001D01*
X130704999Y-81380001D01*
D12*
%TO.P,J69,1,Pin_1*%
X128905000Y-85730000D03*
D13*
%TO.P,J69,2,Pin_2*%
X128905000Y-83190000D03*
%TD*%
D10*
%TO.C,J97*%
%TO.CFtp,PinHeader_1x02_P2.54mm_Vertical*%
%TO.CVal,Button_header*%
%TO.CLbN,Connector_PinHeader_2.54mm*%
%TO.CMnt,TH*%
%TO.CRot,180*%
X144145000Y-99705000D03*
D11*
X145944999Y-95355001D02*
X145944999Y-101504999D01*
X142345001Y-101504999D01*
X142345001Y-95355001D01*
X145944999Y-95355001D01*
D12*
%TO.P,J97,1,Pin_1*%
X144145000Y-99705000D03*
D13*
%TO.P,J97,2,Pin_2*%
X144145000Y-97165000D03*
%TD*%
D10*
%TO.C,J28*%
%TO.CFtp,PinHeader_1x02_P2.54mm_Vertical*%
%TO.CVal,Diode_header*%
%TO.CLbN,Connector_PinHeader_2.54mm*%
%TO.CMnt,TH*%
%TO.CRot,180*%
X113665000Y-66675000D03*
D11*
X115464999Y-62325001D02*
X115464999Y-68474999D01*
X111865001Y-68474999D01*
X111865001Y-62325001D01*
X115464999Y-62325001D01*
D12*
%TO.P,J28,1,Pin_1*%
X113665000Y-66675000D03*
D13*
%TO.P,J28,2,Pin_2*%
X113665000Y-64135000D03*
%TD*%
D10*
%TO.C,J157*%
%TO.CFtp,Hirose_FH12-40S-0.5SH_1x40-1MP_P0.50mm_Horizontal*%
%TO.CVal,Conn_01x40_Female*%
%TO.CLbN,Connector_FFC-FPC*%
%TO.CMnt,SMD*%
%TO.CRot,0*%
X151765000Y-139700000D03*
D11*
X164814999Y-136700001D02*
X164814999Y-144599999D01*
X138715001Y-144599999D01*
X138715001Y-136700001D01*
X164814999Y-136700001D01*
D12*
%TO.P,J157,1,Pin_1*%
X142015000Y-137850000D03*
D13*
%TO.P,J157,2,Pin_2*%
X142515000Y-137850000D03*
%TO.P,J157,3,Pin_3*%
X143015000Y-137850000D03*
%TO.P,J157,4,Pin_4*%
X143515000Y-137850000D03*
%TO.P,J157,5,Pin_5*%
X144015000Y-137850000D03*
%TO.P,J157,6,Pin_6*%
X144515000Y-137850000D03*
%TO.P,J157,7,Pin_7*%
X145015000Y-137850000D03*
%TO.P,J157,8,Pin_8*%
X145515000Y-137850000D03*
%TO.P,J157,9,Pin_9*%
X146015000Y-137850000D03*
%TO.P,J157,10,Pin_10*%
X146515000Y-137850000D03*
%TO.P,J157,11,Pin_11*%
X147015000Y-137850000D03*
%TO.P,J157,12,Pin_12*%
X147515000Y-137850000D03*
%TO.P,J157,13,Pin_13*%
X148015000Y-137850000D03*
%TO.P,J157,14,Pin_14*%
X148515000Y-137850000D03*
%TO.P,J157,15,Pin_15*%
X149015000Y-137850000D03*
%TO.P,J157,16,Pin_16*%
X149515000Y-137850000D03*
%TO.P,J157,17,Pin_17*%
X150015000Y-137850000D03*
%TO.P,J157,18,Pin_18*%
X150515000Y-137850000D03*
%TO.P,J157,19,Pin_19*%
X151015000Y-137850000D03*
%TO.P,J157,20,Pin_20*%
X151515000Y-137850000D03*
%TO.P,J157,21,Pin_21*%
X152015000Y-137850000D03*
%TO.P,J157,22,Pin_22*%
X152515000Y-137850000D03*
%TO.P,J157,23,Pin_23*%
X153015000Y-137850000D03*
%TO.P,J157,24,Pin_24*%
X153515000Y-137850000D03*
%TO.P,J157,25,Pin_25*%
X154015000Y-137850000D03*
%TO.P,J157,26,Pin_26*%
X154515000Y-137850000D03*
%TO.P,J157,27,Pin_27*%
X155015000Y-137850000D03*
%TO.P,J157,28,Pin_28*%
X155515000Y-137850000D03*
%TO.P,J157,29,Pin_29*%
X156015000Y-137850000D03*
%TO.P,J157,30,Pin_30*%
X156515000Y-137850000D03*
%TO.P,J157,31,Pin_31*%
X157015000Y-137850000D03*
%TO.P,J157,32,Pin_32*%
X157515000Y-137850000D03*
%TO.P,J157,33,Pin_33*%
X158015000Y-137850000D03*
%TO.P,J157,34,Pin_34*%
X158515000Y-137850000D03*
%TO.P,J157,35,Pin_35*%
X159015000Y-137850000D03*
%TO.P,J157,36,Pin_36*%
X159515000Y-137850000D03*
%TO.P,J157,37,Pin_37*%
X160015000Y-137850000D03*
%TO.P,J157,38,Pin_38*%
X160515000Y-137850000D03*
%TO.P,J157,39,Pin_39*%
X161015000Y-137850000D03*
%TO.P,J157,40,Pin_40*%
X161515000Y-137850000D03*
%TO.P,J157,MP*%
X163415000Y-141100000D03*
X140115000Y-141100000D03*
%TD*%
D10*
%TO.C,J63*%
%TO.CFtp,PinHeader_1x02_P2.54mm_Vertical*%
%TO.CVal,Diode_header*%
%TO.CLbN,Connector_PinHeader_2.54mm*%
%TO.CMnt,TH*%
%TO.CRot,180*%
X182245000Y-80650000D03*
D11*
X184044999Y-76300001D02*
X184044999Y-82449999D01*
X180445001Y-82449999D01*
X180445001Y-76300001D01*
X184044999Y-76300001D01*
D12*
%TO.P,J63,1,Pin_1*%
X182245000Y-80650000D03*
D13*
%TO.P,J63,2,Pin_2*%
X182245000Y-78110000D03*
%TD*%
D10*
%TO.C,J81*%
%TO.CFtp,PinHeader_1x02_P2.54mm_Vertical*%
%TO.CVal,Diode_header*%
%TO.CLbN,Connector_PinHeader_2.54mm*%
%TO.CMnt,TH*%
%TO.CRot,180*%
X121285000Y-94625000D03*
D11*
X123084999Y-90275001D02*
X123084999Y-96424999D01*
X119485001Y-96424999D01*
X119485001Y-90275001D01*
X123084999Y-90275001D01*
D12*
%TO.P,J81,1,Pin_1*%
X121285000Y-94625000D03*
D13*
%TO.P,J81,2,Pin_2*%
X121285000Y-92085000D03*
%TD*%
D10*
%TO.C,J49*%
%TO.CFtp,PinHeader_1x02_P2.54mm_Vertical*%
%TO.CVal,Button_header*%
%TO.CLbN,Connector_PinHeader_2.54mm*%
%TO.CMnt,TH*%
%TO.CRot,180*%
X174625000Y-71760000D03*
D11*
X176424999Y-67410001D02*
X176424999Y-73559999D01*
X172825001Y-73559999D01*
X172825001Y-67410001D01*
X176424999Y-67410001D01*
D12*
%TO.P,J49,1,Pin_1*%
X174625000Y-71760000D03*
D13*
%TO.P,J49,2,Pin_2*%
X174625000Y-69220000D03*
%TD*%
D10*
%TO.C,J22*%
%TO.CFtp,PinHeader_1x02_P2.54mm_Vertical*%
%TO.CVal,Button_header*%
%TO.CLbN,Connector_PinHeader_2.54mm*%
%TO.CMnt,TH*%
%TO.CRot,180*%
X167005000Y-57785000D03*
D11*
X168804999Y-53435001D02*
X168804999Y-59584999D01*
X165205001Y-59584999D01*
X165205001Y-53435001D01*
X168804999Y-53435001D01*
D12*
%TO.P,J22,1,Pin_1*%
X167005000Y-57785000D03*
D13*
%TO.P,J22,2,Pin_2*%
X167005000Y-55245000D03*
%TD*%
D10*
%TO.C,J118*%
%TO.CFtp,PinHeader_1x02_P2.54mm_Vertical*%
%TO.CVal,Button_header*%
%TO.CLbN,Connector_PinHeader_2.54mm*%
%TO.CMnt,TH*%
%TO.CRot,180*%
X106045000Y-113665000D03*
D11*
X107844999Y-109315001D02*
X107844999Y-115464999D01*
X104245001Y-115464999D01*
X104245001Y-109315001D01*
X107844999Y-109315001D01*
D12*
%TO.P,J118,1,Pin_1*%
X106045000Y-113665000D03*
D13*
%TO.P,J118,2,Pin_2*%
X106045000Y-111125000D03*
%TD*%
D10*
%TO.C,J143*%
%TO.CFtp,PinHeader_1x02_P2.54mm_Vertical*%
%TO.CVal,Diode_header*%
%TO.CLbN,Connector_PinHeader_2.54mm*%
%TO.CMnt,TH*%
%TO.CRot,180*%
X189865000Y-122560000D03*
D11*
X191664999Y-118210001D02*
X191664999Y-124359999D01*
X188065001Y-124359999D01*
X188065001Y-118210001D01*
X191664999Y-118210001D01*
D12*
%TO.P,J143,1,Pin_1*%
X189865000Y-122560000D03*
D13*
%TO.P,J143,2,Pin_2*%
X189865000Y-120020000D03*
%TD*%
D10*
%TO.C,J116*%
%TO.CFtp,PinHeader_1x02_P2.54mm_Vertical*%
%TO.CVal,Diode_header*%
%TO.CLbN,Connector_PinHeader_2.54mm*%
%TO.CMnt,TH*%
%TO.CRot,180*%
X189865000Y-108595000D03*
D11*
X191664999Y-104245001D02*
X191664999Y-110394999D01*
X188065001Y-110394999D01*
X188065001Y-104245001D01*
X191664999Y-104245001D01*
D12*
%TO.P,J116,1,Pin_1*%
X189865000Y-108595000D03*
D13*
%TO.P,J116,2,Pin_2*%
X189865000Y-106055000D03*
%TD*%
D10*
%TO.C,J37*%
%TO.CFtp,PinHeader_1x02_P2.54mm_Vertical*%
%TO.CVal,Diode_header*%
%TO.CLbN,Connector_PinHeader_2.54mm*%
%TO.CMnt,TH*%
%TO.CRot,180*%
X182245000Y-66680000D03*
D11*
X184044999Y-62330001D02*
X184044999Y-68479999D01*
X180445001Y-68479999D01*
X180445001Y-62330001D01*
X184044999Y-62330001D01*
D12*
%TO.P,J37,1,Pin_1*%
X182245000Y-66680000D03*
D13*
%TO.P,J37,2,Pin_2*%
X182245000Y-64140000D03*
%TD*%
D10*
%TO.C,J122*%
%TO.CFtp,PinHeader_1x02_P2.54mm_Vertical*%
%TO.CVal,Button_header*%
%TO.CLbN,Connector_PinHeader_2.54mm*%
%TO.CMnt,TH*%
%TO.CRot,180*%
X136525000Y-113675000D03*
D11*
X138324999Y-109325001D02*
X138324999Y-115474999D01*
X134725001Y-115474999D01*
X134725001Y-109325001D01*
X138324999Y-109325001D01*
D12*
%TO.P,J122,1,Pin_1*%
X136525000Y-113675000D03*
D13*
%TO.P,J122,2,Pin_2*%
X136525000Y-111135000D03*
%TD*%
D10*
%TO.C,J68*%
%TO.CFtp,PinHeader_1x02_P2.54mm_Vertical*%
%TO.CVal,Button_header*%
%TO.CLbN,Connector_PinHeader_2.54mm*%
%TO.CMnt,TH*%
%TO.CRot,180*%
X121285000Y-85730000D03*
D11*
X123084999Y-81380001D02*
X123084999Y-87529999D01*
X119485001Y-87529999D01*
X119485001Y-81380001D01*
X123084999Y-81380001D01*
D12*
%TO.P,J68,1,Pin_1*%
X121285000Y-85730000D03*
D13*
%TO.P,J68,2,Pin_2*%
X121285000Y-83190000D03*
%TD*%
D10*
%TO.C,J65*%
%TO.CFtp,PinHeader_1x02_P2.54mm_Vertical*%
%TO.CVal,Diode_header*%
%TO.CLbN,Connector_PinHeader_2.54mm*%
%TO.CMnt,TH*%
%TO.CRot,180*%
X197485000Y-80650000D03*
D11*
X199284999Y-76300001D02*
X199284999Y-82449999D01*
X195685001Y-82449999D01*
X195685001Y-76300001D01*
X199284999Y-76300001D01*
D12*
%TO.P,J65,1,Pin_1*%
X197485000Y-80650000D03*
D13*
%TO.P,J65,2,Pin_2*%
X197485000Y-78110000D03*
%TD*%
D10*
%TO.C,J27*%
%TO.CFtp,PinHeader_1x02_P2.54mm_Vertical*%
%TO.CVal,Diode_header*%
%TO.CLbN,Connector_PinHeader_2.54mm*%
%TO.CMnt,TH*%
%TO.CRot,180*%
X106045000Y-66675000D03*
D11*
X107844999Y-62325001D02*
X107844999Y-68474999D01*
X104245001Y-68474999D01*
X104245001Y-62325001D01*
X107844999Y-62325001D01*
D12*
%TO.P,J27,1,Pin_1*%
X106045000Y-66675000D03*
D13*
%TO.P,J27,2,Pin_2*%
X106045000Y-64135000D03*
%TD*%
D10*
%TO.C,J102*%
%TO.CFtp,PinHeader_1x02_P2.54mm_Vertical*%
%TO.CVal,Button_header*%
%TO.CLbN,Connector_PinHeader_2.54mm*%
%TO.CMnt,TH*%
%TO.CRot,180*%
X182245000Y-99705000D03*
D11*
X184044999Y-95355001D02*
X184044999Y-101504999D01*
X180445001Y-101504999D01*
X180445001Y-95355001D01*
X184044999Y-95355001D01*
D12*
%TO.P,J102,1,Pin_1*%
X182245000Y-99705000D03*
D13*
%TO.P,J102,2,Pin_2*%
X182245000Y-97165000D03*
%TD*%
D10*
%TO.C,J14*%
%TO.CFtp,PinHeader_1x02_P2.54mm_Vertical*%
%TO.CVal,Button_header*%
%TO.CLbN,Connector_PinHeader_2.54mm*%
%TO.CMnt,TH*%
%TO.CRot,180*%
X106045000Y-57785000D03*
D11*
X107844999Y-53435001D02*
X107844999Y-59584999D01*
X104245001Y-59584999D01*
X104245001Y-53435001D01*
X107844999Y-53435001D01*
D12*
%TO.P,J14,1,Pin_1*%
X106045000Y-57785000D03*
D13*
%TO.P,J14,2,Pin_2*%
X106045000Y-55245000D03*
%TD*%
D10*
%TO.C,J151*%
%TO.CFtp,PinHeader_1x02_P2.54mm_Vertical*%
%TO.CVal,Button_header*%
%TO.CLbN,Connector_PinHeader_2.54mm*%
%TO.CMnt,TH*%
%TO.CRot,180*%
X151765000Y-127640000D03*
D11*
X153564999Y-123290001D02*
X153564999Y-129439999D01*
X149965001Y-129439999D01*
X149965001Y-123290001D01*
X153564999Y-123290001D01*
D12*
%TO.P,J151,1,Pin_1*%
X151765000Y-127640000D03*
D13*
%TO.P,J151,2,Pin_2*%
X151765000Y-125100000D03*
%TD*%
D10*
%TO.C,J115*%
%TO.CFtp,PinHeader_1x02_P2.54mm_Vertical*%
%TO.CVal,Diode_header*%
%TO.CLbN,Connector_PinHeader_2.54mm*%
%TO.CMnt,TH*%
%TO.CRot,180*%
X182245000Y-108595000D03*
D11*
X184044999Y-104245001D02*
X184044999Y-110394999D01*
X180445001Y-110394999D01*
X180445001Y-104245001D01*
X184044999Y-104245001D01*
D12*
%TO.P,J115,1,Pin_1*%
X182245000Y-108595000D03*
D13*
%TO.P,J115,2,Pin_2*%
X182245000Y-106055000D03*
%TD*%
D10*
%TO.C,J107*%
%TO.CFtp,PinHeader_1x02_P2.54mm_Vertical*%
%TO.CVal,Diode_header*%
%TO.CLbN,Connector_PinHeader_2.54mm*%
%TO.CMnt,TH*%
%TO.CRot,180*%
X121285000Y-108595000D03*
D11*
X123084999Y-104245001D02*
X123084999Y-110394999D01*
X119485001Y-110394999D01*
X119485001Y-104245001D01*
X123084999Y-104245001D01*
D12*
%TO.P,J107,1,Pin_1*%
X121285000Y-108595000D03*
D13*
%TO.P,J107,2,Pin_2*%
X121285000Y-106055000D03*
%TD*%
D10*
%TO.C,J50*%
%TO.CFtp,PinHeader_1x02_P2.54mm_Vertical*%
%TO.CVal,Button_header*%
%TO.CLbN,Connector_PinHeader_2.54mm*%
%TO.CMnt,TH*%
%TO.CRot,180*%
X182245000Y-71760000D03*
D11*
X184044999Y-67410001D02*
X184044999Y-73559999D01*
X180445001Y-73559999D01*
X180445001Y-67410001D01*
X184044999Y-67410001D01*
D12*
%TO.P,J50,1,Pin_1*%
X182245000Y-71760000D03*
D13*
%TO.P,J50,2,Pin_2*%
X182245000Y-69220000D03*
%TD*%
D10*
%TO.C,J29*%
%TO.CFtp,PinHeader_1x02_P2.54mm_Vertical*%
%TO.CVal,Diode_header*%
%TO.CLbN,Connector_PinHeader_2.54mm*%
%TO.CMnt,TH*%
%TO.CRot,180*%
X121285000Y-66680000D03*
D11*
X123084999Y-62330001D02*
X123084999Y-68479999D01*
X119485001Y-68479999D01*
X119485001Y-62330001D01*
X123084999Y-62330001D01*
D12*
%TO.P,J29,1,Pin_1*%
X121285000Y-66680000D03*
D13*
%TO.P,J29,2,Pin_2*%
X121285000Y-64140000D03*
%TD*%
D10*
%TO.C,J41*%
%TO.CFtp,PinHeader_1x02_P2.54mm_Vertical*%
%TO.CVal,Button_header*%
%TO.CLbN,Connector_PinHeader_2.54mm*%
%TO.CMnt,TH*%
%TO.CRot,180*%
X113665000Y-71755000D03*
D11*
X115464999Y-67405001D02*
X115464999Y-73554999D01*
X111865001Y-73554999D01*
X111865001Y-67405001D01*
X115464999Y-67405001D01*
D12*
%TO.P,J41,1,Pin_1*%
X113665000Y-71755000D03*
D13*
%TO.P,J41,2,Pin_2*%
X113665000Y-69215000D03*
%TD*%
D10*
%TO.C,J156*%
%TO.CFtp,PinHeader_1x02_P2.54mm_Vertical*%
%TO.CVal,Button_header*%
%TO.CLbN,Connector_PinHeader_2.54mm*%
%TO.CMnt,TH*%
%TO.CRot,180*%
X189865000Y-127645000D03*
D11*
X191664999Y-123295001D02*
X191664999Y-129444999D01*
X188065001Y-129444999D01*
X188065001Y-123295001D01*
X191664999Y-123295001D01*
D12*
%TO.P,J156,1,Pin_1*%
X189865000Y-127645000D03*
D13*
%TO.P,J156,2,Pin_2*%
X189865000Y-125105000D03*
%TD*%
D10*
%TO.C,J139*%
%TO.CFtp,PinHeader_1x02_P2.54mm_Vertical*%
%TO.CVal,Diode_header*%
%TO.CLbN,Connector_PinHeader_2.54mm*%
%TO.CMnt,TH*%
%TO.CRot,180*%
X159385000Y-122560000D03*
D11*
X161184999Y-118210001D02*
X161184999Y-124359999D01*
X157585001Y-124359999D01*
X157585001Y-118210001D01*
X161184999Y-118210001D01*
D12*
%TO.P,J139,1,Pin_1*%
X159385000Y-122560000D03*
D13*
%TO.P,J139,2,Pin_2*%
X159385000Y-120020000D03*
%TD*%
D10*
%TO.C,J155*%
%TO.CFtp,PinHeader_1x02_P2.54mm_Vertical*%
%TO.CVal,Button_header*%
%TO.CLbN,Connector_PinHeader_2.54mm*%
%TO.CMnt,TH*%
%TO.CRot,180*%
X182245000Y-127645000D03*
D11*
X184044999Y-123295001D02*
X184044999Y-129444999D01*
X180445001Y-129444999D01*
X180445001Y-123295001D01*
X184044999Y-123295001D01*
D12*
%TO.P,J155,1,Pin_1*%
X182245000Y-127645000D03*
D13*
%TO.P,J155,2,Pin_2*%
X182245000Y-125105000D03*
%TD*%
D10*
%TO.C,J8*%
%TO.CFtp,PinHeader_1x02_P2.54mm_Vertical*%
%TO.CVal,Diode_header*%
%TO.CLbN,Connector_PinHeader_2.54mm*%
%TO.CMnt,TH*%
%TO.CRot,180*%
X159385000Y-52705000D03*
D11*
X161184999Y-48355001D02*
X161184999Y-54504999D01*
X157585001Y-54504999D01*
X157585001Y-48355001D01*
X161184999Y-48355001D01*
D12*
%TO.P,J8,1,Pin_1*%
X159385000Y-52705000D03*
D13*
%TO.P,J8,2,Pin_2*%
X159385000Y-50165000D03*
%TD*%
D10*
%TO.C,J55*%
%TO.CFtp,PinHeader_1x02_P2.54mm_Vertical*%
%TO.CVal,Diode_header*%
%TO.CLbN,Connector_PinHeader_2.54mm*%
%TO.CMnt,TH*%
%TO.CRot,180*%
X121285000Y-80655000D03*
D11*
X123084999Y-76305001D02*
X123084999Y-82454999D01*
X119485001Y-82454999D01*
X119485001Y-76305001D01*
X123084999Y-76305001D01*
D12*
%TO.P,J55,1,Pin_1*%
X121285000Y-80655000D03*
D13*
%TO.P,J55,2,Pin_2*%
X121285000Y-78115000D03*
%TD*%
D10*
%TO.C,J36*%
%TO.CFtp,PinHeader_1x02_P2.54mm_Vertical*%
%TO.CVal,Diode_header*%
%TO.CLbN,Connector_PinHeader_2.54mm*%
%TO.CMnt,TH*%
%TO.CRot,180*%
X174625000Y-66680000D03*
D11*
X176424999Y-62330001D02*
X176424999Y-68479999D01*
X172825001Y-68479999D01*
X172825001Y-62330001D01*
X176424999Y-62330001D01*
D12*
%TO.P,J36,1,Pin_1*%
X174625000Y-66680000D03*
D13*
%TO.P,J36,2,Pin_2*%
X174625000Y-64140000D03*
%TD*%
D10*
%TO.C,J76*%
%TO.CFtp,PinHeader_1x02_P2.54mm_Vertical*%
%TO.CVal,Button_header*%
%TO.CLbN,Connector_PinHeader_2.54mm*%
%TO.CMnt,TH*%
%TO.CRot,180*%
X182245000Y-85730000D03*
D11*
X184044999Y-81380001D02*
X184044999Y-87529999D01*
X180445001Y-87529999D01*
X180445001Y-81380001D01*
X184044999Y-81380001D01*
D12*
%TO.P,J76,1,Pin_1*%
X182245000Y-85730000D03*
D13*
%TO.P,J76,2,Pin_2*%
X182245000Y-83190000D03*
%TD*%
D10*
%TO.C,J134*%
%TO.CFtp,PinHeader_1x02_P2.54mm_Vertical*%
%TO.CVal,Diode_header*%
%TO.CLbN,Connector_PinHeader_2.54mm*%
%TO.CMnt,TH*%
%TO.CRot,180*%
X121285000Y-122560000D03*
D11*
X123084999Y-118210001D02*
X123084999Y-124359999D01*
X119485001Y-124359999D01*
X119485001Y-118210001D01*
X123084999Y-118210001D01*
D12*
%TO.P,J134,1,Pin_1*%
X121285000Y-122560000D03*
D13*
%TO.P,J134,2,Pin_2*%
X121285000Y-120020000D03*
%TD*%
D10*
%TO.C,J152*%
%TO.CFtp,PinHeader_1x02_P2.54mm_Vertical*%
%TO.CVal,Button_header*%
%TO.CLbN,Connector_PinHeader_2.54mm*%
%TO.CMnt,TH*%
%TO.CRot,180*%
X159385000Y-127640000D03*
D11*
X161184999Y-123290001D02*
X161184999Y-129439999D01*
X157585001Y-129439999D01*
X157585001Y-123290001D01*
X161184999Y-123290001D01*
D12*
%TO.P,J152,1,Pin_1*%
X159385000Y-127640000D03*
D13*
%TO.P,J152,2,Pin_2*%
X159385000Y-125100000D03*
%TD*%
D10*
%TO.C,J25*%
%TO.CFtp,PinHeader_1x02_P2.54mm_Vertical*%
%TO.CVal,Button_header*%
%TO.CLbN,Connector_PinHeader_2.54mm*%
%TO.CMnt,TH*%
%TO.CRot,180*%
X189865000Y-57785000D03*
D11*
X191664999Y-53435001D02*
X191664999Y-59584999D01*
X188065001Y-59584999D01*
X188065001Y-53435001D01*
X191664999Y-53435001D01*
D12*
%TO.P,J25,1,Pin_1*%
X189865000Y-57785000D03*
D13*
%TO.P,J25,2,Pin_2*%
X189865000Y-55245000D03*
%TD*%
D10*
%TO.C,J21*%
%TO.CFtp,PinHeader_1x02_P2.54mm_Vertical*%
%TO.CVal,Button_header*%
%TO.CLbN,Connector_PinHeader_2.54mm*%
%TO.CMnt,TH*%
%TO.CRot,180*%
X159385000Y-57785000D03*
D11*
X161184999Y-53435001D02*
X161184999Y-59584999D01*
X157585001Y-59584999D01*
X157585001Y-53435001D01*
X161184999Y-53435001D01*
D12*
%TO.P,J21,1,Pin_1*%
X159385000Y-57785000D03*
D13*
%TO.P,J21,2,Pin_2*%
X159385000Y-55245000D03*
%TD*%
D10*
%TO.C,J136*%
%TO.CFtp,PinHeader_1x02_P2.54mm_Vertical*%
%TO.CVal,Diode_header*%
%TO.CLbN,Connector_PinHeader_2.54mm*%
%TO.CMnt,TH*%
%TO.CRot,180*%
X136525000Y-122560000D03*
D11*
X138324999Y-118210001D02*
X138324999Y-124359999D01*
X134725001Y-124359999D01*
X134725001Y-118210001D01*
X138324999Y-118210001D01*
D12*
%TO.P,J136,1,Pin_1*%
X136525000Y-122560000D03*
D13*
%TO.P,J136,2,Pin_2*%
X136525000Y-120020000D03*
%TD*%
D10*
%TO.C,J101*%
%TO.CFtp,PinHeader_1x02_P2.54mm_Vertical*%
%TO.CVal,Button_header*%
%TO.CLbN,Connector_PinHeader_2.54mm*%
%TO.CMnt,TH*%
%TO.CRot,180*%
X174625000Y-99705000D03*
D11*
X176424999Y-95355001D02*
X176424999Y-101504999D01*
X172825001Y-101504999D01*
X172825001Y-95355001D01*
X176424999Y-95355001D01*
D12*
%TO.P,J101,1,Pin_1*%
X174625000Y-99705000D03*
D13*
%TO.P,J101,2,Pin_2*%
X174625000Y-97165000D03*
%TD*%
D10*
%TO.C,J58*%
%TO.CFtp,PinHeader_1x02_P2.54mm_Vertical*%
%TO.CVal,Diode_header*%
%TO.CLbN,Connector_PinHeader_2.54mm*%
%TO.CMnt,TH*%
%TO.CRot,180*%
X144145000Y-80650000D03*
D11*
X145944999Y-76300001D02*
X145944999Y-82449999D01*
X142345001Y-82449999D01*
X142345001Y-76300001D01*
X145944999Y-76300001D01*
D12*
%TO.P,J58,1,Pin_1*%
X144145000Y-80650000D03*
D13*
%TO.P,J58,2,Pin_2*%
X144145000Y-78110000D03*
%TD*%
D10*
%TO.C,J38*%
%TO.CFtp,PinHeader_1x02_P2.54mm_Vertical*%
%TO.CVal,Diode_header*%
%TO.CLbN,Connector_PinHeader_2.54mm*%
%TO.CMnt,TH*%
%TO.CRot,180*%
X189865000Y-66685000D03*
D11*
X191664999Y-62335001D02*
X191664999Y-68484999D01*
X188065001Y-68484999D01*
X188065001Y-62335001D01*
X191664999Y-62335001D01*
D12*
%TO.P,J38,1,Pin_1*%
X189865000Y-66685000D03*
D13*
%TO.P,J38,2,Pin_2*%
X189865000Y-64145000D03*
%TD*%
D10*
%TO.C,J149*%
%TO.CFtp,PinHeader_1x02_P2.54mm_Vertical*%
%TO.CVal,Button_header*%
%TO.CLbN,Connector_PinHeader_2.54mm*%
%TO.CMnt,TH*%
%TO.CRot,180*%
X136525000Y-127645000D03*
D11*
X138324999Y-123295001D02*
X138324999Y-129444999D01*
X134725001Y-129444999D01*
X134725001Y-123295001D01*
X138324999Y-123295001D01*
D12*
%TO.P,J149,1,Pin_1*%
X136525000Y-127645000D03*
D13*
%TO.P,J149,2,Pin_2*%
X136525000Y-125105000D03*
%TD*%
D10*
%TO.C,J89*%
%TO.CFtp,PinHeader_1x02_P2.54mm_Vertical*%
%TO.CVal,Diode_header*%
%TO.CLbN,Connector_PinHeader_2.54mm*%
%TO.CMnt,TH*%
%TO.CRot,180*%
X182245000Y-94620000D03*
D11*
X184044999Y-90270001D02*
X184044999Y-96419999D01*
X180445001Y-96419999D01*
X180445001Y-90270001D01*
X184044999Y-90270001D01*
D12*
%TO.P,J89,1,Pin_1*%
X182245000Y-94620000D03*
D13*
%TO.P,J89,2,Pin_2*%
X182245000Y-92080000D03*
%TD*%
D10*
%TO.C,J13*%
%TO.CFtp,PinHeader_1x02_P2.54mm_Vertical*%
%TO.CVal,Diode_header*%
%TO.CLbN,Connector_PinHeader_2.54mm*%
%TO.CMnt,TH*%
%TO.CRot,180*%
X197485000Y-52705000D03*
D11*
X199284999Y-48355001D02*
X199284999Y-54504999D01*
X195685001Y-54504999D01*
X195685001Y-48355001D01*
X199284999Y-48355001D01*
D12*
%TO.P,J13,1,Pin_1*%
X197485000Y-52705000D03*
D13*
%TO.P,J13,2,Pin_2*%
X197485000Y-50165000D03*
%TD*%
D10*
%TO.C,J96*%
%TO.CFtp,PinHeader_1x02_P2.54mm_Vertical*%
%TO.CVal,Button_header*%
%TO.CLbN,Connector_PinHeader_2.54mm*%
%TO.CMnt,TH*%
%TO.CRot,180*%
X136525000Y-99705000D03*
D11*
X138324999Y-95355001D02*
X138324999Y-101504999D01*
X134725001Y-101504999D01*
X134725001Y-95355001D01*
X138324999Y-95355001D01*
D12*
%TO.P,J96,1,Pin_1*%
X136525000Y-99705000D03*
D13*
%TO.P,J96,2,Pin_2*%
X136525000Y-97165000D03*
%TD*%
D10*
%TO.C,J18*%
%TO.CFtp,PinHeader_1x02_P2.54mm_Vertical*%
%TO.CVal,Button_header*%
%TO.CLbN,Connector_PinHeader_2.54mm*%
%TO.CMnt,TH*%
%TO.CRot,180*%
X136525000Y-57785000D03*
D11*
X138324999Y-53435001D02*
X138324999Y-59584999D01*
X134725001Y-59584999D01*
X134725001Y-53435001D01*
X138324999Y-53435001D01*
D12*
%TO.P,J18,1,Pin_1*%
X136525000Y-57785000D03*
D13*
%TO.P,J18,2,Pin_2*%
X136525000Y-55245000D03*
%TD*%
D10*
%TO.C,J19*%
%TO.CFtp,PinHeader_1x02_P2.54mm_Vertical*%
%TO.CVal,Button_header*%
%TO.CLbN,Connector_PinHeader_2.54mm*%
%TO.CMnt,TH*%
%TO.CRot,180*%
X144145000Y-57785000D03*
D11*
X145944999Y-53435001D02*
X145944999Y-59584999D01*
X142345001Y-59584999D01*
X142345001Y-53435001D01*
X145944999Y-53435001D01*
D12*
%TO.P,J19,1,Pin_1*%
X144145000Y-57785000D03*
D13*
%TO.P,J19,2,Pin_2*%
X144145000Y-55245000D03*
%TD*%
D10*
%TO.C,J57*%
%TO.CFtp,PinHeader_1x02_P2.54mm_Vertical*%
%TO.CVal,Diode_header*%
%TO.CLbN,Connector_PinHeader_2.54mm*%
%TO.CMnt,TH*%
%TO.CRot,180*%
X136525000Y-80655000D03*
D11*
X138324999Y-76305001D02*
X138324999Y-82454999D01*
X134725001Y-82454999D01*
X134725001Y-76305001D01*
X138324999Y-76305001D01*
D12*
%TO.P,J57,1,Pin_1*%
X136525000Y-80655000D03*
D13*
%TO.P,J57,2,Pin_2*%
X136525000Y-78115000D03*
%TD*%
D10*
%TO.C,J79*%
%TO.CFtp,PinHeader_1x02_P2.54mm_Vertical*%
%TO.CVal,Diode_header*%
%TO.CLbN,Connector_PinHeader_2.54mm*%
%TO.CMnt,TH*%
%TO.CRot,180*%
X106045000Y-94615000D03*
D11*
X107844999Y-90265001D02*
X107844999Y-96414999D01*
X104245001Y-96414999D01*
X104245001Y-90265001D01*
X107844999Y-90265001D01*
D12*
%TO.P,J79,1,Pin_1*%
X106045000Y-94615000D03*
D13*
%TO.P,J79,2,Pin_2*%
X106045000Y-92075000D03*
%TD*%
D10*
%TO.C,J44*%
%TO.CFtp,PinHeader_1x02_P2.54mm_Vertical*%
%TO.CVal,Button_header*%
%TO.CLbN,Connector_PinHeader_2.54mm*%
%TO.CMnt,TH*%
%TO.CRot,180*%
X136525000Y-71760000D03*
D11*
X138324999Y-67410001D02*
X138324999Y-73559999D01*
X134725001Y-73559999D01*
X134725001Y-67410001D01*
X138324999Y-67410001D01*
D12*
%TO.P,J44,1,Pin_1*%
X136525000Y-71760000D03*
D13*
%TO.P,J44,2,Pin_2*%
X136525000Y-69220000D03*
%TD*%
D10*
%TO.C,J35*%
%TO.CFtp,PinHeader_1x02_P2.54mm_Vertical*%
%TO.CVal,Diode_header*%
%TO.CLbN,Connector_PinHeader_2.54mm*%
%TO.CMnt,TH*%
%TO.CRot,180*%
X167005000Y-66680000D03*
D11*
X168804999Y-62330001D02*
X168804999Y-68479999D01*
X165205001Y-68479999D01*
X165205001Y-62330001D01*
X168804999Y-62330001D01*
D12*
%TO.P,J35,1,Pin_1*%
X167005000Y-66680000D03*
D13*
%TO.P,J35,2,Pin_2*%
X167005000Y-64140000D03*
%TD*%
D10*
%TO.C,J45*%
%TO.CFtp,PinHeader_1x02_P2.54mm_Vertical*%
%TO.CVal,Button_header*%
%TO.CLbN,Connector_PinHeader_2.54mm*%
%TO.CMnt,TH*%
%TO.CRot,180*%
X144145000Y-71760000D03*
D11*
X145944999Y-67410001D02*
X145944999Y-73559999D01*
X142345001Y-73559999D01*
X142345001Y-67410001D01*
X145944999Y-67410001D01*
D12*
%TO.P,J45,1,Pin_1*%
X144145000Y-71760000D03*
D13*
%TO.P,J45,2,Pin_2*%
X144145000Y-69220000D03*
%TD*%
D10*
%TO.C,J70*%
%TO.CFtp,PinHeader_1x02_P2.54mm_Vertical*%
%TO.CVal,Button_header*%
%TO.CLbN,Connector_PinHeader_2.54mm*%
%TO.CMnt,TH*%
%TO.CRot,180*%
X136525000Y-85735000D03*
D11*
X138324999Y-81385001D02*
X138324999Y-87534999D01*
X134725001Y-87534999D01*
X134725001Y-81385001D01*
X138324999Y-81385001D01*
D12*
%TO.P,J70,1,Pin_1*%
X136525000Y-85735000D03*
D13*
%TO.P,J70,2,Pin_2*%
X136525000Y-83195000D03*
%TD*%
D10*
%TO.C,J67*%
%TO.CFtp,PinHeader_1x02_P2.54mm_Vertical*%
%TO.CVal,Button_header*%
%TO.CLbN,Connector_PinHeader_2.54mm*%
%TO.CMnt,TH*%
%TO.CRot,180*%
X113665000Y-85730000D03*
D11*
X115464999Y-81380001D02*
X115464999Y-87529999D01*
X111865001Y-87529999D01*
X111865001Y-81380001D01*
X115464999Y-81380001D01*
D12*
%TO.P,J67,1,Pin_1*%
X113665000Y-85730000D03*
D13*
%TO.P,J67,2,Pin_2*%
X113665000Y-83190000D03*
%TD*%
D10*
%TO.C,J105*%
%TO.CFtp,PinHeader_1x02_P2.54mm_Vertical*%
%TO.CVal,Diode_header*%
%TO.CLbN,Connector_PinHeader_2.54mm*%
%TO.CMnt,TH*%
%TO.CRot,180*%
X106045000Y-108585000D03*
D11*
X107844999Y-104235001D02*
X107844999Y-110384999D01*
X104245001Y-110384999D01*
X104245001Y-104235001D01*
X107844999Y-104235001D01*
D12*
%TO.P,J105,1,Pin_1*%
X106045000Y-108585000D03*
D13*
%TO.P,J105,2,Pin_2*%
X106045000Y-106045000D03*
%TD*%
D10*
%TO.C,J47*%
%TO.CFtp,PinHeader_1x02_P2.54mm_Vertical*%
%TO.CVal,Button_header*%
%TO.CLbN,Connector_PinHeader_2.54mm*%
%TO.CMnt,TH*%
%TO.CRot,180*%
X159385000Y-71760000D03*
D11*
X161184999Y-67410001D02*
X161184999Y-73559999D01*
X157585001Y-73559999D01*
X157585001Y-67410001D01*
X161184999Y-67410001D01*
D12*
%TO.P,J47,1,Pin_1*%
X159385000Y-71760000D03*
D13*
%TO.P,J47,2,Pin_2*%
X159385000Y-69220000D03*
%TD*%
D10*
%TO.C,J144*%
%TO.CFtp,PinHeader_1x02_P2.54mm_Vertical*%
%TO.CVal,Button_header*%
%TO.CLbN,Connector_PinHeader_2.54mm*%
%TO.CMnt,TH*%
%TO.CRot,180*%
X197485000Y-127645000D03*
D11*
X199284999Y-123295001D02*
X199284999Y-129444999D01*
X195685001Y-129444999D01*
X195685001Y-123295001D01*
X199284999Y-123295001D01*
D12*
%TO.P,J144,1,Pin_1*%
X197485000Y-127645000D03*
D13*
%TO.P,J144,2,Pin_2*%
X197485000Y-125105000D03*
%TD*%
D10*
%TO.C,J84*%
%TO.CFtp,PinHeader_1x02_P2.54mm_Vertical*%
%TO.CVal,Diode_header*%
%TO.CLbN,Connector_PinHeader_2.54mm*%
%TO.CMnt,TH*%
%TO.CRot,180*%
X144145000Y-94620000D03*
D11*
X145944999Y-90270001D02*
X145944999Y-96419999D01*
X142345001Y-96419999D01*
X142345001Y-90270001D01*
X145944999Y-90270001D01*
D12*
%TO.P,J84,1,Pin_1*%
X144145000Y-94620000D03*
D13*
%TO.P,J84,2,Pin_2*%
X144145000Y-92080000D03*
%TD*%
D10*
%TO.C,J12*%
%TO.CFtp,PinHeader_1x02_P2.54mm_Vertical*%
%TO.CVal,Diode_header*%
%TO.CLbN,Connector_PinHeader_2.54mm*%
%TO.CMnt,TH*%
%TO.CRot,180*%
X189865000Y-52705000D03*
D11*
X191664999Y-48355001D02*
X191664999Y-54504999D01*
X188065001Y-54504999D01*
X188065001Y-48355001D01*
X191664999Y-48355001D01*
D12*
%TO.P,J12,1,Pin_1*%
X189865000Y-52705000D03*
D13*
%TO.P,J12,2,Pin_2*%
X189865000Y-50165000D03*
%TD*%
D10*
%TO.C,J26*%
%TO.CFtp,PinHeader_1x02_P2.54mm_Vertical*%
%TO.CVal,Button_header*%
%TO.CLbN,Connector_PinHeader_2.54mm*%
%TO.CMnt,TH*%
%TO.CRot,180*%
X197485000Y-57785000D03*
D11*
X199284999Y-53435001D02*
X199284999Y-59584999D01*
X195685001Y-59584999D01*
X195685001Y-53435001D01*
X199284999Y-53435001D01*
D12*
%TO.P,J26,1,Pin_1*%
X197485000Y-57785000D03*
D13*
%TO.P,J26,2,Pin_2*%
X197485000Y-55245000D03*
%TD*%
D10*
%TO.C,J120*%
%TO.CFtp,PinHeader_1x02_P2.54mm_Vertical*%
%TO.CVal,Button_header*%
%TO.CLbN,Connector_PinHeader_2.54mm*%
%TO.CMnt,TH*%
%TO.CRot,180*%
X121285000Y-113675000D03*
D11*
X123084999Y-109325001D02*
X123084999Y-115474999D01*
X119485001Y-115474999D01*
X119485001Y-109325001D01*
X123084999Y-109325001D01*
D12*
%TO.P,J120,1,Pin_1*%
X121285000Y-113675000D03*
D13*
%TO.P,J120,2,Pin_2*%
X121285000Y-111135000D03*
%TD*%
D10*
%TO.C,J39*%
%TO.CFtp,PinHeader_1x02_P2.54mm_Vertical*%
%TO.CVal,Diode_header*%
%TO.CLbN,Connector_PinHeader_2.54mm*%
%TO.CMnt,TH*%
%TO.CRot,180*%
X197485000Y-66685000D03*
D11*
X199284999Y-62335001D02*
X199284999Y-68484999D01*
X195685001Y-68484999D01*
X195685001Y-62335001D01*
X199284999Y-62335001D01*
D12*
%TO.P,J39,1,Pin_1*%
X197485000Y-66685000D03*
D13*
%TO.P,J39,2,Pin_2*%
X197485000Y-64145000D03*
%TD*%
D10*
%TO.C,J62*%
%TO.CFtp,PinHeader_1x02_P2.54mm_Vertical*%
%TO.CVal,Diode_header*%
%TO.CLbN,Connector_PinHeader_2.54mm*%
%TO.CMnt,TH*%
%TO.CRot,180*%
X174625000Y-80650000D03*
D11*
X176424999Y-76300001D02*
X176424999Y-82449999D01*
X172825001Y-82449999D01*
X172825001Y-76300001D01*
X176424999Y-76300001D01*
D12*
%TO.P,J62,1,Pin_1*%
X174625000Y-80650000D03*
D13*
%TO.P,J62,2,Pin_2*%
X174625000Y-78110000D03*
%TD*%
D10*
%TO.C,J142*%
%TO.CFtp,PinHeader_1x02_P2.54mm_Vertical*%
%TO.CVal,Diode_header*%
%TO.CLbN,Connector_PinHeader_2.54mm*%
%TO.CMnt,TH*%
%TO.CRot,180*%
X182245000Y-122560000D03*
D11*
X184044999Y-118210001D02*
X184044999Y-124359999D01*
X180445001Y-124359999D01*
X180445001Y-118210001D01*
X184044999Y-118210001D01*
D12*
%TO.P,J142,1,Pin_1*%
X182245000Y-122560000D03*
D13*
%TO.P,J142,2,Pin_2*%
X182245000Y-120020000D03*
%TD*%
D10*
%TO.C,J112*%
%TO.CFtp,PinHeader_1x02_P2.54mm_Vertical*%
%TO.CVal,Diode_header*%
%TO.CLbN,Connector_PinHeader_2.54mm*%
%TO.CMnt,TH*%
%TO.CRot,180*%
X159385000Y-108590000D03*
D11*
X161184999Y-104240001D02*
X161184999Y-110389999D01*
X157585001Y-110389999D01*
X157585001Y-104240001D01*
X161184999Y-104240001D01*
D12*
%TO.P,J112,1,Pin_1*%
X159385000Y-108590000D03*
D13*
%TO.P,J112,2,Pin_2*%
X159385000Y-106050000D03*
%TD*%
D10*
%TO.C,J135*%
%TO.CFtp,PinHeader_1x02_P2.54mm_Vertical*%
%TO.CVal,Diode_header*%
%TO.CLbN,Connector_PinHeader_2.54mm*%
%TO.CMnt,TH*%
%TO.CRot,180*%
X128905000Y-122565000D03*
D11*
X130704999Y-118215001D02*
X130704999Y-124364999D01*
X127105001Y-124364999D01*
X127105001Y-118215001D01*
X130704999Y-118215001D01*
D12*
%TO.P,J135,1,Pin_1*%
X128905000Y-122565000D03*
D13*
%TO.P,J135,2,Pin_2*%
X128905000Y-120025000D03*
%TD*%
D10*
%TO.C,J110*%
%TO.CFtp,PinHeader_1x02_P2.54mm_Vertical*%
%TO.CVal,Diode_header*%
%TO.CLbN,Connector_PinHeader_2.54mm*%
%TO.CMnt,TH*%
%TO.CRot,180*%
X144145000Y-108590000D03*
D11*
X145944999Y-104240001D02*
X145944999Y-110389999D01*
X142345001Y-110389999D01*
X142345001Y-104240001D01*
X145944999Y-104240001D01*
D12*
%TO.P,J110,1,Pin_1*%
X144145000Y-108590000D03*
D13*
%TO.P,J110,2,Pin_2*%
X144145000Y-106050000D03*
%TD*%
D10*
%TO.C,J87*%
%TO.CFtp,PinHeader_1x02_P2.54mm_Vertical*%
%TO.CVal,Diode_header*%
%TO.CLbN,Connector_PinHeader_2.54mm*%
%TO.CMnt,TH*%
%TO.CRot,180*%
X167005000Y-94620000D03*
D11*
X168804999Y-90270001D02*
X168804999Y-96419999D01*
X165205001Y-96419999D01*
X165205001Y-90270001D01*
X168804999Y-90270001D01*
D12*
%TO.P,J87,1,Pin_1*%
X167005000Y-94620000D03*
D13*
%TO.P,J87,2,Pin_2*%
X167005000Y-92080000D03*
%TD*%
D10*
%TO.C,J104*%
%TO.CFtp,PinHeader_1x02_P2.54mm_Vertical*%
%TO.CVal,Button_header*%
%TO.CLbN,Connector_PinHeader_2.54mm*%
%TO.CMnt,TH*%
%TO.CRot,180*%
X197485000Y-99700000D03*
D11*
X199284999Y-95350001D02*
X199284999Y-101499999D01*
X195685001Y-101499999D01*
X195685001Y-95350001D01*
X199284999Y-95350001D01*
D12*
%TO.P,J104,1,Pin_1*%
X197485000Y-99700000D03*
D13*
%TO.P,J104,2,Pin_2*%
X197485000Y-97160000D03*
%TD*%
D10*
%TO.C,J95*%
%TO.CFtp,PinHeader_1x02_P2.54mm_Vertical*%
%TO.CVal,Button_header*%
%TO.CLbN,Connector_PinHeader_2.54mm*%
%TO.CMnt,TH*%
%TO.CRot,180*%
X128905000Y-99705000D03*
D11*
X130704999Y-95355001D02*
X130704999Y-101504999D01*
X127105001Y-101504999D01*
X127105001Y-95355001D01*
X130704999Y-95355001D01*
D12*
%TO.P,J95,1,Pin_1*%
X128905000Y-99705000D03*
D13*
%TO.P,J95,2,Pin_2*%
X128905000Y-97165000D03*
%TD*%
D10*
%TO.C,J15*%
%TO.CFtp,PinHeader_1x02_P2.54mm_Vertical*%
%TO.CVal,Button_header*%
%TO.CLbN,Connector_PinHeader_2.54mm*%
%TO.CMnt,TH*%
%TO.CRot,180*%
X113665000Y-57785000D03*
D11*
X115464999Y-53435001D02*
X115464999Y-59584999D01*
X111865001Y-59584999D01*
X111865001Y-53435001D01*
X115464999Y-53435001D01*
D12*
%TO.P,J15,1,Pin_1*%
X113665000Y-57785000D03*
D13*
%TO.P,J15,2,Pin_2*%
X113665000Y-55245000D03*
%TD*%
D10*
%TO.C,J129*%
%TO.CFtp,PinHeader_1x02_P2.54mm_Vertical*%
%TO.CVal,Button_header*%
%TO.CLbN,Connector_PinHeader_2.54mm*%
%TO.CMnt,TH*%
%TO.CRot,180*%
X189865000Y-113675000D03*
D11*
X191664999Y-109325001D02*
X191664999Y-115474999D01*
X188065001Y-115474999D01*
X188065001Y-109325001D01*
X191664999Y-109325001D01*
D12*
%TO.P,J129,1,Pin_1*%
X189865000Y-113675000D03*
D13*
%TO.P,J129,2,Pin_2*%
X189865000Y-111135000D03*
%TD*%
D10*
%TO.C,J117*%
%TO.CFtp,PinHeader_1x02_P2.54mm_Vertical*%
%TO.CVal,Diode_header*%
%TO.CLbN,Connector_PinHeader_2.54mm*%
%TO.CMnt,TH*%
%TO.CRot,180*%
X197485000Y-108590000D03*
D11*
X199284999Y-104240001D02*
X199284999Y-110389999D01*
X195685001Y-110389999D01*
X195685001Y-104240001D01*
X199284999Y-104240001D01*
D12*
%TO.P,J117,1,Pin_1*%
X197485000Y-108590000D03*
D13*
%TO.P,J117,2,Pin_2*%
X197485000Y-106050000D03*
%TD*%
D10*
%TO.C,J91*%
%TO.CFtp,PinHeader_1x02_P2.54mm_Vertical*%
%TO.CVal,Diode_header*%
%TO.CLbN,Connector_PinHeader_2.54mm*%
%TO.CMnt,TH*%
%TO.CRot,180*%
X197485000Y-94625000D03*
D11*
X199284999Y-90275001D02*
X199284999Y-96424999D01*
X195685001Y-96424999D01*
X195685001Y-90275001D01*
X199284999Y-90275001D01*
D12*
%TO.P,J91,1,Pin_1*%
X197485000Y-94625000D03*
D13*
%TO.P,J91,2,Pin_2*%
X197485000Y-92085000D03*
%TD*%
D10*
%TO.C,J145*%
%TO.CFtp,PinHeader_1x02_P2.54mm_Vertical*%
%TO.CVal,Button_header*%
%TO.CLbN,Connector_PinHeader_2.54mm*%
%TO.CMnt,TH*%
%TO.CRot,180*%
X106045000Y-127635000D03*
D11*
X107844999Y-123285001D02*
X107844999Y-129434999D01*
X104245001Y-129434999D01*
X104245001Y-123285001D01*
X107844999Y-123285001D01*
D12*
%TO.P,J145,1,Pin_1*%
X106045000Y-127635000D03*
D13*
%TO.P,J145,2,Pin_2*%
X106045000Y-125095000D03*
%TD*%
D10*
%TO.C,J33*%
%TO.CFtp,PinHeader_1x02_P2.54mm_Vertical*%
%TO.CVal,Diode_header*%
%TO.CLbN,Connector_PinHeader_2.54mm*%
%TO.CMnt,TH*%
%TO.CRot,180*%
X151765000Y-66680000D03*
D11*
X153564999Y-62330001D02*
X153564999Y-68479999D01*
X149965001Y-68479999D01*
X149965001Y-62330001D01*
X153564999Y-62330001D01*
D12*
%TO.P,J33,1,Pin_1*%
X151765000Y-66680000D03*
D13*
%TO.P,J33,2,Pin_2*%
X151765000Y-64140000D03*
%TD*%
D10*
%TO.C,J113*%
%TO.CFtp,PinHeader_1x02_P2.54mm_Vertical*%
%TO.CVal,Diode_header*%
%TO.CLbN,Connector_PinHeader_2.54mm*%
%TO.CMnt,TH*%
%TO.CRot,180*%
X167005000Y-108590000D03*
D11*
X168804999Y-104240001D02*
X168804999Y-110389999D01*
X165205001Y-110389999D01*
X165205001Y-104240001D01*
X168804999Y-104240001D01*
D12*
%TO.P,J113,1,Pin_1*%
X167005000Y-108590000D03*
D13*
%TO.P,J113,2,Pin_2*%
X167005000Y-106050000D03*
%TD*%
D10*
%TO.C,J51*%
%TO.CFtp,PinHeader_1x02_P2.54mm_Vertical*%
%TO.CVal,Button_header*%
%TO.CLbN,Connector_PinHeader_2.54mm*%
%TO.CMnt,TH*%
%TO.CRot,180*%
X189865000Y-71760000D03*
D11*
X191664999Y-67410001D02*
X191664999Y-73559999D01*
X188065001Y-73559999D01*
X188065001Y-67410001D01*
X191664999Y-67410001D01*
D12*
%TO.P,J51,1,Pin_1*%
X189865000Y-71760000D03*
D13*
%TO.P,J51,2,Pin_2*%
X189865000Y-69220000D03*
%TD*%
D10*
%TO.C,D1*%
%TO.CFtp,LED_0805_2012Metric*%
%TO.CVal,LED_Small*%
%TO.CLbN,LED_SMD*%
%TO.CMnt,SMD*%
%TO.CRot,90*%
X134620000Y-141627939D03*
D11*
X135569999Y-139947940D02*
X135569999Y-143307938D01*
X133670001Y-143307938D01*
X133670001Y-139947940D01*
X135569999Y-139947940D01*
D12*
%TO.P,D1,1,K*%
X134620000Y-142565439D03*
D13*
%TO.P,D1,2,A*%
X134620000Y-140690439D03*
%TD*%
D10*
%TO.C,J114*%
%TO.CFtp,PinHeader_1x02_P2.54mm_Vertical*%
%TO.CVal,Diode_header*%
%TO.CLbN,Connector_PinHeader_2.54mm*%
%TO.CMnt,TH*%
%TO.CRot,180*%
X174625000Y-108590000D03*
D11*
X176424999Y-104240001D02*
X176424999Y-110389999D01*
X172825001Y-110389999D01*
X172825001Y-104240001D01*
X176424999Y-104240001D01*
D12*
%TO.P,J114,1,Pin_1*%
X174625000Y-108590000D03*
D13*
%TO.P,J114,2,Pin_2*%
X174625000Y-106050000D03*
%TD*%
D10*
%TO.C,J141*%
%TO.CFtp,PinHeader_1x02_P2.54mm_Vertical*%
%TO.CVal,Diode_header*%
%TO.CLbN,Connector_PinHeader_2.54mm*%
%TO.CMnt,TH*%
%TO.CRot,180*%
X174625000Y-122565000D03*
D11*
X176424999Y-118215001D02*
X176424999Y-124364999D01*
X172825001Y-124364999D01*
X172825001Y-118215001D01*
X176424999Y-118215001D01*
D12*
%TO.P,J141,1,Pin_1*%
X174625000Y-122565000D03*
D13*
%TO.P,J141,2,Pin_2*%
X174625000Y-120025000D03*
%TD*%
D10*
%TO.C,J10*%
%TO.CFtp,PinHeader_1x02_P2.54mm_Vertical*%
%TO.CVal,Diode_header*%
%TO.CLbN,Connector_PinHeader_2.54mm*%
%TO.CMnt,TH*%
%TO.CRot,180*%
X174625000Y-52705000D03*
D11*
X176424999Y-48355001D02*
X176424999Y-54504999D01*
X172825001Y-54504999D01*
X172825001Y-48355001D01*
X176424999Y-48355001D01*
D12*
%TO.P,J10,1,Pin_1*%
X174625000Y-52705000D03*
D13*
%TO.P,J10,2,Pin_2*%
X174625000Y-50165000D03*
%TD*%
D10*
%TO.C,J86*%
%TO.CFtp,PinHeader_1x02_P2.54mm_Vertical*%
%TO.CVal,Diode_header*%
%TO.CLbN,Connector_PinHeader_2.54mm*%
%TO.CMnt,TH*%
%TO.CRot,180*%
X159385000Y-94625000D03*
D11*
X161184999Y-90275001D02*
X161184999Y-96424999D01*
X157585001Y-96424999D01*
X157585001Y-90275001D01*
X161184999Y-90275001D01*
D12*
%TO.P,J86,1,Pin_1*%
X159385000Y-94625000D03*
D13*
%TO.P,J86,2,Pin_2*%
X159385000Y-92085000D03*
%TD*%
D10*
%TO.C,J83*%
%TO.CFtp,PinHeader_1x02_P2.54mm_Vertical*%
%TO.CVal,Diode_header*%
%TO.CLbN,Connector_PinHeader_2.54mm*%
%TO.CMnt,TH*%
%TO.CRot,180*%
X136525000Y-94625000D03*
D11*
X138324999Y-90275001D02*
X138324999Y-96424999D01*
X134725001Y-96424999D01*
X134725001Y-90275001D01*
X138324999Y-90275001D01*
D12*
%TO.P,J83,1,Pin_1*%
X136525000Y-94625000D03*
D13*
%TO.P,J83,2,Pin_2*%
X136525000Y-92085000D03*
%TD*%
D10*
%TO.C,J53*%
%TO.CFtp,PinHeader_1x02_P2.54mm_Vertical*%
%TO.CVal,Diode_header*%
%TO.CLbN,Connector_PinHeader_2.54mm*%
%TO.CMnt,TH*%
%TO.CRot,180*%
X106045000Y-80645000D03*
D11*
X107844999Y-76295001D02*
X107844999Y-82444999D01*
X104245001Y-82444999D01*
X104245001Y-76295001D01*
X107844999Y-76295001D01*
D12*
%TO.P,J53,1,Pin_1*%
X106045000Y-80645000D03*
D13*
%TO.P,J53,2,Pin_2*%
X106045000Y-78105000D03*
%TD*%
D10*
%TO.C,J82*%
%TO.CFtp,PinHeader_1x02_P2.54mm_Vertical*%
%TO.CVal,Diode_header*%
%TO.CLbN,Connector_PinHeader_2.54mm*%
%TO.CMnt,TH*%
%TO.CRot,180*%
X128905000Y-94620000D03*
D11*
X130704999Y-90270001D02*
X130704999Y-96419999D01*
X127105001Y-96419999D01*
X127105001Y-90270001D01*
X130704999Y-90270001D01*
D12*
%TO.P,J82,1,Pin_1*%
X128905000Y-94620000D03*
D13*
%TO.P,J82,2,Pin_2*%
X128905000Y-92080000D03*
%TD*%
D10*
%TO.C,J17*%
%TO.CFtp,PinHeader_1x02_P2.54mm_Vertical*%
%TO.CVal,Button_header*%
%TO.CLbN,Connector_PinHeader_2.54mm*%
%TO.CMnt,TH*%
%TO.CRot,180*%
X128905000Y-57785000D03*
D11*
X130704999Y-53435001D02*
X130704999Y-59584999D01*
X127105001Y-59584999D01*
X127105001Y-53435001D01*
X130704999Y-53435001D01*
D12*
%TO.P,J17,1,Pin_1*%
X128905000Y-57785000D03*
D13*
%TO.P,J17,2,Pin_2*%
X128905000Y-55245000D03*
%TD*%
D10*
%TO.C,J146*%
%TO.CFtp,PinHeader_1x02_P2.54mm_Vertical*%
%TO.CVal,Button_header*%
%TO.CLbN,Connector_PinHeader_2.54mm*%
%TO.CMnt,TH*%
%TO.CRot,180*%
X113665000Y-127640000D03*
D11*
X115464999Y-123290001D02*
X115464999Y-129439999D01*
X111865001Y-129439999D01*
X111865001Y-123290001D01*
X115464999Y-123290001D01*
D12*
%TO.P,J146,1,Pin_1*%
X113665000Y-127640000D03*
D13*
%TO.P,J146,2,Pin_2*%
X113665000Y-125100000D03*
%TD*%
D10*
%TO.C,J9*%
%TO.CFtp,PinHeader_1x02_P2.54mm_Vertical*%
%TO.CVal,Diode_header*%
%TO.CLbN,Connector_PinHeader_2.54mm*%
%TO.CMnt,TH*%
%TO.CRot,180*%
X167005000Y-52705000D03*
D11*
X168804999Y-48355001D02*
X168804999Y-54504999D01*
X165205001Y-54504999D01*
X165205001Y-48355001D01*
X168804999Y-48355001D01*
D12*
%TO.P,J9,1,Pin_1*%
X167005000Y-52705000D03*
D13*
%TO.P,J9,2,Pin_2*%
X167005000Y-50165000D03*
%TD*%
D10*
%TO.C,J140*%
%TO.CFtp,PinHeader_1x02_P2.54mm_Vertical*%
%TO.CVal,Diode_header*%
%TO.CLbN,Connector_PinHeader_2.54mm*%
%TO.CMnt,TH*%
%TO.CRot,180*%
X167005000Y-122565000D03*
D11*
X168804999Y-118215001D02*
X168804999Y-124364999D01*
X165205001Y-124364999D01*
X165205001Y-118215001D01*
X168804999Y-118215001D01*
D12*
%TO.P,J140,1,Pin_1*%
X167005000Y-122565000D03*
D13*
%TO.P,J140,2,Pin_2*%
X167005000Y-120025000D03*
%TD*%
D10*
%TO.C,J119*%
%TO.CFtp,PinHeader_1x02_P2.54mm_Vertical*%
%TO.CVal,Button_header*%
%TO.CLbN,Connector_PinHeader_2.54mm*%
%TO.CMnt,TH*%
%TO.CRot,180*%
X113665000Y-113670000D03*
D11*
X115464999Y-109320001D02*
X115464999Y-115469999D01*
X111865001Y-115469999D01*
X111865001Y-109320001D01*
X115464999Y-109320001D01*
D12*
%TO.P,J119,1,Pin_1*%
X113665000Y-113670000D03*
D13*
%TO.P,J119,2,Pin_2*%
X113665000Y-111130000D03*
%TD*%
D10*
%TO.C,J64*%
%TO.CFtp,PinHeader_1x02_P2.54mm_Vertical*%
%TO.CVal,Diode_header*%
%TO.CLbN,Connector_PinHeader_2.54mm*%
%TO.CMnt,TH*%
%TO.CRot,180*%
X189865000Y-80655000D03*
D11*
X191664999Y-76305001D02*
X191664999Y-82454999D01*
X188065001Y-82454999D01*
X188065001Y-76305001D01*
X191664999Y-76305001D01*
D12*
%TO.P,J64,1,Pin_1*%
X189865000Y-80655000D03*
D13*
%TO.P,J64,2,Pin_2*%
X189865000Y-78115000D03*
%TD*%
D10*
%TO.C,J94*%
%TO.CFtp,PinHeader_1x02_P2.54mm_Vertical*%
%TO.CVal,Button_header*%
%TO.CLbN,Connector_PinHeader_2.54mm*%
%TO.CMnt,TH*%
%TO.CRot,180*%
X121285000Y-99705000D03*
D11*
X123084999Y-95355001D02*
X123084999Y-101504999D01*
X119485001Y-101504999D01*
X119485001Y-95355001D01*
X123084999Y-95355001D01*
D12*
%TO.P,J94,1,Pin_1*%
X121285000Y-99705000D03*
D13*
%TO.P,J94,2,Pin_2*%
X121285000Y-97165000D03*
%TD*%
D10*
%TO.C,J125*%
%TO.CFtp,PinHeader_1x02_P2.54mm_Vertical*%
%TO.CVal,Button_header*%
%TO.CLbN,Connector_PinHeader_2.54mm*%
%TO.CMnt,TH*%
%TO.CRot,180*%
X159385000Y-113675000D03*
D11*
X161184999Y-109325001D02*
X161184999Y-115474999D01*
X157585001Y-115474999D01*
X157585001Y-109325001D01*
X161184999Y-109325001D01*
D12*
%TO.P,J125,1,Pin_1*%
X159385000Y-113675000D03*
D13*
%TO.P,J125,2,Pin_2*%
X159385000Y-111135000D03*
%TD*%
D10*
%TO.C,J2*%
%TO.CFtp,PinHeader_1x02_P2.54mm_Vertical*%
%TO.CVal,Diode_header*%
%TO.CLbN,Connector_PinHeader_2.54mm*%
%TO.CMnt,TH*%
%TO.CRot,180*%
X113665000Y-52705000D03*
D11*
X115464999Y-48355001D02*
X115464999Y-54504999D01*
X111865001Y-54504999D01*
X111865001Y-48355001D01*
X115464999Y-48355001D01*
D12*
%TO.P,J2,1,Pin_1*%
X113665000Y-52705000D03*
D13*
%TO.P,J2,2,Pin_2*%
X113665000Y-50165000D03*
%TD*%
D10*
%TO.C,J124*%
%TO.CFtp,PinHeader_1x02_P2.54mm_Vertical*%
%TO.CVal,Button_header*%
%TO.CLbN,Connector_PinHeader_2.54mm*%
%TO.CMnt,TH*%
%TO.CRot,180*%
X151765000Y-113675000D03*
D11*
X153564999Y-109325001D02*
X153564999Y-115474999D01*
X149965001Y-115474999D01*
X149965001Y-109325001D01*
X153564999Y-109325001D01*
D12*
%TO.P,J124,1,Pin_1*%
X151765000Y-113675000D03*
D13*
%TO.P,J124,2,Pin_2*%
X151765000Y-111135000D03*
%TD*%
D10*
%TO.C,J147*%
%TO.CFtp,PinHeader_1x02_P2.54mm_Vertical*%
%TO.CVal,Button_header*%
%TO.CLbN,Connector_PinHeader_2.54mm*%
%TO.CMnt,TH*%
%TO.CRot,180*%
X121285000Y-127640000D03*
D11*
X123084999Y-123290001D02*
X123084999Y-129439999D01*
X119485001Y-129439999D01*
X119485001Y-123290001D01*
X123084999Y-123290001D01*
D12*
%TO.P,J147,1,Pin_1*%
X121285000Y-127640000D03*
D13*
%TO.P,J147,2,Pin_2*%
X121285000Y-125100000D03*
%TD*%
D10*
%TO.C,J148*%
%TO.CFtp,PinHeader_1x02_P2.54mm_Vertical*%
%TO.CVal,Button_header*%
%TO.CLbN,Connector_PinHeader_2.54mm*%
%TO.CMnt,TH*%
%TO.CRot,180*%
X128905000Y-127640000D03*
D11*
X130704999Y-123290001D02*
X130704999Y-129439999D01*
X127105001Y-129439999D01*
X127105001Y-123290001D01*
X130704999Y-123290001D01*
D12*
%TO.P,J148,1,Pin_1*%
X128905000Y-127640000D03*
D13*
%TO.P,J148,2,Pin_2*%
X128905000Y-125100000D03*
%TD*%
D10*
%TO.C,J150*%
%TO.CFtp,PinHeader_1x02_P2.54mm_Vertical*%
%TO.CVal,Button_header*%
%TO.CLbN,Connector_PinHeader_2.54mm*%
%TO.CMnt,TH*%
%TO.CRot,180*%
X144145000Y-127645000D03*
D11*
X145944999Y-123295001D02*
X145944999Y-129444999D01*
X142345001Y-129444999D01*
X142345001Y-123295001D01*
X145944999Y-123295001D01*
D12*
%TO.P,J150,1,Pin_1*%
X144145000Y-127645000D03*
D13*
%TO.P,J150,2,Pin_2*%
X144145000Y-125105000D03*
%TD*%
D10*
%TO.C,J93*%
%TO.CFtp,PinHeader_1x02_P2.54mm_Vertical*%
%TO.CVal,Button_header*%
%TO.CLbN,Connector_PinHeader_2.54mm*%
%TO.CMnt,TH*%
%TO.CRot,180*%
X113665000Y-99700000D03*
D11*
X115464999Y-95350001D02*
X115464999Y-101499999D01*
X111865001Y-101499999D01*
X111865001Y-95350001D01*
X115464999Y-95350001D01*
D12*
%TO.P,J93,1,Pin_1*%
X113665000Y-99700000D03*
D13*
%TO.P,J93,2,Pin_2*%
X113665000Y-97160000D03*
%TD*%
D10*
%TO.C,J30*%
%TO.CFtp,PinHeader_1x02_P2.54mm_Vertical*%
%TO.CVal,Diode_header*%
%TO.CLbN,Connector_PinHeader_2.54mm*%
%TO.CMnt,TH*%
%TO.CRot,180*%
X128905000Y-66680000D03*
D11*
X130704999Y-62330001D02*
X130704999Y-68479999D01*
X127105001Y-68479999D01*
X127105001Y-62330001D01*
X130704999Y-62330001D01*
D12*
%TO.P,J30,1,Pin_1*%
X128905000Y-66680000D03*
D13*
%TO.P,J30,2,Pin_2*%
X128905000Y-64140000D03*
%TD*%
D10*
%TO.C,J3*%
%TO.CFtp,PinHeader_1x02_P2.54mm_Vertical*%
%TO.CVal,Diode_header*%
%TO.CLbN,Connector_PinHeader_2.54mm*%
%TO.CMnt,TH*%
%TO.CRot,180*%
X121285000Y-52705000D03*
D11*
X123084999Y-48355001D02*
X123084999Y-54504999D01*
X119485001Y-54504999D01*
X119485001Y-48355001D01*
X123084999Y-48355001D01*
D12*
%TO.P,J3,1,Pin_1*%
X121285000Y-52705000D03*
D13*
%TO.P,J3,2,Pin_2*%
X121285000Y-50165000D03*
%TD*%
D10*
%TO.C,J1*%
%TO.CFtp,PinHeader_1x02_P2.54mm_Vertical*%
%TO.CVal,Diode_header*%
%TO.CLbN,Connector_PinHeader_2.54mm*%
%TO.CMnt,TH*%
%TO.CRot,180*%
X106045000Y-52705000D03*
D11*
X107844999Y-48355001D02*
X107844999Y-54504999D01*
X104245001Y-54504999D01*
X104245001Y-48355001D01*
X107844999Y-48355001D01*
D12*
%TO.P,J1,1,Pin_1*%
X106045000Y-52705000D03*
D13*
%TO.P,J1,2,Pin_2*%
X106045000Y-50165000D03*
%TD*%
D10*
%TO.C,J137*%
%TO.CFtp,PinHeader_1x02_P2.54mm_Vertical*%
%TO.CVal,Diode_header*%
%TO.CLbN,Connector_PinHeader_2.54mm*%
%TO.CMnt,TH*%
%TO.CRot,180*%
X144145000Y-122565000D03*
D11*
X145944999Y-118215001D02*
X145944999Y-124364999D01*
X142345001Y-124364999D01*
X142345001Y-118215001D01*
X145944999Y-118215001D01*
D12*
%TO.P,J137,1,Pin_1*%
X144145000Y-122565000D03*
D13*
%TO.P,J137,2,Pin_2*%
X144145000Y-120025000D03*
%TD*%
D10*
%TO.C,J52*%
%TO.CFtp,PinHeader_1x02_P2.54mm_Vertical*%
%TO.CVal,Button_header*%
%TO.CLbN,Connector_PinHeader_2.54mm*%
%TO.CMnt,TH*%
%TO.CRot,180*%
X197485000Y-71765000D03*
D11*
X199284999Y-67415001D02*
X199284999Y-73564999D01*
X195685001Y-73564999D01*
X195685001Y-67415001D01*
X199284999Y-67415001D01*
D12*
%TO.P,J52,1,Pin_1*%
X197485000Y-71765000D03*
D13*
%TO.P,J52,2,Pin_2*%
X197485000Y-69225000D03*
%TD*%
D10*
%TO.C,J11*%
%TO.CFtp,PinHeader_1x02_P2.54mm_Vertical*%
%TO.CVal,Diode_header*%
%TO.CLbN,Connector_PinHeader_2.54mm*%
%TO.CMnt,TH*%
%TO.CRot,180*%
X182245000Y-52705000D03*
D11*
X184044999Y-48355001D02*
X184044999Y-54504999D01*
X180445001Y-54504999D01*
X180445001Y-48355001D01*
X184044999Y-48355001D01*
D12*
%TO.P,J11,1,Pin_1*%
X182245000Y-52705000D03*
D13*
%TO.P,J11,2,Pin_2*%
X182245000Y-50165000D03*
%TD*%
D10*
%TO.C,J54*%
%TO.CFtp,PinHeader_1x02_P2.54mm_Vertical*%
%TO.CVal,Diode_header*%
%TO.CLbN,Connector_PinHeader_2.54mm*%
%TO.CMnt,TH*%
%TO.CRot,180*%
X113665000Y-80650000D03*
D11*
X115464999Y-76300001D02*
X115464999Y-82449999D01*
X111865001Y-82449999D01*
X111865001Y-76300001D01*
X115464999Y-76300001D01*
D12*
%TO.P,J54,1,Pin_1*%
X113665000Y-80650000D03*
D13*
%TO.P,J54,2,Pin_2*%
X113665000Y-78110000D03*
%TD*%
D10*
%TO.C,J59*%
%TO.CFtp,PinHeader_1x02_P2.54mm_Vertical*%
%TO.CVal,Diode_header*%
%TO.CLbN,Connector_PinHeader_2.54mm*%
%TO.CMnt,TH*%
%TO.CRot,180*%
X151765000Y-80655000D03*
D11*
X153564999Y-76305001D02*
X153564999Y-82454999D01*
X149965001Y-82454999D01*
X149965001Y-76305001D01*
X153564999Y-76305001D01*
D12*
%TO.P,J59,1,Pin_1*%
X151765000Y-80655000D03*
D13*
%TO.P,J59,2,Pin_2*%
X151765000Y-78115000D03*
%TD*%
D10*
%TO.C,J74*%
%TO.CFtp,PinHeader_1x02_P2.54mm_Vertical*%
%TO.CVal,Button_header*%
%TO.CLbN,Connector_PinHeader_2.54mm*%
%TO.CMnt,TH*%
%TO.CRot,180*%
X167005000Y-85735000D03*
D11*
X168804999Y-81385001D02*
X168804999Y-87534999D01*
X165205001Y-87534999D01*
X165205001Y-81385001D01*
X168804999Y-81385001D01*
D12*
%TO.P,J74,1,Pin_1*%
X167005000Y-85735000D03*
D13*
%TO.P,J74,2,Pin_2*%
X167005000Y-83195000D03*
%TD*%
D10*
%TO.C,J111*%
%TO.CFtp,PinHeader_1x02_P2.54mm_Vertical*%
%TO.CVal,Diode_header*%
%TO.CLbN,Connector_PinHeader_2.54mm*%
%TO.CMnt,TH*%
%TO.CRot,180*%
X151765000Y-108590000D03*
D11*
X153564999Y-104240001D02*
X153564999Y-110389999D01*
X149965001Y-110389999D01*
X149965001Y-104240001D01*
X153564999Y-104240001D01*
D12*
%TO.P,J111,1,Pin_1*%
X151765000Y-108590000D03*
D13*
%TO.P,J111,2,Pin_2*%
X151765000Y-106050000D03*
%TD*%
D10*
%TO.C,J123*%
%TO.CFtp,PinHeader_1x02_P2.54mm_Vertical*%
%TO.CVal,Button_header*%
%TO.CLbN,Connector_PinHeader_2.54mm*%
%TO.CMnt,TH*%
%TO.CRot,180*%
X144145000Y-113675000D03*
D11*
X145944999Y-109325001D02*
X145944999Y-115474999D01*
X142345001Y-115474999D01*
X142345001Y-109325001D01*
X145944999Y-109325001D01*
D12*
%TO.P,J123,1,Pin_1*%
X144145000Y-113675000D03*
D13*
%TO.P,J123,2,Pin_2*%
X144145000Y-111135000D03*
%TD*%
D10*
%TO.C,J98*%
%TO.CFtp,PinHeader_1x02_P2.54mm_Vertical*%
%TO.CVal,Button_header*%
%TO.CLbN,Connector_PinHeader_2.54mm*%
%TO.CMnt,TH*%
%TO.CRot,180*%
X151765000Y-99705000D03*
D11*
X153564999Y-95355001D02*
X153564999Y-101504999D01*
X149965001Y-101504999D01*
X149965001Y-95355001D01*
X153564999Y-95355001D01*
D12*
%TO.P,J98,1,Pin_1*%
X151765000Y-99705000D03*
D13*
%TO.P,J98,2,Pin_2*%
X151765000Y-97165000D03*
%TD*%
D10*
%TO.C,J20*%
%TO.CFtp,PinHeader_1x02_P2.54mm_Vertical*%
%TO.CVal,Button_header*%
%TO.CLbN,Connector_PinHeader_2.54mm*%
%TO.CMnt,TH*%
%TO.CRot,180*%
X151765000Y-57785000D03*
D11*
X153564999Y-53435001D02*
X153564999Y-59584999D01*
X149965001Y-59584999D01*
X149965001Y-53435001D01*
X153564999Y-53435001D01*
D12*
%TO.P,J20,1,Pin_1*%
X151765000Y-57785000D03*
D13*
%TO.P,J20,2,Pin_2*%
X151765000Y-55245000D03*
%TD*%
D10*
%TO.C,J56*%
%TO.CFtp,PinHeader_1x02_P2.54mm_Vertical*%
%TO.CVal,Diode_header*%
%TO.CLbN,Connector_PinHeader_2.54mm*%
%TO.CMnt,TH*%
%TO.CRot,180*%
X128905000Y-80655000D03*
D11*
X130704999Y-76305001D02*
X130704999Y-82454999D01*
X127105001Y-82454999D01*
X127105001Y-76305001D01*
X130704999Y-76305001D01*
D12*
%TO.P,J56,1,Pin_1*%
X128905000Y-80655000D03*
D13*
%TO.P,J56,2,Pin_2*%
X128905000Y-78115000D03*
%TD*%
D10*
%TO.C,J109*%
%TO.CFtp,PinHeader_1x02_P2.54mm_Vertical*%
%TO.CVal,Diode_header*%
%TO.CLbN,Connector_PinHeader_2.54mm*%
%TO.CMnt,TH*%
%TO.CRot,180*%
X136525000Y-108595000D03*
D11*
X138324999Y-104245001D02*
X138324999Y-110394999D01*
X134725001Y-110394999D01*
X134725001Y-104245001D01*
X138324999Y-104245001D01*
D12*
%TO.P,J109,1,Pin_1*%
X136525000Y-108595000D03*
D13*
%TO.P,J109,2,Pin_2*%
X136525000Y-106055000D03*
%TD*%
D10*
%TO.C,J138*%
%TO.CFtp,PinHeader_1x02_P2.54mm_Vertical*%
%TO.CVal,Diode_header*%
%TO.CLbN,Connector_PinHeader_2.54mm*%
%TO.CMnt,TH*%
%TO.CRot,180*%
X151765000Y-122565000D03*
D11*
X153564999Y-118215001D02*
X153564999Y-124364999D01*
X149965001Y-124364999D01*
X149965001Y-118215001D01*
X153564999Y-118215001D01*
D12*
%TO.P,J138,1,Pin_1*%
X151765000Y-122565000D03*
D13*
%TO.P,J138,2,Pin_2*%
X151765000Y-120025000D03*
%TD*%
D10*
%TO.C,J127*%
%TO.CFtp,PinHeader_1x02_P2.54mm_Vertical*%
%TO.CVal,Button_header*%
%TO.CLbN,Connector_PinHeader_2.54mm*%
%TO.CMnt,TH*%
%TO.CRot,180*%
X174625000Y-113670000D03*
D11*
X176424999Y-109320001D02*
X176424999Y-115469999D01*
X172825001Y-115469999D01*
X172825001Y-109320001D01*
X176424999Y-109320001D01*
D12*
%TO.P,J127,1,Pin_1*%
X174625000Y-113670000D03*
D13*
%TO.P,J127,2,Pin_2*%
X174625000Y-111130000D03*
%TD*%
D10*
%TO.C,J154*%
%TO.CFtp,PinHeader_1x02_P2.54mm_Vertical*%
%TO.CVal,Button_header*%
%TO.CLbN,Connector_PinHeader_2.54mm*%
%TO.CMnt,TH*%
%TO.CRot,180*%
X174625000Y-127640000D03*
D11*
X176424999Y-123290001D02*
X176424999Y-129439999D01*
X172825001Y-129439999D01*
X172825001Y-123290001D01*
X176424999Y-123290001D01*
D12*
%TO.P,J154,1,Pin_1*%
X174625000Y-127640000D03*
D13*
%TO.P,J154,2,Pin_2*%
X174625000Y-125100000D03*
%TD*%
D10*
%TO.C,J77*%
%TO.CFtp,PinHeader_1x02_P2.54mm_Vertical*%
%TO.CVal,Button_header*%
%TO.CLbN,Connector_PinHeader_2.54mm*%
%TO.CMnt,TH*%
%TO.CRot,180*%
X189865000Y-85735000D03*
D11*
X191664999Y-81385001D02*
X191664999Y-87534999D01*
X188065001Y-87534999D01*
X188065001Y-81385001D01*
X191664999Y-81385001D01*
D12*
%TO.P,J77,1,Pin_1*%
X189865000Y-85735000D03*
D13*
%TO.P,J77,2,Pin_2*%
X189865000Y-83195000D03*
%TD*%
D10*
%TO.C,J158*%
%TO.CFtp,PinHeader_1x02_P2.54mm_Vertical*%
%TO.CVal,Conn_01x02*%
%TO.CLbN,Connector_PinHeader_2.54mm*%
%TO.CMnt,TH*%
%TO.CRot,180*%
X169545000Y-142240000D03*
D11*
X171344999Y-137890001D02*
X171344999Y-144039999D01*
X167745001Y-144039999D01*
X167745001Y-137890001D01*
X171344999Y-137890001D01*
D12*
%TO.P,J158,1,Pin_1*%
X169545000Y-142240000D03*
D13*
%TO.P,J158,2,Pin_2*%
X169545000Y-139700000D03*
%TD*%
D10*
%TO.C,J100*%
%TO.CFtp,PinHeader_1x02_P2.54mm_Vertical*%
%TO.CVal,Button_header*%
%TO.CLbN,Connector_PinHeader_2.54mm*%
%TO.CMnt,TH*%
%TO.CRot,180*%
X167005000Y-99700000D03*
D11*
X168804999Y-95350001D02*
X168804999Y-101499999D01*
X165205001Y-101499999D01*
X165205001Y-95350001D01*
X168804999Y-95350001D01*
D12*
%TO.P,J100,1,Pin_1*%
X167005000Y-99700000D03*
D13*
%TO.P,J100,2,Pin_2*%
X167005000Y-97160000D03*
%TD*%
D10*
%TO.C,J85*%
%TO.CFtp,PinHeader_1x02_P2.54mm_Vertical*%
%TO.CVal,Diode_header*%
%TO.CLbN,Connector_PinHeader_2.54mm*%
%TO.CMnt,TH*%
%TO.CRot,180*%
X151765000Y-94625000D03*
D11*
X153564999Y-90275001D02*
X153564999Y-96424999D01*
X149965001Y-96424999D01*
X149965001Y-90275001D01*
X153564999Y-90275001D01*
D12*
%TO.P,J85,1,Pin_1*%
X151765000Y-94625000D03*
D13*
%TO.P,J85,2,Pin_2*%
X151765000Y-92085000D03*
%TD*%
D10*
%TO.C,J5*%
%TO.CFtp,PinHeader_1x02_P2.54mm_Vertical*%
%TO.CVal,Diode_header*%
%TO.CLbN,Connector_PinHeader_2.54mm*%
%TO.CMnt,TH*%
%TO.CRot,180*%
X136525000Y-52705000D03*
D11*
X138324999Y-48355001D02*
X138324999Y-54504999D01*
X134725001Y-54504999D01*
X134725001Y-48355001D01*
X138324999Y-48355001D01*
D12*
%TO.P,J5,1,Pin_1*%
X136525000Y-52705000D03*
D13*
%TO.P,J5,2,Pin_2*%
X136525000Y-50165000D03*
%TD*%
D10*
%TO.C,J31*%
%TO.CFtp,PinHeader_1x02_P2.54mm_Vertical*%
%TO.CVal,Diode_header*%
%TO.CLbN,Connector_PinHeader_2.54mm*%
%TO.CMnt,TH*%
%TO.CRot,180*%
X136525000Y-66680000D03*
D11*
X138324999Y-62330001D02*
X138324999Y-68479999D01*
X134725001Y-68479999D01*
X134725001Y-62330001D01*
X138324999Y-62330001D01*
D12*
%TO.P,J31,1,Pin_1*%
X136525000Y-66680000D03*
D13*
%TO.P,J31,2,Pin_2*%
X136525000Y-64140000D03*
%TD*%
D10*
%TO.C,J23*%
%TO.CFtp,PinHeader_1x02_P2.54mm_Vertical*%
%TO.CVal,Button_header*%
%TO.CLbN,Connector_PinHeader_2.54mm*%
%TO.CMnt,TH*%
%TO.CRot,180*%
X174625000Y-57785000D03*
D11*
X176424999Y-53435001D02*
X176424999Y-59584999D01*
X172825001Y-59584999D01*
X172825001Y-53435001D01*
X176424999Y-53435001D01*
D12*
%TO.P,J23,1,Pin_1*%
X174625000Y-57785000D03*
D13*
%TO.P,J23,2,Pin_2*%
X174625000Y-55245000D03*
%TD*%
D10*
%TO.C,J24*%
%TO.CFtp,PinHeader_1x02_P2.54mm_Vertical*%
%TO.CVal,Button_header*%
%TO.CLbN,Connector_PinHeader_2.54mm*%
%TO.CMnt,TH*%
%TO.CRot,180*%
X182245000Y-57785000D03*
D11*
X184044999Y-53435001D02*
X184044999Y-59584999D01*
X180445001Y-59584999D01*
X180445001Y-53435001D01*
X184044999Y-53435001D01*
D12*
%TO.P,J24,1,Pin_1*%
X182245000Y-57785000D03*
D13*
%TO.P,J24,2,Pin_2*%
X182245000Y-55245000D03*
%TD*%
D10*
%TO.C,J128*%
%TO.CFtp,PinHeader_1x02_P2.54mm_Vertical*%
%TO.CVal,Button_header*%
%TO.CLbN,Connector_PinHeader_2.54mm*%
%TO.CMnt,TH*%
%TO.CRot,180*%
X182245000Y-113675000D03*
D11*
X184044999Y-109325001D02*
X184044999Y-115474999D01*
X180445001Y-115474999D01*
X180445001Y-109325001D01*
X184044999Y-109325001D01*
D12*
%TO.P,J128,1,Pin_1*%
X182245000Y-113675000D03*
D13*
%TO.P,J128,2,Pin_2*%
X182245000Y-111135000D03*
%TD*%
D10*
%TO.C,J88*%
%TO.CFtp,PinHeader_1x02_P2.54mm_Vertical*%
%TO.CVal,Diode_header*%
%TO.CLbN,Connector_PinHeader_2.54mm*%
%TO.CMnt,TH*%
%TO.CRot,180*%
X174625000Y-94625000D03*
D11*
X176424999Y-90275001D02*
X176424999Y-96424999D01*
X172825001Y-96424999D01*
X172825001Y-90275001D01*
X176424999Y-90275001D01*
D12*
%TO.P,J88,1,Pin_1*%
X174625000Y-94625000D03*
D13*
%TO.P,J88,2,Pin_2*%
X174625000Y-92085000D03*
%TD*%
D10*
%TO.C,J6*%
%TO.CFtp,PinHeader_1x02_P2.54mm_Vertical*%
%TO.CVal,Diode_header*%
%TO.CLbN,Connector_PinHeader_2.54mm*%
%TO.CMnt,TH*%
%TO.CRot,180*%
X144145000Y-52705000D03*
D11*
X145944999Y-48355001D02*
X145944999Y-54504999D01*
X142345001Y-54504999D01*
X142345001Y-48355001D01*
X145944999Y-48355001D01*
D12*
%TO.P,J6,1,Pin_1*%
X144145000Y-52705000D03*
D13*
%TO.P,J6,2,Pin_2*%
X144145000Y-50165000D03*
%TD*%
D10*
%TO.C,J126*%
%TO.CFtp,PinHeader_1x02_P2.54mm_Vertical*%
%TO.CVal,Button_header*%
%TO.CLbN,Connector_PinHeader_2.54mm*%
%TO.CMnt,TH*%
%TO.CRot,180*%
X167005000Y-113675000D03*
D11*
X168804999Y-109325001D02*
X168804999Y-115474999D01*
X165205001Y-115474999D01*
X165205001Y-109325001D01*
X168804999Y-109325001D01*
D12*
%TO.P,J126,1,Pin_1*%
X167005000Y-113675000D03*
D13*
%TO.P,J126,2,Pin_2*%
X167005000Y-111135000D03*
%TD*%
D10*
%TO.C,J48*%
%TO.CFtp,PinHeader_1x02_P2.54mm_Vertical*%
%TO.CVal,Button_header*%
%TO.CLbN,Connector_PinHeader_2.54mm*%
%TO.CMnt,TH*%
%TO.CRot,180*%
X167005000Y-71760000D03*
D11*
X168804999Y-67410001D02*
X168804999Y-73559999D01*
X165205001Y-73559999D01*
X165205001Y-67410001D01*
X168804999Y-67410001D01*
D12*
%TO.P,J48,1,Pin_1*%
X167005000Y-71760000D03*
D13*
%TO.P,J48,2,Pin_2*%
X167005000Y-69220000D03*
%TD*%
D10*
%TO.C,J106*%
%TO.CFtp,PinHeader_1x02_P2.54mm_Vertical*%
%TO.CVal,Diode_header*%
%TO.CLbN,Connector_PinHeader_2.54mm*%
%TO.CMnt,TH*%
%TO.CRot,180*%
X113665000Y-108595000D03*
D11*
X115464999Y-104245001D02*
X115464999Y-110394999D01*
X111865001Y-110394999D01*
X111865001Y-104245001D01*
X115464999Y-104245001D01*
D12*
%TO.P,J106,1,Pin_1*%
X113665000Y-108595000D03*
D13*
%TO.P,J106,2,Pin_2*%
X113665000Y-106055000D03*
%TD*%
D10*
%TO.C,J7*%
%TO.CFtp,PinHeader_1x02_P2.54mm_Vertical*%
%TO.CVal,Diode_header*%
%TO.CLbN,Connector_PinHeader_2.54mm*%
%TO.CMnt,TH*%
%TO.CRot,180*%
X151765000Y-52705000D03*
D11*
X153564999Y-48355001D02*
X153564999Y-54504999D01*
X149965001Y-54504999D01*
X149965001Y-48355001D01*
X153564999Y-48355001D01*
D12*
%TO.P,J7,1,Pin_1*%
X151765000Y-52705000D03*
D13*
%TO.P,J7,2,Pin_2*%
X151765000Y-50165000D03*
%TD*%
D10*
%TO.C,J78*%
%TO.CFtp,PinHeader_1x02_P2.54mm_Vertical*%
%TO.CVal,Button_header*%
%TO.CLbN,Connector_PinHeader_2.54mm*%
%TO.CMnt,TH*%
%TO.CRot,180*%
X197485000Y-85730000D03*
D11*
X199284999Y-81380001D02*
X199284999Y-87529999D01*
X195685001Y-87529999D01*
X195685001Y-81380001D01*
X199284999Y-81380001D01*
D12*
%TO.P,J78,1,Pin_1*%
X197485000Y-85730000D03*
D13*
%TO.P,J78,2,Pin_2*%
X197485000Y-83190000D03*
%TD*%
D10*
%TO.C,J131*%
%TO.CFtp,PinHeader_1x02_P2.54mm_Vertical*%
%TO.CVal,Diode_header*%
%TO.CLbN,Connector_PinHeader_2.54mm*%
%TO.CMnt,TH*%
%TO.CRot,180*%
X197485000Y-122560000D03*
D11*
X199284999Y-118210001D02*
X199284999Y-124359999D01*
X195685001Y-124359999D01*
X195685001Y-118210001D01*
X199284999Y-118210001D01*
D12*
%TO.P,J131,1,Pin_1*%
X197485000Y-122560000D03*
D13*
%TO.P,J131,2,Pin_2*%
X197485000Y-120020000D03*
%TD*%
D10*
%TO.C,J92*%
%TO.CFtp,PinHeader_1x02_P2.54mm_Vertical*%
%TO.CVal,Button_header*%
%TO.CLbN,Connector_PinHeader_2.54mm*%
%TO.CMnt,TH*%
%TO.CRot,180*%
X106045000Y-99700000D03*
D11*
X107844999Y-95350001D02*
X107844999Y-101499999D01*
X104245001Y-101499999D01*
X104245001Y-95350001D01*
X107844999Y-95350001D01*
D12*
%TO.P,J92,1,Pin_1*%
X106045000Y-99700000D03*
D13*
%TO.P,J92,2,Pin_2*%
X106045000Y-97160000D03*
%TD*%
D10*
%TO.C,J4*%
%TO.CFtp,PinHeader_1x02_P2.54mm_Vertical*%
%TO.CVal,Diode_header*%
%TO.CLbN,Connector_PinHeader_2.54mm*%
%TO.CMnt,TH*%
%TO.CRot,180*%
X128905000Y-52705000D03*
D11*
X130704999Y-48355001D02*
X130704999Y-54504999D01*
X127105001Y-54504999D01*
X127105001Y-48355001D01*
X130704999Y-48355001D01*
D12*
%TO.P,J4,1,Pin_1*%
X128905000Y-52705000D03*
D13*
%TO.P,J4,2,Pin_2*%
X128905000Y-50165000D03*
%TD*%
D10*
%TO.C,J32*%
%TO.CFtp,PinHeader_1x02_P2.54mm_Vertical*%
%TO.CVal,Diode_header*%
%TO.CLbN,Connector_PinHeader_2.54mm*%
%TO.CMnt,TH*%
%TO.CRot,180*%
X144145000Y-66680000D03*
D11*
X145944999Y-62330001D02*
X145944999Y-68479999D01*
X142345001Y-68479999D01*
X142345001Y-62330001D01*
X145944999Y-62330001D01*
D12*
%TO.P,J32,1,Pin_1*%
X144145000Y-66680000D03*
D13*
%TO.P,J32,2,Pin_2*%
X144145000Y-64140000D03*
%TD*%
D10*
%TO.C,J43*%
%TO.CFtp,PinHeader_1x02_P2.54mm_Vertical*%
%TO.CVal,Button_header*%
%TO.CLbN,Connector_PinHeader_2.54mm*%
%TO.CMnt,TH*%
%TO.CRot,180*%
X128905000Y-71755000D03*
D11*
X130704999Y-67405001D02*
X130704999Y-73554999D01*
X127105001Y-73554999D01*
X127105001Y-67405001D01*
X130704999Y-67405001D01*
D12*
%TO.P,J43,1,Pin_1*%
X128905000Y-71755000D03*
D13*
%TO.P,J43,2,Pin_2*%
X128905000Y-69215000D03*
%TD*%
D10*
%TO.C,J46*%
%TO.CFtp,PinHeader_1x02_P2.54mm_Vertical*%
%TO.CVal,Button_header*%
%TO.CLbN,Connector_PinHeader_2.54mm*%
%TO.CMnt,TH*%
%TO.CRot,180*%
X151765000Y-71765000D03*
D11*
X153564999Y-67415001D02*
X153564999Y-73564999D01*
X149965001Y-73564999D01*
X149965001Y-67415001D01*
X153564999Y-67415001D01*
D12*
%TO.P,J46,1,Pin_1*%
X151765000Y-71765000D03*
D13*
%TO.P,J46,2,Pin_2*%
X151765000Y-69225000D03*
%TD*%
D10*
%TO.C,J133*%
%TO.CFtp,PinHeader_1x02_P2.54mm_Vertical*%
%TO.CVal,Diode_header*%
%TO.CLbN,Connector_PinHeader_2.54mm*%
%TO.CMnt,TH*%
%TO.CRot,180*%
X113665000Y-122560000D03*
D11*
X115464999Y-118210001D02*
X115464999Y-124359999D01*
X111865001Y-124359999D01*
X111865001Y-118210001D01*
X115464999Y-118210001D01*
D12*
%TO.P,J133,1,Pin_1*%
X113665000Y-122560000D03*
D13*
%TO.P,J133,2,Pin_2*%
X113665000Y-120020000D03*
%TD*%
D10*
%TO.C,J80*%
%TO.CFtp,PinHeader_1x02_P2.54mm_Vertical*%
%TO.CVal,Diode_header*%
%TO.CLbN,Connector_PinHeader_2.54mm*%
%TO.CMnt,TH*%
%TO.CRot,180*%
X113665000Y-94620000D03*
D11*
X115464999Y-90270001D02*
X115464999Y-96419999D01*
X111865001Y-96419999D01*
X111865001Y-90270001D01*
X115464999Y-90270001D01*
D12*
%TO.P,J80,1,Pin_1*%
X113665000Y-94620000D03*
D13*
%TO.P,J80,2,Pin_2*%
X113665000Y-92080000D03*
%TD*%
D10*
%TO.C,J61*%
%TO.CFtp,PinHeader_1x02_P2.54mm_Vertical*%
%TO.CVal,Diode_header*%
%TO.CLbN,Connector_PinHeader_2.54mm*%
%TO.CMnt,TH*%
%TO.CRot,180*%
X167005000Y-80650000D03*
D11*
X168804999Y-76300001D02*
X168804999Y-82449999D01*
X165205001Y-82449999D01*
X165205001Y-76300001D01*
X168804999Y-76300001D01*
D12*
%TO.P,J61,1,Pin_1*%
X167005000Y-80650000D03*
D13*
%TO.P,J61,2,Pin_2*%
X167005000Y-78110000D03*
%TD*%
D10*
%TO.C,J75*%
%TO.CFtp,PinHeader_1x02_P2.54mm_Vertical*%
%TO.CVal,Button_header*%
%TO.CLbN,Connector_PinHeader_2.54mm*%
%TO.CMnt,TH*%
%TO.CRot,180*%
X174625000Y-85735000D03*
D11*
X176424999Y-81385001D02*
X176424999Y-87534999D01*
X172825001Y-87534999D01*
X172825001Y-81385001D01*
X176424999Y-81385001D01*
D12*
%TO.P,J75,1,Pin_1*%
X174625000Y-85735000D03*
D13*
%TO.P,J75,2,Pin_2*%
X174625000Y-83195000D03*
%TD*%
D10*
%TO.C,J34*%
%TO.CFtp,PinHeader_1x02_P2.54mm_Vertical*%
%TO.CVal,Diode_header*%
%TO.CLbN,Connector_PinHeader_2.54mm*%
%TO.CMnt,TH*%
%TO.CRot,180*%
X159385000Y-66685000D03*
D11*
X161184999Y-62335001D02*
X161184999Y-68484999D01*
X157585001Y-68484999D01*
X157585001Y-62335001D01*
X161184999Y-62335001D01*
D12*
%TO.P,J34,1,Pin_1*%
X159385000Y-66685000D03*
D13*
%TO.P,J34,2,Pin_2*%
X159385000Y-64145000D03*
%TD*%
D10*
%TO.C,J60*%
%TO.CFtp,PinHeader_1x02_P2.54mm_Vertical*%
%TO.CVal,Diode_header*%
%TO.CLbN,Connector_PinHeader_2.54mm*%
%TO.CMnt,TH*%
%TO.CRot,180*%
X159385000Y-80655000D03*
D11*
X161184999Y-76305001D02*
X161184999Y-82454999D01*
X157585001Y-82454999D01*
X157585001Y-76305001D01*
X161184999Y-76305001D01*
D12*
%TO.P,J60,1,Pin_1*%
X159385000Y-80655000D03*
D13*
%TO.P,J60,2,Pin_2*%
X159385000Y-78115000D03*
%TD*%
D10*
%TO.C,J103*%
%TO.CFtp,PinHeader_1x02_P2.54mm_Vertical*%
%TO.CVal,Button_header*%
%TO.CLbN,Connector_PinHeader_2.54mm*%
%TO.CMnt,TH*%
%TO.CRot,180*%
X189865000Y-99700000D03*
D11*
X191664999Y-95350001D02*
X191664999Y-101499999D01*
X188065001Y-101499999D01*
X188065001Y-95350001D01*
X191664999Y-95350001D01*
D12*
%TO.P,J103,1,Pin_1*%
X189865000Y-99700000D03*
D13*
%TO.P,J103,2,Pin_2*%
X189865000Y-97160000D03*
%TD*%
D10*
%TO.C,J73*%
%TO.CFtp,PinHeader_1x02_P2.54mm_Vertical*%
%TO.CVal,Button_header*%
%TO.CLbN,Connector_PinHeader_2.54mm*%
%TO.CMnt,TH*%
%TO.CRot,180*%
X159385000Y-85730000D03*
D11*
X161184999Y-81380001D02*
X161184999Y-87529999D01*
X157585001Y-87529999D01*
X157585001Y-81380001D01*
X161184999Y-81380001D01*
D12*
%TO.P,J73,1,Pin_1*%
X159385000Y-85730000D03*
D13*
%TO.P,J73,2,Pin_2*%
X159385000Y-83190000D03*
%TD*%
D10*
%TO.C,J72*%
%TO.CFtp,PinHeader_1x02_P2.54mm_Vertical*%
%TO.CVal,Button_header*%
%TO.CLbN,Connector_PinHeader_2.54mm*%
%TO.CMnt,TH*%
%TO.CRot,180*%
X151765000Y-85735000D03*
D11*
X153564999Y-81385001D02*
X153564999Y-87534999D01*
X149965001Y-87534999D01*
X149965001Y-81385001D01*
X153564999Y-81385001D01*
D12*
%TO.P,J72,1,Pin_1*%
X151765000Y-85735000D03*
D13*
%TO.P,J72,2,Pin_2*%
X151765000Y-83195000D03*
%TD*%
D10*
%TO.C,J71*%
%TO.CFtp,PinHeader_1x02_P2.54mm_Vertical*%
%TO.CVal,Button_header*%
%TO.CLbN,Connector_PinHeader_2.54mm*%
%TO.CMnt,TH*%
%TO.CRot,180*%
X144145000Y-85730000D03*
D11*
X145944999Y-81380001D02*
X145944999Y-87529999D01*
X142345001Y-87529999D01*
X142345001Y-81380001D01*
X145944999Y-81380001D01*
D12*
%TO.P,J71,1,Pin_1*%
X144145000Y-85730000D03*
D13*
%TO.P,J71,2,Pin_2*%
X144145000Y-83190000D03*
%TD*%
D10*
%TO.C,J66*%
%TO.CFtp,PinHeader_1x02_P2.54mm_Vertical*%
%TO.CVal,Button_header*%
%TO.CLbN,Connector_PinHeader_2.54mm*%
%TO.CMnt,TH*%
%TO.CRot,180*%
X106045000Y-85725000D03*
D11*
X107844999Y-81375001D02*
X107844999Y-87524999D01*
X104245001Y-87524999D01*
X104245001Y-81375001D01*
X107844999Y-81375001D01*
D12*
%TO.P,J66,1,Pin_1*%
X106045000Y-85725000D03*
D13*
%TO.P,J66,2,Pin_2*%
X106045000Y-83185000D03*
%TD*%
D10*
%TO.C,J130*%
%TO.CFtp,PinHeader_1x02_P2.54mm_Vertical*%
%TO.CVal,Button_header*%
%TO.CLbN,Connector_PinHeader_2.54mm*%
%TO.CMnt,TH*%
%TO.CRot,180*%
X197485000Y-113670000D03*
D11*
X199284999Y-109320001D02*
X199284999Y-115469999D01*
X195685001Y-115469999D01*
X195685001Y-109320001D01*
X199284999Y-109320001D01*
D12*
%TO.P,J130,1,Pin_1*%
X197485000Y-113670000D03*
D13*
%TO.P,J130,2,Pin_2*%
X197485000Y-111130000D03*
%TD*%
D10*
%TO.C,J16*%
%TO.CFtp,PinHeader_1x02_P2.54mm_Vertical*%
%TO.CVal,Button_header*%
%TO.CLbN,Connector_PinHeader_2.54mm*%
%TO.CMnt,TH*%
%TO.CRot,180*%
X121285000Y-57785000D03*
D11*
X123084999Y-53435001D02*
X123084999Y-59584999D01*
X119485001Y-59584999D01*
X119485001Y-53435001D01*
X123084999Y-53435001D01*
D12*
%TO.P,J16,1,Pin_1*%
X121285000Y-57785000D03*
D13*
%TO.P,J16,2,Pin_2*%
X121285000Y-55245000D03*
%TD*%
D10*
%TO.C,J99*%
%TO.CFtp,PinHeader_1x02_P2.54mm_Vertical*%
%TO.CVal,Button_header*%
%TO.CLbN,Connector_PinHeader_2.54mm*%
%TO.CMnt,TH*%
%TO.CRot,180*%
X159385000Y-99705000D03*
D11*
X161184999Y-95355001D02*
X161184999Y-101504999D01*
X157585001Y-101504999D01*
X157585001Y-95355001D01*
X161184999Y-95355001D01*
D12*
%TO.P,J99,1,Pin_1*%
X159385000Y-99705000D03*
D13*
%TO.P,J99,2,Pin_2*%
X159385000Y-97165000D03*
%TD*%
D10*
%TO.C,J40*%
%TO.CFtp,PinHeader_1x02_P2.54mm_Vertical*%
%TO.CVal,Button_header*%
%TO.CLbN,Connector_PinHeader_2.54mm*%
%TO.CMnt,TH*%
%TO.CRot,180*%
X106045000Y-71755000D03*
D11*
X107844999Y-67405001D02*
X107844999Y-73554999D01*
X104245001Y-73554999D01*
X104245001Y-67405001D01*
X107844999Y-67405001D01*
D12*
%TO.P,J40,1,Pin_1*%
X106045000Y-71755000D03*
D13*
%TO.P,J40,2,Pin_2*%
X106045000Y-69215000D03*
%TD*%
D10*
%TO.C,J42*%
%TO.CFtp,PinHeader_1x02_P2.54mm_Vertical*%
%TO.CVal,Button_header*%
%TO.CLbN,Connector_PinHeader_2.54mm*%
%TO.CMnt,TH*%
%TO.CRot,180*%
X121285000Y-71755000D03*
D11*
X123084999Y-67405001D02*
X123084999Y-73554999D01*
X119485001Y-73554999D01*
X119485001Y-67405001D01*
X123084999Y-67405001D01*
D12*
%TO.P,J42,1,Pin_1*%
X121285000Y-71755000D03*
D13*
%TO.P,J42,2,Pin_2*%
X121285000Y-69215000D03*
%TD*%
D10*
%TO.C,J108*%
%TO.CFtp,PinHeader_1x02_P2.54mm_Vertical*%
%TO.CVal,Diode_header*%
%TO.CLbN,Connector_PinHeader_2.54mm*%
%TO.CMnt,TH*%
%TO.CRot,180*%
X128905000Y-108590000D03*
D11*
X130704999Y-104240001D02*
X130704999Y-110389999D01*
X127105001Y-110389999D01*
X127105001Y-104240001D01*
X130704999Y-104240001D01*
D12*
%TO.P,J108,1,Pin_1*%
X128905000Y-108590000D03*
D13*
%TO.P,J108,2,Pin_2*%
X128905000Y-106050000D03*
%TD*%
D10*
%TO.C,J153*%
%TO.CFtp,PinHeader_1x02_P2.54mm_Vertical*%
%TO.CVal,Button_header*%
%TO.CLbN,Connector_PinHeader_2.54mm*%
%TO.CMnt,TH*%
%TO.CRot,180*%
X167005000Y-127645000D03*
D11*
X168804999Y-123295001D02*
X168804999Y-129444999D01*
X165205001Y-129444999D01*
X165205001Y-123295001D01*
X168804999Y-123295001D01*
D12*
%TO.P,J153,1,Pin_1*%
X167005000Y-127645000D03*
D13*
%TO.P,J153,2,Pin_2*%
X167005000Y-125105000D03*
%TD*%
D10*
%TO.C,J121*%
%TO.CFtp,PinHeader_1x02_P2.54mm_Vertical*%
%TO.CVal,Button_header*%
%TO.CLbN,Connector_PinHeader_2.54mm*%
%TO.CMnt,TH*%
%TO.CRot,180*%
X128905000Y-113670000D03*
D11*
X130704999Y-109320001D02*
X130704999Y-115469999D01*
X127105001Y-115469999D01*
X127105001Y-109320001D01*
X130704999Y-109320001D01*
D12*
%TO.P,J121,1,Pin_1*%
X128905000Y-113670000D03*
D13*
%TO.P,J121,2,Pin_2*%
X128905000Y-111130000D03*
%TD*%
D10*
%TO.C,J132*%
%TO.CFtp,PinHeader_1x02_P2.54mm_Vertical*%
%TO.CVal,Diode_header*%
%TO.CLbN,Connector_PinHeader_2.54mm*%
%TO.CMnt,TH*%
%TO.CRot,180*%
X106045000Y-122555000D03*
D11*
X107844999Y-118205001D02*
X107844999Y-124354999D01*
X104245001Y-124354999D01*
X104245001Y-118205001D01*
X107844999Y-118205001D01*
D12*
%TO.P,J132,1,Pin_1*%
X106045000Y-122555000D03*
D13*
%TO.P,J132,2,Pin_2*%
X106045000Y-120015000D03*
%TD*%
M02*
