%TF.GenerationSoftware,KiCad,Pcbnew,8.0.2-1*%
%TF.CreationDate,2024-08-03T10:32:13+02:00*%
%TF.ProjectId,dev-board,6465762d-626f-4617-9264-2e6b69636164,1.0*%
%TF.SameCoordinates,Original*%
%TF.FileFunction,Copper,L2,Bot*%
%TF.FilePolarity,Positive*%
%FSLAX46Y46*%
G04 Gerber Fmt 4.6, Leading zero omitted, Abs format (unit mm)*
G04 Created by KiCad (PCBNEW 8.0.2-1) date 2024-08-03 10:32:13*
%MOMM*%
%LPD*%
G01*
G04 APERTURE LIST*
%TA.AperFunction,ComponentPad*%
%ADD10R,1.700000X1.700000*%
%TD*%
%TA.AperFunction,ComponentPad*%
%ADD11O,1.700000X1.700000*%
%TD*%
%TA.AperFunction,ViaPad*%
%ADD12C,0.800000*%
%TD*%
%TA.AperFunction,Conductor*%
%ADD13C,0.250000*%
%TD*%
G04 APERTURE END LIST*
D10*
%TO.P,J90,1,Pin_1*%
%TO.N,Net-(J103-Pin_2)*%
X189865000Y-94620000D03*
D11*
%TO.P,J90,2,Pin_2*%
%TO.N,PIN_27 *%
X189865000Y-92080000D03*
%TD*%
D10*
%TO.P,J69,1,Pin_1*%
%TO.N,PIN_7 *%
X128905000Y-85730000D03*
D11*
%TO.P,J69,2,Pin_2*%
%TO.N,Net-(J56-Pin_1)*%
X128905000Y-83190000D03*
%TD*%
D10*
%TO.P,J97,1,Pin_1*%
%TO.N,PIN_17 *%
X144145000Y-99705000D03*
D11*
%TO.P,J97,2,Pin_2*%
%TO.N,Net-(J84-Pin_1)*%
X144145000Y-97165000D03*
%TD*%
D10*
%TO.P,J28,1,Pin_1*%
%TO.N,Net-(J28-Pin_1)*%
X113665000Y-66675000D03*
D11*
%TO.P,J28,2,Pin_2*%
%TO.N,PIN_1 *%
X113665000Y-64135000D03*
%TD*%
D10*
%TO.P,J63,1,Pin_1*%
%TO.N,Net-(J63-Pin_1)*%
X182245000Y-80650000D03*
D11*
%TO.P,J63,2,Pin_2*%
%TO.N,PIN_15 *%
X182245000Y-78110000D03*
%TD*%
D10*
%TO.P,J81,1,Pin_1*%
%TO.N,Net-(J81-Pin_1)*%
X121285000Y-94625000D03*
D11*
%TO.P,J81,2,Pin_2*%
%TO.N,PIN_18 *%
X121285000Y-92085000D03*
%TD*%
D10*
%TO.P,J49,1,Pin_1*%
%TO.N,PIN_30 *%
X174625000Y-71760000D03*
D11*
%TO.P,J49,2,Pin_2*%
%TO.N,Net-(J36-Pin_1)*%
X174625000Y-69220000D03*
%TD*%
D10*
%TO.P,J22,1,Pin_1*%
%TO.N,PIN_28 *%
X167005000Y-57785000D03*
D11*
%TO.P,J22,2,Pin_2*%
%TO.N,Net-(J22-Pin_2)*%
X167005000Y-55245000D03*
%TD*%
D10*
%TO.P,J118,1,Pin_1*%
%TO.N,PIN_9 *%
X106045000Y-113665000D03*
D11*
%TO.P,J118,2,Pin_2*%
%TO.N,Net-(J105-Pin_1)*%
X106045000Y-111125000D03*
%TD*%
D10*
%TO.P,J143,1,Pin_1*%
%TO.N,Net-(J143-Pin_1)*%
X189865000Y-122560000D03*
D11*
%TO.P,J143,2,Pin_2*%
%TO.N,PIN_19 *%
X189865000Y-120020000D03*
%TD*%
D10*
%TO.P,J116,1,Pin_1*%
%TO.N,Net-(J116-Pin_1)*%
X189865000Y-108595000D03*
D11*
%TO.P,J116,2,Pin_2*%
%TO.N,PIN_27 *%
X189865000Y-106055000D03*
%TD*%
D10*
%TO.P,J37,1,Pin_1*%
%TO.N,Net-(J37-Pin_1)*%
X182245000Y-66680000D03*
D11*
%TO.P,J37,2,Pin_2*%
%TO.N,PIN_27 *%
X182245000Y-64140000D03*
%TD*%
D10*
%TO.P,J122,1,Pin_1*%
%TO.N,PIN_8 *%
X136525000Y-113675000D03*
D11*
%TO.P,J122,2,Pin_2*%
%TO.N,Net-(J109-Pin_1)*%
X136525000Y-111135000D03*
%TD*%
D10*
%TO.P,J68,1,Pin_1*%
%TO.N,PIN_3 *%
X121285000Y-85730000D03*
D11*
%TO.P,J68,2,Pin_2*%
%TO.N,Net-(J55-Pin_1)*%
X121285000Y-83190000D03*
%TD*%
D10*
%TO.P,J65,1,Pin_1*%
%TO.N,Net-(J65-Pin_1)*%
X197485000Y-80650000D03*
D11*
%TO.P,J65,2,Pin_2*%
%TO.N,PIN_19 *%
X197485000Y-78110000D03*
%TD*%
D10*
%TO.P,J27,1,Pin_1*%
%TO.N,Net-(J27-Pin_1)*%
X106045000Y-66675000D03*
D11*
%TO.P,J27,2,Pin_2*%
%TO.N,PIN_19 *%
X106045000Y-64135000D03*
%TD*%
D10*
%TO.P,J102,1,Pin_1*%
%TO.N,PIN_30 *%
X182245000Y-99705000D03*
D11*
%TO.P,J102,2,Pin_2*%
%TO.N,Net-(J102-Pin_2)*%
X182245000Y-97165000D03*
%TD*%
D10*
%TO.P,J14,1,Pin_1*%
%TO.N,PIN_7 *%
X106045000Y-57785000D03*
D11*
%TO.P,J14,2,Pin_2*%
%TO.N,Net-(J1-Pin_1)*%
X106045000Y-55245000D03*
%TD*%
D10*
%TO.P,J151,1,Pin_1*%
%TO.N,PIN_23 *%
X151765000Y-127640000D03*
D11*
%TO.P,J151,2,Pin_2*%
%TO.N,Net-(J138-Pin_1)*%
X151765000Y-125100000D03*
%TD*%
D10*
%TO.P,J115,1,Pin_1*%
%TO.N,Net-(J115-Pin_1)*%
X182245000Y-108595000D03*
D11*
%TO.P,J115,2,Pin_2*%
%TO.N,PIN_20 *%
X182245000Y-106055000D03*
%TD*%
D10*
%TO.P,J107,1,Pin_1*%
%TO.N,Net-(J107-Pin_1)*%
X121285000Y-108595000D03*
D11*
%TO.P,J107,2,Pin_2*%
%TO.N,PIN_20 *%
X121285000Y-106055000D03*
%TD*%
D10*
%TO.P,J50,1,Pin_1*%
%TO.N,PIN_23 *%
X182245000Y-71760000D03*
D11*
%TO.P,J50,2,Pin_2*%
%TO.N,Net-(J37-Pin_1)*%
X182245000Y-69220000D03*
%TD*%
D10*
%TO.P,J29,1,Pin_1*%
%TO.N,Net-(J29-Pin_1)*%
X121285000Y-66680000D03*
D11*
%TO.P,J29,2,Pin_2*%
%TO.N,PIN_1 *%
X121285000Y-64140000D03*
%TD*%
D10*
%TO.P,J41,1,Pin_1*%
%TO.N,PIN_3 *%
X113665000Y-71755000D03*
D11*
%TO.P,J41,2,Pin_2*%
%TO.N,Net-(J28-Pin_1)*%
X113665000Y-69215000D03*
%TD*%
D10*
%TO.P,J156,1,Pin_1*%
%TO.N,PIN_30 *%
X189865000Y-127645000D03*
D11*
%TO.P,J156,2,Pin_2*%
%TO.N,Net-(J143-Pin_1)*%
X189865000Y-125105000D03*
%TD*%
D10*
%TO.P,J139,1,Pin_1*%
%TO.N,Net-(J139-Pin_1)*%
X159385000Y-122560000D03*
D11*
%TO.P,J139,2,Pin_2*%
%TO.N,PIN_3 *%
X159385000Y-120020000D03*
%TD*%
D10*
%TO.P,J155,1,Pin_1*%
%TO.N,PIN_28 *%
X182245000Y-127645000D03*
D11*
%TO.P,J155,2,Pin_2*%
%TO.N,Net-(J142-Pin_1)*%
X182245000Y-125105000D03*
%TD*%
D10*
%TO.P,J8,1,Pin_1*%
%TO.N,Net-(J21-Pin_2)*%
X159385000Y-52705000D03*
D11*
%TO.P,J8,2,Pin_2*%
%TO.N,PIN_26 *%
X159385000Y-50165000D03*
%TD*%
D10*
%TO.P,J55,1,Pin_1*%
%TO.N,Net-(J55-Pin_1)*%
X121285000Y-80655000D03*
D11*
%TO.P,J55,2,Pin_2*%
%TO.N,PIN_15 *%
X121285000Y-78115000D03*
%TD*%
D10*
%TO.P,J36,1,Pin_1*%
%TO.N,Net-(J36-Pin_1)*%
X174625000Y-66680000D03*
D11*
%TO.P,J36,2,Pin_2*%
%TO.N,PIN_9 *%
X174625000Y-64140000D03*
%TD*%
D10*
%TO.P,J76,1,Pin_1*%
%TO.N,PIN_30 *%
X182245000Y-85730000D03*
D11*
%TO.P,J76,2,Pin_2*%
%TO.N,Net-(J63-Pin_1)*%
X182245000Y-83190000D03*
%TD*%
D10*
%TO.P,J134,1,Pin_1*%
%TO.N,Net-(J134-Pin_1)*%
X121285000Y-122560000D03*
D11*
%TO.P,J134,2,Pin_2*%
%TO.N,PIN_1 *%
X121285000Y-120020000D03*
%TD*%
D10*
%TO.P,J152,1,Pin_1*%
%TO.N,PIN_24 *%
X159385000Y-127640000D03*
D11*
%TO.P,J152,2,Pin_2*%
%TO.N,Net-(J139-Pin_1)*%
X159385000Y-125100000D03*
%TD*%
D10*
%TO.P,J25,1,Pin_1*%
%TO.N,PIN_3 *%
X189865000Y-57785000D03*
D11*
%TO.P,J25,2,Pin_2*%
%TO.N,Net-(J12-Pin_1)*%
X189865000Y-55245000D03*
%TD*%
D10*
%TO.P,J21,1,Pin_1*%
%TO.N,PIN_25 *%
X159385000Y-57785000D03*
D11*
%TO.P,J21,2,Pin_2*%
%TO.N,Net-(J21-Pin_2)*%
X159385000Y-55245000D03*
%TD*%
D10*
%TO.P,J136,1,Pin_1*%
%TO.N,Net-(J136-Pin_1)*%
X136525000Y-122560000D03*
D11*
%TO.P,J136,2,Pin_2*%
%TO.N,PIN_20 *%
X136525000Y-120020000D03*
%TD*%
D10*
%TO.P,J101,1,Pin_1*%
%TO.N,PIN_28 *%
X174625000Y-99705000D03*
D11*
%TO.P,J101,2,Pin_2*%
%TO.N,Net-(J101-Pin_2)*%
X174625000Y-97165000D03*
%TD*%
D10*
%TO.P,J58,1,Pin_1*%
%TO.N,Net-(J58-Pin_1)*%
X144145000Y-80650000D03*
D11*
%TO.P,J58,2,Pin_2*%
%TO.N,PIN_2 *%
X144145000Y-78110000D03*
%TD*%
D10*
%TO.P,J38,1,Pin_1*%
%TO.N,Net-(J38-Pin_1)*%
X189865000Y-66685000D03*
D11*
%TO.P,J38,2,Pin_2*%
%TO.N,PIN_27 *%
X189865000Y-64145000D03*
%TD*%
D10*
%TO.P,J149,1,Pin_1*%
%TO.N,PIN_23 *%
X136525000Y-127645000D03*
D11*
%TO.P,J149,2,Pin_2*%
%TO.N,Net-(J136-Pin_1)*%
X136525000Y-125105000D03*
%TD*%
D10*
%TO.P,J89,1,Pin_1*%
%TO.N,Net-(J102-Pin_2)*%
X182245000Y-94620000D03*
D11*
%TO.P,J89,2,Pin_2*%
%TO.N,PIN_18 *%
X182245000Y-92080000D03*
%TD*%
D10*
%TO.P,J13,1,Pin_1*%
%TO.N,Net-(J13-Pin_1)*%
X197485000Y-52705000D03*
D11*
%TO.P,J13,2,Pin_2*%
%TO.N,PIN_19 *%
X197485000Y-50165000D03*
%TD*%
D10*
%TO.P,J96,1,Pin_1*%
%TO.N,PIN_8 *%
X136525000Y-99705000D03*
D11*
%TO.P,J96,2,Pin_2*%
%TO.N,Net-(J83-Pin_1)*%
X136525000Y-97165000D03*
%TD*%
D10*
%TO.P,J18,1,Pin_1*%
%TO.N,PIN_17 *%
X136525000Y-57785000D03*
D11*
%TO.P,J18,2,Pin_2*%
%TO.N,Net-(J18-Pin_2)*%
X136525000Y-55245000D03*
%TD*%
D10*
%TO.P,J19,1,Pin_1*%
%TO.N,PIN_21 *%
X144145000Y-57785000D03*
D11*
%TO.P,J19,2,Pin_2*%
%TO.N,Net-(J19-Pin_2)*%
X144145000Y-55245000D03*
%TD*%
D10*
%TO.P,J57,1,Pin_1*%
%TO.N,Net-(J57-Pin_1)*%
X136525000Y-80655000D03*
D11*
%TO.P,J57,2,Pin_2*%
%TO.N,PIN_16 *%
X136525000Y-78115000D03*
%TD*%
D10*
%TO.P,J79,1,Pin_1*%
%TO.N,Net-(J79-Pin_1)*%
X106045000Y-94615000D03*
D11*
%TO.P,J79,2,Pin_2*%
%TO.N,PIN_27 *%
X106045000Y-92075000D03*
%TD*%
D10*
%TO.P,J44,1,Pin_1*%
%TO.N,PIN_17 *%
X136525000Y-71760000D03*
D11*
%TO.P,J44,2,Pin_2*%
%TO.N,Net-(J31-Pin_1)*%
X136525000Y-69220000D03*
%TD*%
D10*
%TO.P,J35,1,Pin_1*%
%TO.N,Net-(J35-Pin_1)*%
X167005000Y-66680000D03*
D11*
%TO.P,J35,2,Pin_2*%
%TO.N,PIN_1 *%
X167005000Y-64140000D03*
%TD*%
D10*
%TO.P,J45,1,Pin_1*%
%TO.N,PIN_21 *%
X144145000Y-71760000D03*
D11*
%TO.P,J45,2,Pin_2*%
%TO.N,Net-(J32-Pin_1)*%
X144145000Y-69220000D03*
%TD*%
D10*
%TO.P,J70,1,Pin_1*%
%TO.N,PIN_8 *%
X136525000Y-85735000D03*
D11*
%TO.P,J70,2,Pin_2*%
%TO.N,Net-(J57-Pin_1)*%
X136525000Y-83195000D03*
%TD*%
D10*
%TO.P,J67,1,Pin_1*%
%TO.N,PIN_7 *%
X113665000Y-85730000D03*
D11*
%TO.P,J67,2,Pin_2*%
%TO.N,Net-(J54-Pin_1)*%
X113665000Y-83190000D03*
%TD*%
D10*
%TO.P,J105,1,Pin_1*%
%TO.N,Net-(J105-Pin_1)*%
X106045000Y-108585000D03*
D11*
%TO.P,J105,2,Pin_2*%
%TO.N,PIN_15 *%
X106045000Y-106045000D03*
%TD*%
D10*
%TO.P,J47,1,Pin_1*%
%TO.N,PIN_25 *%
X159385000Y-71760000D03*
D11*
%TO.P,J47,2,Pin_2*%
%TO.N,Net-(J34-Pin_1)*%
X159385000Y-69220000D03*
%TD*%
D10*
%TO.P,J144,1,Pin_1*%
%TO.N,PIN_30 *%
X197485000Y-127645000D03*
D11*
%TO.P,J144,2,Pin_2*%
%TO.N,Net-(J131-Pin_1)*%
X197485000Y-125105000D03*
%TD*%
D10*
%TO.P,J84,1,Pin_1*%
%TO.N,Net-(J84-Pin_1)*%
X144145000Y-94620000D03*
D11*
%TO.P,J84,2,Pin_2*%
%TO.N,PIN_18 *%
X144145000Y-92080000D03*
%TD*%
D10*
%TO.P,J12,1,Pin_1*%
%TO.N,Net-(J12-Pin_1)*%
X189865000Y-52705000D03*
D11*
%TO.P,J12,2,Pin_2*%
%TO.N,PIN_27 *%
X189865000Y-50165000D03*
%TD*%
D10*
%TO.P,J26,1,Pin_1*%
%TO.N,PIN_3 *%
X197485000Y-57785000D03*
D11*
%TO.P,J26,2,Pin_2*%
%TO.N,Net-(J13-Pin_1)*%
X197485000Y-55245000D03*
%TD*%
D10*
%TO.P,J120,1,Pin_1*%
%TO.N,PIN_3 *%
X121285000Y-113675000D03*
D11*
%TO.P,J120,2,Pin_2*%
%TO.N,Net-(J107-Pin_1)*%
X121285000Y-111135000D03*
%TD*%
D10*
%TO.P,J39,1,Pin_1*%
%TO.N,Net-(J39-Pin_1)*%
X197485000Y-66685000D03*
D11*
%TO.P,J39,2,Pin_2*%
%TO.N,PIN_19 *%
X197485000Y-64145000D03*
%TD*%
D10*
%TO.P,J62,1,Pin_1*%
%TO.N,Net-(J62-Pin_1)*%
X174625000Y-80650000D03*
D11*
%TO.P,J62,2,Pin_2*%
%TO.N,PIN_15 *%
X174625000Y-78110000D03*
%TD*%
D10*
%TO.P,J142,1,Pin_1*%
%TO.N,Net-(J142-Pin_1)*%
X182245000Y-122560000D03*
D11*
%TO.P,J142,2,Pin_2*%
%TO.N,PIN_22 *%
X182245000Y-120020000D03*
%TD*%
D10*
%TO.P,J112,1,Pin_1*%
%TO.N,Net-(J112-Pin_1)*%
X159385000Y-108590000D03*
D11*
%TO.P,J112,2,Pin_2*%
%TO.N,PIN_20 *%
X159385000Y-106050000D03*
%TD*%
D10*
%TO.P,J135,1,Pin_1*%
%TO.N,Net-(J135-Pin_1)*%
X128905000Y-122565000D03*
D11*
%TO.P,J135,2,Pin_2*%
%TO.N,PIN_18 *%
X128905000Y-120025000D03*
%TD*%
D10*
%TO.P,J110,1,Pin_1*%
%TO.N,Net-(J110-Pin_1)*%
X144145000Y-108590000D03*
D11*
%TO.P,J110,2,Pin_2*%
%TO.N,PIN_14 *%
X144145000Y-106050000D03*
%TD*%
D10*
%TO.P,J87,1,Pin_1*%
%TO.N,Net-(J100-Pin_2)*%
X167005000Y-94620000D03*
D11*
%TO.P,J87,2,Pin_2*%
%TO.N,PIN_18 *%
X167005000Y-92080000D03*
%TD*%
D10*
%TO.P,J104,1,Pin_1*%
%TO.N,PIN_25 *%
X197485000Y-99700000D03*
D11*
%TO.P,J104,2,Pin_2*%
%TO.N,Net-(J104-Pin_2)*%
X197485000Y-97160000D03*
%TD*%
D10*
%TO.P,J95,1,Pin_1*%
%TO.N,PIN_7 *%
X128905000Y-99705000D03*
D11*
%TO.P,J95,2,Pin_2*%
%TO.N,Net-(J82-Pin_1)*%
X128905000Y-97165000D03*
%TD*%
D10*
%TO.P,J15,1,Pin_1*%
%TO.N,PIN_3 *%
X113665000Y-57785000D03*
D11*
%TO.P,J15,2,Pin_2*%
%TO.N,Net-(J15-Pin_2)*%
X113665000Y-55245000D03*
%TD*%
D10*
%TO.P,J129,1,Pin_1*%
%TO.N,PIN_29 *%
X189865000Y-113675000D03*
D11*
%TO.P,J129,2,Pin_2*%
%TO.N,Net-(J116-Pin_1)*%
X189865000Y-111135000D03*
%TD*%
D10*
%TO.P,J117,1,Pin_1*%
%TO.N,Net-(J117-Pin_1)*%
X197485000Y-108590000D03*
D11*
%TO.P,J117,2,Pin_2*%
%TO.N,PIN_19 *%
X197485000Y-106050000D03*
%TD*%
D10*
%TO.P,J91,1,Pin_1*%
%TO.N,Net-(J104-Pin_2)*%
X197485000Y-94625000D03*
D11*
%TO.P,J91,2,Pin_2*%
%TO.N,PIN_22 *%
X197485000Y-92085000D03*
%TD*%
D10*
%TO.P,J145,1,Pin_1*%
%TO.N,PIN_9 *%
X106045000Y-127635000D03*
D11*
%TO.P,J145,2,Pin_2*%
%TO.N,Net-(J132-Pin_1)*%
X106045000Y-125095000D03*
%TD*%
D10*
%TO.P,J33,1,Pin_1*%
%TO.N,Net-(J33-Pin_1)*%
X151765000Y-66680000D03*
D11*
%TO.P,J33,2,Pin_2*%
%TO.N,PIN_1 *%
X151765000Y-64140000D03*
%TD*%
D10*
%TO.P,J113,1,Pin_1*%
%TO.N,Net-(J113-Pin_1)*%
X167005000Y-108590000D03*
D11*
%TO.P,J113,2,Pin_2*%
%TO.N,PIN_20 *%
X167005000Y-106050000D03*
%TD*%
D10*
%TO.P,J51,1,Pin_1*%
%TO.N,PIN_21 *%
X189865000Y-71760000D03*
D11*
%TO.P,J51,2,Pin_2*%
%TO.N,Net-(J38-Pin_1)*%
X189865000Y-69220000D03*
%TD*%
D10*
%TO.P,J114,1,Pin_1*%
%TO.N,Net-(J114-Pin_1)*%
X174625000Y-108590000D03*
D11*
%TO.P,J114,2,Pin_2*%
%TO.N,PIN_20 *%
X174625000Y-106050000D03*
%TD*%
D10*
%TO.P,J141,1,Pin_1*%
%TO.N,Net-(J141-Pin_1)*%
X174625000Y-122565000D03*
D11*
%TO.P,J141,2,Pin_2*%
%TO.N,PIN_27 *%
X174625000Y-120025000D03*
%TD*%
D10*
%TO.P,J10,1,Pin_1*%
%TO.N,Net-(J10-Pin_1)*%
X174625000Y-52705000D03*
D11*
%TO.P,J10,2,Pin_2*%
%TO.N,PIN_26 *%
X174625000Y-50165000D03*
%TD*%
D10*
%TO.P,J86,1,Pin_1*%
%TO.N,Net-(J86-Pin_1)*%
X159385000Y-94625000D03*
D11*
%TO.P,J86,2,Pin_2*%
%TO.N,PIN_18 *%
X159385000Y-92085000D03*
%TD*%
D10*
%TO.P,J83,1,Pin_1*%
%TO.N,Net-(J83-Pin_1)*%
X136525000Y-94625000D03*
D11*
%TO.P,J83,2,Pin_2*%
%TO.N,PIN_14 *%
X136525000Y-92085000D03*
%TD*%
D10*
%TO.P,J53,1,Pin_1*%
%TO.N,Net-(J53-Pin_1)*%
X106045000Y-80645000D03*
D11*
%TO.P,J53,2,Pin_2*%
%TO.N,PIN_22 *%
X106045000Y-78105000D03*
%TD*%
D10*
%TO.P,J82,1,Pin_1*%
%TO.N,Net-(J82-Pin_1)*%
X128905000Y-94620000D03*
D11*
%TO.P,J82,2,Pin_2*%
%TO.N,PIN_13 *%
X128905000Y-92080000D03*
%TD*%
D10*
%TO.P,J17,1,Pin_1*%
%TO.N,PIN_8 *%
X128905000Y-57785000D03*
D11*
%TO.P,J17,2,Pin_2*%
%TO.N,Net-(J17-Pin_2)*%
X128905000Y-55245000D03*
%TD*%
D10*
%TO.P,J146,1,Pin_1*%
%TO.N,PIN_21 *%
X113665000Y-127640000D03*
D11*
%TO.P,J146,2,Pin_2*%
%TO.N,Net-(J133-Pin_1)*%
X113665000Y-125100000D03*
%TD*%
D10*
%TO.P,J9,1,Pin_1*%
%TO.N,Net-(J22-Pin_2)*%
X167005000Y-52705000D03*
D11*
%TO.P,J9,2,Pin_2*%
%TO.N,PIN_26 *%
X167005000Y-50165000D03*
%TD*%
D10*
%TO.P,J140,1,Pin_1*%
%TO.N,Net-(J140-Pin_1)*%
X167005000Y-122565000D03*
D11*
%TO.P,J140,2,Pin_2*%
%TO.N,PIN_19 *%
X167005000Y-120025000D03*
%TD*%
D10*
%TO.P,J119,1,Pin_1*%
%TO.N,PIN_7 *%
X113665000Y-113670000D03*
D11*
%TO.P,J119,2,Pin_2*%
%TO.N,Net-(J106-Pin_1)*%
X113665000Y-111130000D03*
%TD*%
D10*
%TO.P,J64,1,Pin_1*%
%TO.N,Net-(J64-Pin_1)*%
X189865000Y-80655000D03*
D11*
%TO.P,J64,2,Pin_2*%
%TO.N,PIN_27 *%
X189865000Y-78115000D03*
%TD*%
D10*
%TO.P,J94,1,Pin_1*%
%TO.N,PIN_3 *%
X121285000Y-99705000D03*
D11*
%TO.P,J94,2,Pin_2*%
%TO.N,Net-(J81-Pin_1)*%
X121285000Y-97165000D03*
%TD*%
D10*
%TO.P,J125,1,Pin_1*%
%TO.N,PIN_29 *%
X159385000Y-113675000D03*
D11*
%TO.P,J125,2,Pin_2*%
%TO.N,Net-(J112-Pin_1)*%
X159385000Y-111135000D03*
%TD*%
D10*
%TO.P,J2,1,Pin_1*%
%TO.N,Net-(J15-Pin_2)*%
X113665000Y-52705000D03*
D11*
%TO.P,J2,2,Pin_2*%
%TO.N,PIN_26 *%
X113665000Y-50165000D03*
%TD*%
D10*
%TO.P,J124,1,Pin_1*%
%TO.N,PIN_21 *%
X151765000Y-113675000D03*
D11*
%TO.P,J124,2,Pin_2*%
%TO.N,Net-(J111-Pin_1)*%
X151765000Y-111135000D03*
%TD*%
D10*
%TO.P,J147,1,Pin_1*%
%TO.N,PIN_11 *%
X121285000Y-127640000D03*
D11*
%TO.P,J147,2,Pin_2*%
%TO.N,Net-(J134-Pin_1)*%
X121285000Y-125100000D03*
%TD*%
D10*
%TO.P,J148,1,Pin_1*%
%TO.N,PIN_24 *%
X128905000Y-127640000D03*
D11*
%TO.P,J148,2,Pin_2*%
%TO.N,Net-(J135-Pin_1)*%
X128905000Y-125100000D03*
%TD*%
D10*
%TO.P,J150,1,Pin_1*%
%TO.N,PIN_24 *%
X144145000Y-127645000D03*
D11*
%TO.P,J150,2,Pin_2*%
%TO.N,Net-(J137-Pin_1)*%
X144145000Y-125105000D03*
%TD*%
D10*
%TO.P,J93,1,Pin_1*%
%TO.N,PIN_11 *%
X113665000Y-99700000D03*
D11*
%TO.P,J93,2,Pin_2*%
%TO.N,Net-(J80-Pin_1)*%
X113665000Y-97160000D03*
%TD*%
D10*
%TO.P,J30,1,Pin_1*%
%TO.N,Net-(J30-Pin_1)*%
X128905000Y-66680000D03*
D11*
%TO.P,J30,2,Pin_2*%
%TO.N,PIN_1 *%
X128905000Y-64140000D03*
%TD*%
D10*
%TO.P,J3,1,Pin_1*%
%TO.N,Net-(J16-Pin_2)*%
X121285000Y-52705000D03*
D11*
%TO.P,J3,2,Pin_2*%
%TO.N,PIN_26 *%
X121285000Y-50165000D03*
%TD*%
D10*
%TO.P,J1,1,Pin_1*%
%TO.N,Net-(J1-Pin_1)*%
X106045000Y-52705000D03*
D11*
%TO.P,J1,2,Pin_2*%
%TO.N,PIN_27 *%
X106045000Y-50165000D03*
%TD*%
D10*
%TO.P,J137,1,Pin_1*%
%TO.N,Net-(J137-Pin_1)*%
X144145000Y-122565000D03*
D11*
%TO.P,J137,2,Pin_2*%
%TO.N,PIN_16 *%
X144145000Y-120025000D03*
%TD*%
D10*
%TO.P,J52,1,Pin_1*%
%TO.N,PIN_29 *%
X197485000Y-71765000D03*
D11*
%TO.P,J52,2,Pin_2*%
%TO.N,Net-(J39-Pin_1)*%
X197485000Y-69225000D03*
%TD*%
D10*
%TO.P,J11,1,Pin_1*%
%TO.N,Net-(J11-Pin_1)*%
X182245000Y-52705000D03*
D11*
%TO.P,J11,2,Pin_2*%
%TO.N,PIN_27 *%
X182245000Y-50165000D03*
%TD*%
D10*
%TO.P,J54,1,Pin_1*%
%TO.N,Net-(J54-Pin_1)*%
X113665000Y-80650000D03*
D11*
%TO.P,J54,2,Pin_2*%
%TO.N,PIN_24 *%
X113665000Y-78110000D03*
%TD*%
D10*
%TO.P,J59,1,Pin_1*%
%TO.N,Net-(J59-Pin_1)*%
X151765000Y-80655000D03*
D11*
%TO.P,J59,2,Pin_2*%
%TO.N,PIN_15 *%
X151765000Y-78115000D03*
%TD*%
D10*
%TO.P,J74,1,Pin_1*%
%TO.N,PIN_25 *%
X167005000Y-85735000D03*
D11*
%TO.P,J74,2,Pin_2*%
%TO.N,Net-(J61-Pin_1)*%
X167005000Y-83195000D03*
%TD*%
D10*
%TO.P,J111,1,Pin_1*%
%TO.N,Net-(J111-Pin_1)*%
X151765000Y-108590000D03*
D11*
%TO.P,J111,2,Pin_2*%
%TO.N,PIN_14 *%
X151765000Y-106050000D03*
%TD*%
D10*
%TO.P,J123,1,Pin_1*%
%TO.N,PIN_17 *%
X144145000Y-113675000D03*
D11*
%TO.P,J123,2,Pin_2*%
%TO.N,Net-(J110-Pin_1)*%
X144145000Y-111135000D03*
%TD*%
D10*
%TO.P,J98,1,Pin_1*%
%TO.N,PIN_21 *%
X151765000Y-99705000D03*
D11*
%TO.P,J98,2,Pin_2*%
%TO.N,Net-(J85-Pin_1)*%
X151765000Y-97165000D03*
%TD*%
D10*
%TO.P,J20,1,Pin_1*%
%TO.N,PIN_29 *%
X151765000Y-57785000D03*
D11*
%TO.P,J20,2,Pin_2*%
%TO.N,Net-(J20-Pin_2)*%
X151765000Y-55245000D03*
%TD*%
D10*
%TO.P,J56,1,Pin_1*%
%TO.N,Net-(J56-Pin_1)*%
X128905000Y-80655000D03*
D11*
%TO.P,J56,2,Pin_2*%
%TO.N,PIN_2 *%
X128905000Y-78115000D03*
%TD*%
D10*
%TO.P,J109,1,Pin_1*%
%TO.N,Net-(J109-Pin_1)*%
X136525000Y-108595000D03*
D11*
%TO.P,J109,2,Pin_2*%
%TO.N,PIN_20 *%
X136525000Y-106055000D03*
%TD*%
D10*
%TO.P,J138,1,Pin_1*%
%TO.N,Net-(J138-Pin_1)*%
X151765000Y-122565000D03*
D11*
%TO.P,J138,2,Pin_2*%
%TO.N,PIN_19 *%
X151765000Y-120025000D03*
%TD*%
D10*
%TO.P,J127,1,Pin_1*%
%TO.N,PIN_28 *%
X174625000Y-113670000D03*
D11*
%TO.P,J127,2,Pin_2*%
%TO.N,Net-(J114-Pin_1)*%
X174625000Y-111130000D03*
%TD*%
D10*
%TO.P,J154,1,Pin_1*%
%TO.N,PIN_28 *%
X174625000Y-127640000D03*
D11*
%TO.P,J154,2,Pin_2*%
%TO.N,Net-(J141-Pin_1)*%
X174625000Y-125100000D03*
%TD*%
D10*
%TO.P,J77,1,Pin_1*%
%TO.N,PIN_11 *%
X189865000Y-85735000D03*
D11*
%TO.P,J77,2,Pin_2*%
%TO.N,Net-(J64-Pin_1)*%
X189865000Y-83195000D03*
%TD*%
D10*
%TO.P,J158,1,Pin_1*%
%TO.N,PWR_1 *%
X169545000Y-142240000D03*
D11*
%TO.P,J158,2,Pin_2*%
%TO.N,PWR_2 *%
X169545000Y-139700000D03*
%TD*%
D10*
%TO.P,J100,1,Pin_1*%
%TO.N,PIN_25 *%
X167005000Y-99700000D03*
D11*
%TO.P,J100,2,Pin_2*%
%TO.N,Net-(J100-Pin_2)*%
X167005000Y-97160000D03*
%TD*%
D10*
%TO.P,J85,1,Pin_1*%
%TO.N,Net-(J85-Pin_1)*%
X151765000Y-94625000D03*
D11*
%TO.P,J85,2,Pin_2*%
%TO.N,PIN_13 *%
X151765000Y-92085000D03*
%TD*%
D10*
%TO.P,J5,1,Pin_1*%
%TO.N,Net-(J18-Pin_2)*%
X136525000Y-52705000D03*
D11*
%TO.P,J5,2,Pin_2*%
%TO.N,PIN_26 *%
X136525000Y-50165000D03*
%TD*%
D10*
%TO.P,J31,1,Pin_1*%
%TO.N,Net-(J31-Pin_1)*%
X136525000Y-66680000D03*
D11*
%TO.P,J31,2,Pin_2*%
%TO.N,PIN_1 *%
X136525000Y-64140000D03*
%TD*%
D10*
%TO.P,J23,1,Pin_1*%
%TO.N,PIN_30 *%
X174625000Y-57785000D03*
D11*
%TO.P,J23,2,Pin_2*%
%TO.N,Net-(J10-Pin_1)*%
X174625000Y-55245000D03*
%TD*%
D10*
%TO.P,J24,1,Pin_1*%
%TO.N,PIN_24 *%
X182245000Y-57785000D03*
D11*
%TO.P,J24,2,Pin_2*%
%TO.N,Net-(J11-Pin_1)*%
X182245000Y-55245000D03*
%TD*%
D10*
%TO.P,J128,1,Pin_1*%
%TO.N,PIN_30 *%
X182245000Y-113675000D03*
D11*
%TO.P,J128,2,Pin_2*%
%TO.N,Net-(J115-Pin_1)*%
X182245000Y-111135000D03*
%TD*%
D10*
%TO.P,J88,1,Pin_1*%
%TO.N,Net-(J101-Pin_2)*%
X174625000Y-94625000D03*
D11*
%TO.P,J88,2,Pin_2*%
%TO.N,PIN_18 *%
X174625000Y-92085000D03*
%TD*%
D10*
%TO.P,J6,1,Pin_1*%
%TO.N,Net-(J19-Pin_2)*%
X144145000Y-52705000D03*
D11*
%TO.P,J6,2,Pin_2*%
%TO.N,PIN_26 *%
X144145000Y-50165000D03*
%TD*%
D10*
%TO.P,J126,1,Pin_1*%
%TO.N,PIN_25 *%
X167005000Y-113675000D03*
D11*
%TO.P,J126,2,Pin_2*%
%TO.N,Net-(J113-Pin_1)*%
X167005000Y-111135000D03*
%TD*%
D10*
%TO.P,J48,1,Pin_1*%
%TO.N,PIN_28 *%
X167005000Y-71760000D03*
D11*
%TO.P,J48,2,Pin_2*%
%TO.N,Net-(J35-Pin_1)*%
X167005000Y-69220000D03*
%TD*%
D10*
%TO.P,J106,1,Pin_1*%
%TO.N,Net-(J106-Pin_1)*%
X113665000Y-108595000D03*
D11*
%TO.P,J106,2,Pin_2*%
%TO.N,PIN_19 *%
X113665000Y-106055000D03*
%TD*%
D10*
%TO.P,J7,1,Pin_1*%
%TO.N,Net-(J20-Pin_2)*%
X151765000Y-52705000D03*
D11*
%TO.P,J7,2,Pin_2*%
%TO.N,PIN_26 *%
X151765000Y-50165000D03*
%TD*%
D10*
%TO.P,J78,1,Pin_1*%
%TO.N,PIN_21 *%
X197485000Y-85730000D03*
D11*
%TO.P,J78,2,Pin_2*%
%TO.N,Net-(J65-Pin_1)*%
X197485000Y-83190000D03*
%TD*%
D10*
%TO.P,J131,1,Pin_1*%
%TO.N,Net-(J131-Pin_1)*%
X197485000Y-122560000D03*
D11*
%TO.P,J131,2,Pin_2*%
%TO.N,PIN_27 *%
X197485000Y-120020000D03*
%TD*%
D10*
%TO.P,J92,1,Pin_1*%
%TO.N,PIN_9 *%
X106045000Y-99700000D03*
D11*
%TO.P,J92,2,Pin_2*%
%TO.N,Net-(J79-Pin_1)*%
X106045000Y-97160000D03*
%TD*%
D10*
%TO.P,J4,1,Pin_1*%
%TO.N,Net-(J17-Pin_2)*%
X128905000Y-52705000D03*
D11*
%TO.P,J4,2,Pin_2*%
%TO.N,PIN_26 *%
X128905000Y-50165000D03*
%TD*%
D10*
%TO.P,J32,1,Pin_1*%
%TO.N,Net-(J32-Pin_1)*%
X144145000Y-66680000D03*
D11*
%TO.P,J32,2,Pin_2*%
%TO.N,PIN_1 *%
X144145000Y-64140000D03*
%TD*%
D10*
%TO.P,J43,1,Pin_1*%
%TO.N,PIN_8 *%
X128905000Y-71755000D03*
D11*
%TO.P,J43,2,Pin_2*%
%TO.N,Net-(J30-Pin_1)*%
X128905000Y-69215000D03*
%TD*%
D10*
%TO.P,J46,1,Pin_1*%
%TO.N,PIN_29 *%
X151765000Y-71765000D03*
D11*
%TO.P,J46,2,Pin_2*%
%TO.N,Net-(J33-Pin_1)*%
X151765000Y-69225000D03*
%TD*%
D10*
%TO.P,J133,1,Pin_1*%
%TO.N,Net-(J133-Pin_1)*%
X113665000Y-122560000D03*
D11*
%TO.P,J133,2,Pin_2*%
%TO.N,PIN_22 *%
X113665000Y-120020000D03*
%TD*%
D10*
%TO.P,J80,1,Pin_1*%
%TO.N,Net-(J80-Pin_1)*%
X113665000Y-94620000D03*
D11*
%TO.P,J80,2,Pin_2*%
%TO.N,PIN_22 *%
X113665000Y-92080000D03*
%TD*%
D10*
%TO.P,J61,1,Pin_1*%
%TO.N,Net-(J61-Pin_1)*%
X167005000Y-80650000D03*
D11*
%TO.P,J61,2,Pin_2*%
%TO.N,PIN_15 *%
X167005000Y-78110000D03*
%TD*%
D10*
%TO.P,J75,1,Pin_1*%
%TO.N,PIN_28 *%
X174625000Y-85735000D03*
D11*
%TO.P,J75,2,Pin_2*%
%TO.N,Net-(J62-Pin_1)*%
X174625000Y-83195000D03*
%TD*%
D10*
%TO.P,J34,1,Pin_1*%
%TO.N,Net-(J34-Pin_1)*%
X159385000Y-66685000D03*
D11*
%TO.P,J34,2,Pin_2*%
%TO.N,PIN_1 *%
X159385000Y-64145000D03*
%TD*%
D10*
%TO.P,J60,1,Pin_1*%
%TO.N,Net-(J60-Pin_1)*%
X159385000Y-80655000D03*
D11*
%TO.P,J60,2,Pin_2*%
%TO.N,PIN_15 *%
X159385000Y-78115000D03*
%TD*%
D10*
%TO.P,J103,1,Pin_1*%
%TO.N,PIN_25 *%
X189865000Y-99700000D03*
D11*
%TO.P,J103,2,Pin_2*%
%TO.N,Net-(J103-Pin_2)*%
X189865000Y-97160000D03*
%TD*%
D10*
%TO.P,J73,1,Pin_1*%
%TO.N,PIN_29 *%
X159385000Y-85730000D03*
D11*
%TO.P,J73,2,Pin_2*%
%TO.N,Net-(J60-Pin_1)*%
X159385000Y-83190000D03*
%TD*%
D10*
%TO.P,J72,1,Pin_1*%
%TO.N,PIN_21 *%
X151765000Y-85735000D03*
D11*
%TO.P,J72,2,Pin_2*%
%TO.N,Net-(J59-Pin_1)*%
X151765000Y-83195000D03*
%TD*%
D10*
%TO.P,J71,1,Pin_1*%
%TO.N,PIN_17 *%
X144145000Y-85730000D03*
D11*
%TO.P,J71,2,Pin_2*%
%TO.N,Net-(J58-Pin_1)*%
X144145000Y-83190000D03*
%TD*%
D10*
%TO.P,J66,1,Pin_1*%
%TO.N,PIN_3 *%
X106045000Y-85725000D03*
D11*
%TO.P,J66,2,Pin_2*%
%TO.N,Net-(J53-Pin_1)*%
X106045000Y-83185000D03*
%TD*%
D10*
%TO.P,J130,1,Pin_1*%
%TO.N,PIN_17 *%
X197485000Y-113670000D03*
D11*
%TO.P,J130,2,Pin_2*%
%TO.N,Net-(J117-Pin_1)*%
X197485000Y-111130000D03*
%TD*%
D10*
%TO.P,J16,1,Pin_1*%
%TO.N,PIN_7 *%
X121285000Y-57785000D03*
D11*
%TO.P,J16,2,Pin_2*%
%TO.N,Net-(J16-Pin_2)*%
X121285000Y-55245000D03*
%TD*%
D10*
%TO.P,J99,1,Pin_1*%
%TO.N,PIN_29 *%
X159385000Y-99705000D03*
D11*
%TO.P,J99,2,Pin_2*%
%TO.N,Net-(J86-Pin_1)*%
X159385000Y-97165000D03*
%TD*%
D10*
%TO.P,J40,1,Pin_1*%
%TO.N,PIN_8 *%
X106045000Y-71755000D03*
D11*
%TO.P,J40,2,Pin_2*%
%TO.N,Net-(J27-Pin_1)*%
X106045000Y-69215000D03*
%TD*%
D10*
%TO.P,J42,1,Pin_1*%
%TO.N,PIN_7 *%
X121285000Y-71755000D03*
D11*
%TO.P,J42,2,Pin_2*%
%TO.N,Net-(J29-Pin_1)*%
X121285000Y-69215000D03*
%TD*%
D10*
%TO.P,J108,1,Pin_1*%
%TO.N,Net-(J108-Pin_1)*%
X128905000Y-108590000D03*
D11*
%TO.P,J108,2,Pin_2*%
%TO.N,PIN_20 *%
X128905000Y-106050000D03*
%TD*%
D10*
%TO.P,J153,1,Pin_1*%
%TO.N,PIN_25 *%
X167005000Y-127645000D03*
D11*
%TO.P,J153,2,Pin_2*%
%TO.N,Net-(J140-Pin_1)*%
X167005000Y-125105000D03*
%TD*%
D10*
%TO.P,J121,1,Pin_1*%
%TO.N,PIN_7 *%
X128905000Y-113670000D03*
D11*
%TO.P,J121,2,Pin_2*%
%TO.N,Net-(J108-Pin_1)*%
X128905000Y-111130000D03*
%TD*%
D10*
%TO.P,J132,1,Pin_1*%
%TO.N,Net-(J132-Pin_1)*%
X106045000Y-122555000D03*
D11*
%TO.P,J132,2,Pin_2*%
%TO.N,PIN_26 *%
X106045000Y-120015000D03*
%TD*%
D12*
%TO.N,PIN_27 *%
X194310000Y-122555000D03*
%TO.N,PIN_19 *%
X150495000Y-133350000D03*
X108585000Y-94620000D03*
%TO.N,PIN_7 *%
X118745000Y-129540000D03*
%TO.N,PIN_3 *%
X140983290Y-132540084D03*
X138430000Y-120015000D03*
%TO.N,PIN_8 *%
X147255349Y-120469249D03*
X143001140Y-132508738D03*
%TO.N,PIN_17 *%
X149045500Y-131816582D03*
X155040000Y-112495000D03*
%TO.N,PIN_21 *%
X149225000Y-129930304D03*
%TO.N,PIN_29 *%
X178435000Y-126180000D03*
X177250000Y-114850000D03*
%TO.N,PIN_24 *%
X116205000Y-95250000D03*
X116205000Y-107315000D03*
%TO.N,PIN_9 *%
X122899848Y-130279446D03*
%TO.N,PIN_23 *%
X155895000Y-117795000D03*
X186055000Y-115575000D03*
%TO.N,PIN_22 *%
X151765000Y-131445000D03*
%TO.N,PIN_15 *%
X147123628Y-131006371D03*
X150495000Y-102870000D03*
X154305000Y-91440000D03*
%TO.N,PIN_2 *%
X142092097Y-135287583D03*
%TO.N,PIN_16 *%
X140652500Y-94937500D03*
X146685000Y-102875000D03*
X142875000Y-130084500D03*
X148270927Y-131129072D03*
%TO.N,PIN_18 *%
X150288787Y-134327998D03*
X132715000Y-109855000D03*
%TO.N,PIN_13 *%
X147790500Y-135828878D03*
%TO.N,PIN_14 *%
X141856675Y-130090774D03*
%TO.N,PWR_2 *%
X159385000Y-139700000D03*
%TD*%
D13*
%TO.N,Net-(J1-Pin_1)*%
X106045000Y-52705000D02*
X106045000Y-55245000D01*
%TO.N,Net-(J15-Pin_2)*%
X113665000Y-52705000D02*
X113665000Y-55245000D01*
%TO.N,PIN_26 *%
X105410000Y-48265000D02*
X102870000Y-50805000D01*
X113665000Y-50165000D02*
X111765000Y-48265000D01*
X111765000Y-48265000D02*
X105410000Y-48265000D01*
X102870000Y-50805000D02*
X102870000Y-116840000D01*
X102870000Y-116840000D02*
X106045000Y-120015000D01*
%TO.N,Net-(J16-Pin_2)*%
X121285000Y-52705000D02*
X121285000Y-55245000D01*
%TO.N,Net-(J17-Pin_2)*%
X128905000Y-52705000D02*
X128905000Y-55245000D01*
%TO.N,Net-(J18-Pin_2)*%
X136525000Y-52705000D02*
X136525000Y-55245000D01*
%TO.N,Net-(J19-Pin_2)*%
X144145000Y-52705000D02*
X144145000Y-55245000D01*
%TO.N,Net-(J20-Pin_2)*%
X151765000Y-52705000D02*
X151765000Y-55245000D01*
%TO.N,Net-(J21-Pin_2)*%
X159385000Y-52705000D02*
X159385000Y-55245000D01*
%TO.N,Net-(J22-Pin_2)*%
X167005000Y-52705000D02*
X167005000Y-55245000D01*
%TO.N,Net-(J10-Pin_1)*%
X174625000Y-52705000D02*
X174625000Y-55245000D01*
%TO.N,Net-(J11-Pin_1)*%
X182245000Y-52705000D02*
X182245000Y-55245000D01*
%TO.N,PIN_27 *%
X194310000Y-122555000D02*
X196845000Y-120020000D01*
X191040000Y-62970000D02*
X189865000Y-64145000D01*
X191040000Y-51340000D02*
X191040000Y-62970000D01*
X187960000Y-76210000D02*
X189865000Y-78115000D01*
X103505000Y-52705000D02*
X103505000Y-89535000D01*
X187960000Y-90175000D02*
X189865000Y-92080000D01*
X103505000Y-89535000D02*
X106045000Y-92075000D01*
X189865000Y-64145000D02*
X187960000Y-66050000D01*
X189865000Y-106055000D02*
X193675000Y-109865000D01*
X189865000Y-78115000D02*
X187960000Y-80020000D01*
X189865000Y-92080000D02*
X188690000Y-93255000D01*
X187960000Y-66050000D02*
X187960000Y-76210000D01*
X189865000Y-50165000D02*
X191040000Y-51340000D01*
X193675000Y-116210000D02*
X197485000Y-120020000D01*
X187960000Y-80020000D02*
X187960000Y-90175000D01*
X188690000Y-104880000D02*
X189865000Y-106055000D01*
X193675000Y-109865000D02*
X193675000Y-116210000D01*
X196845000Y-120020000D02*
X197485000Y-120020000D01*
X106045000Y-50165000D02*
X103505000Y-52705000D01*
X188690000Y-93255000D02*
X188690000Y-104880000D01*
%TO.N,Net-(J12-Pin_1)*%
X189865000Y-52705000D02*
X189865000Y-55245000D01*
%TO.N,Net-(J13-Pin_1)*%
X197485000Y-52705000D02*
X197485000Y-55245000D01*
%TO.N,PIN_19 *%
X197485000Y-64145000D02*
X198660000Y-65320000D01*
X198660000Y-51340000D02*
X198660000Y-62970000D01*
X198845000Y-123735000D02*
X200025000Y-122555000D01*
X198660000Y-62970000D02*
X197485000Y-64145000D01*
X104140000Y-87635000D02*
X108585000Y-92080000D01*
X165100000Y-127000000D02*
X165100000Y-121920000D01*
X197485000Y-64145000D02*
X199390000Y-66050000D01*
X197485000Y-106050000D02*
X199390000Y-104145000D01*
X151559695Y-130625000D02*
X161475000Y-130625000D01*
X200025000Y-108590000D02*
X200025000Y-122555000D01*
X150495000Y-133350000D02*
X150495000Y-131689695D01*
X200022500Y-108587500D02*
X197485000Y-106050000D01*
X108585000Y-92080000D02*
X108585000Y-94620000D01*
X166995000Y-120025000D02*
X167005000Y-120025000D01*
X189865000Y-120020000D02*
X193580000Y-123735000D01*
X199390000Y-66050000D02*
X199390000Y-76205000D01*
X197485000Y-50165000D02*
X198660000Y-51340000D01*
X193580000Y-123735000D02*
X198845000Y-123735000D01*
X199390000Y-80015000D02*
X197485000Y-78110000D01*
X165100000Y-121920000D02*
X166995000Y-120025000D01*
X150495000Y-131689695D02*
X151559695Y-130625000D01*
X200022500Y-108587500D02*
X200025000Y-108590000D01*
X197485000Y-78110000D02*
X199390000Y-76205000D01*
X106045000Y-64135000D02*
X104140000Y-66040000D01*
X161475000Y-130625000D02*
X165100000Y-127000000D01*
X104140000Y-77475000D02*
X104140000Y-87635000D01*
X104140000Y-66040000D02*
X104140000Y-77475000D01*
X199390000Y-104145000D02*
X199390000Y-80015000D01*
%TO.N,PIN_7 *%
X113670000Y-113670000D02*
X113665000Y-113670000D01*
X127635000Y-112400000D02*
X128905000Y-113670000D01*
X117475000Y-81920000D02*
X113665000Y-85730000D01*
X130080000Y-98530000D02*
X128905000Y-99705000D01*
X115570000Y-126365000D02*
X115570000Y-115570000D01*
X121285000Y-57785000D02*
X122460000Y-58960000D01*
X121285000Y-71755000D02*
X117475000Y-75565000D01*
X122460000Y-58960000D02*
X122460000Y-70580000D01*
X128905000Y-85730000D02*
X130080000Y-86905000D01*
X106045000Y-57785000D02*
X106045000Y-57790000D01*
X127635000Y-100975000D02*
X127635000Y-112400000D01*
X115570000Y-115570000D02*
X113670000Y-113670000D01*
X128905000Y-99705000D02*
X127635000Y-100975000D01*
X106045000Y-57785000D02*
X106050000Y-57785000D01*
X118745000Y-129540000D02*
X115570000Y-126365000D01*
X117475000Y-75565000D02*
X117475000Y-81920000D01*
X130080000Y-86905000D02*
X130080000Y-98530000D01*
X122460000Y-70580000D02*
X121285000Y-71755000D01*
%TO.N,PIN_3 *%
X159380000Y-120020000D02*
X159385000Y-120020000D01*
X120185000Y-99705000D02*
X118745000Y-101145000D01*
X118745000Y-111130000D02*
X121285000Y-113670000D01*
X140983290Y-132540084D02*
X138430000Y-129986794D01*
X106045000Y-85725000D02*
X104870000Y-84550000D01*
X114840000Y-58960000D02*
X114840000Y-70580000D01*
X121285000Y-99705000D02*
X120185000Y-99705000D01*
X122460000Y-98530000D02*
X121285000Y-99705000D01*
X104870000Y-77618299D02*
X110733299Y-71755000D01*
X121285000Y-113670000D02*
X121285000Y-113675000D01*
X104870000Y-84550000D02*
X104870000Y-77618299D01*
X113665000Y-57785000D02*
X113670000Y-57785000D01*
X114840000Y-70580000D02*
X113665000Y-71755000D01*
X122460000Y-86905000D02*
X122460000Y-98530000D01*
X110733299Y-71755000D02*
X113665000Y-71755000D01*
X138430000Y-129986794D02*
X138430000Y-120015000D01*
X113665000Y-57785000D02*
X114840000Y-58960000D01*
X121285000Y-85730000D02*
X122460000Y-86905000D01*
X118745000Y-101145000D02*
X118745000Y-111130000D01*
%TO.N,PIN_8 *%
X135350000Y-86910000D02*
X135350000Y-98530000D01*
X130080000Y-58960000D02*
X130080000Y-70580000D01*
X136525000Y-85735000D02*
X135350000Y-86910000D01*
X143001140Y-132508738D02*
X144773573Y-130736305D01*
X128905000Y-71755000D02*
X130080000Y-72930000D01*
X137700000Y-100880000D02*
X137700000Y-112500000D01*
X130080000Y-79290000D02*
X136525000Y-85735000D01*
X136525000Y-99705000D02*
X137700000Y-100880000D01*
X147875000Y-121088900D02*
X147255349Y-120469249D01*
X130080000Y-70580000D02*
X128905000Y-71755000D01*
X135350000Y-98530000D02*
X136525000Y-99705000D01*
X144773573Y-130736305D02*
X144773573Y-130736209D01*
X137700000Y-112500000D02*
X136525000Y-113675000D01*
X130080000Y-72930000D02*
X130080000Y-79290000D01*
X147875000Y-127634782D02*
X147875000Y-121088900D01*
X144773573Y-130736209D02*
X147875000Y-127634782D01*
X128905000Y-57785000D02*
X130080000Y-58960000D01*
%TO.N,PIN_17 *%
X136525000Y-57785000D02*
X137700000Y-58960000D01*
X153483604Y-129725000D02*
X151137082Y-129725000D01*
X137700000Y-70585000D02*
X136525000Y-71760000D01*
X140335000Y-75570000D02*
X140335000Y-81920000D01*
X144145000Y-85730000D02*
X145320000Y-86905000D01*
X145320000Y-86905000D02*
X145320000Y-98530000D01*
X145415000Y-112405000D02*
X144145000Y-113675000D01*
X145415000Y-100975000D02*
X145415000Y-112405000D01*
X145320000Y-98530000D02*
X144145000Y-99705000D01*
X144145000Y-99705000D02*
X145415000Y-100975000D01*
X151137082Y-129725000D02*
X149045500Y-131816582D01*
X136525000Y-71760000D02*
X140335000Y-75570000D01*
X157120000Y-126088604D02*
X153483604Y-129725000D01*
X157120000Y-114575000D02*
X157120000Y-126088604D01*
X144145000Y-85730000D02*
X140335000Y-81920000D01*
X155040000Y-112495000D02*
X157120000Y-114575000D01*
X137700000Y-58960000D02*
X137700000Y-70585000D01*
%TO.N,PIN_21 *%
X153035000Y-100970000D02*
X153035000Y-112405000D01*
X147955000Y-75570000D02*
X147955000Y-82555000D01*
X145320000Y-58960000D02*
X145320000Y-70585000D01*
X149225000Y-116205000D02*
X151755000Y-113675000D01*
X145320000Y-70585000D02*
X144145000Y-71760000D01*
X153035000Y-98435000D02*
X151765000Y-99705000D01*
X193675000Y-81920000D02*
X197485000Y-85730000D01*
X193675000Y-75570000D02*
X193675000Y-81920000D01*
X151135000Y-85735000D02*
X147955000Y-82555000D01*
X153035000Y-87000000D02*
X153035000Y-98435000D01*
X144145000Y-57785000D02*
X145320000Y-58960000D01*
X153035000Y-112405000D02*
X151765000Y-113675000D01*
X144145000Y-71760000D02*
X147955000Y-75570000D01*
X151755000Y-113675000D02*
X151765000Y-113675000D01*
X151770000Y-85735000D02*
X153035000Y-87000000D01*
X151770000Y-99705000D02*
X153035000Y-100970000D01*
X151765000Y-85735000D02*
X151135000Y-85735000D01*
X151765000Y-99705000D02*
X151770000Y-99705000D01*
X149225000Y-129930304D02*
X149225000Y-116205000D01*
X151765000Y-85735000D02*
X151770000Y-85735000D01*
X189865000Y-71760000D02*
X193675000Y-75570000D01*
%TO.N,PIN_29 *%
X155575000Y-81920000D02*
X159385000Y-85730000D01*
X159385000Y-99705000D02*
X160560000Y-100880000D01*
X151765000Y-57785000D02*
X152940000Y-58960000D01*
X159385000Y-85730000D02*
X160560000Y-86905000D01*
X160560000Y-86905000D02*
X160560000Y-98530000D01*
X160560000Y-112500000D02*
X159385000Y-113675000D01*
X155575000Y-75575000D02*
X155575000Y-81920000D01*
X160560000Y-100880000D02*
X160560000Y-112500000D01*
X178435000Y-116035000D02*
X177250000Y-114850000D01*
X152940000Y-58960000D02*
X152940000Y-70590000D01*
X160560000Y-98530000D02*
X159385000Y-99705000D01*
X151765000Y-71765000D02*
X155575000Y-75575000D01*
X178435000Y-126180000D02*
X178435000Y-116035000D01*
X152940000Y-70590000D02*
X151765000Y-71765000D01*
%TO.N,PIN_25 *%
X163195000Y-75570000D02*
X159385000Y-71760000D01*
X168275000Y-87000000D02*
X168275000Y-98430000D01*
X168275000Y-98430000D02*
X167005000Y-99700000D01*
X167005000Y-85735000D02*
X163195000Y-81925000D01*
X159385000Y-57785000D02*
X160560000Y-58960000D01*
X168180000Y-126470000D02*
X167005000Y-127645000D01*
X167010000Y-85735000D02*
X168275000Y-87000000D01*
X168180000Y-114850000D02*
X168180000Y-126470000D01*
X167005000Y-85735000D02*
X167010000Y-85735000D01*
X168275000Y-112405000D02*
X168275000Y-100970000D01*
X163195000Y-81925000D02*
X163195000Y-75570000D01*
X168275000Y-100970000D02*
X167005000Y-99700000D01*
X167005000Y-113675000D02*
X168275000Y-112405000D01*
X167005000Y-113675000D02*
X168180000Y-114850000D01*
X160560000Y-58960000D02*
X160560000Y-70585000D01*
X160560000Y-70585000D02*
X159385000Y-71760000D01*
%TO.N,PIN_28 *%
X167005000Y-71760000D02*
X170815000Y-75570000D01*
X175800000Y-126465000D02*
X174625000Y-127640000D01*
X175800000Y-112495000D02*
X174625000Y-113670000D01*
X170815000Y-81925000D02*
X174625000Y-85735000D01*
X175895000Y-98435000D02*
X174625000Y-99705000D01*
X167005000Y-57785000D02*
X168180000Y-58960000D01*
X175800000Y-114845000D02*
X175800000Y-126465000D01*
X182245000Y-127645000D02*
X174630000Y-127645000D01*
X174625000Y-99705000D02*
X175800000Y-100880000D01*
X175800000Y-100880000D02*
X175800000Y-112495000D01*
X174625000Y-85735000D02*
X174630000Y-85735000D01*
X168180000Y-70585000D02*
X167005000Y-71760000D01*
X170815000Y-75570000D02*
X170815000Y-81925000D01*
X174625000Y-113670000D02*
X175800000Y-114845000D01*
X174630000Y-127645000D02*
X174625000Y-127640000D01*
X175895000Y-87000000D02*
X175895000Y-98435000D01*
X168180000Y-58960000D02*
X168180000Y-70585000D01*
X174630000Y-85735000D02*
X175895000Y-87000000D01*
%TO.N,PIN_30 *%
X175800000Y-70585000D02*
X174625000Y-71760000D01*
X175800000Y-58960000D02*
X175800000Y-70585000D01*
X183420000Y-86905000D02*
X183420000Y-98530000D01*
X189865000Y-127640000D02*
X186055000Y-123830000D01*
X178435000Y-75570000D02*
X178435000Y-81920000D01*
X189865000Y-127645000D02*
X189865000Y-127640000D01*
X182245000Y-85730000D02*
X183420000Y-86905000D01*
X183420000Y-112500000D02*
X182245000Y-113675000D01*
X182250000Y-113675000D02*
X186055000Y-117480000D01*
X174625000Y-71760000D02*
X178435000Y-75570000D01*
X182245000Y-99705000D02*
X183420000Y-100880000D01*
X186055000Y-117480000D02*
X186055000Y-123830000D01*
X182245000Y-113675000D02*
X182250000Y-113675000D01*
X174625000Y-57785000D02*
X175800000Y-58960000D01*
X178435000Y-81920000D02*
X182245000Y-85730000D01*
X183420000Y-100880000D02*
X183420000Y-112500000D01*
X183420000Y-98530000D02*
X182245000Y-99705000D01*
%TO.N,PIN_24 *%
X182245000Y-57785000D02*
X180880000Y-56420000D01*
X116205000Y-91440000D02*
X111125000Y-86360000D01*
X180880000Y-56420000D02*
X120300000Y-56420000D01*
X116205000Y-60515000D02*
X116205000Y-75570000D01*
X116205000Y-95250000D02*
X116205000Y-91440000D01*
X127005000Y-129540000D02*
X128905000Y-127640000D01*
X120650000Y-129540000D02*
X127005000Y-129540000D01*
X116205000Y-107315000D02*
X116205000Y-125095000D01*
X120300000Y-56420000D02*
X116205000Y-60515000D01*
X111125000Y-80650000D02*
X113665000Y-78110000D01*
X116205000Y-75570000D02*
X113665000Y-78110000D01*
X111125000Y-86360000D02*
X111125000Y-80650000D01*
X116205000Y-125095000D02*
X120650000Y-129540000D01*
%TO.N,Net-(J27-Pin_1)*%
X106045000Y-66675000D02*
X106045000Y-69215000D01*
%TO.N,Net-(J28-Pin_1)*%
X113665000Y-66675000D02*
X113665000Y-69215000D01*
%TO.N,PIN_1 *%
X121285000Y-120020000D02*
X125095000Y-116210000D01*
X125095000Y-67950000D02*
X128905000Y-64140000D01*
X125095000Y-116210000D02*
X125095000Y-67950000D01*
%TO.N,Net-(J29-Pin_1)*%
X121285000Y-66680000D02*
X121285000Y-69215000D01*
%TO.N,Net-(J30-Pin_1)*%
X128905000Y-66680000D02*
X128905000Y-69215000D01*
%TO.N,Net-(J31-Pin_1)*%
X136525000Y-66680000D02*
X136525000Y-69220000D01*
%TO.N,Net-(J32-Pin_1)*%
X144145000Y-66680000D02*
X144145000Y-69220000D01*
%TO.N,Net-(J33-Pin_1)*%
X151765000Y-66680000D02*
X151765000Y-69225000D01*
%TO.N,Net-(J34-Pin_1)*%
X159385000Y-66685000D02*
X159385000Y-69220000D01*
%TO.N,Net-(J35-Pin_1)*%
X167005000Y-66680000D02*
X167005000Y-69220000D01*
%TO.N,Net-(J36-Pin_1)*%
X174625000Y-66680000D02*
X174625000Y-69220000D01*
%TO.N,PIN_9 *%
X104870000Y-100875000D02*
X104870000Y-112490000D01*
X122899848Y-130279446D02*
X108689446Y-130279446D01*
X108689446Y-130279446D02*
X106045000Y-127635000D01*
X104870000Y-112490000D02*
X106045000Y-113665000D01*
X106045000Y-99700000D02*
X104870000Y-100875000D01*
%TO.N,Net-(J37-Pin_1)*%
X182245000Y-66680000D02*
X182245000Y-69220000D01*
%TO.N,Net-(J38-Pin_1)*%
X189865000Y-66685000D02*
X189865000Y-69220000D01*
%TO.N,Net-(J39-Pin_1)*%
X197485000Y-66685000D02*
X197485000Y-69225000D01*
%TO.N,PIN_23 *%
X155895000Y-117795000D02*
X155575000Y-118115000D01*
X182245000Y-71760000D02*
X186055000Y-75570000D01*
X155575000Y-123830000D02*
X151765000Y-127640000D01*
X186055000Y-75570000D02*
X186055000Y-115575000D01*
X155575000Y-118115000D02*
X155575000Y-123830000D01*
%TO.N,Net-(J53-Pin_1)*%
X106045000Y-80645000D02*
X106045000Y-83185000D01*
%TO.N,PIN_22 *%
X183515000Y-129540000D02*
X181980000Y-131075000D01*
X181980000Y-131075000D02*
X152135000Y-131075000D01*
X109855000Y-88270000D02*
X113665000Y-92080000D01*
X103505000Y-99890000D02*
X103505000Y-114305000D01*
X109220000Y-120020000D02*
X113665000Y-120020000D01*
X106045000Y-78105000D02*
X107220000Y-79280000D01*
X113665000Y-120020000D02*
X111760000Y-120020000D01*
X104965000Y-98430000D02*
X103505000Y-99890000D01*
X109855000Y-81920000D02*
X109855000Y-88270000D01*
X103505000Y-114305000D02*
X109220000Y-120020000D01*
X183515000Y-121290000D02*
X183515000Y-129540000D01*
X107220000Y-79285000D02*
X109855000Y-81920000D01*
X107220000Y-79280000D02*
X107220000Y-79285000D01*
X182245000Y-120020000D02*
X183515000Y-121290000D01*
X107315000Y-98430000D02*
X104965000Y-98430000D01*
X113665000Y-92080000D02*
X107315000Y-98430000D01*
X152135000Y-131075000D02*
X151765000Y-131445000D01*
%TO.N,Net-(J54-Pin_1)*%
X113665000Y-80650000D02*
X113665000Y-83190000D01*
%TO.N,Net-(J55-Pin_1)*%
X121285000Y-80655000D02*
X121285000Y-83190000D01*
%TO.N,PIN_15 *%
X115570000Y-98430000D02*
X118110000Y-95890000D01*
X118110000Y-81290000D02*
X121285000Y-78115000D01*
X118110000Y-95890000D02*
X118110000Y-81290000D01*
X147123628Y-131006371D02*
X148775000Y-129354999D01*
X148775000Y-129354999D02*
X148775000Y-104590000D01*
X106045000Y-106045000D02*
X106045000Y-104842919D01*
X154305000Y-91440000D02*
X154305000Y-80655000D01*
X106045000Y-104842919D02*
X112457919Y-98430000D01*
X148775000Y-104590000D02*
X150495000Y-102870000D01*
X112457919Y-98430000D02*
X115570000Y-98430000D01*
X154305000Y-80655000D02*
X151765000Y-78115000D01*
%TO.N,Net-(J56-Pin_1)*%
X128905000Y-80655000D02*
X128905000Y-83190000D01*
%TO.N,PIN_2 *%
X142092097Y-132227903D02*
X145415000Y-128905000D01*
X147410000Y-119290000D02*
X147410000Y-81375000D01*
X142092097Y-135287583D02*
X142092097Y-132227903D01*
X145415000Y-128905000D02*
X145415000Y-121285000D01*
X145415000Y-121285000D02*
X147410000Y-119290000D01*
X147410000Y-81375000D02*
X144145000Y-78110000D01*
%TO.N,Net-(J57-Pin_1)*%
X136525000Y-80655000D02*
X136525000Y-83195000D01*
%TO.N,PIN_16 *%
X139700000Y-81290000D02*
X139700000Y-81920000D01*
X139700000Y-93985000D02*
X140652500Y-94937500D01*
X142240000Y-129449500D02*
X142240000Y-121930000D01*
X142240000Y-121930000D02*
X144145000Y-120025000D01*
X142875000Y-130084500D02*
X142240000Y-129449500D01*
X146685000Y-117485000D02*
X144145000Y-120025000D01*
X139700000Y-81920000D02*
X139700000Y-93985000D01*
X136525000Y-78115000D02*
X139700000Y-81290000D01*
X146685000Y-102875000D02*
X146685000Y-117485000D01*
%TO.N,Net-(J58-Pin_1)*%
X144145000Y-80650000D02*
X144145000Y-83190000D01*
%TO.N,Net-(J59-Pin_1)*%
X151765000Y-80655000D02*
X151765000Y-83195000D01*
%TO.N,Net-(J60-Pin_1)*%
X159385000Y-80655000D02*
X159385000Y-83190000D01*
%TO.N,Net-(J61-Pin_1)*%
X167005000Y-80650000D02*
X167005000Y-83195000D01*
%TO.N,Net-(J62-Pin_1)*%
X174625000Y-80650000D02*
X174625000Y-83195000D01*
%TO.N,Net-(J63-Pin_1)*%
X182245000Y-80650000D02*
X182245000Y-83190000D01*
%TO.N,Net-(J64-Pin_1)*%
X189865000Y-80655000D02*
X189865000Y-83195000D01*
%TO.N,Net-(J65-Pin_1)*%
X197485000Y-80650000D02*
X197485000Y-83190000D01*
%TO.N,PIN_11 *%
X117475000Y-102410000D02*
X117475000Y-123830000D01*
X113665000Y-99700000D02*
X114765000Y-99700000D01*
X117475000Y-123830000D02*
X121285000Y-127640000D01*
X114765000Y-99700000D02*
X117475000Y-102410000D01*
%TO.N,Net-(J79-Pin_1)*%
X106045000Y-94615000D02*
X106045000Y-97160000D01*
%TO.N,Net-(J80-Pin_1)*%
X113665000Y-94620000D02*
X113665000Y-97160000D01*
%TO.N,Net-(J81-Pin_1)*%
X121285000Y-94625000D02*
X121285000Y-97165000D01*
%TO.N,PIN_18 *%
X150288787Y-134327998D02*
X150202998Y-134327998D01*
X149770000Y-131778299D02*
X151373299Y-130175000D01*
X157570000Y-124370000D02*
X157570000Y-126275000D01*
X157570000Y-126275000D02*
X153670000Y-130175000D01*
X132715000Y-116215000D02*
X128905000Y-120025000D01*
X157570000Y-93900000D02*
X159385000Y-92085000D01*
X150202998Y-134327998D02*
X149770000Y-133895000D01*
X132715000Y-109855000D02*
X132715000Y-116215000D01*
X157570000Y-124370000D02*
X157570000Y-93900000D01*
X151373299Y-130175000D02*
X153670000Y-130175000D01*
X149770000Y-133895000D02*
X149770000Y-131778299D01*
%TO.N,Net-(J82-Pin_1)*%
X128905000Y-94620000D02*
X128905000Y-97165000D01*
%TO.N,PIN_13 *%
X148325000Y-128778701D02*
X148325000Y-95525000D01*
X146398628Y-134437006D02*
X146398628Y-130705073D01*
X146398628Y-130705073D02*
X148325000Y-128778701D01*
X148325000Y-95525000D02*
X151765000Y-92085000D01*
X147790500Y-135828878D02*
X146398628Y-134437006D01*
%TO.N,Net-(J83-Pin_1)*%
X136525000Y-94625000D02*
X136525000Y-97165000D01*
%TO.N,PIN_14 *%
X136525000Y-92085000D02*
X140335000Y-95895000D01*
X139885000Y-128119099D02*
X139885000Y-110310000D01*
X139885000Y-110310000D02*
X144145000Y-106050000D01*
X140335000Y-95895000D02*
X140335000Y-102240000D01*
X140335000Y-102240000D02*
X144145000Y-106050000D01*
X141856675Y-130090774D02*
X139885000Y-128119099D01*
%TO.N,Net-(J84-Pin_1)*%
X144145000Y-94620000D02*
X144145000Y-97165000D01*
%TO.N,Net-(J85-Pin_1)*%
X151765000Y-94625000D02*
X151765000Y-97165000D01*
%TO.N,Net-(J86-Pin_1)*%
X159385000Y-94625000D02*
X159385000Y-97165000D01*
%TO.N,Net-(J100-Pin_2)*%
X167005000Y-94620000D02*
X167005000Y-97160000D01*
%TO.N,Net-(J101-Pin_2)*%
X174625000Y-94625000D02*
X174625000Y-97165000D01*
%TO.N,Net-(J102-Pin_2)*%
X182245000Y-94620000D02*
X182245000Y-97165000D01*
%TO.N,Net-(J103-Pin_2)*%
X189865000Y-94620000D02*
X189865000Y-97160000D01*
%TO.N,Net-(J104-Pin_2)*%
X197485000Y-94625000D02*
X197485000Y-97160000D01*
%TO.N,Net-(J105-Pin_1)*%
X106045000Y-108585000D02*
X106045000Y-111125000D01*
%TO.N,Net-(J106-Pin_1)*%
X113665000Y-108595000D02*
X113665000Y-111130000D01*
%TO.N,Net-(J107-Pin_1)*%
X121285000Y-108595000D02*
X121285000Y-111135000D01*
%TO.N,PIN_20 *%
X133985000Y-108595000D02*
X136525000Y-106055000D01*
X136525000Y-120020000D02*
X133985000Y-117480000D01*
X133985000Y-117480000D02*
X133985000Y-108595000D01*
X128905000Y-106050000D02*
X136520000Y-106050000D01*
X136520000Y-106050000D02*
X136525000Y-106055000D01*
%TO.N,Net-(J108-Pin_1)*%
X128905000Y-108590000D02*
X128905000Y-111130000D01*
%TO.N,Net-(J109-Pin_1)*%
X136525000Y-108595000D02*
X136525000Y-111135000D01*
%TO.N,Net-(J110-Pin_1)*%
X144145000Y-108590000D02*
X144145000Y-111135000D01*
%TO.N,Net-(J111-Pin_1)*%
X151765000Y-108590000D02*
X151765000Y-111135000D01*
%TO.N,Net-(J112-Pin_1)*%
X159385000Y-108590000D02*
X159385000Y-111135000D01*
%TO.N,Net-(J113-Pin_1)*%
X167005000Y-108590000D02*
X167005000Y-111135000D01*
%TO.N,Net-(J114-Pin_1)*%
X174625000Y-108590000D02*
X174625000Y-111130000D01*
%TO.N,Net-(J115-Pin_1)*%
X182245000Y-108595000D02*
X182245000Y-111135000D01*
%TO.N,Net-(J116-Pin_1)*%
X189865000Y-108595000D02*
X189865000Y-111135000D01*
%TO.N,Net-(J117-Pin_1)*%
X197485000Y-108590000D02*
X197485000Y-111130000D01*
%TO.N,Net-(J132-Pin_1)*%
X106045000Y-122555000D02*
X106045000Y-125095000D01*
%TO.N,Net-(J133-Pin_1)*%
X113665000Y-122560000D02*
X113665000Y-125100000D01*
%TO.N,Net-(J134-Pin_1)*%
X121285000Y-122560000D02*
X121285000Y-125100000D01*
%TO.N,Net-(J135-Pin_1)*%
X128905000Y-122565000D02*
X128905000Y-125100000D01*
%TO.N,Net-(J136-Pin_1)*%
X136525000Y-122560000D02*
X136525000Y-125105000D01*
%TO.N,Net-(J137-Pin_1)*%
X144145000Y-122565000D02*
X144145000Y-125105000D01*
%TO.N,Net-(J138-Pin_1)*%
X151765000Y-122565000D02*
X151765000Y-125100000D01*
%TO.N,Net-(J139-Pin_1)*%
X159385000Y-122560000D02*
X159385000Y-125100000D01*
%TO.N,Net-(J140-Pin_1)*%
X167005000Y-122565000D02*
X167005000Y-125105000D01*
%TO.N,Net-(J141-Pin_1)*%
X174625000Y-122565000D02*
X174625000Y-125100000D01*
%TO.N,Net-(J142-Pin_1)*%
X182245000Y-122560000D02*
X182245000Y-125105000D01*
%TO.N,Net-(J143-Pin_1)*%
X189865000Y-122560000D02*
X189865000Y-125105000D01*
%TO.N,PWR_2 *%
X169545000Y-139700000D02*
X159385000Y-139700000D01*
%TD*%
M02*
