%TF.GenerationSoftware,KiCad,Pcbnew,8.0.2-1*%
%TF.CreationDate,2024-08-03T10:32:18+02:00*%
%TF.ProjectId,dev-board,6465762d-626f-4617-9264-2e6b69636164,1.0*%
%TF.SameCoordinates,Original*%
%TF.FileFunction,Drillmap*%
%TF.FilePolarity,Positive*%
%FSLAX45Y45*%
G04 Gerber Fmt 4.5, Leading zero omitted, Abs format (unit mm)*
G04 Created by KiCad (PCBNEW 8.0.2-1) date 2024-08-03 10:32:18*
%MOMM*%
%LPD*%
G01*
G04 APERTURE LIST*
%ADD10C,0.100000*%
%ADD11C,0.200000*%
G04 APERTURE END LIST*
D10*
X10223500Y-4572000D02*
X20129500Y-4572000D01*
X20129500Y-14478000D01*
X10223500Y-14478000D01*
X10223500Y-4572000D01*
D11*
D10*
X10838500Y-9442000D02*
X10878500Y-9482000D01*
X10878500Y-9442000D02*
X10838500Y-9482000D01*
X11600500Y-9505000D02*
X11640500Y-9545000D01*
X11640500Y-9505000D02*
X11600500Y-9545000D01*
X11600500Y-10711500D02*
X11640500Y-10751500D01*
X11640500Y-10711500D02*
X11600500Y-10751500D01*
X11854500Y-12934000D02*
X11894500Y-12974000D01*
X11894500Y-12934000D02*
X11854500Y-12974000D01*
X12269985Y-13007945D02*
X12309985Y-13047945D01*
X12309985Y-13007945D02*
X12269985Y-13047945D01*
X13251500Y-10965500D02*
X13291500Y-11005500D01*
X13291500Y-10965500D02*
X13251500Y-11005500D01*
X13823000Y-11981500D02*
X13863000Y-12021500D01*
X13863000Y-11981500D02*
X13823000Y-12021500D01*
X14045250Y-9473750D02*
X14085250Y-9513750D01*
X14085250Y-9473750D02*
X14045250Y-9513750D01*
X14078329Y-13234008D02*
X14118329Y-13274008D01*
X14118329Y-13234008D02*
X14078329Y-13274008D01*
X14165667Y-12989077D02*
X14205667Y-13029077D01*
X14205667Y-12989077D02*
X14165667Y-13029077D01*
X14189210Y-13508758D02*
X14229210Y-13548758D01*
X14229210Y-13508758D02*
X14189210Y-13548758D01*
X14267500Y-12988450D02*
X14307500Y-13028450D01*
X14307500Y-12988450D02*
X14267500Y-13028450D01*
X14280114Y-13230874D02*
X14320114Y-13270874D01*
X14320114Y-13230874D02*
X14280114Y-13270874D01*
X14648500Y-10267500D02*
X14688500Y-10307500D01*
X14688500Y-10267500D02*
X14648500Y-10307500D01*
X14692363Y-13080637D02*
X14732363Y-13120637D01*
X14732363Y-13080637D02*
X14692363Y-13120637D01*
X14705535Y-12026925D02*
X14745535Y-12066925D01*
X14745535Y-12026925D02*
X14705535Y-12066925D01*
X14759050Y-13562888D02*
X14799050Y-13602888D01*
X14799050Y-13562888D02*
X14759050Y-13602888D01*
X14807093Y-13092907D02*
X14847093Y-13132907D01*
X14847093Y-13092907D02*
X14807093Y-13132907D01*
X14884550Y-13161658D02*
X14924550Y-13201658D01*
X14924550Y-13161658D02*
X14884550Y-13201658D01*
X14902500Y-12973030D02*
X14942500Y-13013030D01*
X14942500Y-12973030D02*
X14902500Y-13013030D01*
X15008879Y-13412800D02*
X15048879Y-13452800D01*
X15048879Y-13412800D02*
X15008879Y-13452800D01*
X15029500Y-10267000D02*
X15069500Y-10307000D01*
X15069500Y-10267000D02*
X15029500Y-10307000D01*
X15029500Y-13315000D02*
X15069500Y-13355000D01*
X15069500Y-13315000D02*
X15029500Y-13355000D01*
X15156500Y-13124500D02*
X15196500Y-13164500D01*
X15196500Y-13124500D02*
X15156500Y-13164500D01*
X15410500Y-9124000D02*
X15450500Y-9164000D01*
X15450500Y-9124000D02*
X15410500Y-9164000D01*
X15484000Y-11229500D02*
X15524000Y-11269500D01*
X15524000Y-11229500D02*
X15484000Y-11269500D01*
X15569500Y-11759500D02*
X15609500Y-11799500D01*
X15609500Y-11759500D02*
X15569500Y-11799500D01*
X15918500Y-13950000D02*
X15958500Y-13990000D01*
X15958500Y-13950000D02*
X15918500Y-13990000D01*
X17705000Y-11465000D02*
X17745000Y-11505000D01*
X17745000Y-11465000D02*
X17705000Y-11505000D01*
X17823500Y-12598000D02*
X17863500Y-12638000D01*
X17863500Y-12598000D02*
X17823500Y-12638000D01*
X18585500Y-11537500D02*
X18625500Y-11577500D01*
X18625500Y-11537500D02*
X18585500Y-11577500D01*
X19411000Y-12235500D02*
X19451000Y-12275500D01*
X19451000Y-12235500D02*
X19411000Y-12275500D01*
X10654500Y-5016500D02*
G75*
G02*
X10554500Y-5016500I-50000J0D01*
G01*
X10554500Y-5016500D02*
G75*
G02*
X10654500Y-5016500I50000J0D01*
G01*
X10654500Y-5270500D02*
G75*
G02*
X10554500Y-5270500I-50000J0D01*
G01*
X10554500Y-5270500D02*
G75*
G02*
X10654500Y-5270500I50000J0D01*
G01*
X10654500Y-5524500D02*
G75*
G02*
X10554500Y-5524500I-50000J0D01*
G01*
X10554500Y-5524500D02*
G75*
G02*
X10654500Y-5524500I50000J0D01*
G01*
X10654500Y-5778500D02*
G75*
G02*
X10554500Y-5778500I-50000J0D01*
G01*
X10554500Y-5778500D02*
G75*
G02*
X10654500Y-5778500I50000J0D01*
G01*
X10654500Y-6413500D02*
G75*
G02*
X10554500Y-6413500I-50000J0D01*
G01*
X10554500Y-6413500D02*
G75*
G02*
X10654500Y-6413500I50000J0D01*
G01*
X10654500Y-6667500D02*
G75*
G02*
X10554500Y-6667500I-50000J0D01*
G01*
X10554500Y-6667500D02*
G75*
G02*
X10654500Y-6667500I50000J0D01*
G01*
X10654500Y-6921500D02*
G75*
G02*
X10554500Y-6921500I-50000J0D01*
G01*
X10554500Y-6921500D02*
G75*
G02*
X10654500Y-6921500I50000J0D01*
G01*
X10654500Y-7175500D02*
G75*
G02*
X10554500Y-7175500I-50000J0D01*
G01*
X10554500Y-7175500D02*
G75*
G02*
X10654500Y-7175500I50000J0D01*
G01*
X10654500Y-7810500D02*
G75*
G02*
X10554500Y-7810500I-50000J0D01*
G01*
X10554500Y-7810500D02*
G75*
G02*
X10654500Y-7810500I50000J0D01*
G01*
X10654500Y-8064500D02*
G75*
G02*
X10554500Y-8064500I-50000J0D01*
G01*
X10554500Y-8064500D02*
G75*
G02*
X10654500Y-8064500I50000J0D01*
G01*
X10654500Y-8318500D02*
G75*
G02*
X10554500Y-8318500I-50000J0D01*
G01*
X10554500Y-8318500D02*
G75*
G02*
X10654500Y-8318500I50000J0D01*
G01*
X10654500Y-8572500D02*
G75*
G02*
X10554500Y-8572500I-50000J0D01*
G01*
X10554500Y-8572500D02*
G75*
G02*
X10654500Y-8572500I50000J0D01*
G01*
X10654500Y-9207500D02*
G75*
G02*
X10554500Y-9207500I-50000J0D01*
G01*
X10554500Y-9207500D02*
G75*
G02*
X10654500Y-9207500I50000J0D01*
G01*
X10654500Y-9461500D02*
G75*
G02*
X10554500Y-9461500I-50000J0D01*
G01*
X10554500Y-9461500D02*
G75*
G02*
X10654500Y-9461500I50000J0D01*
G01*
X10654500Y-9716000D02*
G75*
G02*
X10554500Y-9716000I-50000J0D01*
G01*
X10554500Y-9716000D02*
G75*
G02*
X10654500Y-9716000I50000J0D01*
G01*
X10654500Y-9970000D02*
G75*
G02*
X10554500Y-9970000I-50000J0D01*
G01*
X10554500Y-9970000D02*
G75*
G02*
X10654500Y-9970000I50000J0D01*
G01*
X10654500Y-10604500D02*
G75*
G02*
X10554500Y-10604500I-50000J0D01*
G01*
X10554500Y-10604500D02*
G75*
G02*
X10654500Y-10604500I50000J0D01*
G01*
X10654500Y-10858500D02*
G75*
G02*
X10554500Y-10858500I-50000J0D01*
G01*
X10554500Y-10858500D02*
G75*
G02*
X10654500Y-10858500I50000J0D01*
G01*
X10654500Y-11112500D02*
G75*
G02*
X10554500Y-11112500I-50000J0D01*
G01*
X10554500Y-11112500D02*
G75*
G02*
X10654500Y-11112500I50000J0D01*
G01*
X10654500Y-11366500D02*
G75*
G02*
X10554500Y-11366500I-50000J0D01*
G01*
X10554500Y-11366500D02*
G75*
G02*
X10654500Y-11366500I50000J0D01*
G01*
X10654500Y-12001500D02*
G75*
G02*
X10554500Y-12001500I-50000J0D01*
G01*
X10554500Y-12001500D02*
G75*
G02*
X10654500Y-12001500I50000J0D01*
G01*
X10654500Y-12255500D02*
G75*
G02*
X10554500Y-12255500I-50000J0D01*
G01*
X10554500Y-12255500D02*
G75*
G02*
X10654500Y-12255500I50000J0D01*
G01*
X10654500Y-12509500D02*
G75*
G02*
X10554500Y-12509500I-50000J0D01*
G01*
X10554500Y-12509500D02*
G75*
G02*
X10654500Y-12509500I50000J0D01*
G01*
X10654500Y-12763500D02*
G75*
G02*
X10554500Y-12763500I-50000J0D01*
G01*
X10554500Y-12763500D02*
G75*
G02*
X10654500Y-12763500I50000J0D01*
G01*
X11416500Y-5016500D02*
G75*
G02*
X11316500Y-5016500I-50000J0D01*
G01*
X11316500Y-5016500D02*
G75*
G02*
X11416500Y-5016500I50000J0D01*
G01*
X11416500Y-5270500D02*
G75*
G02*
X11316500Y-5270500I-50000J0D01*
G01*
X11316500Y-5270500D02*
G75*
G02*
X11416500Y-5270500I50000J0D01*
G01*
X11416500Y-5524500D02*
G75*
G02*
X11316500Y-5524500I-50000J0D01*
G01*
X11316500Y-5524500D02*
G75*
G02*
X11416500Y-5524500I50000J0D01*
G01*
X11416500Y-5778500D02*
G75*
G02*
X11316500Y-5778500I-50000J0D01*
G01*
X11316500Y-5778500D02*
G75*
G02*
X11416500Y-5778500I50000J0D01*
G01*
X11416500Y-6413500D02*
G75*
G02*
X11316500Y-6413500I-50000J0D01*
G01*
X11316500Y-6413500D02*
G75*
G02*
X11416500Y-6413500I50000J0D01*
G01*
X11416500Y-6667500D02*
G75*
G02*
X11316500Y-6667500I-50000J0D01*
G01*
X11316500Y-6667500D02*
G75*
G02*
X11416500Y-6667500I50000J0D01*
G01*
X11416500Y-6921500D02*
G75*
G02*
X11316500Y-6921500I-50000J0D01*
G01*
X11316500Y-6921500D02*
G75*
G02*
X11416500Y-6921500I50000J0D01*
G01*
X11416500Y-7175500D02*
G75*
G02*
X11316500Y-7175500I-50000J0D01*
G01*
X11316500Y-7175500D02*
G75*
G02*
X11416500Y-7175500I50000J0D01*
G01*
X11416500Y-7811000D02*
G75*
G02*
X11316500Y-7811000I-50000J0D01*
G01*
X11316500Y-7811000D02*
G75*
G02*
X11416500Y-7811000I50000J0D01*
G01*
X11416500Y-8065000D02*
G75*
G02*
X11316500Y-8065000I-50000J0D01*
G01*
X11316500Y-8065000D02*
G75*
G02*
X11416500Y-8065000I50000J0D01*
G01*
X11416500Y-8319000D02*
G75*
G02*
X11316500Y-8319000I-50000J0D01*
G01*
X11316500Y-8319000D02*
G75*
G02*
X11416500Y-8319000I50000J0D01*
G01*
X11416500Y-8573000D02*
G75*
G02*
X11316500Y-8573000I-50000J0D01*
G01*
X11316500Y-8573000D02*
G75*
G02*
X11416500Y-8573000I50000J0D01*
G01*
X11416500Y-9208000D02*
G75*
G02*
X11316500Y-9208000I-50000J0D01*
G01*
X11316500Y-9208000D02*
G75*
G02*
X11416500Y-9208000I50000J0D01*
G01*
X11416500Y-9462000D02*
G75*
G02*
X11316500Y-9462000I-50000J0D01*
G01*
X11316500Y-9462000D02*
G75*
G02*
X11416500Y-9462000I50000J0D01*
G01*
X11416500Y-9716000D02*
G75*
G02*
X11316500Y-9716000I-50000J0D01*
G01*
X11316500Y-9716000D02*
G75*
G02*
X11416500Y-9716000I50000J0D01*
G01*
X11416500Y-9970000D02*
G75*
G02*
X11316500Y-9970000I-50000J0D01*
G01*
X11316500Y-9970000D02*
G75*
G02*
X11416500Y-9970000I50000J0D01*
G01*
X11416500Y-10605500D02*
G75*
G02*
X11316500Y-10605500I-50000J0D01*
G01*
X11316500Y-10605500D02*
G75*
G02*
X11416500Y-10605500I50000J0D01*
G01*
X11416500Y-10859500D02*
G75*
G02*
X11316500Y-10859500I-50000J0D01*
G01*
X11316500Y-10859500D02*
G75*
G02*
X11416500Y-10859500I50000J0D01*
G01*
X11416500Y-11113000D02*
G75*
G02*
X11316500Y-11113000I-50000J0D01*
G01*
X11316500Y-11113000D02*
G75*
G02*
X11416500Y-11113000I50000J0D01*
G01*
X11416500Y-11367000D02*
G75*
G02*
X11316500Y-11367000I-50000J0D01*
G01*
X11316500Y-11367000D02*
G75*
G02*
X11416500Y-11367000I50000J0D01*
G01*
X11416500Y-12002000D02*
G75*
G02*
X11316500Y-12002000I-50000J0D01*
G01*
X11316500Y-12002000D02*
G75*
G02*
X11416500Y-12002000I50000J0D01*
G01*
X11416500Y-12256000D02*
G75*
G02*
X11316500Y-12256000I-50000J0D01*
G01*
X11316500Y-12256000D02*
G75*
G02*
X11416500Y-12256000I50000J0D01*
G01*
X11416500Y-12510000D02*
G75*
G02*
X11316500Y-12510000I-50000J0D01*
G01*
X11316500Y-12510000D02*
G75*
G02*
X11416500Y-12510000I50000J0D01*
G01*
X11416500Y-12764000D02*
G75*
G02*
X11316500Y-12764000I-50000J0D01*
G01*
X11316500Y-12764000D02*
G75*
G02*
X11416500Y-12764000I50000J0D01*
G01*
X12178500Y-5016500D02*
G75*
G02*
X12078500Y-5016500I-50000J0D01*
G01*
X12078500Y-5016500D02*
G75*
G02*
X12178500Y-5016500I50000J0D01*
G01*
X12178500Y-5270500D02*
G75*
G02*
X12078500Y-5270500I-50000J0D01*
G01*
X12078500Y-5270500D02*
G75*
G02*
X12178500Y-5270500I50000J0D01*
G01*
X12178500Y-5524500D02*
G75*
G02*
X12078500Y-5524500I-50000J0D01*
G01*
X12078500Y-5524500D02*
G75*
G02*
X12178500Y-5524500I50000J0D01*
G01*
X12178500Y-5778500D02*
G75*
G02*
X12078500Y-5778500I-50000J0D01*
G01*
X12078500Y-5778500D02*
G75*
G02*
X12178500Y-5778500I50000J0D01*
G01*
X12178500Y-6414000D02*
G75*
G02*
X12078500Y-6414000I-50000J0D01*
G01*
X12078500Y-6414000D02*
G75*
G02*
X12178500Y-6414000I50000J0D01*
G01*
X12178500Y-6668000D02*
G75*
G02*
X12078500Y-6668000I-50000J0D01*
G01*
X12078500Y-6668000D02*
G75*
G02*
X12178500Y-6668000I50000J0D01*
G01*
X12178500Y-6921500D02*
G75*
G02*
X12078500Y-6921500I-50000J0D01*
G01*
X12078500Y-6921500D02*
G75*
G02*
X12178500Y-6921500I50000J0D01*
G01*
X12178500Y-7175500D02*
G75*
G02*
X12078500Y-7175500I-50000J0D01*
G01*
X12078500Y-7175500D02*
G75*
G02*
X12178500Y-7175500I50000J0D01*
G01*
X12178500Y-7811500D02*
G75*
G02*
X12078500Y-7811500I-50000J0D01*
G01*
X12078500Y-7811500D02*
G75*
G02*
X12178500Y-7811500I50000J0D01*
G01*
X12178500Y-8065500D02*
G75*
G02*
X12078500Y-8065500I-50000J0D01*
G01*
X12078500Y-8065500D02*
G75*
G02*
X12178500Y-8065500I50000J0D01*
G01*
X12178500Y-8319000D02*
G75*
G02*
X12078500Y-8319000I-50000J0D01*
G01*
X12078500Y-8319000D02*
G75*
G02*
X12178500Y-8319000I50000J0D01*
G01*
X12178500Y-8573000D02*
G75*
G02*
X12078500Y-8573000I-50000J0D01*
G01*
X12078500Y-8573000D02*
G75*
G02*
X12178500Y-8573000I50000J0D01*
G01*
X12178500Y-9208500D02*
G75*
G02*
X12078500Y-9208500I-50000J0D01*
G01*
X12078500Y-9208500D02*
G75*
G02*
X12178500Y-9208500I50000J0D01*
G01*
X12178500Y-9462500D02*
G75*
G02*
X12078500Y-9462500I-50000J0D01*
G01*
X12078500Y-9462500D02*
G75*
G02*
X12178500Y-9462500I50000J0D01*
G01*
X12178500Y-9716500D02*
G75*
G02*
X12078500Y-9716500I-50000J0D01*
G01*
X12078500Y-9716500D02*
G75*
G02*
X12178500Y-9716500I50000J0D01*
G01*
X12178500Y-9970500D02*
G75*
G02*
X12078500Y-9970500I-50000J0D01*
G01*
X12078500Y-9970500D02*
G75*
G02*
X12178500Y-9970500I50000J0D01*
G01*
X12178500Y-10605500D02*
G75*
G02*
X12078500Y-10605500I-50000J0D01*
G01*
X12078500Y-10605500D02*
G75*
G02*
X12178500Y-10605500I50000J0D01*
G01*
X12178500Y-10859500D02*
G75*
G02*
X12078500Y-10859500I-50000J0D01*
G01*
X12078500Y-10859500D02*
G75*
G02*
X12178500Y-10859500I50000J0D01*
G01*
X12178500Y-11113500D02*
G75*
G02*
X12078500Y-11113500I-50000J0D01*
G01*
X12078500Y-11113500D02*
G75*
G02*
X12178500Y-11113500I50000J0D01*
G01*
X12178500Y-11367500D02*
G75*
G02*
X12078500Y-11367500I-50000J0D01*
G01*
X12078500Y-11367500D02*
G75*
G02*
X12178500Y-11367500I50000J0D01*
G01*
X12178500Y-12002000D02*
G75*
G02*
X12078500Y-12002000I-50000J0D01*
G01*
X12078500Y-12002000D02*
G75*
G02*
X12178500Y-12002000I50000J0D01*
G01*
X12178500Y-12256000D02*
G75*
G02*
X12078500Y-12256000I-50000J0D01*
G01*
X12078500Y-12256000D02*
G75*
G02*
X12178500Y-12256000I50000J0D01*
G01*
X12178500Y-12510000D02*
G75*
G02*
X12078500Y-12510000I-50000J0D01*
G01*
X12078500Y-12510000D02*
G75*
G02*
X12178500Y-12510000I50000J0D01*
G01*
X12178500Y-12764000D02*
G75*
G02*
X12078500Y-12764000I-50000J0D01*
G01*
X12078500Y-12764000D02*
G75*
G02*
X12178500Y-12764000I50000J0D01*
G01*
X12940500Y-5016500D02*
G75*
G02*
X12840500Y-5016500I-50000J0D01*
G01*
X12840500Y-5016500D02*
G75*
G02*
X12940500Y-5016500I50000J0D01*
G01*
X12940500Y-5270500D02*
G75*
G02*
X12840500Y-5270500I-50000J0D01*
G01*
X12840500Y-5270500D02*
G75*
G02*
X12940500Y-5270500I50000J0D01*
G01*
X12940500Y-5524500D02*
G75*
G02*
X12840500Y-5524500I-50000J0D01*
G01*
X12840500Y-5524500D02*
G75*
G02*
X12940500Y-5524500I50000J0D01*
G01*
X12940500Y-5778500D02*
G75*
G02*
X12840500Y-5778500I-50000J0D01*
G01*
X12840500Y-5778500D02*
G75*
G02*
X12940500Y-5778500I50000J0D01*
G01*
X12940500Y-6414000D02*
G75*
G02*
X12840500Y-6414000I-50000J0D01*
G01*
X12840500Y-6414000D02*
G75*
G02*
X12940500Y-6414000I50000J0D01*
G01*
X12940500Y-6668000D02*
G75*
G02*
X12840500Y-6668000I-50000J0D01*
G01*
X12840500Y-6668000D02*
G75*
G02*
X12940500Y-6668000I50000J0D01*
G01*
X12940500Y-6921500D02*
G75*
G02*
X12840500Y-6921500I-50000J0D01*
G01*
X12840500Y-6921500D02*
G75*
G02*
X12940500Y-6921500I50000J0D01*
G01*
X12940500Y-7175500D02*
G75*
G02*
X12840500Y-7175500I-50000J0D01*
G01*
X12840500Y-7175500D02*
G75*
G02*
X12940500Y-7175500I50000J0D01*
G01*
X12940500Y-7811500D02*
G75*
G02*
X12840500Y-7811500I-50000J0D01*
G01*
X12840500Y-7811500D02*
G75*
G02*
X12940500Y-7811500I50000J0D01*
G01*
X12940500Y-8065500D02*
G75*
G02*
X12840500Y-8065500I-50000J0D01*
G01*
X12840500Y-8065500D02*
G75*
G02*
X12940500Y-8065500I50000J0D01*
G01*
X12940500Y-8319000D02*
G75*
G02*
X12840500Y-8319000I-50000J0D01*
G01*
X12840500Y-8319000D02*
G75*
G02*
X12940500Y-8319000I50000J0D01*
G01*
X12940500Y-8573000D02*
G75*
G02*
X12840500Y-8573000I-50000J0D01*
G01*
X12840500Y-8573000D02*
G75*
G02*
X12940500Y-8573000I50000J0D01*
G01*
X12940500Y-9208000D02*
G75*
G02*
X12840500Y-9208000I-50000J0D01*
G01*
X12840500Y-9208000D02*
G75*
G02*
X12940500Y-9208000I50000J0D01*
G01*
X12940500Y-9462000D02*
G75*
G02*
X12840500Y-9462000I-50000J0D01*
G01*
X12840500Y-9462000D02*
G75*
G02*
X12940500Y-9462000I50000J0D01*
G01*
X12940500Y-9716500D02*
G75*
G02*
X12840500Y-9716500I-50000J0D01*
G01*
X12840500Y-9716500D02*
G75*
G02*
X12940500Y-9716500I50000J0D01*
G01*
X12940500Y-9970500D02*
G75*
G02*
X12840500Y-9970500I-50000J0D01*
G01*
X12840500Y-9970500D02*
G75*
G02*
X12940500Y-9970500I50000J0D01*
G01*
X12940500Y-10605000D02*
G75*
G02*
X12840500Y-10605000I-50000J0D01*
G01*
X12840500Y-10605000D02*
G75*
G02*
X12940500Y-10605000I50000J0D01*
G01*
X12940500Y-10859000D02*
G75*
G02*
X12840500Y-10859000I-50000J0D01*
G01*
X12840500Y-10859000D02*
G75*
G02*
X12940500Y-10859000I50000J0D01*
G01*
X12940500Y-11113000D02*
G75*
G02*
X12840500Y-11113000I-50000J0D01*
G01*
X12840500Y-11113000D02*
G75*
G02*
X12940500Y-11113000I50000J0D01*
G01*
X12940500Y-11367000D02*
G75*
G02*
X12840500Y-11367000I-50000J0D01*
G01*
X12840500Y-11367000D02*
G75*
G02*
X12940500Y-11367000I50000J0D01*
G01*
X12940500Y-12002500D02*
G75*
G02*
X12840500Y-12002500I-50000J0D01*
G01*
X12840500Y-12002500D02*
G75*
G02*
X12940500Y-12002500I50000J0D01*
G01*
X12940500Y-12256500D02*
G75*
G02*
X12840500Y-12256500I-50000J0D01*
G01*
X12840500Y-12256500D02*
G75*
G02*
X12940500Y-12256500I50000J0D01*
G01*
X12940500Y-12510000D02*
G75*
G02*
X12840500Y-12510000I-50000J0D01*
G01*
X12840500Y-12510000D02*
G75*
G02*
X12940500Y-12510000I50000J0D01*
G01*
X12940500Y-12764000D02*
G75*
G02*
X12840500Y-12764000I-50000J0D01*
G01*
X12840500Y-12764000D02*
G75*
G02*
X12940500Y-12764000I50000J0D01*
G01*
X13702500Y-5016500D02*
G75*
G02*
X13602500Y-5016500I-50000J0D01*
G01*
X13602500Y-5016500D02*
G75*
G02*
X13702500Y-5016500I50000J0D01*
G01*
X13702500Y-5270500D02*
G75*
G02*
X13602500Y-5270500I-50000J0D01*
G01*
X13602500Y-5270500D02*
G75*
G02*
X13702500Y-5270500I50000J0D01*
G01*
X13702500Y-5524500D02*
G75*
G02*
X13602500Y-5524500I-50000J0D01*
G01*
X13602500Y-5524500D02*
G75*
G02*
X13702500Y-5524500I50000J0D01*
G01*
X13702500Y-5778500D02*
G75*
G02*
X13602500Y-5778500I-50000J0D01*
G01*
X13602500Y-5778500D02*
G75*
G02*
X13702500Y-5778500I50000J0D01*
G01*
X13702500Y-6414000D02*
G75*
G02*
X13602500Y-6414000I-50000J0D01*
G01*
X13602500Y-6414000D02*
G75*
G02*
X13702500Y-6414000I50000J0D01*
G01*
X13702500Y-6668000D02*
G75*
G02*
X13602500Y-6668000I-50000J0D01*
G01*
X13602500Y-6668000D02*
G75*
G02*
X13702500Y-6668000I50000J0D01*
G01*
X13702500Y-6922000D02*
G75*
G02*
X13602500Y-6922000I-50000J0D01*
G01*
X13602500Y-6922000D02*
G75*
G02*
X13702500Y-6922000I50000J0D01*
G01*
X13702500Y-7176000D02*
G75*
G02*
X13602500Y-7176000I-50000J0D01*
G01*
X13602500Y-7176000D02*
G75*
G02*
X13702500Y-7176000I50000J0D01*
G01*
X13702500Y-7811500D02*
G75*
G02*
X13602500Y-7811500I-50000J0D01*
G01*
X13602500Y-7811500D02*
G75*
G02*
X13702500Y-7811500I50000J0D01*
G01*
X13702500Y-8065500D02*
G75*
G02*
X13602500Y-8065500I-50000J0D01*
G01*
X13602500Y-8065500D02*
G75*
G02*
X13702500Y-8065500I50000J0D01*
G01*
X13702500Y-8319500D02*
G75*
G02*
X13602500Y-8319500I-50000J0D01*
G01*
X13602500Y-8319500D02*
G75*
G02*
X13702500Y-8319500I50000J0D01*
G01*
X13702500Y-8573500D02*
G75*
G02*
X13602500Y-8573500I-50000J0D01*
G01*
X13602500Y-8573500D02*
G75*
G02*
X13702500Y-8573500I50000J0D01*
G01*
X13702500Y-9208500D02*
G75*
G02*
X13602500Y-9208500I-50000J0D01*
G01*
X13602500Y-9208500D02*
G75*
G02*
X13702500Y-9208500I50000J0D01*
G01*
X13702500Y-9462500D02*
G75*
G02*
X13602500Y-9462500I-50000J0D01*
G01*
X13602500Y-9462500D02*
G75*
G02*
X13702500Y-9462500I50000J0D01*
G01*
X13702500Y-9716500D02*
G75*
G02*
X13602500Y-9716500I-50000J0D01*
G01*
X13602500Y-9716500D02*
G75*
G02*
X13702500Y-9716500I50000J0D01*
G01*
X13702500Y-9970500D02*
G75*
G02*
X13602500Y-9970500I-50000J0D01*
G01*
X13602500Y-9970500D02*
G75*
G02*
X13702500Y-9970500I50000J0D01*
G01*
X13702500Y-10605500D02*
G75*
G02*
X13602500Y-10605500I-50000J0D01*
G01*
X13602500Y-10605500D02*
G75*
G02*
X13702500Y-10605500I50000J0D01*
G01*
X13702500Y-10859500D02*
G75*
G02*
X13602500Y-10859500I-50000J0D01*
G01*
X13602500Y-10859500D02*
G75*
G02*
X13702500Y-10859500I50000J0D01*
G01*
X13702500Y-11113500D02*
G75*
G02*
X13602500Y-11113500I-50000J0D01*
G01*
X13602500Y-11113500D02*
G75*
G02*
X13702500Y-11113500I50000J0D01*
G01*
X13702500Y-11367500D02*
G75*
G02*
X13602500Y-11367500I-50000J0D01*
G01*
X13602500Y-11367500D02*
G75*
G02*
X13702500Y-11367500I50000J0D01*
G01*
X13702500Y-12002000D02*
G75*
G02*
X13602500Y-12002000I-50000J0D01*
G01*
X13602500Y-12002000D02*
G75*
G02*
X13702500Y-12002000I50000J0D01*
G01*
X13702500Y-12256000D02*
G75*
G02*
X13602500Y-12256000I-50000J0D01*
G01*
X13602500Y-12256000D02*
G75*
G02*
X13702500Y-12256000I50000J0D01*
G01*
X13702500Y-12510500D02*
G75*
G02*
X13602500Y-12510500I-50000J0D01*
G01*
X13602500Y-12510500D02*
G75*
G02*
X13702500Y-12510500I50000J0D01*
G01*
X13702500Y-12764500D02*
G75*
G02*
X13602500Y-12764500I-50000J0D01*
G01*
X13602500Y-12764500D02*
G75*
G02*
X13702500Y-12764500I50000J0D01*
G01*
X14464500Y-5016500D02*
G75*
G02*
X14364500Y-5016500I-50000J0D01*
G01*
X14364500Y-5016500D02*
G75*
G02*
X14464500Y-5016500I50000J0D01*
G01*
X14464500Y-5270500D02*
G75*
G02*
X14364500Y-5270500I-50000J0D01*
G01*
X14364500Y-5270500D02*
G75*
G02*
X14464500Y-5270500I50000J0D01*
G01*
X14464500Y-5524500D02*
G75*
G02*
X14364500Y-5524500I-50000J0D01*
G01*
X14364500Y-5524500D02*
G75*
G02*
X14464500Y-5524500I50000J0D01*
G01*
X14464500Y-5778500D02*
G75*
G02*
X14364500Y-5778500I-50000J0D01*
G01*
X14364500Y-5778500D02*
G75*
G02*
X14464500Y-5778500I50000J0D01*
G01*
X14464500Y-6414000D02*
G75*
G02*
X14364500Y-6414000I-50000J0D01*
G01*
X14364500Y-6414000D02*
G75*
G02*
X14464500Y-6414000I50000J0D01*
G01*
X14464500Y-6668000D02*
G75*
G02*
X14364500Y-6668000I-50000J0D01*
G01*
X14364500Y-6668000D02*
G75*
G02*
X14464500Y-6668000I50000J0D01*
G01*
X14464500Y-6922000D02*
G75*
G02*
X14364500Y-6922000I-50000J0D01*
G01*
X14364500Y-6922000D02*
G75*
G02*
X14464500Y-6922000I50000J0D01*
G01*
X14464500Y-7176000D02*
G75*
G02*
X14364500Y-7176000I-50000J0D01*
G01*
X14364500Y-7176000D02*
G75*
G02*
X14464500Y-7176000I50000J0D01*
G01*
X14464500Y-7811000D02*
G75*
G02*
X14364500Y-7811000I-50000J0D01*
G01*
X14364500Y-7811000D02*
G75*
G02*
X14464500Y-7811000I50000J0D01*
G01*
X14464500Y-8065000D02*
G75*
G02*
X14364500Y-8065000I-50000J0D01*
G01*
X14364500Y-8065000D02*
G75*
G02*
X14464500Y-8065000I50000J0D01*
G01*
X14464500Y-8319000D02*
G75*
G02*
X14364500Y-8319000I-50000J0D01*
G01*
X14364500Y-8319000D02*
G75*
G02*
X14464500Y-8319000I50000J0D01*
G01*
X14464500Y-8573000D02*
G75*
G02*
X14364500Y-8573000I-50000J0D01*
G01*
X14364500Y-8573000D02*
G75*
G02*
X14464500Y-8573000I50000J0D01*
G01*
X14464500Y-9208000D02*
G75*
G02*
X14364500Y-9208000I-50000J0D01*
G01*
X14364500Y-9208000D02*
G75*
G02*
X14464500Y-9208000I50000J0D01*
G01*
X14464500Y-9462000D02*
G75*
G02*
X14364500Y-9462000I-50000J0D01*
G01*
X14364500Y-9462000D02*
G75*
G02*
X14464500Y-9462000I50000J0D01*
G01*
X14464500Y-9716500D02*
G75*
G02*
X14364500Y-9716500I-50000J0D01*
G01*
X14364500Y-9716500D02*
G75*
G02*
X14464500Y-9716500I50000J0D01*
G01*
X14464500Y-9970500D02*
G75*
G02*
X14364500Y-9970500I-50000J0D01*
G01*
X14364500Y-9970500D02*
G75*
G02*
X14464500Y-9970500I50000J0D01*
G01*
X14464500Y-10605000D02*
G75*
G02*
X14364500Y-10605000I-50000J0D01*
G01*
X14364500Y-10605000D02*
G75*
G02*
X14464500Y-10605000I50000J0D01*
G01*
X14464500Y-10859000D02*
G75*
G02*
X14364500Y-10859000I-50000J0D01*
G01*
X14364500Y-10859000D02*
G75*
G02*
X14464500Y-10859000I50000J0D01*
G01*
X14464500Y-11113500D02*
G75*
G02*
X14364500Y-11113500I-50000J0D01*
G01*
X14364500Y-11113500D02*
G75*
G02*
X14464500Y-11113500I50000J0D01*
G01*
X14464500Y-11367500D02*
G75*
G02*
X14364500Y-11367500I-50000J0D01*
G01*
X14364500Y-11367500D02*
G75*
G02*
X14464500Y-11367500I50000J0D01*
G01*
X14464500Y-12002500D02*
G75*
G02*
X14364500Y-12002500I-50000J0D01*
G01*
X14364500Y-12002500D02*
G75*
G02*
X14464500Y-12002500I50000J0D01*
G01*
X14464500Y-12256500D02*
G75*
G02*
X14364500Y-12256500I-50000J0D01*
G01*
X14364500Y-12256500D02*
G75*
G02*
X14464500Y-12256500I50000J0D01*
G01*
X14464500Y-12510500D02*
G75*
G02*
X14364500Y-12510500I-50000J0D01*
G01*
X14364500Y-12510500D02*
G75*
G02*
X14464500Y-12510500I50000J0D01*
G01*
X14464500Y-12764500D02*
G75*
G02*
X14364500Y-12764500I-50000J0D01*
G01*
X14364500Y-12764500D02*
G75*
G02*
X14464500Y-12764500I50000J0D01*
G01*
X15226500Y-5016500D02*
G75*
G02*
X15126500Y-5016500I-50000J0D01*
G01*
X15126500Y-5016500D02*
G75*
G02*
X15226500Y-5016500I50000J0D01*
G01*
X15226500Y-5270500D02*
G75*
G02*
X15126500Y-5270500I-50000J0D01*
G01*
X15126500Y-5270500D02*
G75*
G02*
X15226500Y-5270500I50000J0D01*
G01*
X15226500Y-5524500D02*
G75*
G02*
X15126500Y-5524500I-50000J0D01*
G01*
X15126500Y-5524500D02*
G75*
G02*
X15226500Y-5524500I50000J0D01*
G01*
X15226500Y-5778500D02*
G75*
G02*
X15126500Y-5778500I-50000J0D01*
G01*
X15126500Y-5778500D02*
G75*
G02*
X15226500Y-5778500I50000J0D01*
G01*
X15226500Y-6414000D02*
G75*
G02*
X15126500Y-6414000I-50000J0D01*
G01*
X15126500Y-6414000D02*
G75*
G02*
X15226500Y-6414000I50000J0D01*
G01*
X15226500Y-6668000D02*
G75*
G02*
X15126500Y-6668000I-50000J0D01*
G01*
X15126500Y-6668000D02*
G75*
G02*
X15226500Y-6668000I50000J0D01*
G01*
X15226500Y-6922500D02*
G75*
G02*
X15126500Y-6922500I-50000J0D01*
G01*
X15126500Y-6922500D02*
G75*
G02*
X15226500Y-6922500I50000J0D01*
G01*
X15226500Y-7176500D02*
G75*
G02*
X15126500Y-7176500I-50000J0D01*
G01*
X15126500Y-7176500D02*
G75*
G02*
X15226500Y-7176500I50000J0D01*
G01*
X15226500Y-7811500D02*
G75*
G02*
X15126500Y-7811500I-50000J0D01*
G01*
X15126500Y-7811500D02*
G75*
G02*
X15226500Y-7811500I50000J0D01*
G01*
X15226500Y-8065500D02*
G75*
G02*
X15126500Y-8065500I-50000J0D01*
G01*
X15126500Y-8065500D02*
G75*
G02*
X15226500Y-8065500I50000J0D01*
G01*
X15226500Y-8319500D02*
G75*
G02*
X15126500Y-8319500I-50000J0D01*
G01*
X15126500Y-8319500D02*
G75*
G02*
X15226500Y-8319500I50000J0D01*
G01*
X15226500Y-8573500D02*
G75*
G02*
X15126500Y-8573500I-50000J0D01*
G01*
X15126500Y-8573500D02*
G75*
G02*
X15226500Y-8573500I50000J0D01*
G01*
X15226500Y-9208500D02*
G75*
G02*
X15126500Y-9208500I-50000J0D01*
G01*
X15126500Y-9208500D02*
G75*
G02*
X15226500Y-9208500I50000J0D01*
G01*
X15226500Y-9462500D02*
G75*
G02*
X15126500Y-9462500I-50000J0D01*
G01*
X15126500Y-9462500D02*
G75*
G02*
X15226500Y-9462500I50000J0D01*
G01*
X15226500Y-9716500D02*
G75*
G02*
X15126500Y-9716500I-50000J0D01*
G01*
X15126500Y-9716500D02*
G75*
G02*
X15226500Y-9716500I50000J0D01*
G01*
X15226500Y-9970500D02*
G75*
G02*
X15126500Y-9970500I-50000J0D01*
G01*
X15126500Y-9970500D02*
G75*
G02*
X15226500Y-9970500I50000J0D01*
G01*
X15226500Y-10605000D02*
G75*
G02*
X15126500Y-10605000I-50000J0D01*
G01*
X15126500Y-10605000D02*
G75*
G02*
X15226500Y-10605000I50000J0D01*
G01*
X15226500Y-10859000D02*
G75*
G02*
X15126500Y-10859000I-50000J0D01*
G01*
X15126500Y-10859000D02*
G75*
G02*
X15226500Y-10859000I50000J0D01*
G01*
X15226500Y-11113500D02*
G75*
G02*
X15126500Y-11113500I-50000J0D01*
G01*
X15126500Y-11113500D02*
G75*
G02*
X15226500Y-11113500I50000J0D01*
G01*
X15226500Y-11367500D02*
G75*
G02*
X15126500Y-11367500I-50000J0D01*
G01*
X15126500Y-11367500D02*
G75*
G02*
X15226500Y-11367500I50000J0D01*
G01*
X15226500Y-12002500D02*
G75*
G02*
X15126500Y-12002500I-50000J0D01*
G01*
X15126500Y-12002500D02*
G75*
G02*
X15226500Y-12002500I50000J0D01*
G01*
X15226500Y-12256500D02*
G75*
G02*
X15126500Y-12256500I-50000J0D01*
G01*
X15126500Y-12256500D02*
G75*
G02*
X15226500Y-12256500I50000J0D01*
G01*
X15226500Y-12510000D02*
G75*
G02*
X15126500Y-12510000I-50000J0D01*
G01*
X15126500Y-12510000D02*
G75*
G02*
X15226500Y-12510000I50000J0D01*
G01*
X15226500Y-12764000D02*
G75*
G02*
X15126500Y-12764000I-50000J0D01*
G01*
X15126500Y-12764000D02*
G75*
G02*
X15226500Y-12764000I50000J0D01*
G01*
X15988500Y-5016500D02*
G75*
G02*
X15888500Y-5016500I-50000J0D01*
G01*
X15888500Y-5016500D02*
G75*
G02*
X15988500Y-5016500I50000J0D01*
G01*
X15988500Y-5270500D02*
G75*
G02*
X15888500Y-5270500I-50000J0D01*
G01*
X15888500Y-5270500D02*
G75*
G02*
X15988500Y-5270500I50000J0D01*
G01*
X15988500Y-5524500D02*
G75*
G02*
X15888500Y-5524500I-50000J0D01*
G01*
X15888500Y-5524500D02*
G75*
G02*
X15988500Y-5524500I50000J0D01*
G01*
X15988500Y-5778500D02*
G75*
G02*
X15888500Y-5778500I-50000J0D01*
G01*
X15888500Y-5778500D02*
G75*
G02*
X15988500Y-5778500I50000J0D01*
G01*
X15988500Y-6414500D02*
G75*
G02*
X15888500Y-6414500I-50000J0D01*
G01*
X15888500Y-6414500D02*
G75*
G02*
X15988500Y-6414500I50000J0D01*
G01*
X15988500Y-6668500D02*
G75*
G02*
X15888500Y-6668500I-50000J0D01*
G01*
X15888500Y-6668500D02*
G75*
G02*
X15988500Y-6668500I50000J0D01*
G01*
X15988500Y-6922000D02*
G75*
G02*
X15888500Y-6922000I-50000J0D01*
G01*
X15888500Y-6922000D02*
G75*
G02*
X15988500Y-6922000I50000J0D01*
G01*
X15988500Y-7176000D02*
G75*
G02*
X15888500Y-7176000I-50000J0D01*
G01*
X15888500Y-7176000D02*
G75*
G02*
X15988500Y-7176000I50000J0D01*
G01*
X15988500Y-7811500D02*
G75*
G02*
X15888500Y-7811500I-50000J0D01*
G01*
X15888500Y-7811500D02*
G75*
G02*
X15988500Y-7811500I50000J0D01*
G01*
X15988500Y-8065500D02*
G75*
G02*
X15888500Y-8065500I-50000J0D01*
G01*
X15888500Y-8065500D02*
G75*
G02*
X15988500Y-8065500I50000J0D01*
G01*
X15988500Y-8319000D02*
G75*
G02*
X15888500Y-8319000I-50000J0D01*
G01*
X15888500Y-8319000D02*
G75*
G02*
X15988500Y-8319000I50000J0D01*
G01*
X15988500Y-8573000D02*
G75*
G02*
X15888500Y-8573000I-50000J0D01*
G01*
X15888500Y-8573000D02*
G75*
G02*
X15988500Y-8573000I50000J0D01*
G01*
X15988500Y-9208500D02*
G75*
G02*
X15888500Y-9208500I-50000J0D01*
G01*
X15888500Y-9208500D02*
G75*
G02*
X15988500Y-9208500I50000J0D01*
G01*
X15988500Y-9462500D02*
G75*
G02*
X15888500Y-9462500I-50000J0D01*
G01*
X15888500Y-9462500D02*
G75*
G02*
X15988500Y-9462500I50000J0D01*
G01*
X15988500Y-9716500D02*
G75*
G02*
X15888500Y-9716500I-50000J0D01*
G01*
X15888500Y-9716500D02*
G75*
G02*
X15988500Y-9716500I50000J0D01*
G01*
X15988500Y-9970500D02*
G75*
G02*
X15888500Y-9970500I-50000J0D01*
G01*
X15888500Y-9970500D02*
G75*
G02*
X15988500Y-9970500I50000J0D01*
G01*
X15988500Y-10605000D02*
G75*
G02*
X15888500Y-10605000I-50000J0D01*
G01*
X15888500Y-10605000D02*
G75*
G02*
X15988500Y-10605000I50000J0D01*
G01*
X15988500Y-10859000D02*
G75*
G02*
X15888500Y-10859000I-50000J0D01*
G01*
X15888500Y-10859000D02*
G75*
G02*
X15988500Y-10859000I50000J0D01*
G01*
X15988500Y-11113500D02*
G75*
G02*
X15888500Y-11113500I-50000J0D01*
G01*
X15888500Y-11113500D02*
G75*
G02*
X15988500Y-11113500I50000J0D01*
G01*
X15988500Y-11367500D02*
G75*
G02*
X15888500Y-11367500I-50000J0D01*
G01*
X15888500Y-11367500D02*
G75*
G02*
X15988500Y-11367500I50000J0D01*
G01*
X15988500Y-12002000D02*
G75*
G02*
X15888500Y-12002000I-50000J0D01*
G01*
X15888500Y-12002000D02*
G75*
G02*
X15988500Y-12002000I50000J0D01*
G01*
X15988500Y-12256000D02*
G75*
G02*
X15888500Y-12256000I-50000J0D01*
G01*
X15888500Y-12256000D02*
G75*
G02*
X15988500Y-12256000I50000J0D01*
G01*
X15988500Y-12510000D02*
G75*
G02*
X15888500Y-12510000I-50000J0D01*
G01*
X15888500Y-12510000D02*
G75*
G02*
X15988500Y-12510000I50000J0D01*
G01*
X15988500Y-12764000D02*
G75*
G02*
X15888500Y-12764000I-50000J0D01*
G01*
X15888500Y-12764000D02*
G75*
G02*
X15988500Y-12764000I50000J0D01*
G01*
X16750500Y-5016500D02*
G75*
G02*
X16650500Y-5016500I-50000J0D01*
G01*
X16650500Y-5016500D02*
G75*
G02*
X16750500Y-5016500I50000J0D01*
G01*
X16750500Y-5270500D02*
G75*
G02*
X16650500Y-5270500I-50000J0D01*
G01*
X16650500Y-5270500D02*
G75*
G02*
X16750500Y-5270500I50000J0D01*
G01*
X16750500Y-5524500D02*
G75*
G02*
X16650500Y-5524500I-50000J0D01*
G01*
X16650500Y-5524500D02*
G75*
G02*
X16750500Y-5524500I50000J0D01*
G01*
X16750500Y-5778500D02*
G75*
G02*
X16650500Y-5778500I-50000J0D01*
G01*
X16650500Y-5778500D02*
G75*
G02*
X16750500Y-5778500I50000J0D01*
G01*
X16750500Y-6414000D02*
G75*
G02*
X16650500Y-6414000I-50000J0D01*
G01*
X16650500Y-6414000D02*
G75*
G02*
X16750500Y-6414000I50000J0D01*
G01*
X16750500Y-6668000D02*
G75*
G02*
X16650500Y-6668000I-50000J0D01*
G01*
X16650500Y-6668000D02*
G75*
G02*
X16750500Y-6668000I50000J0D01*
G01*
X16750500Y-6922000D02*
G75*
G02*
X16650500Y-6922000I-50000J0D01*
G01*
X16650500Y-6922000D02*
G75*
G02*
X16750500Y-6922000I50000J0D01*
G01*
X16750500Y-7176000D02*
G75*
G02*
X16650500Y-7176000I-50000J0D01*
G01*
X16650500Y-7176000D02*
G75*
G02*
X16750500Y-7176000I50000J0D01*
G01*
X16750500Y-7811000D02*
G75*
G02*
X16650500Y-7811000I-50000J0D01*
G01*
X16650500Y-7811000D02*
G75*
G02*
X16750500Y-7811000I50000J0D01*
G01*
X16750500Y-8065000D02*
G75*
G02*
X16650500Y-8065000I-50000J0D01*
G01*
X16650500Y-8065000D02*
G75*
G02*
X16750500Y-8065000I50000J0D01*
G01*
X16750500Y-8319500D02*
G75*
G02*
X16650500Y-8319500I-50000J0D01*
G01*
X16650500Y-8319500D02*
G75*
G02*
X16750500Y-8319500I50000J0D01*
G01*
X16750500Y-8573500D02*
G75*
G02*
X16650500Y-8573500I-50000J0D01*
G01*
X16650500Y-8573500D02*
G75*
G02*
X16750500Y-8573500I50000J0D01*
G01*
X16750500Y-9208000D02*
G75*
G02*
X16650500Y-9208000I-50000J0D01*
G01*
X16650500Y-9208000D02*
G75*
G02*
X16750500Y-9208000I50000J0D01*
G01*
X16750500Y-9462000D02*
G75*
G02*
X16650500Y-9462000I-50000J0D01*
G01*
X16650500Y-9462000D02*
G75*
G02*
X16750500Y-9462000I50000J0D01*
G01*
X16750500Y-9716000D02*
G75*
G02*
X16650500Y-9716000I-50000J0D01*
G01*
X16650500Y-9716000D02*
G75*
G02*
X16750500Y-9716000I50000J0D01*
G01*
X16750500Y-9970000D02*
G75*
G02*
X16650500Y-9970000I-50000J0D01*
G01*
X16650500Y-9970000D02*
G75*
G02*
X16750500Y-9970000I50000J0D01*
G01*
X16750500Y-10605000D02*
G75*
G02*
X16650500Y-10605000I-50000J0D01*
G01*
X16650500Y-10605000D02*
G75*
G02*
X16750500Y-10605000I50000J0D01*
G01*
X16750500Y-10859000D02*
G75*
G02*
X16650500Y-10859000I-50000J0D01*
G01*
X16650500Y-10859000D02*
G75*
G02*
X16750500Y-10859000I50000J0D01*
G01*
X16750500Y-11113500D02*
G75*
G02*
X16650500Y-11113500I-50000J0D01*
G01*
X16650500Y-11113500D02*
G75*
G02*
X16750500Y-11113500I50000J0D01*
G01*
X16750500Y-11367500D02*
G75*
G02*
X16650500Y-11367500I-50000J0D01*
G01*
X16650500Y-11367500D02*
G75*
G02*
X16750500Y-11367500I50000J0D01*
G01*
X16750500Y-12002500D02*
G75*
G02*
X16650500Y-12002500I-50000J0D01*
G01*
X16650500Y-12002500D02*
G75*
G02*
X16750500Y-12002500I50000J0D01*
G01*
X16750500Y-12256500D02*
G75*
G02*
X16650500Y-12256500I-50000J0D01*
G01*
X16650500Y-12256500D02*
G75*
G02*
X16750500Y-12256500I50000J0D01*
G01*
X16750500Y-12510500D02*
G75*
G02*
X16650500Y-12510500I-50000J0D01*
G01*
X16650500Y-12510500D02*
G75*
G02*
X16750500Y-12510500I50000J0D01*
G01*
X16750500Y-12764500D02*
G75*
G02*
X16650500Y-12764500I-50000J0D01*
G01*
X16650500Y-12764500D02*
G75*
G02*
X16750500Y-12764500I50000J0D01*
G01*
X17004500Y-13970000D02*
G75*
G02*
X16904500Y-13970000I-50000J0D01*
G01*
X16904500Y-13970000D02*
G75*
G02*
X17004500Y-13970000I50000J0D01*
G01*
X17004500Y-14224000D02*
G75*
G02*
X16904500Y-14224000I-50000J0D01*
G01*
X16904500Y-14224000D02*
G75*
G02*
X17004500Y-14224000I50000J0D01*
G01*
X17512500Y-5016500D02*
G75*
G02*
X17412500Y-5016500I-50000J0D01*
G01*
X17412500Y-5016500D02*
G75*
G02*
X17512500Y-5016500I50000J0D01*
G01*
X17512500Y-5270500D02*
G75*
G02*
X17412500Y-5270500I-50000J0D01*
G01*
X17412500Y-5270500D02*
G75*
G02*
X17512500Y-5270500I50000J0D01*
G01*
X17512500Y-5524500D02*
G75*
G02*
X17412500Y-5524500I-50000J0D01*
G01*
X17412500Y-5524500D02*
G75*
G02*
X17512500Y-5524500I50000J0D01*
G01*
X17512500Y-5778500D02*
G75*
G02*
X17412500Y-5778500I-50000J0D01*
G01*
X17412500Y-5778500D02*
G75*
G02*
X17512500Y-5778500I50000J0D01*
G01*
X17512500Y-6414000D02*
G75*
G02*
X17412500Y-6414000I-50000J0D01*
G01*
X17412500Y-6414000D02*
G75*
G02*
X17512500Y-6414000I50000J0D01*
G01*
X17512500Y-6668000D02*
G75*
G02*
X17412500Y-6668000I-50000J0D01*
G01*
X17412500Y-6668000D02*
G75*
G02*
X17512500Y-6668000I50000J0D01*
G01*
X17512500Y-6922000D02*
G75*
G02*
X17412500Y-6922000I-50000J0D01*
G01*
X17412500Y-6922000D02*
G75*
G02*
X17512500Y-6922000I50000J0D01*
G01*
X17512500Y-7176000D02*
G75*
G02*
X17412500Y-7176000I-50000J0D01*
G01*
X17412500Y-7176000D02*
G75*
G02*
X17512500Y-7176000I50000J0D01*
G01*
X17512500Y-7811000D02*
G75*
G02*
X17412500Y-7811000I-50000J0D01*
G01*
X17412500Y-7811000D02*
G75*
G02*
X17512500Y-7811000I50000J0D01*
G01*
X17512500Y-8065000D02*
G75*
G02*
X17412500Y-8065000I-50000J0D01*
G01*
X17412500Y-8065000D02*
G75*
G02*
X17512500Y-8065000I50000J0D01*
G01*
X17512500Y-8319500D02*
G75*
G02*
X17412500Y-8319500I-50000J0D01*
G01*
X17412500Y-8319500D02*
G75*
G02*
X17512500Y-8319500I50000J0D01*
G01*
X17512500Y-8573500D02*
G75*
G02*
X17412500Y-8573500I-50000J0D01*
G01*
X17412500Y-8573500D02*
G75*
G02*
X17512500Y-8573500I50000J0D01*
G01*
X17512500Y-9208500D02*
G75*
G02*
X17412500Y-9208500I-50000J0D01*
G01*
X17412500Y-9208500D02*
G75*
G02*
X17512500Y-9208500I50000J0D01*
G01*
X17512500Y-9462500D02*
G75*
G02*
X17412500Y-9462500I-50000J0D01*
G01*
X17412500Y-9462500D02*
G75*
G02*
X17512500Y-9462500I50000J0D01*
G01*
X17512500Y-9716500D02*
G75*
G02*
X17412500Y-9716500I-50000J0D01*
G01*
X17412500Y-9716500D02*
G75*
G02*
X17512500Y-9716500I50000J0D01*
G01*
X17512500Y-9970500D02*
G75*
G02*
X17412500Y-9970500I-50000J0D01*
G01*
X17412500Y-9970500D02*
G75*
G02*
X17512500Y-9970500I50000J0D01*
G01*
X17512500Y-10605000D02*
G75*
G02*
X17412500Y-10605000I-50000J0D01*
G01*
X17412500Y-10605000D02*
G75*
G02*
X17512500Y-10605000I50000J0D01*
G01*
X17512500Y-10859000D02*
G75*
G02*
X17412500Y-10859000I-50000J0D01*
G01*
X17412500Y-10859000D02*
G75*
G02*
X17512500Y-10859000I50000J0D01*
G01*
X17512500Y-11113000D02*
G75*
G02*
X17412500Y-11113000I-50000J0D01*
G01*
X17412500Y-11113000D02*
G75*
G02*
X17512500Y-11113000I50000J0D01*
G01*
X17512500Y-11367000D02*
G75*
G02*
X17412500Y-11367000I-50000J0D01*
G01*
X17412500Y-11367000D02*
G75*
G02*
X17512500Y-11367000I50000J0D01*
G01*
X17512500Y-12002500D02*
G75*
G02*
X17412500Y-12002500I-50000J0D01*
G01*
X17412500Y-12002500D02*
G75*
G02*
X17512500Y-12002500I50000J0D01*
G01*
X17512500Y-12256500D02*
G75*
G02*
X17412500Y-12256500I-50000J0D01*
G01*
X17412500Y-12256500D02*
G75*
G02*
X17512500Y-12256500I50000J0D01*
G01*
X17512500Y-12510000D02*
G75*
G02*
X17412500Y-12510000I-50000J0D01*
G01*
X17412500Y-12510000D02*
G75*
G02*
X17512500Y-12510000I50000J0D01*
G01*
X17512500Y-12764000D02*
G75*
G02*
X17412500Y-12764000I-50000J0D01*
G01*
X17412500Y-12764000D02*
G75*
G02*
X17512500Y-12764000I50000J0D01*
G01*
X18274500Y-5016500D02*
G75*
G02*
X18174500Y-5016500I-50000J0D01*
G01*
X18174500Y-5016500D02*
G75*
G02*
X18274500Y-5016500I50000J0D01*
G01*
X18274500Y-5270500D02*
G75*
G02*
X18174500Y-5270500I-50000J0D01*
G01*
X18174500Y-5270500D02*
G75*
G02*
X18274500Y-5270500I50000J0D01*
G01*
X18274500Y-5524500D02*
G75*
G02*
X18174500Y-5524500I-50000J0D01*
G01*
X18174500Y-5524500D02*
G75*
G02*
X18274500Y-5524500I50000J0D01*
G01*
X18274500Y-5778500D02*
G75*
G02*
X18174500Y-5778500I-50000J0D01*
G01*
X18174500Y-5778500D02*
G75*
G02*
X18274500Y-5778500I50000J0D01*
G01*
X18274500Y-6414000D02*
G75*
G02*
X18174500Y-6414000I-50000J0D01*
G01*
X18174500Y-6414000D02*
G75*
G02*
X18274500Y-6414000I50000J0D01*
G01*
X18274500Y-6668000D02*
G75*
G02*
X18174500Y-6668000I-50000J0D01*
G01*
X18174500Y-6668000D02*
G75*
G02*
X18274500Y-6668000I50000J0D01*
G01*
X18274500Y-6922000D02*
G75*
G02*
X18174500Y-6922000I-50000J0D01*
G01*
X18174500Y-6922000D02*
G75*
G02*
X18274500Y-6922000I50000J0D01*
G01*
X18274500Y-7176000D02*
G75*
G02*
X18174500Y-7176000I-50000J0D01*
G01*
X18174500Y-7176000D02*
G75*
G02*
X18274500Y-7176000I50000J0D01*
G01*
X18274500Y-7811000D02*
G75*
G02*
X18174500Y-7811000I-50000J0D01*
G01*
X18174500Y-7811000D02*
G75*
G02*
X18274500Y-7811000I50000J0D01*
G01*
X18274500Y-8065000D02*
G75*
G02*
X18174500Y-8065000I-50000J0D01*
G01*
X18174500Y-8065000D02*
G75*
G02*
X18274500Y-8065000I50000J0D01*
G01*
X18274500Y-8319000D02*
G75*
G02*
X18174500Y-8319000I-50000J0D01*
G01*
X18174500Y-8319000D02*
G75*
G02*
X18274500Y-8319000I50000J0D01*
G01*
X18274500Y-8573000D02*
G75*
G02*
X18174500Y-8573000I-50000J0D01*
G01*
X18174500Y-8573000D02*
G75*
G02*
X18274500Y-8573000I50000J0D01*
G01*
X18274500Y-9208000D02*
G75*
G02*
X18174500Y-9208000I-50000J0D01*
G01*
X18174500Y-9208000D02*
G75*
G02*
X18274500Y-9208000I50000J0D01*
G01*
X18274500Y-9462000D02*
G75*
G02*
X18174500Y-9462000I-50000J0D01*
G01*
X18174500Y-9462000D02*
G75*
G02*
X18274500Y-9462000I50000J0D01*
G01*
X18274500Y-9716500D02*
G75*
G02*
X18174500Y-9716500I-50000J0D01*
G01*
X18174500Y-9716500D02*
G75*
G02*
X18274500Y-9716500I50000J0D01*
G01*
X18274500Y-9970500D02*
G75*
G02*
X18174500Y-9970500I-50000J0D01*
G01*
X18174500Y-9970500D02*
G75*
G02*
X18274500Y-9970500I50000J0D01*
G01*
X18274500Y-10605500D02*
G75*
G02*
X18174500Y-10605500I-50000J0D01*
G01*
X18174500Y-10605500D02*
G75*
G02*
X18274500Y-10605500I50000J0D01*
G01*
X18274500Y-10859500D02*
G75*
G02*
X18174500Y-10859500I-50000J0D01*
G01*
X18174500Y-10859500D02*
G75*
G02*
X18274500Y-10859500I50000J0D01*
G01*
X18274500Y-11113500D02*
G75*
G02*
X18174500Y-11113500I-50000J0D01*
G01*
X18174500Y-11113500D02*
G75*
G02*
X18274500Y-11113500I50000J0D01*
G01*
X18274500Y-11367500D02*
G75*
G02*
X18174500Y-11367500I-50000J0D01*
G01*
X18174500Y-11367500D02*
G75*
G02*
X18274500Y-11367500I50000J0D01*
G01*
X18274500Y-12002000D02*
G75*
G02*
X18174500Y-12002000I-50000J0D01*
G01*
X18174500Y-12002000D02*
G75*
G02*
X18274500Y-12002000I50000J0D01*
G01*
X18274500Y-12256000D02*
G75*
G02*
X18174500Y-12256000I-50000J0D01*
G01*
X18174500Y-12256000D02*
G75*
G02*
X18274500Y-12256000I50000J0D01*
G01*
X18274500Y-12510500D02*
G75*
G02*
X18174500Y-12510500I-50000J0D01*
G01*
X18174500Y-12510500D02*
G75*
G02*
X18274500Y-12510500I50000J0D01*
G01*
X18274500Y-12764500D02*
G75*
G02*
X18174500Y-12764500I-50000J0D01*
G01*
X18174500Y-12764500D02*
G75*
G02*
X18274500Y-12764500I50000J0D01*
G01*
X19036500Y-5016500D02*
G75*
G02*
X18936500Y-5016500I-50000J0D01*
G01*
X18936500Y-5016500D02*
G75*
G02*
X19036500Y-5016500I50000J0D01*
G01*
X19036500Y-5270500D02*
G75*
G02*
X18936500Y-5270500I-50000J0D01*
G01*
X18936500Y-5270500D02*
G75*
G02*
X19036500Y-5270500I50000J0D01*
G01*
X19036500Y-5524500D02*
G75*
G02*
X18936500Y-5524500I-50000J0D01*
G01*
X18936500Y-5524500D02*
G75*
G02*
X19036500Y-5524500I50000J0D01*
G01*
X19036500Y-5778500D02*
G75*
G02*
X18936500Y-5778500I-50000J0D01*
G01*
X18936500Y-5778500D02*
G75*
G02*
X19036500Y-5778500I50000J0D01*
G01*
X19036500Y-6414500D02*
G75*
G02*
X18936500Y-6414500I-50000J0D01*
G01*
X18936500Y-6414500D02*
G75*
G02*
X19036500Y-6414500I50000J0D01*
G01*
X19036500Y-6668500D02*
G75*
G02*
X18936500Y-6668500I-50000J0D01*
G01*
X18936500Y-6668500D02*
G75*
G02*
X19036500Y-6668500I50000J0D01*
G01*
X19036500Y-6922000D02*
G75*
G02*
X18936500Y-6922000I-50000J0D01*
G01*
X18936500Y-6922000D02*
G75*
G02*
X19036500Y-6922000I50000J0D01*
G01*
X19036500Y-7176000D02*
G75*
G02*
X18936500Y-7176000I-50000J0D01*
G01*
X18936500Y-7176000D02*
G75*
G02*
X19036500Y-7176000I50000J0D01*
G01*
X19036500Y-7811500D02*
G75*
G02*
X18936500Y-7811500I-50000J0D01*
G01*
X18936500Y-7811500D02*
G75*
G02*
X19036500Y-7811500I50000J0D01*
G01*
X19036500Y-8065500D02*
G75*
G02*
X18936500Y-8065500I-50000J0D01*
G01*
X18936500Y-8065500D02*
G75*
G02*
X19036500Y-8065500I50000J0D01*
G01*
X19036500Y-8319500D02*
G75*
G02*
X18936500Y-8319500I-50000J0D01*
G01*
X18936500Y-8319500D02*
G75*
G02*
X19036500Y-8319500I50000J0D01*
G01*
X19036500Y-8573500D02*
G75*
G02*
X18936500Y-8573500I-50000J0D01*
G01*
X18936500Y-8573500D02*
G75*
G02*
X19036500Y-8573500I50000J0D01*
G01*
X19036500Y-9208000D02*
G75*
G02*
X18936500Y-9208000I-50000J0D01*
G01*
X18936500Y-9208000D02*
G75*
G02*
X19036500Y-9208000I50000J0D01*
G01*
X19036500Y-9462000D02*
G75*
G02*
X18936500Y-9462000I-50000J0D01*
G01*
X18936500Y-9462000D02*
G75*
G02*
X19036500Y-9462000I50000J0D01*
G01*
X19036500Y-9716000D02*
G75*
G02*
X18936500Y-9716000I-50000J0D01*
G01*
X18936500Y-9716000D02*
G75*
G02*
X19036500Y-9716000I50000J0D01*
G01*
X19036500Y-9970000D02*
G75*
G02*
X18936500Y-9970000I-50000J0D01*
G01*
X18936500Y-9970000D02*
G75*
G02*
X19036500Y-9970000I50000J0D01*
G01*
X19036500Y-10605500D02*
G75*
G02*
X18936500Y-10605500I-50000J0D01*
G01*
X18936500Y-10605500D02*
G75*
G02*
X19036500Y-10605500I50000J0D01*
G01*
X19036500Y-10859500D02*
G75*
G02*
X18936500Y-10859500I-50000J0D01*
G01*
X18936500Y-10859500D02*
G75*
G02*
X19036500Y-10859500I50000J0D01*
G01*
X19036500Y-11113500D02*
G75*
G02*
X18936500Y-11113500I-50000J0D01*
G01*
X18936500Y-11113500D02*
G75*
G02*
X19036500Y-11113500I50000J0D01*
G01*
X19036500Y-11367500D02*
G75*
G02*
X18936500Y-11367500I-50000J0D01*
G01*
X18936500Y-11367500D02*
G75*
G02*
X19036500Y-11367500I50000J0D01*
G01*
X19036500Y-12002000D02*
G75*
G02*
X18936500Y-12002000I-50000J0D01*
G01*
X18936500Y-12002000D02*
G75*
G02*
X19036500Y-12002000I50000J0D01*
G01*
X19036500Y-12256000D02*
G75*
G02*
X18936500Y-12256000I-50000J0D01*
G01*
X18936500Y-12256000D02*
G75*
G02*
X19036500Y-12256000I50000J0D01*
G01*
X19036500Y-12510500D02*
G75*
G02*
X18936500Y-12510500I-50000J0D01*
G01*
X18936500Y-12510500D02*
G75*
G02*
X19036500Y-12510500I50000J0D01*
G01*
X19036500Y-12764500D02*
G75*
G02*
X18936500Y-12764500I-50000J0D01*
G01*
X18936500Y-12764500D02*
G75*
G02*
X19036500Y-12764500I50000J0D01*
G01*
X19798500Y-5016500D02*
G75*
G02*
X19698500Y-5016500I-50000J0D01*
G01*
X19698500Y-5016500D02*
G75*
G02*
X19798500Y-5016500I50000J0D01*
G01*
X19798500Y-5270500D02*
G75*
G02*
X19698500Y-5270500I-50000J0D01*
G01*
X19698500Y-5270500D02*
G75*
G02*
X19798500Y-5270500I50000J0D01*
G01*
X19798500Y-5524500D02*
G75*
G02*
X19698500Y-5524500I-50000J0D01*
G01*
X19698500Y-5524500D02*
G75*
G02*
X19798500Y-5524500I50000J0D01*
G01*
X19798500Y-5778500D02*
G75*
G02*
X19698500Y-5778500I-50000J0D01*
G01*
X19698500Y-5778500D02*
G75*
G02*
X19798500Y-5778500I50000J0D01*
G01*
X19798500Y-6414500D02*
G75*
G02*
X19698500Y-6414500I-50000J0D01*
G01*
X19698500Y-6414500D02*
G75*
G02*
X19798500Y-6414500I50000J0D01*
G01*
X19798500Y-6668500D02*
G75*
G02*
X19698500Y-6668500I-50000J0D01*
G01*
X19698500Y-6668500D02*
G75*
G02*
X19798500Y-6668500I50000J0D01*
G01*
X19798500Y-6922500D02*
G75*
G02*
X19698500Y-6922500I-50000J0D01*
G01*
X19698500Y-6922500D02*
G75*
G02*
X19798500Y-6922500I50000J0D01*
G01*
X19798500Y-7176500D02*
G75*
G02*
X19698500Y-7176500I-50000J0D01*
G01*
X19698500Y-7176500D02*
G75*
G02*
X19798500Y-7176500I50000J0D01*
G01*
X19798500Y-7811000D02*
G75*
G02*
X19698500Y-7811000I-50000J0D01*
G01*
X19698500Y-7811000D02*
G75*
G02*
X19798500Y-7811000I50000J0D01*
G01*
X19798500Y-8065000D02*
G75*
G02*
X19698500Y-8065000I-50000J0D01*
G01*
X19698500Y-8065000D02*
G75*
G02*
X19798500Y-8065000I50000J0D01*
G01*
X19798500Y-8319000D02*
G75*
G02*
X19698500Y-8319000I-50000J0D01*
G01*
X19698500Y-8319000D02*
G75*
G02*
X19798500Y-8319000I50000J0D01*
G01*
X19798500Y-8573000D02*
G75*
G02*
X19698500Y-8573000I-50000J0D01*
G01*
X19698500Y-8573000D02*
G75*
G02*
X19798500Y-8573000I50000J0D01*
G01*
X19798500Y-9208500D02*
G75*
G02*
X19698500Y-9208500I-50000J0D01*
G01*
X19698500Y-9208500D02*
G75*
G02*
X19798500Y-9208500I50000J0D01*
G01*
X19798500Y-9462500D02*
G75*
G02*
X19698500Y-9462500I-50000J0D01*
G01*
X19698500Y-9462500D02*
G75*
G02*
X19798500Y-9462500I50000J0D01*
G01*
X19798500Y-9716000D02*
G75*
G02*
X19698500Y-9716000I-50000J0D01*
G01*
X19698500Y-9716000D02*
G75*
G02*
X19798500Y-9716000I50000J0D01*
G01*
X19798500Y-9970000D02*
G75*
G02*
X19698500Y-9970000I-50000J0D01*
G01*
X19698500Y-9970000D02*
G75*
G02*
X19798500Y-9970000I50000J0D01*
G01*
X19798500Y-10605000D02*
G75*
G02*
X19698500Y-10605000I-50000J0D01*
G01*
X19698500Y-10605000D02*
G75*
G02*
X19798500Y-10605000I50000J0D01*
G01*
X19798500Y-10859000D02*
G75*
G02*
X19698500Y-10859000I-50000J0D01*
G01*
X19698500Y-10859000D02*
G75*
G02*
X19798500Y-10859000I50000J0D01*
G01*
X19798500Y-11113000D02*
G75*
G02*
X19698500Y-11113000I-50000J0D01*
G01*
X19698500Y-11113000D02*
G75*
G02*
X19798500Y-11113000I50000J0D01*
G01*
X19798500Y-11367000D02*
G75*
G02*
X19698500Y-11367000I-50000J0D01*
G01*
X19698500Y-11367000D02*
G75*
G02*
X19798500Y-11367000I50000J0D01*
G01*
X19798500Y-12002000D02*
G75*
G02*
X19698500Y-12002000I-50000J0D01*
G01*
X19698500Y-12002000D02*
G75*
G02*
X19798500Y-12002000I50000J0D01*
G01*
X19798500Y-12256000D02*
G75*
G02*
X19698500Y-12256000I-50000J0D01*
G01*
X19698500Y-12256000D02*
G75*
G02*
X19798500Y-12256000I50000J0D01*
G01*
X19798500Y-12510500D02*
G75*
G02*
X19698500Y-12510500I-50000J0D01*
G01*
X19698500Y-12510500D02*
G75*
G02*
X19798500Y-12510500I50000J0D01*
G01*
X19798500Y-12764500D02*
G75*
G02*
X19698500Y-12764500I-50000J0D01*
G01*
X19698500Y-12764500D02*
G75*
G02*
X19798500Y-12764500I50000J0D01*
G01*
D11*
X10479277Y-14794484D02*
X10479277Y-14594484D01*
X10479277Y-14594484D02*
X10526896Y-14594484D01*
X10526896Y-14594484D02*
X10555467Y-14604008D01*
X10555467Y-14604008D02*
X10574515Y-14623055D01*
X10574515Y-14623055D02*
X10584039Y-14642103D01*
X10584039Y-14642103D02*
X10593563Y-14680198D01*
X10593563Y-14680198D02*
X10593563Y-14708769D01*
X10593563Y-14708769D02*
X10584039Y-14746865D01*
X10584039Y-14746865D02*
X10574515Y-14765912D01*
X10574515Y-14765912D02*
X10555467Y-14784960D01*
X10555467Y-14784960D02*
X10526896Y-14794484D01*
X10526896Y-14794484D02*
X10479277Y-14794484D01*
X10679277Y-14794484D02*
X10679277Y-14661150D01*
X10679277Y-14699246D02*
X10688801Y-14680198D01*
X10688801Y-14680198D02*
X10698324Y-14670674D01*
X10698324Y-14670674D02*
X10717372Y-14661150D01*
X10717372Y-14661150D02*
X10736420Y-14661150D01*
X10803086Y-14794484D02*
X10803086Y-14661150D01*
X10803086Y-14594484D02*
X10793563Y-14604008D01*
X10793563Y-14604008D02*
X10803086Y-14613531D01*
X10803086Y-14613531D02*
X10812610Y-14604008D01*
X10812610Y-14604008D02*
X10803086Y-14594484D01*
X10803086Y-14594484D02*
X10803086Y-14613531D01*
X10926896Y-14794484D02*
X10907848Y-14784960D01*
X10907848Y-14784960D02*
X10898324Y-14765912D01*
X10898324Y-14765912D02*
X10898324Y-14594484D01*
X11031658Y-14794484D02*
X11012610Y-14784960D01*
X11012610Y-14784960D02*
X11003086Y-14765912D01*
X11003086Y-14765912D02*
X11003086Y-14594484D01*
X11260229Y-14794484D02*
X11260229Y-14594484D01*
X11260229Y-14594484D02*
X11326896Y-14737341D01*
X11326896Y-14737341D02*
X11393562Y-14594484D01*
X11393562Y-14594484D02*
X11393562Y-14794484D01*
X11574515Y-14794484D02*
X11574515Y-14689722D01*
X11574515Y-14689722D02*
X11564991Y-14670674D01*
X11564991Y-14670674D02*
X11545943Y-14661150D01*
X11545943Y-14661150D02*
X11507848Y-14661150D01*
X11507848Y-14661150D02*
X11488801Y-14670674D01*
X11574515Y-14784960D02*
X11555467Y-14794484D01*
X11555467Y-14794484D02*
X11507848Y-14794484D01*
X11507848Y-14794484D02*
X11488801Y-14784960D01*
X11488801Y-14784960D02*
X11479277Y-14765912D01*
X11479277Y-14765912D02*
X11479277Y-14746865D01*
X11479277Y-14746865D02*
X11488801Y-14727817D01*
X11488801Y-14727817D02*
X11507848Y-14718293D01*
X11507848Y-14718293D02*
X11555467Y-14718293D01*
X11555467Y-14718293D02*
X11574515Y-14708769D01*
X11669753Y-14661150D02*
X11669753Y-14861150D01*
X11669753Y-14670674D02*
X11688801Y-14661150D01*
X11688801Y-14661150D02*
X11726896Y-14661150D01*
X11726896Y-14661150D02*
X11745943Y-14670674D01*
X11745943Y-14670674D02*
X11755467Y-14680198D01*
X11755467Y-14680198D02*
X11764991Y-14699246D01*
X11764991Y-14699246D02*
X11764991Y-14756388D01*
X11764991Y-14756388D02*
X11755467Y-14775436D01*
X11755467Y-14775436D02*
X11745943Y-14784960D01*
X11745943Y-14784960D02*
X11726896Y-14794484D01*
X11726896Y-14794484D02*
X11688801Y-14794484D01*
X11688801Y-14794484D02*
X11669753Y-14784960D01*
X11850705Y-14775436D02*
X11860229Y-14784960D01*
X11860229Y-14784960D02*
X11850705Y-14794484D01*
X11850705Y-14794484D02*
X11841182Y-14784960D01*
X11841182Y-14784960D02*
X11850705Y-14775436D01*
X11850705Y-14775436D02*
X11850705Y-14794484D01*
X11850705Y-14670674D02*
X11860229Y-14680198D01*
X11860229Y-14680198D02*
X11850705Y-14689722D01*
X11850705Y-14689722D02*
X11841182Y-14680198D01*
X11841182Y-14680198D02*
X11850705Y-14670674D01*
X11850705Y-14670674D02*
X11850705Y-14689722D01*
D10*
X10178500Y-15103000D02*
X10218500Y-15143000D01*
X10218500Y-15103000D02*
X10178500Y-15143000D01*
D11*
X10517372Y-15014484D02*
X10536420Y-15014484D01*
X10536420Y-15014484D02*
X10555467Y-15024008D01*
X10555467Y-15024008D02*
X10564991Y-15033531D01*
X10564991Y-15033531D02*
X10574515Y-15052579D01*
X10574515Y-15052579D02*
X10584039Y-15090674D01*
X10584039Y-15090674D02*
X10584039Y-15138293D01*
X10584039Y-15138293D02*
X10574515Y-15176388D01*
X10574515Y-15176388D02*
X10564991Y-15195436D01*
X10564991Y-15195436D02*
X10555467Y-15204960D01*
X10555467Y-15204960D02*
X10536420Y-15214484D01*
X10536420Y-15214484D02*
X10517372Y-15214484D01*
X10517372Y-15214484D02*
X10498324Y-15204960D01*
X10498324Y-15204960D02*
X10488801Y-15195436D01*
X10488801Y-15195436D02*
X10479277Y-15176388D01*
X10479277Y-15176388D02*
X10469753Y-15138293D01*
X10469753Y-15138293D02*
X10469753Y-15090674D01*
X10469753Y-15090674D02*
X10479277Y-15052579D01*
X10479277Y-15052579D02*
X10488801Y-15033531D01*
X10488801Y-15033531D02*
X10498324Y-15024008D01*
X10498324Y-15024008D02*
X10517372Y-15014484D01*
X10669753Y-15195436D02*
X10679277Y-15204960D01*
X10679277Y-15204960D02*
X10669753Y-15214484D01*
X10669753Y-15214484D02*
X10660229Y-15204960D01*
X10660229Y-15204960D02*
X10669753Y-15195436D01*
X10669753Y-15195436D02*
X10669753Y-15214484D01*
X10850705Y-15081150D02*
X10850705Y-15214484D01*
X10803086Y-15004960D02*
X10755467Y-15147817D01*
X10755467Y-15147817D02*
X10879277Y-15147817D01*
X10993563Y-15014484D02*
X11012610Y-15014484D01*
X11012610Y-15014484D02*
X11031658Y-15024008D01*
X11031658Y-15024008D02*
X11041182Y-15033531D01*
X11041182Y-15033531D02*
X11050705Y-15052579D01*
X11050705Y-15052579D02*
X11060229Y-15090674D01*
X11060229Y-15090674D02*
X11060229Y-15138293D01*
X11060229Y-15138293D02*
X11050705Y-15176388D01*
X11050705Y-15176388D02*
X11041182Y-15195436D01*
X11041182Y-15195436D02*
X11031658Y-15204960D01*
X11031658Y-15204960D02*
X11012610Y-15214484D01*
X11012610Y-15214484D02*
X10993563Y-15214484D01*
X10993563Y-15214484D02*
X10974515Y-15204960D01*
X10974515Y-15204960D02*
X10964991Y-15195436D01*
X10964991Y-15195436D02*
X10955467Y-15176388D01*
X10955467Y-15176388D02*
X10945944Y-15138293D01*
X10945944Y-15138293D02*
X10945944Y-15090674D01*
X10945944Y-15090674D02*
X10955467Y-15052579D01*
X10955467Y-15052579D02*
X10964991Y-15033531D01*
X10964991Y-15033531D02*
X10974515Y-15024008D01*
X10974515Y-15024008D02*
X10993563Y-15014484D01*
X11184039Y-15014484D02*
X11203086Y-15014484D01*
X11203086Y-15014484D02*
X11222134Y-15024008D01*
X11222134Y-15024008D02*
X11231658Y-15033531D01*
X11231658Y-15033531D02*
X11241182Y-15052579D01*
X11241182Y-15052579D02*
X11250705Y-15090674D01*
X11250705Y-15090674D02*
X11250705Y-15138293D01*
X11250705Y-15138293D02*
X11241182Y-15176388D01*
X11241182Y-15176388D02*
X11231658Y-15195436D01*
X11231658Y-15195436D02*
X11222134Y-15204960D01*
X11222134Y-15204960D02*
X11203086Y-15214484D01*
X11203086Y-15214484D02*
X11184039Y-15214484D01*
X11184039Y-15214484D02*
X11164991Y-15204960D01*
X11164991Y-15204960D02*
X11155467Y-15195436D01*
X11155467Y-15195436D02*
X11145944Y-15176388D01*
X11145944Y-15176388D02*
X11136420Y-15138293D01*
X11136420Y-15138293D02*
X11136420Y-15090674D01*
X11136420Y-15090674D02*
X11145944Y-15052579D01*
X11145944Y-15052579D02*
X11155467Y-15033531D01*
X11155467Y-15033531D02*
X11164991Y-15024008D01*
X11164991Y-15024008D02*
X11184039Y-15014484D01*
X11336420Y-15214484D02*
X11336420Y-15081150D01*
X11336420Y-15100198D02*
X11345943Y-15090674D01*
X11345943Y-15090674D02*
X11364991Y-15081150D01*
X11364991Y-15081150D02*
X11393563Y-15081150D01*
X11393563Y-15081150D02*
X11412610Y-15090674D01*
X11412610Y-15090674D02*
X11422134Y-15109722D01*
X11422134Y-15109722D02*
X11422134Y-15214484D01*
X11422134Y-15109722D02*
X11431658Y-15090674D01*
X11431658Y-15090674D02*
X11450705Y-15081150D01*
X11450705Y-15081150D02*
X11479277Y-15081150D01*
X11479277Y-15081150D02*
X11498324Y-15090674D01*
X11498324Y-15090674D02*
X11507848Y-15109722D01*
X11507848Y-15109722D02*
X11507848Y-15214484D01*
X11603086Y-15214484D02*
X11603086Y-15081150D01*
X11603086Y-15100198D02*
X11612610Y-15090674D01*
X11612610Y-15090674D02*
X11631658Y-15081150D01*
X11631658Y-15081150D02*
X11660229Y-15081150D01*
X11660229Y-15081150D02*
X11679277Y-15090674D01*
X11679277Y-15090674D02*
X11688801Y-15109722D01*
X11688801Y-15109722D02*
X11688801Y-15214484D01*
X11688801Y-15109722D02*
X11698324Y-15090674D01*
X11698324Y-15090674D02*
X11717372Y-15081150D01*
X11717372Y-15081150D02*
X11745943Y-15081150D01*
X11745943Y-15081150D02*
X11764991Y-15090674D01*
X11764991Y-15090674D02*
X11774515Y-15109722D01*
X11774515Y-15109722D02*
X11774515Y-15214484D01*
X12164991Y-15004960D02*
X11993563Y-15262103D01*
X12422134Y-15014484D02*
X12441182Y-15014484D01*
X12441182Y-15014484D02*
X12460229Y-15024008D01*
X12460229Y-15024008D02*
X12469753Y-15033531D01*
X12469753Y-15033531D02*
X12479277Y-15052579D01*
X12479277Y-15052579D02*
X12488801Y-15090674D01*
X12488801Y-15090674D02*
X12488801Y-15138293D01*
X12488801Y-15138293D02*
X12479277Y-15176388D01*
X12479277Y-15176388D02*
X12469753Y-15195436D01*
X12469753Y-15195436D02*
X12460229Y-15204960D01*
X12460229Y-15204960D02*
X12441182Y-15214484D01*
X12441182Y-15214484D02*
X12422134Y-15214484D01*
X12422134Y-15214484D02*
X12403086Y-15204960D01*
X12403086Y-15204960D02*
X12393563Y-15195436D01*
X12393563Y-15195436D02*
X12384039Y-15176388D01*
X12384039Y-15176388D02*
X12374515Y-15138293D01*
X12374515Y-15138293D02*
X12374515Y-15090674D01*
X12374515Y-15090674D02*
X12384039Y-15052579D01*
X12384039Y-15052579D02*
X12393563Y-15033531D01*
X12393563Y-15033531D02*
X12403086Y-15024008D01*
X12403086Y-15024008D02*
X12422134Y-15014484D01*
X12574515Y-15195436D02*
X12584039Y-15204960D01*
X12584039Y-15204960D02*
X12574515Y-15214484D01*
X12574515Y-15214484D02*
X12564991Y-15204960D01*
X12564991Y-15204960D02*
X12574515Y-15195436D01*
X12574515Y-15195436D02*
X12574515Y-15214484D01*
X12707848Y-15014484D02*
X12726896Y-15014484D01*
X12726896Y-15014484D02*
X12745944Y-15024008D01*
X12745944Y-15024008D02*
X12755467Y-15033531D01*
X12755467Y-15033531D02*
X12764991Y-15052579D01*
X12764991Y-15052579D02*
X12774515Y-15090674D01*
X12774515Y-15090674D02*
X12774515Y-15138293D01*
X12774515Y-15138293D02*
X12764991Y-15176388D01*
X12764991Y-15176388D02*
X12755467Y-15195436D01*
X12755467Y-15195436D02*
X12745944Y-15204960D01*
X12745944Y-15204960D02*
X12726896Y-15214484D01*
X12726896Y-15214484D02*
X12707848Y-15214484D01*
X12707848Y-15214484D02*
X12688801Y-15204960D01*
X12688801Y-15204960D02*
X12679277Y-15195436D01*
X12679277Y-15195436D02*
X12669753Y-15176388D01*
X12669753Y-15176388D02*
X12660229Y-15138293D01*
X12660229Y-15138293D02*
X12660229Y-15090674D01*
X12660229Y-15090674D02*
X12669753Y-15052579D01*
X12669753Y-15052579D02*
X12679277Y-15033531D01*
X12679277Y-15033531D02*
X12688801Y-15024008D01*
X12688801Y-15024008D02*
X12707848Y-15014484D01*
X12964991Y-15214484D02*
X12850706Y-15214484D01*
X12907848Y-15214484D02*
X12907848Y-15014484D01*
X12907848Y-15014484D02*
X12888801Y-15043055D01*
X12888801Y-15043055D02*
X12869753Y-15062103D01*
X12869753Y-15062103D02*
X12850706Y-15071627D01*
X13145944Y-15014484D02*
X13050706Y-15014484D01*
X13050706Y-15014484D02*
X13041182Y-15109722D01*
X13041182Y-15109722D02*
X13050706Y-15100198D01*
X13050706Y-15100198D02*
X13069753Y-15090674D01*
X13069753Y-15090674D02*
X13117372Y-15090674D01*
X13117372Y-15090674D02*
X13136420Y-15100198D01*
X13136420Y-15100198D02*
X13145944Y-15109722D01*
X13145944Y-15109722D02*
X13155467Y-15128769D01*
X13155467Y-15128769D02*
X13155467Y-15176388D01*
X13155467Y-15176388D02*
X13145944Y-15195436D01*
X13145944Y-15195436D02*
X13136420Y-15204960D01*
X13136420Y-15204960D02*
X13117372Y-15214484D01*
X13117372Y-15214484D02*
X13069753Y-15214484D01*
X13069753Y-15214484D02*
X13050706Y-15204960D01*
X13050706Y-15204960D02*
X13041182Y-15195436D01*
X13222134Y-15014484D02*
X13355467Y-15014484D01*
X13355467Y-15014484D02*
X13269753Y-15214484D01*
X13422134Y-15014484D02*
X13422134Y-15052579D01*
X13498325Y-15014484D02*
X13498325Y-15052579D01*
X13793563Y-15290674D02*
X13784039Y-15281150D01*
X13784039Y-15281150D02*
X13764991Y-15252579D01*
X13764991Y-15252579D02*
X13755468Y-15233531D01*
X13755468Y-15233531D02*
X13745944Y-15204960D01*
X13745944Y-15204960D02*
X13736420Y-15157341D01*
X13736420Y-15157341D02*
X13736420Y-15119246D01*
X13736420Y-15119246D02*
X13745944Y-15071627D01*
X13745944Y-15071627D02*
X13755468Y-15043055D01*
X13755468Y-15043055D02*
X13764991Y-15024008D01*
X13764991Y-15024008D02*
X13784039Y-14995436D01*
X13784039Y-14995436D02*
X13793563Y-14985912D01*
X13850706Y-15014484D02*
X13974515Y-15014484D01*
X13974515Y-15014484D02*
X13907848Y-15090674D01*
X13907848Y-15090674D02*
X13936420Y-15090674D01*
X13936420Y-15090674D02*
X13955468Y-15100198D01*
X13955468Y-15100198D02*
X13964991Y-15109722D01*
X13964991Y-15109722D02*
X13974515Y-15128769D01*
X13974515Y-15128769D02*
X13974515Y-15176388D01*
X13974515Y-15176388D02*
X13964991Y-15195436D01*
X13964991Y-15195436D02*
X13955468Y-15204960D01*
X13955468Y-15204960D02*
X13936420Y-15214484D01*
X13936420Y-15214484D02*
X13879277Y-15214484D01*
X13879277Y-15214484D02*
X13860229Y-15204960D01*
X13860229Y-15204960D02*
X13850706Y-15195436D01*
X14050706Y-15033531D02*
X14060229Y-15024008D01*
X14060229Y-15024008D02*
X14079277Y-15014484D01*
X14079277Y-15014484D02*
X14126896Y-15014484D01*
X14126896Y-15014484D02*
X14145944Y-15024008D01*
X14145944Y-15024008D02*
X14155468Y-15033531D01*
X14155468Y-15033531D02*
X14164991Y-15052579D01*
X14164991Y-15052579D02*
X14164991Y-15071627D01*
X14164991Y-15071627D02*
X14155468Y-15100198D01*
X14155468Y-15100198D02*
X14041182Y-15214484D01*
X14041182Y-15214484D02*
X14164991Y-15214484D01*
X14403087Y-15214484D02*
X14403087Y-15014484D01*
X14488801Y-15214484D02*
X14488801Y-15109722D01*
X14488801Y-15109722D02*
X14479277Y-15090674D01*
X14479277Y-15090674D02*
X14460230Y-15081150D01*
X14460230Y-15081150D02*
X14431658Y-15081150D01*
X14431658Y-15081150D02*
X14412610Y-15090674D01*
X14412610Y-15090674D02*
X14403087Y-15100198D01*
X14612610Y-15214484D02*
X14593563Y-15204960D01*
X14593563Y-15204960D02*
X14584039Y-15195436D01*
X14584039Y-15195436D02*
X14574515Y-15176388D01*
X14574515Y-15176388D02*
X14574515Y-15119246D01*
X14574515Y-15119246D02*
X14584039Y-15100198D01*
X14584039Y-15100198D02*
X14593563Y-15090674D01*
X14593563Y-15090674D02*
X14612610Y-15081150D01*
X14612610Y-15081150D02*
X14641182Y-15081150D01*
X14641182Y-15081150D02*
X14660230Y-15090674D01*
X14660230Y-15090674D02*
X14669753Y-15100198D01*
X14669753Y-15100198D02*
X14679277Y-15119246D01*
X14679277Y-15119246D02*
X14679277Y-15176388D01*
X14679277Y-15176388D02*
X14669753Y-15195436D01*
X14669753Y-15195436D02*
X14660230Y-15204960D01*
X14660230Y-15204960D02*
X14641182Y-15214484D01*
X14641182Y-15214484D02*
X14612610Y-15214484D01*
X14793563Y-15214484D02*
X14774515Y-15204960D01*
X14774515Y-15204960D02*
X14764991Y-15185912D01*
X14764991Y-15185912D02*
X14764991Y-15014484D01*
X14945944Y-15204960D02*
X14926896Y-15214484D01*
X14926896Y-15214484D02*
X14888801Y-15214484D01*
X14888801Y-15214484D02*
X14869753Y-15204960D01*
X14869753Y-15204960D02*
X14860230Y-15185912D01*
X14860230Y-15185912D02*
X14860230Y-15109722D01*
X14860230Y-15109722D02*
X14869753Y-15090674D01*
X14869753Y-15090674D02*
X14888801Y-15081150D01*
X14888801Y-15081150D02*
X14926896Y-15081150D01*
X14926896Y-15081150D02*
X14945944Y-15090674D01*
X14945944Y-15090674D02*
X14955468Y-15109722D01*
X14955468Y-15109722D02*
X14955468Y-15128769D01*
X14955468Y-15128769D02*
X14860230Y-15147817D01*
X15031658Y-15204960D02*
X15050706Y-15214484D01*
X15050706Y-15214484D02*
X15088801Y-15214484D01*
X15088801Y-15214484D02*
X15107849Y-15204960D01*
X15107849Y-15204960D02*
X15117372Y-15185912D01*
X15117372Y-15185912D02*
X15117372Y-15176388D01*
X15117372Y-15176388D02*
X15107849Y-15157341D01*
X15107849Y-15157341D02*
X15088801Y-15147817D01*
X15088801Y-15147817D02*
X15060230Y-15147817D01*
X15060230Y-15147817D02*
X15041182Y-15138293D01*
X15041182Y-15138293D02*
X15031658Y-15119246D01*
X15031658Y-15119246D02*
X15031658Y-15109722D01*
X15031658Y-15109722D02*
X15041182Y-15090674D01*
X15041182Y-15090674D02*
X15060230Y-15081150D01*
X15060230Y-15081150D02*
X15088801Y-15081150D01*
X15088801Y-15081150D02*
X15107849Y-15090674D01*
X15184039Y-15290674D02*
X15193563Y-15281150D01*
X15193563Y-15281150D02*
X15212611Y-15252579D01*
X15212611Y-15252579D02*
X15222134Y-15233531D01*
X15222134Y-15233531D02*
X15231658Y-15204960D01*
X15231658Y-15204960D02*
X15241182Y-15157341D01*
X15241182Y-15157341D02*
X15241182Y-15119246D01*
X15241182Y-15119246D02*
X15231658Y-15071627D01*
X15231658Y-15071627D02*
X15222134Y-15043055D01*
X15222134Y-15043055D02*
X15212611Y-15024008D01*
X15212611Y-15024008D02*
X15193563Y-14995436D01*
X15193563Y-14995436D02*
X15184039Y-14985912D01*
D10*
X10218500Y-15387000D02*
G75*
G02*
X10118500Y-15387000I-50000J0D01*
G01*
X10118500Y-15387000D02*
G75*
G02*
X10218500Y-15387000I50000J0D01*
G01*
D11*
X10584039Y-15478484D02*
X10469753Y-15478484D01*
X10526896Y-15478484D02*
X10526896Y-15278484D01*
X10526896Y-15278484D02*
X10507848Y-15307055D01*
X10507848Y-15307055D02*
X10488801Y-15326103D01*
X10488801Y-15326103D02*
X10469753Y-15335627D01*
X10669753Y-15459436D02*
X10679277Y-15468960D01*
X10679277Y-15468960D02*
X10669753Y-15478484D01*
X10669753Y-15478484D02*
X10660229Y-15468960D01*
X10660229Y-15468960D02*
X10669753Y-15459436D01*
X10669753Y-15459436D02*
X10669753Y-15478484D01*
X10803086Y-15278484D02*
X10822134Y-15278484D01*
X10822134Y-15278484D02*
X10841182Y-15288008D01*
X10841182Y-15288008D02*
X10850705Y-15297531D01*
X10850705Y-15297531D02*
X10860229Y-15316579D01*
X10860229Y-15316579D02*
X10869753Y-15354674D01*
X10869753Y-15354674D02*
X10869753Y-15402293D01*
X10869753Y-15402293D02*
X10860229Y-15440388D01*
X10860229Y-15440388D02*
X10850705Y-15459436D01*
X10850705Y-15459436D02*
X10841182Y-15468960D01*
X10841182Y-15468960D02*
X10822134Y-15478484D01*
X10822134Y-15478484D02*
X10803086Y-15478484D01*
X10803086Y-15478484D02*
X10784039Y-15468960D01*
X10784039Y-15468960D02*
X10774515Y-15459436D01*
X10774515Y-15459436D02*
X10764991Y-15440388D01*
X10764991Y-15440388D02*
X10755467Y-15402293D01*
X10755467Y-15402293D02*
X10755467Y-15354674D01*
X10755467Y-15354674D02*
X10764991Y-15316579D01*
X10764991Y-15316579D02*
X10774515Y-15297531D01*
X10774515Y-15297531D02*
X10784039Y-15288008D01*
X10784039Y-15288008D02*
X10803086Y-15278484D01*
X10993563Y-15278484D02*
X11012610Y-15278484D01*
X11012610Y-15278484D02*
X11031658Y-15288008D01*
X11031658Y-15288008D02*
X11041182Y-15297531D01*
X11041182Y-15297531D02*
X11050705Y-15316579D01*
X11050705Y-15316579D02*
X11060229Y-15354674D01*
X11060229Y-15354674D02*
X11060229Y-15402293D01*
X11060229Y-15402293D02*
X11050705Y-15440388D01*
X11050705Y-15440388D02*
X11041182Y-15459436D01*
X11041182Y-15459436D02*
X11031658Y-15468960D01*
X11031658Y-15468960D02*
X11012610Y-15478484D01*
X11012610Y-15478484D02*
X10993563Y-15478484D01*
X10993563Y-15478484D02*
X10974515Y-15468960D01*
X10974515Y-15468960D02*
X10964991Y-15459436D01*
X10964991Y-15459436D02*
X10955467Y-15440388D01*
X10955467Y-15440388D02*
X10945944Y-15402293D01*
X10945944Y-15402293D02*
X10945944Y-15354674D01*
X10945944Y-15354674D02*
X10955467Y-15316579D01*
X10955467Y-15316579D02*
X10964991Y-15297531D01*
X10964991Y-15297531D02*
X10974515Y-15288008D01*
X10974515Y-15288008D02*
X10993563Y-15278484D01*
X11184039Y-15278484D02*
X11203086Y-15278484D01*
X11203086Y-15278484D02*
X11222134Y-15288008D01*
X11222134Y-15288008D02*
X11231658Y-15297531D01*
X11231658Y-15297531D02*
X11241182Y-15316579D01*
X11241182Y-15316579D02*
X11250705Y-15354674D01*
X11250705Y-15354674D02*
X11250705Y-15402293D01*
X11250705Y-15402293D02*
X11241182Y-15440388D01*
X11241182Y-15440388D02*
X11231658Y-15459436D01*
X11231658Y-15459436D02*
X11222134Y-15468960D01*
X11222134Y-15468960D02*
X11203086Y-15478484D01*
X11203086Y-15478484D02*
X11184039Y-15478484D01*
X11184039Y-15478484D02*
X11164991Y-15468960D01*
X11164991Y-15468960D02*
X11155467Y-15459436D01*
X11155467Y-15459436D02*
X11145944Y-15440388D01*
X11145944Y-15440388D02*
X11136420Y-15402293D01*
X11136420Y-15402293D02*
X11136420Y-15354674D01*
X11136420Y-15354674D02*
X11145944Y-15316579D01*
X11145944Y-15316579D02*
X11155467Y-15297531D01*
X11155467Y-15297531D02*
X11164991Y-15288008D01*
X11164991Y-15288008D02*
X11184039Y-15278484D01*
X11336420Y-15478484D02*
X11336420Y-15345150D01*
X11336420Y-15364198D02*
X11345943Y-15354674D01*
X11345943Y-15354674D02*
X11364991Y-15345150D01*
X11364991Y-15345150D02*
X11393563Y-15345150D01*
X11393563Y-15345150D02*
X11412610Y-15354674D01*
X11412610Y-15354674D02*
X11422134Y-15373722D01*
X11422134Y-15373722D02*
X11422134Y-15478484D01*
X11422134Y-15373722D02*
X11431658Y-15354674D01*
X11431658Y-15354674D02*
X11450705Y-15345150D01*
X11450705Y-15345150D02*
X11479277Y-15345150D01*
X11479277Y-15345150D02*
X11498324Y-15354674D01*
X11498324Y-15354674D02*
X11507848Y-15373722D01*
X11507848Y-15373722D02*
X11507848Y-15478484D01*
X11603086Y-15478484D02*
X11603086Y-15345150D01*
X11603086Y-15364198D02*
X11612610Y-15354674D01*
X11612610Y-15354674D02*
X11631658Y-15345150D01*
X11631658Y-15345150D02*
X11660229Y-15345150D01*
X11660229Y-15345150D02*
X11679277Y-15354674D01*
X11679277Y-15354674D02*
X11688801Y-15373722D01*
X11688801Y-15373722D02*
X11688801Y-15478484D01*
X11688801Y-15373722D02*
X11698324Y-15354674D01*
X11698324Y-15354674D02*
X11717372Y-15345150D01*
X11717372Y-15345150D02*
X11745943Y-15345150D01*
X11745943Y-15345150D02*
X11764991Y-15354674D01*
X11764991Y-15354674D02*
X11774515Y-15373722D01*
X11774515Y-15373722D02*
X11774515Y-15478484D01*
X12164991Y-15268960D02*
X11993563Y-15526103D01*
X12422134Y-15278484D02*
X12441182Y-15278484D01*
X12441182Y-15278484D02*
X12460229Y-15288008D01*
X12460229Y-15288008D02*
X12469753Y-15297531D01*
X12469753Y-15297531D02*
X12479277Y-15316579D01*
X12479277Y-15316579D02*
X12488801Y-15354674D01*
X12488801Y-15354674D02*
X12488801Y-15402293D01*
X12488801Y-15402293D02*
X12479277Y-15440388D01*
X12479277Y-15440388D02*
X12469753Y-15459436D01*
X12469753Y-15459436D02*
X12460229Y-15468960D01*
X12460229Y-15468960D02*
X12441182Y-15478484D01*
X12441182Y-15478484D02*
X12422134Y-15478484D01*
X12422134Y-15478484D02*
X12403086Y-15468960D01*
X12403086Y-15468960D02*
X12393563Y-15459436D01*
X12393563Y-15459436D02*
X12384039Y-15440388D01*
X12384039Y-15440388D02*
X12374515Y-15402293D01*
X12374515Y-15402293D02*
X12374515Y-15354674D01*
X12374515Y-15354674D02*
X12384039Y-15316579D01*
X12384039Y-15316579D02*
X12393563Y-15297531D01*
X12393563Y-15297531D02*
X12403086Y-15288008D01*
X12403086Y-15288008D02*
X12422134Y-15278484D01*
X12574515Y-15459436D02*
X12584039Y-15468960D01*
X12584039Y-15468960D02*
X12574515Y-15478484D01*
X12574515Y-15478484D02*
X12564991Y-15468960D01*
X12564991Y-15468960D02*
X12574515Y-15459436D01*
X12574515Y-15459436D02*
X12574515Y-15478484D01*
X12707848Y-15278484D02*
X12726896Y-15278484D01*
X12726896Y-15278484D02*
X12745944Y-15288008D01*
X12745944Y-15288008D02*
X12755467Y-15297531D01*
X12755467Y-15297531D02*
X12764991Y-15316579D01*
X12764991Y-15316579D02*
X12774515Y-15354674D01*
X12774515Y-15354674D02*
X12774515Y-15402293D01*
X12774515Y-15402293D02*
X12764991Y-15440388D01*
X12764991Y-15440388D02*
X12755467Y-15459436D01*
X12755467Y-15459436D02*
X12745944Y-15468960D01*
X12745944Y-15468960D02*
X12726896Y-15478484D01*
X12726896Y-15478484D02*
X12707848Y-15478484D01*
X12707848Y-15478484D02*
X12688801Y-15468960D01*
X12688801Y-15468960D02*
X12679277Y-15459436D01*
X12679277Y-15459436D02*
X12669753Y-15440388D01*
X12669753Y-15440388D02*
X12660229Y-15402293D01*
X12660229Y-15402293D02*
X12660229Y-15354674D01*
X12660229Y-15354674D02*
X12669753Y-15316579D01*
X12669753Y-15316579D02*
X12679277Y-15297531D01*
X12679277Y-15297531D02*
X12688801Y-15288008D01*
X12688801Y-15288008D02*
X12707848Y-15278484D01*
X12841182Y-15278484D02*
X12964991Y-15278484D01*
X12964991Y-15278484D02*
X12898325Y-15354674D01*
X12898325Y-15354674D02*
X12926896Y-15354674D01*
X12926896Y-15354674D02*
X12945944Y-15364198D01*
X12945944Y-15364198D02*
X12955467Y-15373722D01*
X12955467Y-15373722D02*
X12964991Y-15392769D01*
X12964991Y-15392769D02*
X12964991Y-15440388D01*
X12964991Y-15440388D02*
X12955467Y-15459436D01*
X12955467Y-15459436D02*
X12945944Y-15468960D01*
X12945944Y-15468960D02*
X12926896Y-15478484D01*
X12926896Y-15478484D02*
X12869753Y-15478484D01*
X12869753Y-15478484D02*
X12850706Y-15468960D01*
X12850706Y-15468960D02*
X12841182Y-15459436D01*
X13060229Y-15478484D02*
X13098325Y-15478484D01*
X13098325Y-15478484D02*
X13117372Y-15468960D01*
X13117372Y-15468960D02*
X13126896Y-15459436D01*
X13126896Y-15459436D02*
X13145944Y-15430865D01*
X13145944Y-15430865D02*
X13155467Y-15392769D01*
X13155467Y-15392769D02*
X13155467Y-15316579D01*
X13155467Y-15316579D02*
X13145944Y-15297531D01*
X13145944Y-15297531D02*
X13136420Y-15288008D01*
X13136420Y-15288008D02*
X13117372Y-15278484D01*
X13117372Y-15278484D02*
X13079277Y-15278484D01*
X13079277Y-15278484D02*
X13060229Y-15288008D01*
X13060229Y-15288008D02*
X13050706Y-15297531D01*
X13050706Y-15297531D02*
X13041182Y-15316579D01*
X13041182Y-15316579D02*
X13041182Y-15364198D01*
X13041182Y-15364198D02*
X13050706Y-15383246D01*
X13050706Y-15383246D02*
X13060229Y-15392769D01*
X13060229Y-15392769D02*
X13079277Y-15402293D01*
X13079277Y-15402293D02*
X13117372Y-15402293D01*
X13117372Y-15402293D02*
X13136420Y-15392769D01*
X13136420Y-15392769D02*
X13145944Y-15383246D01*
X13145944Y-15383246D02*
X13155467Y-15364198D01*
X13326896Y-15345150D02*
X13326896Y-15478484D01*
X13279277Y-15268960D02*
X13231658Y-15411817D01*
X13231658Y-15411817D02*
X13355467Y-15411817D01*
X13422134Y-15278484D02*
X13422134Y-15316579D01*
X13498325Y-15278484D02*
X13498325Y-15316579D01*
X13793563Y-15554674D02*
X13784039Y-15545150D01*
X13784039Y-15545150D02*
X13764991Y-15516579D01*
X13764991Y-15516579D02*
X13755468Y-15497531D01*
X13755468Y-15497531D02*
X13745944Y-15468960D01*
X13745944Y-15468960D02*
X13736420Y-15421341D01*
X13736420Y-15421341D02*
X13736420Y-15383246D01*
X13736420Y-15383246D02*
X13745944Y-15335627D01*
X13745944Y-15335627D02*
X13755468Y-15307055D01*
X13755468Y-15307055D02*
X13764991Y-15288008D01*
X13764991Y-15288008D02*
X13784039Y-15259436D01*
X13784039Y-15259436D02*
X13793563Y-15249912D01*
X13850706Y-15278484D02*
X13974515Y-15278484D01*
X13974515Y-15278484D02*
X13907848Y-15354674D01*
X13907848Y-15354674D02*
X13936420Y-15354674D01*
X13936420Y-15354674D02*
X13955468Y-15364198D01*
X13955468Y-15364198D02*
X13964991Y-15373722D01*
X13964991Y-15373722D02*
X13974515Y-15392769D01*
X13974515Y-15392769D02*
X13974515Y-15440388D01*
X13974515Y-15440388D02*
X13964991Y-15459436D01*
X13964991Y-15459436D02*
X13955468Y-15468960D01*
X13955468Y-15468960D02*
X13936420Y-15478484D01*
X13936420Y-15478484D02*
X13879277Y-15478484D01*
X13879277Y-15478484D02*
X13860229Y-15468960D01*
X13860229Y-15468960D02*
X13850706Y-15459436D01*
X14164991Y-15478484D02*
X14050706Y-15478484D01*
X14107848Y-15478484D02*
X14107848Y-15278484D01*
X14107848Y-15278484D02*
X14088801Y-15307055D01*
X14088801Y-15307055D02*
X14069753Y-15326103D01*
X14069753Y-15326103D02*
X14050706Y-15335627D01*
X14336420Y-15345150D02*
X14336420Y-15478484D01*
X14288801Y-15268960D02*
X14241182Y-15411817D01*
X14241182Y-15411817D02*
X14364991Y-15411817D01*
X14593563Y-15478484D02*
X14593563Y-15278484D01*
X14679277Y-15478484D02*
X14679277Y-15373722D01*
X14679277Y-15373722D02*
X14669753Y-15354674D01*
X14669753Y-15354674D02*
X14650706Y-15345150D01*
X14650706Y-15345150D02*
X14622134Y-15345150D01*
X14622134Y-15345150D02*
X14603087Y-15354674D01*
X14603087Y-15354674D02*
X14593563Y-15364198D01*
X14803087Y-15478484D02*
X14784039Y-15468960D01*
X14784039Y-15468960D02*
X14774515Y-15459436D01*
X14774515Y-15459436D02*
X14764991Y-15440388D01*
X14764991Y-15440388D02*
X14764991Y-15383246D01*
X14764991Y-15383246D02*
X14774515Y-15364198D01*
X14774515Y-15364198D02*
X14784039Y-15354674D01*
X14784039Y-15354674D02*
X14803087Y-15345150D01*
X14803087Y-15345150D02*
X14831658Y-15345150D01*
X14831658Y-15345150D02*
X14850706Y-15354674D01*
X14850706Y-15354674D02*
X14860230Y-15364198D01*
X14860230Y-15364198D02*
X14869753Y-15383246D01*
X14869753Y-15383246D02*
X14869753Y-15440388D01*
X14869753Y-15440388D02*
X14860230Y-15459436D01*
X14860230Y-15459436D02*
X14850706Y-15468960D01*
X14850706Y-15468960D02*
X14831658Y-15478484D01*
X14831658Y-15478484D02*
X14803087Y-15478484D01*
X14984039Y-15478484D02*
X14964991Y-15468960D01*
X14964991Y-15468960D02*
X14955468Y-15449912D01*
X14955468Y-15449912D02*
X14955468Y-15278484D01*
X15136420Y-15468960D02*
X15117372Y-15478484D01*
X15117372Y-15478484D02*
X15079277Y-15478484D01*
X15079277Y-15478484D02*
X15060230Y-15468960D01*
X15060230Y-15468960D02*
X15050706Y-15449912D01*
X15050706Y-15449912D02*
X15050706Y-15373722D01*
X15050706Y-15373722D02*
X15060230Y-15354674D01*
X15060230Y-15354674D02*
X15079277Y-15345150D01*
X15079277Y-15345150D02*
X15117372Y-15345150D01*
X15117372Y-15345150D02*
X15136420Y-15354674D01*
X15136420Y-15354674D02*
X15145944Y-15373722D01*
X15145944Y-15373722D02*
X15145944Y-15392769D01*
X15145944Y-15392769D02*
X15050706Y-15411817D01*
X15222134Y-15468960D02*
X15241182Y-15478484D01*
X15241182Y-15478484D02*
X15279277Y-15478484D01*
X15279277Y-15478484D02*
X15298325Y-15468960D01*
X15298325Y-15468960D02*
X15307849Y-15449912D01*
X15307849Y-15449912D02*
X15307849Y-15440388D01*
X15307849Y-15440388D02*
X15298325Y-15421341D01*
X15298325Y-15421341D02*
X15279277Y-15411817D01*
X15279277Y-15411817D02*
X15250706Y-15411817D01*
X15250706Y-15411817D02*
X15231658Y-15402293D01*
X15231658Y-15402293D02*
X15222134Y-15383246D01*
X15222134Y-15383246D02*
X15222134Y-15373722D01*
X15222134Y-15373722D02*
X15231658Y-15354674D01*
X15231658Y-15354674D02*
X15250706Y-15345150D01*
X15250706Y-15345150D02*
X15279277Y-15345150D01*
X15279277Y-15345150D02*
X15298325Y-15354674D01*
X15374515Y-15554674D02*
X15384039Y-15545150D01*
X15384039Y-15545150D02*
X15403087Y-15516579D01*
X15403087Y-15516579D02*
X15412611Y-15497531D01*
X15412611Y-15497531D02*
X15422134Y-15468960D01*
X15422134Y-15468960D02*
X15431658Y-15421341D01*
X15431658Y-15421341D02*
X15431658Y-15383246D01*
X15431658Y-15383246D02*
X15422134Y-15335627D01*
X15422134Y-15335627D02*
X15412611Y-15307055D01*
X15412611Y-15307055D02*
X15403087Y-15288008D01*
X15403087Y-15288008D02*
X15384039Y-15259436D01*
X15384039Y-15259436D02*
X15374515Y-15249912D01*
M02*
